M48
; DRILL file {KiCad (7.0.0)} date Mon Apr  3 15:53:06 2023
; FORMAT={-:-/ absolute / inch / decimal}
; #@! TF.CreationDate,2023-04-03T15:53:06+02:00
; #@! TF.GenerationSoftware,Kicad,Pcbnew,(7.0.0)
; #@! TF.FileFunction,Plated,1,2,PTH
FMAT,2
INCH
; #@! TA.AperFunction,Plated,PTH,ViaDrill
T1C0.0157
; #@! TA.AperFunction,Plated,PTH,ComponentDrill
T2C0.0197
; #@! TA.AperFunction,Plated,PTH,ComponentDrill
T3C0.0276
; #@! TA.AperFunction,Plated,PTH,ComponentDrill
T4C0.0394
; #@! TA.AperFunction,Plated,PTH,ComponentDrill
T5C0.0945
; #@! TA.AperFunction,Plated,PTH,ComponentDrill
T6C0.1457
%
G90
G05
T1
X3.857Y-3.5364
X4.242Y-5.0304
X4.2899Y-5.4565
X4.389Y-2.5324
X4.4723Y-4.7892
X4.506Y-3.0973
X4.8266Y-5.2222
X4.869Y-4.963
X4.9775Y-5.1287
X5.009Y-5.5494
X5.033Y-3.3294
X5.0629Y-5.1435
X5.1022Y-5.3207
X5.1632Y-5.1022
X5.307Y-4.6894
X5.3778Y-5.1041
X5.4566Y-5.5175
X5.652Y-3.292
X5.678Y-5.1745
X5.731Y-3.0974
X5.815Y-4.7459
X5.909Y-3.7884
X6.1308Y-4.8704
X6.152Y-3.8257
X6.16Y-3.081
X6.302Y-3.8524
X6.314Y-3.989
X6.4014Y-4.7892
X6.5262Y-3.1244
X6.6357Y-3.7065
X6.677Y-3.5687
X6.7164Y-3.5313
X6.7498Y-3.1244
X6.7558Y-4.1986
X6.838Y-2.972
X6.93Y-4.1744
X6.931Y-3.631
X7.064Y-3.2524
X7.136Y-4.0805
X7.196Y-3.2537
X7.2943Y-2.2713
X7.3857Y-3.8049
X7.5118Y-3.7614
T3
X7.4567Y-3.6994
X7.4567Y-3.8904
T4
X3.9605Y-3.5262
X3.9605Y-3.6262
X3.9605Y-3.7262
X3.9605Y-3.8262
X3.9605Y-3.9262
X3.9605Y-4.0262
X3.9605Y-4.1262
X3.9605Y-4.2262
X3.9605Y-4.3262
X3.9605Y-4.4262
X4.1302Y-4.6356
X4.142Y-5.2144
X4.1959Y-4.3935
X4.1991Y-4.236
X4.2006Y-3.488
X4.2014Y-3.6455
X4.2302Y-4.6356
X4.242Y-5.2144
X4.2959Y-4.3935
X4.2991Y-4.236
X4.3006Y-3.488
X4.3014Y-3.6455
X4.3959Y-4.3935
X4.3991Y-4.236
X4.4006Y-3.488
X4.4014Y-3.6455
X4.4959Y-4.3935
X4.4991Y-4.236
X4.5006Y-3.488
X4.5014Y-3.6455
X4.5959Y-4.3935
X4.5991Y-4.236
X4.6006Y-3.488
X4.6014Y-3.6455
X4.6959Y-4.3935
X4.6991Y-4.236
X4.7006Y-3.488
X4.7014Y-3.6455
X4.7085Y-4.8763
X4.7959Y-4.3935
X4.7991Y-4.236
X4.8006Y-3.488
X4.8014Y-3.6455
X4.8959Y-4.3935
X4.8991Y-4.236
X4.9006Y-3.488
X4.9014Y-3.6455
X4.9959Y-4.3935
X4.9991Y-4.236
X5.0006Y-3.488
X5.0014Y-3.6455
X5.0078Y-5.6522
X5.0959Y-4.3935
X5.0991Y-4.236
X5.1006Y-3.488
X5.1014Y-3.6455
X5.1078Y-5.6522
X5.1416Y-2.86
X5.1416Y-2.96
X5.1959Y-4.3935
X5.1991Y-4.236
X5.2006Y-3.488
X5.2014Y-3.6455
X5.2959Y-4.3935
X5.2991Y-4.236
X5.3006Y-3.488
X5.3014Y-3.6455
X5.3959Y-4.3935
X5.3991Y-4.236
X5.4006Y-3.488
X5.4014Y-3.6455
X5.4959Y-4.3935
X5.4991Y-4.236
X5.5006Y-3.488
X5.5014Y-3.6455
X5.5959Y-4.3935
X5.5991Y-4.236
X5.6006Y-3.488
X5.6014Y-3.6455
X5.6959Y-4.3935
X5.6991Y-4.236
X5.7006Y-3.488
X5.7014Y-3.6455
X5.7959Y-4.3935
X5.7991Y-4.236
X5.8006Y-3.488
X5.8014Y-3.6455
X5.8467Y-5.5736
X5.869Y-4.9959
X5.8959Y-4.3935
X5.8991Y-4.236
X5.9006Y-3.488
X5.9014Y-3.6455
X5.9467Y-5.5736
X5.969Y-4.9959
X5.9959Y-4.3935
X5.9991Y-4.236
X6.0006Y-3.488
X6.0014Y-3.6455
X6.0959Y-4.3935
X6.0991Y-4.236
X6.1006Y-3.488
X6.1014Y-3.6455
X6.1959Y-4.3935
X6.1991Y-4.236
X6.2006Y-3.488
X6.2014Y-3.6455
X6.2959Y-4.3935
X6.2991Y-4.236
X6.3006Y-3.488
X6.3014Y-3.6455
X6.3959Y-4.3935
X6.3991Y-4.236
X6.4006Y-3.488
X6.4014Y-3.6455
X6.4959Y-4.3935
X6.4991Y-4.236
X6.5006Y-3.488
X6.5014Y-3.6455
X6.9132Y-3.1931
X6.9132Y-3.2931
X7.2282Y-3.5687
T5
X4.5407Y-1.96
T6
X4.8644Y-2.59
X7.0376Y-1.96
T2
G00X7.5452Y-3.6532
M15
G01X7.5767Y-3.6532
M16
G05
G00X7.5452Y-3.9366
M15
G01X7.5767Y-3.9366
M16
G05
T0
M30
