%TF.GenerationSoftware,KiCad,Pcbnew,(7.0.0)*%
%TF.CreationDate,2023-04-03T15:53:06+02:00*%
%TF.ProjectId,HAT,4841542e-6b69-4636-9164-5f7063625858,rev?*%
%TF.SameCoordinates,Original*%
%TF.FileFunction,Legend,Bot*%
%TF.FilePolarity,Positive*%
%FSLAX46Y46*%
G04 Gerber Fmt 4.6, Leading zero omitted, Abs format (unit mm)*
G04 Created by KiCad (PCBNEW (7.0.0)) date 2023-04-03 15:53:06*
%MOMM*%
%LPD*%
G01*
G04 APERTURE LIST*
%ADD10R,1.700000X1.700000*%
%ADD11O,1.700000X1.700000*%
%ADD12C,4.000000*%
%ADD13C,2.700000*%
%ADD14O,1.900000X1.070000*%
%ADD15O,1.300000X1.300000*%
G04 APERTURE END LIST*
%LPC*%
D10*
%TO.C,J10*%
X106656399Y-107594899D03*
D11*
X109196399Y-107594899D03*
X111736399Y-107594899D03*
X114276399Y-107594899D03*
X116816399Y-107594899D03*
X119356399Y-107594899D03*
X121896399Y-107594899D03*
X124436399Y-107594899D03*
X126976399Y-107594899D03*
X129516399Y-107594899D03*
X132056399Y-107594899D03*
X134596399Y-107594899D03*
X137136399Y-107594899D03*
X139676399Y-107594899D03*
X142216399Y-107594899D03*
X144756399Y-107594899D03*
X147296399Y-107594899D03*
X149836399Y-107594899D03*
X152376399Y-107594899D03*
X154916399Y-107594899D03*
X157456399Y-107594899D03*
X159996399Y-107594899D03*
X162536399Y-107594899D03*
X165076399Y-107594899D03*
%TD*%
D10*
%TO.C,J12*%
X148506399Y-141569823D03*
D11*
X151046399Y-141569823D03*
%TD*%
D10*
%TO.C,J7*%
X183596399Y-90644899D03*
%TD*%
%TO.C,J2*%
X130596399Y-72644899D03*
D11*
X130596399Y-75184899D03*
%TD*%
D10*
%TO.C,J14*%
X107446399Y-117744899D03*
D11*
X104906399Y-117744899D03*
%TD*%
D12*
%TO.C,BT1*%
X178754800Y-49785000D03*
X123554800Y-65785000D03*
D13*
X115334800Y-49785000D03*
%TD*%
D10*
%TO.C,J8*%
X106696399Y-88594899D03*
D11*
X109236399Y-88594899D03*
X111776399Y-88594899D03*
X114316399Y-88594899D03*
X116856399Y-88594899D03*
X119396399Y-88594899D03*
X121936399Y-88594899D03*
X124476399Y-88594899D03*
X127016399Y-88594899D03*
X129556399Y-88594899D03*
X132096399Y-88594899D03*
X134636399Y-88594899D03*
X137176399Y-88594899D03*
X139716399Y-88594899D03*
X142256399Y-88594899D03*
X144796399Y-88594899D03*
X147336399Y-88594899D03*
X149876399Y-88594899D03*
X152416399Y-88594899D03*
X154956399Y-88594899D03*
X157496399Y-88594899D03*
X160036399Y-88594899D03*
X162576399Y-88594899D03*
X165116399Y-88594899D03*
%TD*%
D10*
%TO.C,J1*%
X175596399Y-83644899D03*
D11*
X175596399Y-81104899D03*
%TD*%
D14*
%TO.C,J6*%
X192049199Y-99990099D03*
D15*
X189399199Y-98815099D03*
X189399199Y-93965099D03*
D14*
X192049199Y-92790099D03*
%TD*%
D10*
%TO.C,J15*%
X107746399Y-132444899D03*
D11*
X105206399Y-132444899D03*
%TD*%
D10*
%TO.C,J5*%
X100596399Y-89564899D03*
D11*
X100596399Y-92104899D03*
X100596399Y-94644899D03*
X100596399Y-97184899D03*
X100596399Y-99724899D03*
X100596399Y-102264899D03*
X100596399Y-104804899D03*
X100596399Y-107344899D03*
X100596399Y-109884899D03*
X100596399Y-112424899D03*
%TD*%
D10*
%TO.C,J11*%
X106576399Y-111594899D03*
D11*
X109116399Y-111594899D03*
X111656399Y-111594899D03*
X114196399Y-111594899D03*
X116736399Y-111594899D03*
X119276399Y-111594899D03*
X121816399Y-111594899D03*
X124356399Y-111594899D03*
X126896399Y-111594899D03*
X129436399Y-111594899D03*
X131976399Y-111594899D03*
X134516399Y-111594899D03*
X137056399Y-111594899D03*
X139596399Y-111594899D03*
X142136399Y-111594899D03*
X144676399Y-111594899D03*
X147216399Y-111594899D03*
X149756399Y-111594899D03*
X152296399Y-111594899D03*
X154836399Y-111594899D03*
X157376399Y-111594899D03*
X159916399Y-111594899D03*
X162456399Y-111594899D03*
X164996399Y-111594899D03*
%TD*%
D10*
%TO.C,J4*%
X127198143Y-143564899D03*
D11*
X129738143Y-143564899D03*
%TD*%
D10*
%TO.C,J9*%
X106716399Y-92594899D03*
D11*
X109256399Y-92594899D03*
X111796399Y-92594899D03*
X114336399Y-92594899D03*
X116876399Y-92594899D03*
X119416399Y-92594899D03*
X121956399Y-92594899D03*
X124496399Y-92594899D03*
X127036399Y-92594899D03*
X129576399Y-92594899D03*
X132116399Y-92594899D03*
X134656399Y-92594899D03*
X137196399Y-92594899D03*
X139736399Y-92594899D03*
X142276399Y-92594899D03*
X144816399Y-92594899D03*
X147356399Y-92594899D03*
X149896399Y-92594899D03*
X152436399Y-92594899D03*
X154976399Y-92594899D03*
X157516399Y-92594899D03*
X160056399Y-92594899D03*
X162596399Y-92594899D03*
X165136399Y-92594899D03*
%TD*%
D10*
%TO.C,J3*%
X119596399Y-123857399D03*
%TD*%
%TO.C,J13*%
X149071399Y-126894861D03*
D11*
X151611399Y-126894861D03*
%TD*%
M02*
