%TF.GenerationSoftware,KiCad,Pcbnew,7.0.1-3b83917a11~172~ubuntu22.04.1*%
%TF.CreationDate,2023-04-04T09:47:24+02:00*%
%TF.ProjectId,HAT,4841542e-6b69-4636-9164-5f7063625858,rev?*%
%TF.SameCoordinates,Original*%
%TF.FileFunction,Soldermask,Top*%
%TF.FilePolarity,Negative*%
%FSLAX46Y46*%
G04 Gerber Fmt 4.6, Leading zero omitted, Abs format (unit mm)*
G04 Created by KiCad (PCBNEW 7.0.1-3b83917a11~172~ubuntu22.04.1) date 2023-04-04 09:47:24*
%MOMM*%
%LPD*%
G01*
G04 APERTURE LIST*
G04 Aperture macros list*
%AMRoundRect*
0 Rectangle with rounded corners*
0 $1 Rounding radius*
0 $2 $3 $4 $5 $6 $7 $8 $9 X,Y pos of 4 corners*
0 Add a 4 corners polygon primitive as box body*
4,1,4,$2,$3,$4,$5,$6,$7,$8,$9,$2,$3,0*
0 Add four circle primitives for the rounded corners*
1,1,$1+$1,$2,$3*
1,1,$1+$1,$4,$5*
1,1,$1+$1,$6,$7*
1,1,$1+$1,$8,$9*
0 Add four rect primitives between the rounded corners*
20,1,$1+$1,$2,$3,$4,$5,0*
20,1,$1+$1,$4,$5,$6,$7,0*
20,1,$1+$1,$6,$7,$8,$9,0*
20,1,$1+$1,$8,$9,$2,$3,0*%
G04 Aperture macros list end*
%ADD10RoundRect,0.250000X0.262500X0.450000X-0.262500X0.450000X-0.262500X-0.450000X0.262500X-0.450000X0*%
%ADD11R,1.700000X1.700000*%
%ADD12O,1.700000X1.700000*%
%ADD13R,1.000000X1.399543*%
%ADD14RoundRect,0.150000X-0.512500X-0.150000X0.512500X-0.150000X0.512500X0.150000X-0.512500X0.150000X0*%
%ADD15RoundRect,0.250000X-0.450000X0.262500X-0.450000X-0.262500X0.450000X-0.262500X0.450000X0.262500X0*%
%ADD16RoundRect,0.250000X-0.262500X-0.450000X0.262500X-0.450000X0.262500X0.450000X-0.262500X0.450000X0*%
%ADD17R,5.500000X1.300000*%
%ADD18O,2.045009X0.588011*%
%ADD19R,1.250013X0.700000*%
%ADD20R,1.350013X1.410008*%
%ADD21R,1.000000X0.800000*%
%ADD22RoundRect,0.250000X0.450000X-0.262500X0.450000X0.262500X-0.450000X0.262500X-0.450000X-0.262500X0*%
%ADD23R,1.000000X0.750013*%
%ADD24R,1.410008X1.350013*%
%ADD25R,0.800000X0.800000*%
%ADD26C,4.000000*%
%ADD27C,2.700000*%
%ADD28RoundRect,1.625000X2.125000X1.625000X-2.125000X1.625000X-2.125000X-1.625000X2.125000X-1.625000X0*%
%ADD29R,0.790094X0.540005*%
%ADD30R,0.800000X0.550013*%
%ADD31R,0.750000X0.300000*%
%ADD32R,1.750000X1.450000*%
%ADD33R,1.100000X1.700000*%
%ADD34R,0.540005X0.790094*%
%ADD35R,1.350013X2.800000*%
%ADD36R,1.500000X2.800000*%
%ADD37R,6.000000X6.500025*%
%ADD38R,1.296012X1.757506*%
%ADD39RoundRect,0.200000X-0.200000X-0.275000X0.200000X-0.275000X0.200000X0.275000X-0.200000X0.275000X0*%
%ADD40R,0.900000X0.800000*%
%ADD41R,1.350000X0.400000*%
%ADD42O,1.900000X1.070000*%
%ADD43O,1.300000X1.300000*%
%ADD44R,1.400000X0.600000*%
%ADD45R,0.800000X1.000000*%
%ADD46R,1.485014X1.727991*%
%ADD47R,0.800000X0.900000*%
%ADD48RoundRect,0.150000X0.150000X-0.825000X0.150000X0.825000X-0.150000X0.825000X-0.150000X-0.825000X0*%
%ADD49RoundRect,0.150000X-0.587500X-0.150000X0.587500X-0.150000X0.587500X0.150000X-0.587500X0.150000X0*%
%ADD50RoundRect,0.150000X-0.825000X-0.150000X0.825000X-0.150000X0.825000X0.150000X-0.825000X0.150000X0*%
%ADD51R,2.290000X3.000000*%
G04 APERTURE END LIST*
D10*
%TO.C,R1*%
X181596400Y-84644900D03*
X179771400Y-84644900D03*
%TD*%
D11*
%TO.C,J10*%
X106656400Y-107594900D03*
D12*
X109196400Y-107594900D03*
X111736400Y-107594900D03*
X114276400Y-107594900D03*
X116816400Y-107594900D03*
X119356400Y-107594900D03*
X121896400Y-107594900D03*
X124436400Y-107594900D03*
X126976400Y-107594900D03*
X129516400Y-107594900D03*
X132056400Y-107594900D03*
X134596400Y-107594900D03*
X137136400Y-107594900D03*
X139676400Y-107594900D03*
X142216400Y-107594900D03*
X144756400Y-107594900D03*
X147296400Y-107594900D03*
X149836400Y-107594900D03*
X152376400Y-107594900D03*
X154916400Y-107594900D03*
X157456400Y-107594900D03*
X159996400Y-107594900D03*
X162536400Y-107594900D03*
X165076400Y-107594900D03*
%TD*%
D13*
%TO.C,LED2*%
X118490000Y-75650900D03*
X120590584Y-75650900D03*
%TD*%
D11*
%TO.C,J12*%
X148506400Y-141569824D03*
D12*
X151046400Y-141569824D03*
%TD*%
D14*
%TO.C,U2*%
X179458900Y-78694900D03*
X179458900Y-80594900D03*
X181733900Y-79644900D03*
%TD*%
D10*
%TO.C,R51*%
X102431400Y-137644900D03*
X100606400Y-137644900D03*
%TD*%
D15*
%TO.C,R19*%
X123646400Y-122232400D03*
X123646400Y-124057400D03*
%TD*%
D16*
%TO.C,R36*%
X144021400Y-137369824D03*
X145846400Y-137369824D03*
%TD*%
D10*
%TO.C,R22*%
X122638144Y-139264900D03*
X120813144Y-139264900D03*
%TD*%
%TO.C,R50*%
X102131400Y-122944900D03*
X100306400Y-122944900D03*
%TD*%
D17*
%TO.C,Y1*%
X135241318Y-100542900D03*
X126135400Y-100542900D03*
%TD*%
D18*
%TO.C,U6*%
X157123400Y-103844900D03*
X157123400Y-102574897D03*
X157123400Y-101304895D03*
X157123400Y-100034892D03*
X151578568Y-100034892D03*
X151578568Y-101304895D03*
X151578568Y-102574897D03*
X151578568Y-103844900D03*
%TD*%
D19*
%TO.C,Q5*%
X148946400Y-120544900D03*
X148946400Y-122444824D03*
X150946400Y-121494862D03*
%TD*%
D10*
%TO.C,R8*%
X112596400Y-78644900D03*
X110771400Y-78644900D03*
%TD*%
D20*
%TO.C,C11*%
X121690400Y-101558900D03*
X121690400Y-99558900D03*
%TD*%
D21*
%TO.C,Q2*%
X146887200Y-84693300D03*
X146887200Y-82793274D03*
X144587174Y-83743236D03*
%TD*%
D11*
%TO.C,J7*%
X183596400Y-90644900D03*
%TD*%
D22*
%TO.C,R32*%
X179653200Y-103589000D03*
X179653200Y-101764000D03*
%TD*%
D10*
%TO.C,R45*%
X112231400Y-136644900D03*
X110406400Y-136644900D03*
%TD*%
D11*
%TO.C,J2*%
X130596400Y-72644900D03*
D12*
X130596400Y-75184900D03*
%TD*%
D23*
%TO.C,D1*%
X132768993Y-79644900D03*
X130423807Y-79644900D03*
%TD*%
D24*
%TO.C,C12*%
X172596400Y-91348100D03*
X174596400Y-91348100D03*
%TD*%
D10*
%TO.C,R3*%
X113596400Y-72644900D03*
X111771400Y-72644900D03*
%TD*%
D22*
%TO.C,R49*%
X105006400Y-142469900D03*
X105006400Y-140644900D03*
%TD*%
D25*
%TO.C,LED1*%
X118997466Y-72651758D03*
X120596400Y-72644900D03*
%TD*%
D22*
%TO.C,R13*%
X158596400Y-78644900D03*
X158596400Y-76819900D03*
%TD*%
D15*
%TO.C,R39*%
X145946400Y-116619824D03*
X145946400Y-118444824D03*
%TD*%
D19*
%TO.C,Q7*%
X107406400Y-138594862D03*
X107406400Y-136694938D03*
X105406400Y-137644900D03*
%TD*%
D16*
%TO.C,R31*%
X177596400Y-91644900D03*
X179421400Y-91644900D03*
%TD*%
D11*
%TO.C,J14*%
X107446400Y-117744900D03*
D12*
X104906400Y-117744900D03*
%TD*%
D15*
%TO.C,R38*%
X145846400Y-131544824D03*
X145846400Y-133369824D03*
%TD*%
D16*
%TO.C,R15*%
X169683900Y-69644900D03*
X171508900Y-69644900D03*
%TD*%
D26*
%TO.C,BT1*%
X178754800Y-49785000D03*
X123554800Y-65785000D03*
D27*
X115334800Y-49785000D03*
D28*
X111504800Y-57785000D03*
X190804800Y-57785000D03*
%TD*%
D29*
%TO.C,C3*%
X177506230Y-75644900D03*
X178596400Y-75644900D03*
%TD*%
D30*
%TO.C,U4*%
X125297200Y-130168436D03*
X125297200Y-130918500D03*
X125297200Y-131668563D03*
X125297200Y-132418373D03*
X125297200Y-133168436D03*
X125297200Y-133918500D03*
X127297200Y-133918500D03*
X127297200Y-133168436D03*
X127297200Y-132418373D03*
X127297200Y-131668563D03*
X127297200Y-130918500D03*
X127297200Y-130168436D03*
%TD*%
D15*
%TO.C,R35*%
X175944800Y-101816700D03*
X175944800Y-103641700D03*
%TD*%
D31*
%TO.C,U3*%
X161713900Y-71074300D03*
X161713900Y-71574300D03*
X161713900Y-72074300D03*
X161713900Y-72574300D03*
X164613900Y-72574300D03*
X164613900Y-72074300D03*
X164613900Y-71574300D03*
X164613900Y-71074300D03*
D32*
X163163900Y-71824300D03*
%TD*%
D15*
%TO.C,R34*%
X172388800Y-101965300D03*
X172388800Y-103790300D03*
%TD*%
D22*
%TO.C,R20*%
X123746400Y-118657298D03*
X123746400Y-116832298D03*
%TD*%
D33*
%TO.C,D2*%
X148790425Y-76463700D03*
X145390375Y-76463700D03*
%TD*%
D15*
%TO.C,R40*%
X151271400Y-131544824D03*
X151271400Y-133369824D03*
%TD*%
%TO.C,R29*%
X157885400Y-96074400D03*
X157885400Y-97899400D03*
%TD*%
D22*
%TO.C,R47*%
X110406400Y-142519938D03*
X110406400Y-140694938D03*
%TD*%
D10*
%TO.C,R4*%
X113596400Y-75644900D03*
X111771400Y-75644900D03*
%TD*%
D11*
%TO.C,J8*%
X106705400Y-88493600D03*
D12*
X109245400Y-88493600D03*
X111785400Y-88493600D03*
X114325400Y-88493600D03*
X116865400Y-88493600D03*
X119405400Y-88493600D03*
X121945400Y-88493600D03*
X124485400Y-88493600D03*
X127025400Y-88493600D03*
X129565400Y-88493600D03*
X132105400Y-88493600D03*
X134645400Y-88493600D03*
X137185400Y-88493600D03*
X139725400Y-88493600D03*
X142265400Y-88493600D03*
X144805400Y-88493600D03*
X147345400Y-88493600D03*
X149885400Y-88493600D03*
X152425400Y-88493600D03*
X154965400Y-88493600D03*
X157505400Y-88493600D03*
X160045400Y-88493600D03*
X162585400Y-88493600D03*
X165125400Y-88493600D03*
%TD*%
D11*
%TO.C,J1*%
X175596400Y-83644900D03*
D12*
X175596400Y-81104900D03*
%TD*%
D19*
%TO.C,Q6*%
X107106400Y-123894862D03*
X107106400Y-121994938D03*
X105106400Y-122944900D03*
%TD*%
D22*
%TO.C,R6*%
X110596400Y-83557400D03*
X110596400Y-81732400D03*
%TD*%
D34*
%TO.C,C14*%
X167410400Y-102692755D03*
X167410400Y-103782925D03*
%TD*%
D35*
%TO.C,Q8*%
X128339313Y-124807514D03*
D36*
X132919197Y-124807514D03*
D37*
X130646400Y-117857298D03*
%TD*%
D16*
%TO.C,R25*%
X134213144Y-139214900D03*
X136038144Y-139214900D03*
%TD*%
D34*
%TO.C,C17*%
X164362400Y-96150730D03*
X164362400Y-97240900D03*
%TD*%
D38*
%TO.C,C4*%
X104596400Y-80272282D03*
X104596400Y-83644900D03*
%TD*%
D34*
%TO.C,C13*%
X164362400Y-102819755D03*
X164362400Y-103909925D03*
%TD*%
%TO.C,C16*%
X164362400Y-99325730D03*
X164362400Y-100415900D03*
%TD*%
D22*
%TO.C,R48*%
X104706400Y-127744900D03*
X104706400Y-125919900D03*
%TD*%
D15*
%TO.C,R5*%
X98596400Y-69819900D03*
X98596400Y-71644900D03*
%TD*%
D22*
%TO.C,R28*%
X148233400Y-98049900D03*
X148233400Y-96224900D03*
%TD*%
D39*
%TO.C,R11*%
X149771400Y-84644900D03*
X151421400Y-84644900D03*
%TD*%
D40*
%TO.C,C15*%
X167359600Y-99142850D03*
X167359600Y-100542900D03*
%TD*%
D41*
%TO.C,J6*%
X189449200Y-97690100D03*
X189449200Y-97040100D03*
X189449200Y-96390100D03*
X189449200Y-95740100D03*
X189449200Y-95090100D03*
D42*
X192049200Y-99990100D03*
D43*
X189399200Y-98815100D03*
D44*
X192099200Y-97190100D03*
X192099200Y-95590100D03*
D43*
X189399200Y-93965100D03*
D42*
X192049200Y-92790100D03*
%TD*%
D22*
%TO.C,R26*%
X148487400Y-102574900D03*
X148487400Y-100749900D03*
%TD*%
D45*
%TO.C,Q3*%
X164565600Y-84896500D03*
X166465626Y-84896500D03*
X165515664Y-82596474D03*
%TD*%
D10*
%TO.C,R17*%
X170596400Y-84644900D03*
X168771400Y-84644900D03*
%TD*%
%TO.C,R18*%
X137946400Y-124057400D03*
X136121400Y-124057400D03*
%TD*%
D46*
%TO.C,C6*%
X131146400Y-129595027D03*
X134331566Y-129595027D03*
%TD*%
D20*
%TO.C,C10*%
X140994400Y-101050900D03*
X140994400Y-99050900D03*
%TD*%
D10*
%TO.C,R23*%
X127263144Y-139264900D03*
X125438144Y-139264900D03*
%TD*%
D11*
%TO.C,J15*%
X107746400Y-132444900D03*
D12*
X105206400Y-132444900D03*
%TD*%
D11*
%TO.C,J5*%
X100596400Y-89564900D03*
D12*
X100596400Y-92104900D03*
X100596400Y-94644900D03*
X100596400Y-97184900D03*
X100596400Y-99724900D03*
X100596400Y-102264900D03*
X100596400Y-104804900D03*
X100596400Y-107344900D03*
X100596400Y-109884900D03*
X100596400Y-112424900D03*
%TD*%
D10*
%TO.C,R14*%
X161596400Y-84644900D03*
X159771400Y-84644900D03*
%TD*%
D11*
%TO.C,J11*%
X106576400Y-111594900D03*
D12*
X109116400Y-111594900D03*
X111656400Y-111594900D03*
X114196400Y-111594900D03*
X116736400Y-111594900D03*
X119276400Y-111594900D03*
X121816400Y-111594900D03*
X124356400Y-111594900D03*
X126896400Y-111594900D03*
X129436400Y-111594900D03*
X131976400Y-111594900D03*
X134516400Y-111594900D03*
X137056400Y-111594900D03*
X139596400Y-111594900D03*
X142136400Y-111594900D03*
X144676400Y-111594900D03*
X147216400Y-111594900D03*
X149756400Y-111594900D03*
X152296400Y-111594900D03*
X154836400Y-111594900D03*
X157376400Y-111594900D03*
X159916400Y-111594900D03*
X162456400Y-111594900D03*
X164996400Y-111594900D03*
%TD*%
D38*
%TO.C,C1*%
X99596400Y-75958591D03*
X99596400Y-79331209D03*
%TD*%
D10*
%TO.C,R24*%
X131750644Y-139264900D03*
X129925644Y-139264900D03*
%TD*%
D47*
%TO.C,C7*%
X131466350Y-134985300D03*
X132866400Y-134985300D03*
%TD*%
D10*
%TO.C,R21*%
X119496400Y-116807400D03*
X117671400Y-116807400D03*
%TD*%
D15*
%TO.C,R41*%
X151371400Y-116669862D03*
X151371400Y-118494862D03*
%TD*%
D16*
%TO.C,R37*%
X144146400Y-122494862D03*
X145971400Y-122494862D03*
%TD*%
D48*
%TO.C,U7*%
X172846000Y-99171300D03*
X174116000Y-99171300D03*
X175386000Y-99171300D03*
X176656000Y-99171300D03*
X177926000Y-99171300D03*
X179196000Y-99171300D03*
X180466000Y-99171300D03*
X181736000Y-99171300D03*
X181736000Y-94221300D03*
X180466000Y-94221300D03*
X179196000Y-94221300D03*
X177926000Y-94221300D03*
X176656000Y-94221300D03*
X175386000Y-94221300D03*
X174116000Y-94221300D03*
X172846000Y-94221300D03*
%TD*%
D16*
%TO.C,R43*%
X153896400Y-121444824D03*
X155721400Y-121444824D03*
%TD*%
D10*
%TO.C,R10*%
X142421400Y-83644900D03*
X140596400Y-83644900D03*
%TD*%
D29*
%TO.C,C9*%
X135306230Y-115657400D03*
X136396400Y-115657400D03*
%TD*%
D49*
%TO.C,Q1*%
X130658900Y-82694900D03*
X130658900Y-84594900D03*
X132533900Y-83644900D03*
%TD*%
D20*
%TO.C,C8*%
X136746400Y-119007400D03*
X136746400Y-121007400D03*
%TD*%
D11*
%TO.C,J4*%
X127198144Y-143564900D03*
D12*
X129738144Y-143564900D03*
%TD*%
D22*
%TO.C,R2*%
X98596400Y-84469900D03*
X98596400Y-82644900D03*
%TD*%
D10*
%TO.C,R9*%
X139421400Y-79644900D03*
X137596400Y-79644900D03*
%TD*%
D22*
%TO.C,R33*%
X183514000Y-103637900D03*
X183514000Y-101812900D03*
%TD*%
%TO.C,R46*%
X110131400Y-127819938D03*
X110131400Y-125994938D03*
%TD*%
D15*
%TO.C,R30*%
X154329400Y-96074400D03*
X154329400Y-97899400D03*
%TD*%
D33*
%TO.C,D3*%
X162181550Y-77632100D03*
X165581600Y-77632100D03*
%TD*%
D19*
%TO.C,Q4*%
X148846400Y-135419862D03*
X148846400Y-137319786D03*
X150846400Y-136369824D03*
%TD*%
D16*
%TO.C,R16*%
X169771400Y-75644900D03*
X171596400Y-75644900D03*
%TD*%
D39*
%TO.C,R12*%
X154683900Y-84644900D03*
X156333900Y-84644900D03*
%TD*%
D22*
%TO.C,R27*%
X151789400Y-97946400D03*
X151789400Y-96121400D03*
%TD*%
D16*
%TO.C,R42*%
X153821400Y-136369824D03*
X155646400Y-136369824D03*
%TD*%
D11*
%TO.C,J9*%
X106716400Y-92594900D03*
D12*
X109256400Y-92594900D03*
X111796400Y-92594900D03*
X114336400Y-92594900D03*
X116876400Y-92594900D03*
X119416400Y-92594900D03*
X121956400Y-92594900D03*
X124496400Y-92594900D03*
X127036400Y-92594900D03*
X129576400Y-92594900D03*
X132116400Y-92594900D03*
X134656400Y-92594900D03*
X137196400Y-92594900D03*
X139736400Y-92594900D03*
X142276400Y-92594900D03*
X144816400Y-92594900D03*
X147356400Y-92594900D03*
X149896400Y-92594900D03*
X152436400Y-92594900D03*
X154976400Y-92594900D03*
X157516400Y-92594900D03*
X160056400Y-92594900D03*
X162596400Y-92594900D03*
X165136400Y-92594900D03*
%TD*%
D11*
%TO.C,J3*%
X119596400Y-123857400D03*
%TD*%
D10*
%TO.C,R44*%
X111931400Y-121944900D03*
X110106400Y-121944900D03*
%TD*%
D22*
%TO.C,R7*%
X184596400Y-84469900D03*
X184596400Y-82644900D03*
%TD*%
D50*
%TO.C,U1*%
X102691400Y-70489900D03*
X102691400Y-71759900D03*
X102691400Y-73029900D03*
X102691400Y-74299900D03*
X107641400Y-74299900D03*
X107641400Y-73029900D03*
X107641400Y-71759900D03*
X107641400Y-70489900D03*
D51*
X105166400Y-72394900D03*
%TD*%
D29*
%TO.C,C2*%
X182686570Y-75644900D03*
X181596400Y-75644900D03*
%TD*%
D11*
%TO.C,J13*%
X149071400Y-126894862D03*
D12*
X151611400Y-126894862D03*
%TD*%
M02*
