%TF.GenerationSoftware,KiCad,Pcbnew,(7.0.0)*%
%TF.CreationDate,2023-04-03T15:53:06+02:00*%
%TF.ProjectId,HAT,4841542e-6b69-4636-9164-5f7063625858,rev?*%
%TF.SameCoordinates,Original*%
%TF.FileFunction,Paste,Top*%
%TF.FilePolarity,Positive*%
%FSLAX46Y46*%
G04 Gerber Fmt 4.6, Leading zero omitted, Abs format (unit mm)*
G04 Created by KiCad (PCBNEW (7.0.0)) date 2023-04-03 15:53:06*
%MOMM*%
%LPD*%
G01*
G04 APERTURE LIST*
G04 Aperture macros list*
%AMRoundRect*
0 Rectangle with rounded corners*
0 $1 Rounding radius*
0 $2 $3 $4 $5 $6 $7 $8 $9 X,Y pos of 4 corners*
0 Add a 4 corners polygon primitive as box body*
4,1,4,$2,$3,$4,$5,$6,$7,$8,$9,$2,$3,0*
0 Add four circle primitives for the rounded corners*
1,1,$1+$1,$2,$3*
1,1,$1+$1,$4,$5*
1,1,$1+$1,$6,$7*
1,1,$1+$1,$8,$9*
0 Add four rect primitives between the rounded corners*
20,1,$1+$1,$2,$3,$4,$5,0*
20,1,$1+$1,$4,$5,$6,$7,0*
20,1,$1+$1,$6,$7,$8,$9,0*
20,1,$1+$1,$8,$9,$2,$3,0*%
G04 Aperture macros list end*
%ADD10RoundRect,0.250000X0.262500X0.450000X-0.262500X0.450000X-0.262500X-0.450000X0.262500X-0.450000X0*%
%ADD11R,1.000000X1.399543*%
%ADD12RoundRect,0.150000X-0.512500X-0.150000X0.512500X-0.150000X0.512500X0.150000X-0.512500X0.150000X0*%
%ADD13RoundRect,0.250000X-0.450000X0.262500X-0.450000X-0.262500X0.450000X-0.262500X0.450000X0.262500X0*%
%ADD14RoundRect,0.250000X-0.262500X-0.450000X0.262500X-0.450000X0.262500X0.450000X-0.262500X0.450000X0*%
%ADD15R,5.500000X1.300000*%
%ADD16O,2.045009X0.588011*%
%ADD17R,1.250013X0.700000*%
%ADD18R,1.350013X1.410008*%
%ADD19R,1.000000X0.800000*%
%ADD20RoundRect,0.250000X0.450000X-0.262500X0.450000X0.262500X-0.450000X0.262500X-0.450000X-0.262500X0*%
%ADD21R,1.000000X0.750013*%
%ADD22R,1.410008X1.350013*%
%ADD23R,0.800000X0.800000*%
%ADD24RoundRect,1.625000X2.125000X1.625000X-2.125000X1.625000X-2.125000X-1.625000X2.125000X-1.625000X0*%
%ADD25R,0.790094X0.540005*%
%ADD26R,0.800000X0.550013*%
%ADD27R,1.100000X1.700000*%
%ADD28R,0.540005X0.790094*%
%ADD29R,1.350013X2.800000*%
%ADD30R,1.500000X2.800000*%
%ADD31R,6.000000X6.500025*%
%ADD32R,1.296012X1.757506*%
%ADD33R,0.900000X0.800000*%
%ADD34O,1.900000X1.070000*%
%ADD35C,1.300000*%
%ADD36R,1.350000X0.400000*%
%ADD37R,1.400000X0.600000*%
%ADD38R,0.800000X1.000000*%
%ADD39R,1.485014X1.727991*%
%ADD40R,0.800000X0.900000*%
%ADD41RoundRect,0.150000X0.150000X-0.825000X0.150000X0.825000X-0.150000X0.825000X-0.150000X-0.825000X0*%
%ADD42RoundRect,0.150000X-0.587500X-0.150000X0.587500X-0.150000X0.587500X0.150000X-0.587500X0.150000X0*%
%ADD43RoundRect,0.230000X-0.230000X-0.375000X0.230000X-0.375000X0.230000X0.375000X-0.230000X0.375000X0*%
%ADD44RoundRect,0.150000X-0.825000X-0.150000X0.825000X-0.150000X0.825000X0.150000X-0.825000X0.150000X0*%
G04 APERTURE END LIST*
D10*
%TO.C,R1*%
X181596400Y-84644900D03*
X179771400Y-84644900D03*
%TD*%
D11*
%TO.C,LED2*%
X118489999Y-75650899D03*
X120590583Y-75650899D03*
%TD*%
D12*
%TO.C,U2*%
X179458900Y-78694900D03*
X179458900Y-80594900D03*
X181733900Y-79644900D03*
%TD*%
D10*
%TO.C,R51*%
X102431400Y-137644900D03*
X100606400Y-137644900D03*
%TD*%
D13*
%TO.C,R19*%
X123646400Y-122232400D03*
X123646400Y-124057400D03*
%TD*%
D14*
%TO.C,R36*%
X144021400Y-137369824D03*
X145846400Y-137369824D03*
%TD*%
D10*
%TO.C,R22*%
X122638144Y-139264900D03*
X120813144Y-139264900D03*
%TD*%
%TO.C,R50*%
X102131400Y-122944900D03*
X100306400Y-122944900D03*
%TD*%
D15*
%TO.C,Y1*%
X135241317Y-100542899D03*
X126135399Y-100542899D03*
%TD*%
D16*
%TO.C,U6*%
X157123399Y-103844899D03*
X157123399Y-102574896D03*
X157123399Y-101304894D03*
X157123399Y-100034891D03*
X151578567Y-100034891D03*
X151578567Y-101304894D03*
X151578567Y-102574896D03*
X151578567Y-103844899D03*
%TD*%
D17*
%TO.C,Q5*%
X148946399Y-120544899D03*
X148946399Y-122444823D03*
X150946399Y-121494861D03*
%TD*%
D10*
%TO.C,R8*%
X112596400Y-78644900D03*
X110771400Y-78644900D03*
%TD*%
D18*
%TO.C,C11*%
X121690399Y-101558899D03*
X121690399Y-99558899D03*
%TD*%
D19*
%TO.C,Q2*%
X146887199Y-84693299D03*
X146887199Y-82793273D03*
X144587173Y-83743235D03*
%TD*%
D20*
%TO.C,R32*%
X179653200Y-103589000D03*
X179653200Y-101764000D03*
%TD*%
D10*
%TO.C,R45*%
X112231400Y-136644900D03*
X110406400Y-136644900D03*
%TD*%
D21*
%TO.C,D1*%
X132768992Y-79644899D03*
X130423806Y-79644899D03*
%TD*%
D22*
%TO.C,C12*%
X172596399Y-91348099D03*
X174596399Y-91348099D03*
%TD*%
D10*
%TO.C,R3*%
X113596400Y-72644900D03*
X111771400Y-72644900D03*
%TD*%
D20*
%TO.C,R49*%
X105006400Y-142469900D03*
X105006400Y-140644900D03*
%TD*%
D23*
%TO.C,LED1*%
X118997465Y-72651757D03*
X120596399Y-72644899D03*
%TD*%
D20*
%TO.C,R13*%
X158596400Y-78644900D03*
X158596400Y-76819900D03*
%TD*%
D13*
%TO.C,R39*%
X145946400Y-116619824D03*
X145946400Y-118444824D03*
%TD*%
D17*
%TO.C,Q7*%
X107406399Y-138594861D03*
X107406399Y-136694937D03*
X105406399Y-137644899D03*
%TD*%
D14*
%TO.C,R31*%
X177596400Y-91644900D03*
X179421400Y-91644900D03*
%TD*%
D13*
%TO.C,R38*%
X145846400Y-131544824D03*
X145846400Y-133369824D03*
%TD*%
D14*
%TO.C,R15*%
X169683900Y-69644900D03*
X171508900Y-69644900D03*
%TD*%
D24*
%TO.C,BT1*%
X111504800Y-57785000D03*
X190804800Y-57785000D03*
%TD*%
D25*
%TO.C,C3*%
X177506229Y-75644899D03*
X178596399Y-75644899D03*
%TD*%
D26*
%TO.C,U4*%
X125297199Y-130168435D03*
X125297199Y-130918499D03*
X125297199Y-131668562D03*
X125297199Y-132418372D03*
X125297199Y-133168435D03*
X125297199Y-133918499D03*
X127297199Y-133918499D03*
X127297199Y-133168435D03*
X127297199Y-132418372D03*
X127297199Y-131668562D03*
X127297199Y-130918499D03*
X127297199Y-130168435D03*
%TD*%
D13*
%TO.C,R35*%
X175944800Y-101816700D03*
X175944800Y-103641700D03*
%TD*%
D16*
%TO.C,U3*%
X159596399Y-70739895D03*
X159596399Y-72009898D03*
X159596399Y-73279900D03*
X159596399Y-74549903D03*
X165141231Y-74549903D03*
X165141231Y-73279900D03*
X165141231Y-72009898D03*
X165141231Y-70739895D03*
%TD*%
D13*
%TO.C,R34*%
X172388800Y-101965300D03*
X172388800Y-103790300D03*
%TD*%
D20*
%TO.C,R20*%
X123746400Y-118657298D03*
X123746400Y-116832298D03*
%TD*%
D27*
%TO.C,D2*%
X148790424Y-76463699D03*
X145390374Y-76463699D03*
%TD*%
D13*
%TO.C,R40*%
X151271400Y-131544824D03*
X151271400Y-133369824D03*
%TD*%
%TO.C,R29*%
X157885400Y-96074400D03*
X157885400Y-97899400D03*
%TD*%
D20*
%TO.C,R47*%
X110406400Y-142519938D03*
X110406400Y-140694938D03*
%TD*%
D10*
%TO.C,R4*%
X113596400Y-75644900D03*
X111771400Y-75644900D03*
%TD*%
D17*
%TO.C,Q6*%
X107106399Y-123894861D03*
X107106399Y-121994937D03*
X105106399Y-122944899D03*
%TD*%
D20*
%TO.C,R6*%
X110596400Y-83557400D03*
X110596400Y-81732400D03*
%TD*%
D28*
%TO.C,C14*%
X167410399Y-102692754D03*
X167410399Y-103782924D03*
%TD*%
D29*
%TO.C,Q8*%
X128339312Y-124807513D03*
D30*
X132919196Y-124807513D03*
D31*
X130646399Y-117857297D03*
%TD*%
D14*
%TO.C,R25*%
X134213144Y-139214900D03*
X136038144Y-139214900D03*
%TD*%
D28*
%TO.C,C17*%
X164362399Y-96150729D03*
X164362399Y-97240899D03*
%TD*%
D32*
%TO.C,C4*%
X104596399Y-80272281D03*
X104596399Y-83644899D03*
%TD*%
D28*
%TO.C,C13*%
X164362399Y-102819754D03*
X164362399Y-103909924D03*
%TD*%
%TO.C,C16*%
X164362399Y-99325729D03*
X164362399Y-100415899D03*
%TD*%
D20*
%TO.C,R48*%
X104706400Y-127744900D03*
X104706400Y-125919900D03*
%TD*%
D13*
%TO.C,R5*%
X98596400Y-69819900D03*
X98596400Y-71644900D03*
%TD*%
D20*
%TO.C,R28*%
X148233400Y-98049900D03*
X148233400Y-96224900D03*
%TD*%
D14*
%TO.C,R11*%
X149683900Y-84644900D03*
X151508900Y-84644900D03*
%TD*%
D33*
%TO.C,C15*%
X167359599Y-99142849D03*
X167359599Y-100542899D03*
%TD*%
D34*
%TO.C,J6*%
X192049199Y-99990099D03*
D35*
X189399200Y-98815100D03*
X189399200Y-93965100D03*
D34*
X192049199Y-92790099D03*
D36*
X189449199Y-97690099D03*
X189449199Y-97040099D03*
X189449199Y-96390099D03*
X189449199Y-95740099D03*
X189449199Y-95090099D03*
D37*
X192099199Y-97190099D03*
X192099199Y-95590099D03*
%TD*%
D20*
%TO.C,R26*%
X148487400Y-102574900D03*
X148487400Y-100749900D03*
%TD*%
D38*
%TO.C,Q3*%
X164565599Y-84896499D03*
X166465625Y-84896499D03*
X165515663Y-82596473D03*
%TD*%
D10*
%TO.C,R17*%
X170596400Y-84644900D03*
X168771400Y-84644900D03*
%TD*%
%TO.C,R18*%
X137946400Y-124057400D03*
X136121400Y-124057400D03*
%TD*%
D39*
%TO.C,C6*%
X131146399Y-129595026D03*
X134331565Y-129595026D03*
%TD*%
D18*
%TO.C,C10*%
X140994399Y-101050899D03*
X140994399Y-99050899D03*
%TD*%
D10*
%TO.C,R23*%
X127263144Y-139264900D03*
X125438144Y-139264900D03*
%TD*%
%TO.C,R14*%
X161596400Y-84644900D03*
X159771400Y-84644900D03*
%TD*%
D32*
%TO.C,C1*%
X99596399Y-75958590D03*
X99596399Y-79331208D03*
%TD*%
D10*
%TO.C,R24*%
X131750644Y-139264900D03*
X129925644Y-139264900D03*
%TD*%
D40*
%TO.C,C7*%
X131466349Y-134985299D03*
X132866399Y-134985299D03*
%TD*%
D10*
%TO.C,R21*%
X119496400Y-116807400D03*
X117671400Y-116807400D03*
%TD*%
D13*
%TO.C,R41*%
X151371400Y-116669862D03*
X151371400Y-118494862D03*
%TD*%
D14*
%TO.C,R37*%
X144146400Y-122494862D03*
X145971400Y-122494862D03*
%TD*%
D41*
%TO.C,U7*%
X172846000Y-99171300D03*
X174116000Y-99171300D03*
X175386000Y-99171300D03*
X176656000Y-99171300D03*
X177926000Y-99171300D03*
X179196000Y-99171300D03*
X180466000Y-99171300D03*
X181736000Y-99171300D03*
X181736000Y-94221300D03*
X180466000Y-94221300D03*
X179196000Y-94221300D03*
X177926000Y-94221300D03*
X176656000Y-94221300D03*
X175386000Y-94221300D03*
X174116000Y-94221300D03*
X172846000Y-94221300D03*
%TD*%
D14*
%TO.C,R43*%
X153896400Y-121444824D03*
X155721400Y-121444824D03*
%TD*%
D10*
%TO.C,R10*%
X142421400Y-83644900D03*
X140596400Y-83644900D03*
%TD*%
D25*
%TO.C,C9*%
X135306229Y-115657399D03*
X136396399Y-115657399D03*
%TD*%
D42*
%TO.C,Q1*%
X130658900Y-82694900D03*
X130658900Y-84594900D03*
X132533900Y-83644900D03*
%TD*%
D18*
%TO.C,C8*%
X136746399Y-119007399D03*
X136746399Y-121007399D03*
%TD*%
D20*
%TO.C,R2*%
X98596400Y-84469900D03*
X98596400Y-82644900D03*
%TD*%
D10*
%TO.C,R9*%
X139421400Y-79644900D03*
X137596400Y-79644900D03*
%TD*%
D20*
%TO.C,R33*%
X183514000Y-103637900D03*
X183514000Y-101812900D03*
%TD*%
%TO.C,R46*%
X110131400Y-127819938D03*
X110131400Y-125994938D03*
%TD*%
D13*
%TO.C,R30*%
X154329400Y-96074400D03*
X154329400Y-97899400D03*
%TD*%
D27*
%TO.C,D3*%
X162181549Y-77632099D03*
X165581599Y-77632099D03*
%TD*%
D17*
%TO.C,Q4*%
X148846399Y-135419861D03*
X148846399Y-137319785D03*
X150846399Y-136369823D03*
%TD*%
D14*
%TO.C,R16*%
X169771400Y-75644900D03*
X171596400Y-75644900D03*
%TD*%
%TO.C,R12*%
X154596400Y-84644900D03*
X156421400Y-84644900D03*
%TD*%
D20*
%TO.C,R27*%
X151789400Y-97946400D03*
X151789400Y-96121400D03*
%TD*%
D14*
%TO.C,R42*%
X153821400Y-136369824D03*
X155646400Y-136369824D03*
%TD*%
D10*
%TO.C,R44*%
X111931400Y-121944900D03*
X110106400Y-121944900D03*
%TD*%
D20*
%TO.C,R7*%
X184596400Y-84469900D03*
X184596400Y-82644900D03*
%TD*%
D43*
%TO.C,U1*%
X104596400Y-71644900D03*
X104596400Y-73144900D03*
X105736400Y-71644900D03*
X105736400Y-73144900D03*
D44*
X102691400Y-70489900D03*
X102691400Y-71759900D03*
X102691400Y-73029900D03*
X102691400Y-74299900D03*
X107641400Y-74299900D03*
X107641400Y-73029900D03*
X107641400Y-71759900D03*
X107641400Y-70489900D03*
%TD*%
D25*
%TO.C,C2*%
X182686569Y-75644899D03*
X181596399Y-75644899D03*
%TD*%
M02*
