%TF.GenerationSoftware,KiCad,Pcbnew,7.0.1-3b83917a11~172~ubuntu22.04.1*%
%TF.CreationDate,2023-04-03T17:20:00+02:00*%
%TF.ProjectId,HAT,4841542e-6b69-4636-9164-5f7063625858,rev?*%
%TF.SameCoordinates,Original*%
%TF.FileFunction,Legend,Bot*%
%TF.FilePolarity,Positive*%
%FSLAX46Y46*%
G04 Gerber Fmt 4.6, Leading zero omitted, Abs format (unit mm)*
G04 Created by KiCad (PCBNEW 7.0.1-3b83917a11~172~ubuntu22.04.1) date 2023-04-03 17:20:00*
%MOMM*%
%LPD*%
G01*
G04 APERTURE LIST*
%ADD10R,1.700000X1.700000*%
%ADD11O,1.700000X1.700000*%
%ADD12C,4.000000*%
%ADD13C,2.700000*%
%ADD14O,1.900000X1.070000*%
%ADD15O,1.300000X1.300000*%
G04 APERTURE END LIST*
%LPC*%
D10*
%TO.C,J10*%
X106656400Y-107594900D03*
D11*
X109196400Y-107594900D03*
X111736400Y-107594900D03*
X114276400Y-107594900D03*
X116816400Y-107594900D03*
X119356400Y-107594900D03*
X121896400Y-107594900D03*
X124436400Y-107594900D03*
X126976400Y-107594900D03*
X129516400Y-107594900D03*
X132056400Y-107594900D03*
X134596400Y-107594900D03*
X137136400Y-107594900D03*
X139676400Y-107594900D03*
X142216400Y-107594900D03*
X144756400Y-107594900D03*
X147296400Y-107594900D03*
X149836400Y-107594900D03*
X152376400Y-107594900D03*
X154916400Y-107594900D03*
X157456400Y-107594900D03*
X159996400Y-107594900D03*
X162536400Y-107594900D03*
X165076400Y-107594900D03*
%TD*%
D10*
%TO.C,J12*%
X148506400Y-141569824D03*
D11*
X151046400Y-141569824D03*
%TD*%
D10*
%TO.C,J7*%
X183596400Y-90644900D03*
%TD*%
%TO.C,J2*%
X130596400Y-72644900D03*
D11*
X130596400Y-75184900D03*
%TD*%
D10*
%TO.C,J14*%
X107446400Y-117744900D03*
D11*
X104906400Y-117744900D03*
%TD*%
D12*
%TO.C,BT1*%
X178754800Y-49785000D03*
X123554800Y-65785000D03*
D13*
X115334800Y-49785000D03*
%TD*%
D10*
%TO.C,J8*%
X106696400Y-88594900D03*
D11*
X109236400Y-88594900D03*
X111776400Y-88594900D03*
X114316400Y-88594900D03*
X116856400Y-88594900D03*
X119396400Y-88594900D03*
X121936400Y-88594900D03*
X124476400Y-88594900D03*
X127016400Y-88594900D03*
X129556400Y-88594900D03*
X132096400Y-88594900D03*
X134636400Y-88594900D03*
X137176400Y-88594900D03*
X139716400Y-88594900D03*
X142256400Y-88594900D03*
X144796400Y-88594900D03*
X147336400Y-88594900D03*
X149876400Y-88594900D03*
X152416400Y-88594900D03*
X154956400Y-88594900D03*
X157496400Y-88594900D03*
X160036400Y-88594900D03*
X162576400Y-88594900D03*
X165116400Y-88594900D03*
%TD*%
D10*
%TO.C,J1*%
X175596400Y-83644900D03*
D11*
X175596400Y-81104900D03*
%TD*%
D14*
%TO.C,J6*%
X192049200Y-99990100D03*
D15*
X189399200Y-98815100D03*
X189399200Y-93965100D03*
D14*
X192049200Y-92790100D03*
%TD*%
D10*
%TO.C,J15*%
X107746400Y-132444900D03*
D11*
X105206400Y-132444900D03*
%TD*%
D10*
%TO.C,J5*%
X100596400Y-89564900D03*
D11*
X100596400Y-92104900D03*
X100596400Y-94644900D03*
X100596400Y-97184900D03*
X100596400Y-99724900D03*
X100596400Y-102264900D03*
X100596400Y-104804900D03*
X100596400Y-107344900D03*
X100596400Y-109884900D03*
X100596400Y-112424900D03*
%TD*%
D10*
%TO.C,J11*%
X106576400Y-111594900D03*
D11*
X109116400Y-111594900D03*
X111656400Y-111594900D03*
X114196400Y-111594900D03*
X116736400Y-111594900D03*
X119276400Y-111594900D03*
X121816400Y-111594900D03*
X124356400Y-111594900D03*
X126896400Y-111594900D03*
X129436400Y-111594900D03*
X131976400Y-111594900D03*
X134516400Y-111594900D03*
X137056400Y-111594900D03*
X139596400Y-111594900D03*
X142136400Y-111594900D03*
X144676400Y-111594900D03*
X147216400Y-111594900D03*
X149756400Y-111594900D03*
X152296400Y-111594900D03*
X154836400Y-111594900D03*
X157376400Y-111594900D03*
X159916400Y-111594900D03*
X162456400Y-111594900D03*
X164996400Y-111594900D03*
%TD*%
D10*
%TO.C,J4*%
X127198144Y-143564900D03*
D11*
X129738144Y-143564900D03*
%TD*%
D10*
%TO.C,J9*%
X106716400Y-92594900D03*
D11*
X109256400Y-92594900D03*
X111796400Y-92594900D03*
X114336400Y-92594900D03*
X116876400Y-92594900D03*
X119416400Y-92594900D03*
X121956400Y-92594900D03*
X124496400Y-92594900D03*
X127036400Y-92594900D03*
X129576400Y-92594900D03*
X132116400Y-92594900D03*
X134656400Y-92594900D03*
X137196400Y-92594900D03*
X139736400Y-92594900D03*
X142276400Y-92594900D03*
X144816400Y-92594900D03*
X147356400Y-92594900D03*
X149896400Y-92594900D03*
X152436400Y-92594900D03*
X154976400Y-92594900D03*
X157516400Y-92594900D03*
X160056400Y-92594900D03*
X162596400Y-92594900D03*
X165136400Y-92594900D03*
%TD*%
D10*
%TO.C,J3*%
X119596400Y-123857400D03*
%TD*%
%TO.C,J13*%
X149071400Y-126894862D03*
D11*
X151611400Y-126894862D03*
%TD*%
M02*
