%TF.GenerationSoftware,KiCad,Pcbnew,(7.0.0)*%
%TF.CreationDate,2023-03-21T09:48:14+02:00*%
%TF.ProjectId,HAT,4841542e-6b69-4636-9164-5f7063625858,rev?*%
%TF.SameCoordinates,Original*%
%TF.FileFunction,Drillmap*%
%TF.FilePolarity,Positive*%
%FSLAX45Y45*%
G04 Gerber Fmt 4.5, Leading zero omitted, Abs format (unit mm)*
G04 Created by KiCad (PCBNEW (7.0.0)) date 2023-03-21 09:48:14*
%MOMM*%
%LPD*%
G01*
G04 APERTURE LIST*
%ADD10C,0.100000*%
%ADD11C,0.200000*%
%ADD12C,0.040000*%
%ADD13C,0.050000*%
%ADD14C,0.070000*%
%ADD15C,0.240000*%
%ADD16C,0.370000*%
G04 APERTURE END LIST*
D10*
X9174480Y-1915160D02*
X19116040Y-1915160D01*
X19116040Y-1915160D02*
X19116040Y-11816080D01*
X19116040Y-11816080D02*
X9174480Y-11816080D01*
X9174480Y-11816080D02*
X9174480Y-1915160D01*
D11*
D12*
X10280000Y-11080000D02*
X10320000Y-11120000D01*
X10320000Y-11080000D02*
X10280000Y-11120000D01*
X10533500Y-9997504D02*
X10573500Y-10037504D01*
X10573500Y-9997504D02*
X10533500Y-10037504D01*
X10780000Y-5080000D02*
X10820000Y-5120000D01*
X10820000Y-5080000D02*
X10780000Y-5120000D01*
X10880000Y-9380000D02*
X10920000Y-9420000D01*
X10920000Y-9380000D02*
X10880000Y-9420000D01*
X11780000Y-10480000D02*
X11820000Y-10520000D01*
X11820000Y-10480000D02*
X11780000Y-10520000D01*
X11880000Y-9780000D02*
X11920000Y-9820000D01*
X11920000Y-9780000D02*
X11880000Y-9820000D01*
X12150030Y-10329920D02*
X12190030Y-10369920D01*
X12190030Y-10329920D02*
X12150030Y-10369920D01*
X12180000Y-5380000D02*
X12220000Y-5420000D01*
X12220000Y-5380000D02*
X12180000Y-5420000D01*
X12246674Y-11142000D02*
X12286674Y-11182000D01*
X12286674Y-11142000D02*
X12246674Y-11182000D01*
X12380000Y-10280000D02*
X12420000Y-10320000D01*
X12420000Y-10280000D02*
X12380000Y-10320000D01*
X12480000Y-10730000D02*
X12520000Y-10770000D01*
X12520000Y-10730000D02*
X12480000Y-10770000D01*
X12635000Y-10175013D02*
X12675000Y-10215013D01*
X12675000Y-10175013D02*
X12635000Y-10215013D01*
X13180000Y-10180000D02*
X13220000Y-10220000D01*
X13220000Y-10180000D02*
X13180000Y-10220000D01*
X13230000Y-9130000D02*
X13270000Y-9170000D01*
X13270000Y-9130000D02*
X13230000Y-9170000D01*
X13380000Y-11230000D02*
X13420000Y-11270000D01*
X13420000Y-11230000D02*
X13380000Y-11270000D01*
X13762500Y-5580000D02*
X13802500Y-5620000D01*
X13802500Y-5580000D02*
X13762500Y-5620000D01*
X14080000Y-5080000D02*
X14120000Y-5120000D01*
X14120000Y-5080000D02*
X14080000Y-5120000D01*
X14105000Y-10369992D02*
X14145000Y-10409992D01*
X14145000Y-10369992D02*
X14105000Y-10409992D01*
X14343700Y-6838000D02*
X14383700Y-6878000D01*
X14383700Y-6838000D02*
X14343700Y-6878000D01*
X14415000Y-9270000D02*
X14455000Y-9310000D01*
X14455000Y-9270000D02*
X14415000Y-9310000D01*
X14930000Y-6934150D02*
X14970000Y-6974150D01*
X14970000Y-6934150D02*
X14930000Y-6974150D01*
X15092500Y-9359992D02*
X15132500Y-9399992D01*
X15132500Y-9359992D02*
X15092500Y-9399992D01*
X15308900Y-7005450D02*
X15348900Y-7045450D01*
X15348900Y-7005450D02*
X15308900Y-7045450D01*
X15580000Y-5330000D02*
X15620000Y-5370000D01*
X15620000Y-5330000D02*
X15580000Y-5370000D01*
X15780000Y-9380000D02*
X15820000Y-9420000D01*
X15820000Y-9380000D02*
X15780000Y-9420000D01*
X15940045Y-6940045D02*
X15980045Y-6980045D01*
X15980045Y-6940045D02*
X15940045Y-6980045D01*
X16080000Y-4980000D02*
X16120000Y-5020000D01*
X16120000Y-4980000D02*
X16080000Y-5020000D01*
X16375000Y-6630000D02*
X16415000Y-6670000D01*
X16415000Y-6630000D02*
X16375000Y-6670000D01*
X16480000Y-6280000D02*
X16520000Y-6320000D01*
X16520000Y-6280000D02*
X16480000Y-6320000D01*
X16580000Y-6184950D02*
X16620000Y-6224950D01*
X16620000Y-6184950D02*
X16580000Y-6224950D01*
X16680000Y-4224437D02*
X16720000Y-4264437D01*
X16720000Y-4224437D02*
X16680000Y-4264437D01*
X16680000Y-4780000D02*
X16720000Y-4820000D01*
X16720000Y-4780000D02*
X16680000Y-4820000D01*
X16680000Y-7880000D02*
X16720000Y-7920000D01*
X16720000Y-7880000D02*
X16680000Y-7920000D01*
X16980000Y-6330000D02*
X17020000Y-6370000D01*
X17020000Y-6330000D02*
X16980000Y-6370000D01*
X17080000Y-7580000D02*
X17120000Y-7620000D01*
X17120000Y-7580000D02*
X17080000Y-7620000D01*
X17435478Y-5074522D02*
X17475478Y-5114522D01*
X17475478Y-5074522D02*
X17435478Y-5114522D01*
X17480000Y-5280000D02*
X17520000Y-5320000D01*
X17520000Y-5280000D02*
X17480000Y-5320000D01*
X17480000Y-7580000D02*
X17520000Y-7620000D01*
X17520000Y-7580000D02*
X17480000Y-7620000D01*
X17980000Y-5480000D02*
X18020000Y-5520000D01*
X18020000Y-5480000D02*
X17980000Y-5520000D01*
X18280000Y-6880000D02*
X18320000Y-6920000D01*
X18320000Y-6880000D02*
X18280000Y-6920000D01*
X18580000Y-6980000D02*
X18620000Y-7020000D01*
X18620000Y-6980000D02*
X18580000Y-7020000D01*
X18620000Y-3000000D02*
X18660000Y-3040000D01*
X18660000Y-3000000D02*
X18620000Y-3040000D01*
D13*
X18770280Y-6514520D02*
G75*
G03*
X18770280Y-6514520I-25000J0D01*
G01*
D11*
X18705280Y-6539520D02*
X18785280Y-6539520D01*
X18785280Y-6539520D02*
G75*
G03*
X18785280Y-6489520I0J25000D01*
G01*
X18785280Y-6489520D02*
X18705280Y-6489520D01*
X18705280Y-6489520D02*
G75*
G03*
X18705280Y-6539520I0J-25000D01*
G01*
D13*
X18770280Y-7234520D02*
G75*
G03*
X18770280Y-7234520I-25000J0D01*
G01*
D11*
X18705280Y-7259520D02*
X18785280Y-7259520D01*
X18785280Y-7259520D02*
G75*
G03*
X18785280Y-7209520I0J25000D01*
G01*
X18785280Y-7209520D02*
X18705280Y-7209520D01*
X18705280Y-7209520D02*
G75*
G03*
X18705280Y-7259520I0J-25000D01*
G01*
D14*
X18480280Y-6597020D02*
X18480280Y-6667020D01*
X18445280Y-6632020D02*
X18515280Y-6632020D01*
X18480280Y-7082020D02*
X18480280Y-7152020D01*
X18445280Y-7117020D02*
X18515280Y-7117020D01*
D10*
X9635356Y-6227356D02*
X9635356Y-6156644D01*
X9564644Y-6156644D01*
X9564644Y-6227356D01*
X9635356Y-6227356D01*
X9635356Y-6481356D02*
X9635356Y-6410644D01*
X9564644Y-6410644D01*
X9564644Y-6481356D01*
X9635356Y-6481356D01*
X9635356Y-6735356D02*
X9635356Y-6664644D01*
X9564644Y-6664644D01*
X9564644Y-6735356D01*
X9635356Y-6735356D01*
X9635356Y-6989356D02*
X9635356Y-6918644D01*
X9564644Y-6918644D01*
X9564644Y-6989356D01*
X9635356Y-6989356D01*
X9635356Y-7243356D02*
X9635356Y-7172644D01*
X9564644Y-7172644D01*
X9564644Y-7243356D01*
X9635356Y-7243356D01*
X9635356Y-7497356D02*
X9635356Y-7426644D01*
X9564644Y-7426644D01*
X9564644Y-7497356D01*
X9635356Y-7497356D01*
X9635356Y-7751356D02*
X9635356Y-7680644D01*
X9564644Y-7680644D01*
X9564644Y-7751356D01*
X9635356Y-7751356D01*
X9635356Y-8005356D02*
X9635356Y-7934644D01*
X9564644Y-7934644D01*
X9564644Y-8005356D01*
X9635356Y-8005356D01*
X9635356Y-8259356D02*
X9635356Y-8188644D01*
X9564644Y-8188644D01*
X9564644Y-8259356D01*
X9635356Y-8259356D01*
X9635356Y-8513356D02*
X9635356Y-8442644D01*
X9564644Y-8442644D01*
X9564644Y-8513356D01*
X9635356Y-8513356D01*
X10066356Y-9045356D02*
X10066356Y-8974644D01*
X9995644Y-8974644D01*
X9995644Y-9045356D01*
X10066356Y-9045356D01*
X10096356Y-10515356D02*
X10096356Y-10444644D01*
X10025644Y-10444644D01*
X10025644Y-10515356D01*
X10096356Y-10515356D01*
X10233356Y-8430356D02*
X10233356Y-8359644D01*
X10162644Y-8359644D01*
X10162644Y-8430356D01*
X10233356Y-8430356D01*
X10241356Y-8030356D02*
X10241356Y-7959644D01*
X10170644Y-7959644D01*
X10170644Y-8030356D01*
X10241356Y-8030356D01*
X10245356Y-6130356D02*
X10245356Y-6059644D01*
X10174644Y-6059644D01*
X10174644Y-6130356D01*
X10245356Y-6130356D01*
X10247356Y-6530356D02*
X10247356Y-6459644D01*
X10176644Y-6459644D01*
X10176644Y-6530356D01*
X10247356Y-6530356D01*
X10320356Y-9045356D02*
X10320356Y-8974644D01*
X10249644Y-8974644D01*
X10249644Y-9045356D01*
X10320356Y-9045356D01*
X10350356Y-10515356D02*
X10350356Y-10444644D01*
X10279644Y-10444644D01*
X10279644Y-10515356D01*
X10350356Y-10515356D01*
X10487356Y-8430356D02*
X10487356Y-8359644D01*
X10416644Y-8359644D01*
X10416644Y-8430356D01*
X10487356Y-8430356D01*
X10495356Y-8030356D02*
X10495356Y-7959644D01*
X10424644Y-7959644D01*
X10424644Y-8030356D01*
X10495356Y-8030356D01*
X10499356Y-6130356D02*
X10499356Y-6059644D01*
X10428644Y-6059644D01*
X10428644Y-6130356D01*
X10499356Y-6130356D01*
X10501356Y-6530356D02*
X10501356Y-6459644D01*
X10430644Y-6459644D01*
X10430644Y-6530356D01*
X10501356Y-6530356D01*
X10741356Y-8430356D02*
X10741356Y-8359644D01*
X10670644Y-8359644D01*
X10670644Y-8430356D01*
X10741356Y-8430356D01*
X10749356Y-8030356D02*
X10749356Y-7959644D01*
X10678644Y-7959644D01*
X10678644Y-8030356D01*
X10749356Y-8030356D01*
X10753356Y-6130356D02*
X10753356Y-6059644D01*
X10682644Y-6059644D01*
X10682644Y-6130356D01*
X10753356Y-6130356D01*
X10755356Y-6530356D02*
X10755356Y-6459644D01*
X10684644Y-6459644D01*
X10684644Y-6530356D01*
X10755356Y-6530356D01*
X10995356Y-8430356D02*
X10995356Y-8359644D01*
X10924644Y-8359644D01*
X10924644Y-8430356D01*
X10995356Y-8430356D01*
X11003356Y-8030356D02*
X11003356Y-7959644D01*
X10932644Y-7959644D01*
X10932644Y-8030356D01*
X11003356Y-8030356D01*
X11007356Y-6130356D02*
X11007356Y-6059644D01*
X10936644Y-6059644D01*
X10936644Y-6130356D01*
X11007356Y-6130356D01*
X11009356Y-6530356D02*
X11009356Y-6459644D01*
X10938644Y-6459644D01*
X10938644Y-6530356D01*
X11009356Y-6530356D01*
X11249356Y-8430356D02*
X11249356Y-8359644D01*
X11178644Y-8359644D01*
X11178644Y-8430356D01*
X11249356Y-8430356D01*
X11257356Y-8030356D02*
X11257356Y-7959644D01*
X11186644Y-7959644D01*
X11186644Y-8030356D01*
X11257356Y-8030356D01*
X11261356Y-6130356D02*
X11261356Y-6059644D01*
X11190644Y-6059644D01*
X11190644Y-6130356D01*
X11261356Y-6130356D01*
X11263356Y-6530356D02*
X11263356Y-6459644D01*
X11192644Y-6459644D01*
X11192644Y-6530356D01*
X11263356Y-6530356D01*
X11503356Y-8430356D02*
X11503356Y-8359644D01*
X11432644Y-8359644D01*
X11432644Y-8430356D01*
X11503356Y-8430356D01*
X11511356Y-8030356D02*
X11511356Y-7959644D01*
X11440644Y-7959644D01*
X11440644Y-8030356D01*
X11511356Y-8030356D01*
X11515356Y-6130356D02*
X11515356Y-6059644D01*
X11444644Y-6059644D01*
X11444644Y-6130356D01*
X11515356Y-6130356D01*
X11517356Y-6530356D02*
X11517356Y-6459644D01*
X11446644Y-6459644D01*
X11446644Y-6530356D01*
X11517356Y-6530356D01*
X11535356Y-9656606D02*
X11535356Y-9585894D01*
X11464644Y-9585894D01*
X11464644Y-9656606D01*
X11535356Y-9656606D01*
X11757356Y-8430356D02*
X11757356Y-8359644D01*
X11686644Y-8359644D01*
X11686644Y-8430356D01*
X11757356Y-8430356D01*
X11765356Y-8030356D02*
X11765356Y-7959644D01*
X11694644Y-7959644D01*
X11694644Y-8030356D01*
X11765356Y-8030356D01*
X11769356Y-6130356D02*
X11769356Y-6059644D01*
X11698644Y-6059644D01*
X11698644Y-6130356D01*
X11769356Y-6130356D01*
X11771356Y-6530356D02*
X11771356Y-6459644D01*
X11700644Y-6459644D01*
X11700644Y-6530356D01*
X11771356Y-6530356D01*
X12011356Y-8430356D02*
X12011356Y-8359644D01*
X11940644Y-8359644D01*
X11940644Y-8430356D01*
X12011356Y-8430356D01*
X12019356Y-8030356D02*
X12019356Y-7959644D01*
X11948644Y-7959644D01*
X11948644Y-8030356D01*
X12019356Y-8030356D01*
X12023356Y-6130356D02*
X12023356Y-6059644D01*
X11952644Y-6059644D01*
X11952644Y-6130356D01*
X12023356Y-6130356D01*
X12025356Y-6530356D02*
X12025356Y-6459644D01*
X11954644Y-6459644D01*
X11954644Y-6530356D01*
X12025356Y-6530356D01*
X12265356Y-8430356D02*
X12265356Y-8359644D01*
X12194644Y-8359644D01*
X12194644Y-8430356D01*
X12265356Y-8430356D01*
X12273356Y-8030356D02*
X12273356Y-7959644D01*
X12202644Y-7959644D01*
X12202644Y-8030356D01*
X12273356Y-8030356D01*
X12277356Y-6130356D02*
X12277356Y-6059644D01*
X12206644Y-6059644D01*
X12206644Y-6130356D01*
X12277356Y-6130356D01*
X12279356Y-6530356D02*
X12279356Y-6459644D01*
X12208644Y-6459644D01*
X12208644Y-6530356D01*
X12279356Y-6530356D01*
X12295530Y-11627356D02*
X12295530Y-11556644D01*
X12224819Y-11556644D01*
X12224819Y-11627356D01*
X12295530Y-11627356D01*
X12519356Y-8430356D02*
X12519356Y-8359644D01*
X12448644Y-8359644D01*
X12448644Y-8430356D01*
X12519356Y-8430356D01*
X12527356Y-8030356D02*
X12527356Y-7959644D01*
X12456644Y-7959644D01*
X12456644Y-8030356D01*
X12527356Y-8030356D01*
X12531356Y-6130356D02*
X12531356Y-6059644D01*
X12460644Y-6059644D01*
X12460644Y-6130356D01*
X12531356Y-6130356D01*
X12533356Y-6530356D02*
X12533356Y-6459644D01*
X12462644Y-6459644D01*
X12462644Y-6530356D01*
X12533356Y-6530356D01*
X12549530Y-11627356D02*
X12549530Y-11556644D01*
X12478819Y-11556644D01*
X12478819Y-11627356D01*
X12549530Y-11627356D01*
X12635356Y-4535356D02*
X12635356Y-4464644D01*
X12564644Y-4464644D01*
X12564644Y-4535356D01*
X12635356Y-4535356D01*
X12635356Y-4789356D02*
X12635356Y-4718644D01*
X12564644Y-4718644D01*
X12564644Y-4789356D01*
X12635356Y-4789356D01*
X12773356Y-8430356D02*
X12773356Y-8359644D01*
X12702644Y-8359644D01*
X12702644Y-8430356D01*
X12773356Y-8430356D01*
X12781356Y-8030356D02*
X12781356Y-7959644D01*
X12710644Y-7959644D01*
X12710644Y-8030356D01*
X12781356Y-8030356D01*
X12785356Y-6130356D02*
X12785356Y-6059644D01*
X12714644Y-6059644D01*
X12714644Y-6130356D01*
X12785356Y-6130356D01*
X12787356Y-6530356D02*
X12787356Y-6459644D01*
X12716644Y-6459644D01*
X12716644Y-6530356D01*
X12787356Y-6530356D01*
X13027356Y-8430356D02*
X13027356Y-8359644D01*
X12956644Y-8359644D01*
X12956644Y-8430356D01*
X13027356Y-8430356D01*
X13035356Y-8030356D02*
X13035356Y-7959644D01*
X12964644Y-7959644D01*
X12964644Y-8030356D01*
X13035356Y-8030356D01*
X13039356Y-6130356D02*
X13039356Y-6059644D01*
X12968644Y-6059644D01*
X12968644Y-6130356D01*
X13039356Y-6130356D01*
X13041356Y-6530356D02*
X13041356Y-6459644D01*
X12970644Y-6459644D01*
X12970644Y-6530356D01*
X13041356Y-6530356D01*
X13281356Y-8430356D02*
X13281356Y-8359644D01*
X13210644Y-8359644D01*
X13210644Y-8430356D01*
X13281356Y-8430356D01*
X13289356Y-8030356D02*
X13289356Y-7959644D01*
X13218644Y-7959644D01*
X13218644Y-8030356D01*
X13289356Y-8030356D01*
X13293356Y-6130356D02*
X13293356Y-6059644D01*
X13222644Y-6059644D01*
X13222644Y-6130356D01*
X13293356Y-6130356D01*
X13295356Y-6530356D02*
X13295356Y-6459644D01*
X13224644Y-6459644D01*
X13224644Y-6530356D01*
X13295356Y-6530356D01*
X13535356Y-8430356D02*
X13535356Y-8359644D01*
X13464644Y-8359644D01*
X13464644Y-8430356D01*
X13535356Y-8430356D01*
X13543356Y-8030356D02*
X13543356Y-7959644D01*
X13472644Y-7959644D01*
X13472644Y-8030356D01*
X13543356Y-8030356D01*
X13547356Y-6130356D02*
X13547356Y-6059644D01*
X13476644Y-6059644D01*
X13476644Y-6130356D01*
X13547356Y-6130356D01*
X13549356Y-6530356D02*
X13549356Y-6459644D01*
X13478644Y-6459644D01*
X13478644Y-6530356D01*
X13549356Y-6530356D01*
X13789356Y-8430356D02*
X13789356Y-8359644D01*
X13718644Y-8359644D01*
X13718644Y-8430356D01*
X13789356Y-8430356D01*
X13797356Y-8030356D02*
X13797356Y-7959644D01*
X13726644Y-7959644D01*
X13726644Y-8030356D01*
X13797356Y-8030356D01*
X13801356Y-6130356D02*
X13801356Y-6059644D01*
X13730644Y-6059644D01*
X13730644Y-6130356D01*
X13801356Y-6130356D01*
X13803356Y-6530356D02*
X13803356Y-6459644D01*
X13732644Y-6459644D01*
X13732644Y-6530356D01*
X13803356Y-6530356D01*
X14043356Y-8430356D02*
X14043356Y-8359644D01*
X13972644Y-8359644D01*
X13972644Y-8430356D01*
X14043356Y-8430356D01*
X14051356Y-8030356D02*
X14051356Y-7959644D01*
X13980644Y-7959644D01*
X13980644Y-8030356D01*
X14051356Y-8030356D01*
X14055356Y-6130356D02*
X14055356Y-6059644D01*
X13984644Y-6059644D01*
X13984644Y-6130356D01*
X14055356Y-6130356D01*
X14057356Y-6530356D02*
X14057356Y-6459644D01*
X13986644Y-6459644D01*
X13986644Y-6530356D01*
X14057356Y-6530356D01*
X14297356Y-8430356D02*
X14297356Y-8359644D01*
X14226644Y-8359644D01*
X14226644Y-8430356D01*
X14297356Y-8430356D01*
X14305356Y-8030356D02*
X14305356Y-7959644D01*
X14234644Y-7959644D01*
X14234644Y-8030356D01*
X14305356Y-8030356D01*
X14309356Y-6130356D02*
X14309356Y-6059644D01*
X14238644Y-6059644D01*
X14238644Y-6130356D01*
X14309356Y-6130356D01*
X14311356Y-6530356D02*
X14311356Y-6459644D01*
X14240644Y-6459644D01*
X14240644Y-6530356D01*
X14311356Y-6530356D01*
X14426356Y-11427848D02*
X14426356Y-11357137D01*
X14355644Y-11357137D01*
X14355644Y-11427848D01*
X14426356Y-11427848D01*
X14482856Y-9960352D02*
X14482856Y-9889641D01*
X14412144Y-9889641D01*
X14412144Y-9960352D01*
X14482856Y-9960352D01*
X14551356Y-8430356D02*
X14551356Y-8359644D01*
X14480644Y-8359644D01*
X14480644Y-8430356D01*
X14551356Y-8430356D01*
X14559356Y-8030356D02*
X14559356Y-7959644D01*
X14488644Y-7959644D01*
X14488644Y-8030356D01*
X14559356Y-8030356D01*
X14563356Y-6130356D02*
X14563356Y-6059644D01*
X14492644Y-6059644D01*
X14492644Y-6130356D01*
X14563356Y-6130356D01*
X14565356Y-6530356D02*
X14565356Y-6459644D01*
X14494644Y-6459644D01*
X14494644Y-6530356D01*
X14565356Y-6530356D01*
X14680356Y-11427848D02*
X14680356Y-11357137D01*
X14609644Y-11357137D01*
X14609644Y-11427848D01*
X14680356Y-11427848D01*
X14736856Y-9960352D02*
X14736856Y-9889641D01*
X14666144Y-9889641D01*
X14666144Y-9960352D01*
X14736856Y-9960352D01*
X14805356Y-8430356D02*
X14805356Y-8359644D01*
X14734644Y-8359644D01*
X14734644Y-8430356D01*
X14805356Y-8430356D01*
X14813356Y-8030356D02*
X14813356Y-7959644D01*
X14742644Y-7959644D01*
X14742644Y-8030356D01*
X14813356Y-8030356D01*
X14817356Y-6130356D02*
X14817356Y-6059644D01*
X14746644Y-6059644D01*
X14746644Y-6130356D01*
X14817356Y-6130356D01*
X14819356Y-6530356D02*
X14819356Y-6459644D01*
X14748644Y-6459644D01*
X14748644Y-6530356D01*
X14819356Y-6530356D01*
X15059356Y-8430356D02*
X15059356Y-8359644D01*
X14988644Y-8359644D01*
X14988644Y-8430356D01*
X15059356Y-8430356D01*
X15067356Y-8030356D02*
X15067356Y-7959644D01*
X14996644Y-7959644D01*
X14996644Y-8030356D01*
X15067356Y-8030356D01*
X15071356Y-6130356D02*
X15071356Y-6059644D01*
X15000644Y-6059644D01*
X15000644Y-6130356D01*
X15071356Y-6130356D01*
X15073356Y-6530356D02*
X15073356Y-6459644D01*
X15002644Y-6459644D01*
X15002644Y-6530356D01*
X15073356Y-6530356D01*
X15313356Y-8430356D02*
X15313356Y-8359644D01*
X15242644Y-8359644D01*
X15242644Y-8430356D01*
X15313356Y-8430356D01*
X15321356Y-8030356D02*
X15321356Y-7959644D01*
X15250644Y-7959644D01*
X15250644Y-8030356D01*
X15321356Y-8030356D01*
X15325356Y-6130356D02*
X15325356Y-6059644D01*
X15254644Y-6059644D01*
X15254644Y-6130356D01*
X15325356Y-6130356D01*
X15327356Y-6530356D02*
X15327356Y-6459644D01*
X15256644Y-6459644D01*
X15256644Y-6530356D01*
X15327356Y-6530356D01*
X15567356Y-8430356D02*
X15567356Y-8359644D01*
X15496644Y-8359644D01*
X15496644Y-8430356D01*
X15567356Y-8430356D01*
X15575356Y-8030356D02*
X15575356Y-7959644D01*
X15504644Y-7959644D01*
X15504644Y-8030356D01*
X15575356Y-8030356D01*
X15579356Y-6130356D02*
X15579356Y-6059644D01*
X15508644Y-6059644D01*
X15508644Y-6130356D01*
X15579356Y-6130356D01*
X15581356Y-6530356D02*
X15581356Y-6459644D01*
X15510644Y-6459644D01*
X15510644Y-6530356D01*
X15581356Y-6530356D01*
X15821356Y-8430356D02*
X15821356Y-8359644D01*
X15750644Y-8359644D01*
X15750644Y-8430356D01*
X15821356Y-8430356D01*
X15829356Y-8030356D02*
X15829356Y-7959644D01*
X15758644Y-7959644D01*
X15758644Y-8030356D01*
X15829356Y-8030356D01*
X15833356Y-6130356D02*
X15833356Y-6059644D01*
X15762644Y-6059644D01*
X15762644Y-6130356D01*
X15833356Y-6130356D01*
X15835356Y-6530356D02*
X15835356Y-6459644D01*
X15764644Y-6459644D01*
X15764644Y-6530356D01*
X15835356Y-6530356D01*
X16075356Y-8430356D02*
X16075356Y-8359644D01*
X16004644Y-8359644D01*
X16004644Y-8430356D01*
X16075356Y-8430356D01*
X16083356Y-8030356D02*
X16083356Y-7959644D01*
X16012644Y-7959644D01*
X16012644Y-8030356D01*
X16083356Y-8030356D01*
X16087356Y-6130356D02*
X16087356Y-6059644D01*
X16016644Y-6059644D01*
X16016644Y-6130356D01*
X16087356Y-6130356D01*
X16089356Y-6530356D02*
X16089356Y-6459644D01*
X16018644Y-6459644D01*
X16018644Y-6530356D01*
X16089356Y-6530356D01*
X17135356Y-5381356D02*
X17135356Y-5310644D01*
X17064644Y-5310644D01*
X17064644Y-5381356D01*
X17135356Y-5381356D01*
X17135356Y-5635356D02*
X17135356Y-5564644D01*
X17064644Y-5564644D01*
X17064644Y-5635356D01*
X17135356Y-5635356D01*
X17935356Y-6335356D02*
X17935356Y-6264644D01*
X17864644Y-6264644D01*
X17864644Y-6335356D01*
X17935356Y-6335356D01*
D15*
X18257000Y-3940000D02*
X18377000Y-3820000D01*
X18257000Y-3700000D01*
X18137000Y-3820000D01*
X18257000Y-3940000D01*
D16*
X11730000Y-3635000D02*
X12100000Y-4005000D01*
X12100000Y-3635000D02*
X11730000Y-4005000D01*
X12100000Y-3820000D02*
G75*
G03*
X12100000Y-3820000I-185000J0D01*
G01*
X17250000Y-2035000D02*
X17620000Y-2405000D01*
X17620000Y-2035000D02*
X17250000Y-2405000D01*
X17620000Y-2220000D02*
G75*
G03*
X17620000Y-2220000I-185000J0D01*
G01*
D11*
X9417099Y-12114556D02*
X9417099Y-11914556D01*
X9417099Y-11914556D02*
X9464718Y-11914556D01*
X9464718Y-11914556D02*
X9493290Y-11924080D01*
X9493290Y-11924080D02*
X9512337Y-11943128D01*
X9512337Y-11943128D02*
X9521861Y-11962175D01*
X9521861Y-11962175D02*
X9531385Y-12000270D01*
X9531385Y-12000270D02*
X9531385Y-12028842D01*
X9531385Y-12028842D02*
X9521861Y-12066937D01*
X9521861Y-12066937D02*
X9512337Y-12085985D01*
X9512337Y-12085985D02*
X9493290Y-12105032D01*
X9493290Y-12105032D02*
X9464718Y-12114556D01*
X9464718Y-12114556D02*
X9417099Y-12114556D01*
X9617099Y-12114556D02*
X9617099Y-11981223D01*
X9617099Y-12019318D02*
X9626623Y-12000270D01*
X9626623Y-12000270D02*
X9636147Y-11990747D01*
X9636147Y-11990747D02*
X9655194Y-11981223D01*
X9655194Y-11981223D02*
X9674242Y-11981223D01*
X9740909Y-12114556D02*
X9740909Y-11981223D01*
X9740909Y-11914556D02*
X9731385Y-11924080D01*
X9731385Y-11924080D02*
X9740909Y-11933604D01*
X9740909Y-11933604D02*
X9750432Y-11924080D01*
X9750432Y-11924080D02*
X9740909Y-11914556D01*
X9740909Y-11914556D02*
X9740909Y-11933604D01*
X9864718Y-12114556D02*
X9845670Y-12105032D01*
X9845670Y-12105032D02*
X9836147Y-12085985D01*
X9836147Y-12085985D02*
X9836147Y-11914556D01*
X9969480Y-12114556D02*
X9950432Y-12105032D01*
X9950432Y-12105032D02*
X9940909Y-12085985D01*
X9940909Y-12085985D02*
X9940909Y-11914556D01*
X10165670Y-12114556D02*
X10165670Y-11914556D01*
X10165670Y-11914556D02*
X10232337Y-12057413D01*
X10232337Y-12057413D02*
X10299004Y-11914556D01*
X10299004Y-11914556D02*
X10299004Y-12114556D01*
X10479956Y-12114556D02*
X10479956Y-12009794D01*
X10479956Y-12009794D02*
X10470432Y-11990747D01*
X10470432Y-11990747D02*
X10451385Y-11981223D01*
X10451385Y-11981223D02*
X10413289Y-11981223D01*
X10413289Y-11981223D02*
X10394242Y-11990747D01*
X10479956Y-12105032D02*
X10460909Y-12114556D01*
X10460909Y-12114556D02*
X10413289Y-12114556D01*
X10413289Y-12114556D02*
X10394242Y-12105032D01*
X10394242Y-12105032D02*
X10384718Y-12085985D01*
X10384718Y-12085985D02*
X10384718Y-12066937D01*
X10384718Y-12066937D02*
X10394242Y-12047889D01*
X10394242Y-12047889D02*
X10413289Y-12038366D01*
X10413289Y-12038366D02*
X10460909Y-12038366D01*
X10460909Y-12038366D02*
X10479956Y-12028842D01*
X10575194Y-11981223D02*
X10575194Y-12181223D01*
X10575194Y-11990747D02*
X10594242Y-11981223D01*
X10594242Y-11981223D02*
X10632337Y-11981223D01*
X10632337Y-11981223D02*
X10651385Y-11990747D01*
X10651385Y-11990747D02*
X10660909Y-12000270D01*
X10660909Y-12000270D02*
X10670432Y-12019318D01*
X10670432Y-12019318D02*
X10670432Y-12076461D01*
X10670432Y-12076461D02*
X10660909Y-12095508D01*
X10660909Y-12095508D02*
X10651385Y-12105032D01*
X10651385Y-12105032D02*
X10632337Y-12114556D01*
X10632337Y-12114556D02*
X10594242Y-12114556D01*
X10594242Y-12114556D02*
X10575194Y-12105032D01*
X10756147Y-12095508D02*
X10765670Y-12105032D01*
X10765670Y-12105032D02*
X10756147Y-12114556D01*
X10756147Y-12114556D02*
X10746623Y-12105032D01*
X10746623Y-12105032D02*
X10756147Y-12095508D01*
X10756147Y-12095508D02*
X10756147Y-12114556D01*
X10756147Y-11990747D02*
X10765670Y-12000270D01*
X10765670Y-12000270D02*
X10756147Y-12009794D01*
X10756147Y-12009794D02*
X10746623Y-12000270D01*
X10746623Y-12000270D02*
X10756147Y-11990747D01*
X10756147Y-11990747D02*
X10756147Y-12009794D01*
D12*
X9129480Y-12441080D02*
X9169480Y-12481080D01*
X9169480Y-12441080D02*
X9129480Y-12481080D01*
D11*
X9455194Y-12334556D02*
X9474242Y-12334556D01*
X9474242Y-12334556D02*
X9493290Y-12344080D01*
X9493290Y-12344080D02*
X9502813Y-12353604D01*
X9502813Y-12353604D02*
X9512337Y-12372651D01*
X9512337Y-12372651D02*
X9521861Y-12410747D01*
X9521861Y-12410747D02*
X9521861Y-12458366D01*
X9521861Y-12458366D02*
X9512337Y-12496461D01*
X9512337Y-12496461D02*
X9502813Y-12515508D01*
X9502813Y-12515508D02*
X9493290Y-12525032D01*
X9493290Y-12525032D02*
X9474242Y-12534556D01*
X9474242Y-12534556D02*
X9455194Y-12534556D01*
X9455194Y-12534556D02*
X9436147Y-12525032D01*
X9436147Y-12525032D02*
X9426623Y-12515508D01*
X9426623Y-12515508D02*
X9417099Y-12496461D01*
X9417099Y-12496461D02*
X9407575Y-12458366D01*
X9407575Y-12458366D02*
X9407575Y-12410747D01*
X9407575Y-12410747D02*
X9417099Y-12372651D01*
X9417099Y-12372651D02*
X9426623Y-12353604D01*
X9426623Y-12353604D02*
X9436147Y-12344080D01*
X9436147Y-12344080D02*
X9455194Y-12334556D01*
X9607575Y-12515508D02*
X9617099Y-12525032D01*
X9617099Y-12525032D02*
X9607575Y-12534556D01*
X9607575Y-12534556D02*
X9598051Y-12525032D01*
X9598051Y-12525032D02*
X9607575Y-12515508D01*
X9607575Y-12515508D02*
X9607575Y-12534556D01*
X9788528Y-12401223D02*
X9788528Y-12534556D01*
X9740909Y-12325032D02*
X9693290Y-12467889D01*
X9693290Y-12467889D02*
X9817099Y-12467889D01*
X9931385Y-12334556D02*
X9950432Y-12334556D01*
X9950432Y-12334556D02*
X9969480Y-12344080D01*
X9969480Y-12344080D02*
X9979004Y-12353604D01*
X9979004Y-12353604D02*
X9988528Y-12372651D01*
X9988528Y-12372651D02*
X9998051Y-12410747D01*
X9998051Y-12410747D02*
X9998051Y-12458366D01*
X9998051Y-12458366D02*
X9988528Y-12496461D01*
X9988528Y-12496461D02*
X9979004Y-12515508D01*
X9979004Y-12515508D02*
X9969480Y-12525032D01*
X9969480Y-12525032D02*
X9950432Y-12534556D01*
X9950432Y-12534556D02*
X9931385Y-12534556D01*
X9931385Y-12534556D02*
X9912337Y-12525032D01*
X9912337Y-12525032D02*
X9902813Y-12515508D01*
X9902813Y-12515508D02*
X9893290Y-12496461D01*
X9893290Y-12496461D02*
X9883766Y-12458366D01*
X9883766Y-12458366D02*
X9883766Y-12410747D01*
X9883766Y-12410747D02*
X9893290Y-12372651D01*
X9893290Y-12372651D02*
X9902813Y-12353604D01*
X9902813Y-12353604D02*
X9912337Y-12344080D01*
X9912337Y-12344080D02*
X9931385Y-12334556D01*
X10121861Y-12334556D02*
X10140909Y-12334556D01*
X10140909Y-12334556D02*
X10159956Y-12344080D01*
X10159956Y-12344080D02*
X10169480Y-12353604D01*
X10169480Y-12353604D02*
X10179004Y-12372651D01*
X10179004Y-12372651D02*
X10188528Y-12410747D01*
X10188528Y-12410747D02*
X10188528Y-12458366D01*
X10188528Y-12458366D02*
X10179004Y-12496461D01*
X10179004Y-12496461D02*
X10169480Y-12515508D01*
X10169480Y-12515508D02*
X10159956Y-12525032D01*
X10159956Y-12525032D02*
X10140909Y-12534556D01*
X10140909Y-12534556D02*
X10121861Y-12534556D01*
X10121861Y-12534556D02*
X10102813Y-12525032D01*
X10102813Y-12525032D02*
X10093290Y-12515508D01*
X10093290Y-12515508D02*
X10083766Y-12496461D01*
X10083766Y-12496461D02*
X10074242Y-12458366D01*
X10074242Y-12458366D02*
X10074242Y-12410747D01*
X10074242Y-12410747D02*
X10083766Y-12372651D01*
X10083766Y-12372651D02*
X10093290Y-12353604D01*
X10093290Y-12353604D02*
X10102813Y-12344080D01*
X10102813Y-12344080D02*
X10121861Y-12334556D01*
X10274242Y-12534556D02*
X10274242Y-12401223D01*
X10274242Y-12420270D02*
X10283766Y-12410747D01*
X10283766Y-12410747D02*
X10302813Y-12401223D01*
X10302813Y-12401223D02*
X10331385Y-12401223D01*
X10331385Y-12401223D02*
X10350432Y-12410747D01*
X10350432Y-12410747D02*
X10359956Y-12429794D01*
X10359956Y-12429794D02*
X10359956Y-12534556D01*
X10359956Y-12429794D02*
X10369480Y-12410747D01*
X10369480Y-12410747D02*
X10388528Y-12401223D01*
X10388528Y-12401223D02*
X10417099Y-12401223D01*
X10417099Y-12401223D02*
X10436147Y-12410747D01*
X10436147Y-12410747D02*
X10445671Y-12429794D01*
X10445671Y-12429794D02*
X10445671Y-12534556D01*
X10540909Y-12534556D02*
X10540909Y-12401223D01*
X10540909Y-12420270D02*
X10550432Y-12410747D01*
X10550432Y-12410747D02*
X10569480Y-12401223D01*
X10569480Y-12401223D02*
X10598052Y-12401223D01*
X10598052Y-12401223D02*
X10617099Y-12410747D01*
X10617099Y-12410747D02*
X10626623Y-12429794D01*
X10626623Y-12429794D02*
X10626623Y-12534556D01*
X10626623Y-12429794D02*
X10636147Y-12410747D01*
X10636147Y-12410747D02*
X10655194Y-12401223D01*
X10655194Y-12401223D02*
X10683766Y-12401223D01*
X10683766Y-12401223D02*
X10702813Y-12410747D01*
X10702813Y-12410747D02*
X10712337Y-12429794D01*
X10712337Y-12429794D02*
X10712337Y-12534556D01*
X11070432Y-12325032D02*
X10899004Y-12582175D01*
X11295194Y-12334556D02*
X11314242Y-12334556D01*
X11314242Y-12334556D02*
X11333290Y-12344080D01*
X11333290Y-12344080D02*
X11342813Y-12353604D01*
X11342813Y-12353604D02*
X11352337Y-12372651D01*
X11352337Y-12372651D02*
X11361861Y-12410747D01*
X11361861Y-12410747D02*
X11361861Y-12458366D01*
X11361861Y-12458366D02*
X11352337Y-12496461D01*
X11352337Y-12496461D02*
X11342813Y-12515508D01*
X11342813Y-12515508D02*
X11333290Y-12525032D01*
X11333290Y-12525032D02*
X11314242Y-12534556D01*
X11314242Y-12534556D02*
X11295194Y-12534556D01*
X11295194Y-12534556D02*
X11276147Y-12525032D01*
X11276147Y-12525032D02*
X11266623Y-12515508D01*
X11266623Y-12515508D02*
X11257099Y-12496461D01*
X11257099Y-12496461D02*
X11247575Y-12458366D01*
X11247575Y-12458366D02*
X11247575Y-12410747D01*
X11247575Y-12410747D02*
X11257099Y-12372651D01*
X11257099Y-12372651D02*
X11266623Y-12353604D01*
X11266623Y-12353604D02*
X11276147Y-12344080D01*
X11276147Y-12344080D02*
X11295194Y-12334556D01*
X11447575Y-12515508D02*
X11457099Y-12525032D01*
X11457099Y-12525032D02*
X11447575Y-12534556D01*
X11447575Y-12534556D02*
X11438051Y-12525032D01*
X11438051Y-12525032D02*
X11447575Y-12515508D01*
X11447575Y-12515508D02*
X11447575Y-12534556D01*
X11580909Y-12334556D02*
X11599956Y-12334556D01*
X11599956Y-12334556D02*
X11619004Y-12344080D01*
X11619004Y-12344080D02*
X11628528Y-12353604D01*
X11628528Y-12353604D02*
X11638051Y-12372651D01*
X11638051Y-12372651D02*
X11647575Y-12410747D01*
X11647575Y-12410747D02*
X11647575Y-12458366D01*
X11647575Y-12458366D02*
X11638051Y-12496461D01*
X11638051Y-12496461D02*
X11628528Y-12515508D01*
X11628528Y-12515508D02*
X11619004Y-12525032D01*
X11619004Y-12525032D02*
X11599956Y-12534556D01*
X11599956Y-12534556D02*
X11580909Y-12534556D01*
X11580909Y-12534556D02*
X11561861Y-12525032D01*
X11561861Y-12525032D02*
X11552337Y-12515508D01*
X11552337Y-12515508D02*
X11542813Y-12496461D01*
X11542813Y-12496461D02*
X11533290Y-12458366D01*
X11533290Y-12458366D02*
X11533290Y-12410747D01*
X11533290Y-12410747D02*
X11542813Y-12372651D01*
X11542813Y-12372651D02*
X11552337Y-12353604D01*
X11552337Y-12353604D02*
X11561861Y-12344080D01*
X11561861Y-12344080D02*
X11580909Y-12334556D01*
X11838051Y-12534556D02*
X11723766Y-12534556D01*
X11780909Y-12534556D02*
X11780909Y-12334556D01*
X11780909Y-12334556D02*
X11761861Y-12363128D01*
X11761861Y-12363128D02*
X11742813Y-12382175D01*
X11742813Y-12382175D02*
X11723766Y-12391699D01*
X12019004Y-12334556D02*
X11923766Y-12334556D01*
X11923766Y-12334556D02*
X11914242Y-12429794D01*
X11914242Y-12429794D02*
X11923766Y-12420270D01*
X11923766Y-12420270D02*
X11942813Y-12410747D01*
X11942813Y-12410747D02*
X11990432Y-12410747D01*
X11990432Y-12410747D02*
X12009480Y-12420270D01*
X12009480Y-12420270D02*
X12019004Y-12429794D01*
X12019004Y-12429794D02*
X12028528Y-12448842D01*
X12028528Y-12448842D02*
X12028528Y-12496461D01*
X12028528Y-12496461D02*
X12019004Y-12515508D01*
X12019004Y-12515508D02*
X12009480Y-12525032D01*
X12009480Y-12525032D02*
X11990432Y-12534556D01*
X11990432Y-12534556D02*
X11942813Y-12534556D01*
X11942813Y-12534556D02*
X11923766Y-12525032D01*
X11923766Y-12525032D02*
X11914242Y-12515508D01*
X12095194Y-12334556D02*
X12228528Y-12334556D01*
X12228528Y-12334556D02*
X12142813Y-12534556D01*
X12295194Y-12334556D02*
X12295194Y-12372651D01*
X12371385Y-12334556D02*
X12371385Y-12372651D01*
X12634242Y-12610747D02*
X12624718Y-12601223D01*
X12624718Y-12601223D02*
X12605671Y-12572651D01*
X12605671Y-12572651D02*
X12596147Y-12553604D01*
X12596147Y-12553604D02*
X12586623Y-12525032D01*
X12586623Y-12525032D02*
X12577099Y-12477413D01*
X12577099Y-12477413D02*
X12577099Y-12439318D01*
X12577099Y-12439318D02*
X12586623Y-12391699D01*
X12586623Y-12391699D02*
X12596147Y-12363128D01*
X12596147Y-12363128D02*
X12605671Y-12344080D01*
X12605671Y-12344080D02*
X12624718Y-12315508D01*
X12624718Y-12315508D02*
X12634242Y-12305985D01*
X12796147Y-12401223D02*
X12796147Y-12534556D01*
X12748528Y-12325032D02*
X12700909Y-12467889D01*
X12700909Y-12467889D02*
X12824718Y-12467889D01*
X12891385Y-12353604D02*
X12900909Y-12344080D01*
X12900909Y-12344080D02*
X12919956Y-12334556D01*
X12919956Y-12334556D02*
X12967575Y-12334556D01*
X12967575Y-12334556D02*
X12986623Y-12344080D01*
X12986623Y-12344080D02*
X12996147Y-12353604D01*
X12996147Y-12353604D02*
X13005671Y-12372651D01*
X13005671Y-12372651D02*
X13005671Y-12391699D01*
X13005671Y-12391699D02*
X12996147Y-12420270D01*
X12996147Y-12420270D02*
X12881861Y-12534556D01*
X12881861Y-12534556D02*
X13005671Y-12534556D01*
X13211385Y-12534556D02*
X13211385Y-12334556D01*
X13297099Y-12534556D02*
X13297099Y-12429794D01*
X13297099Y-12429794D02*
X13287575Y-12410747D01*
X13287575Y-12410747D02*
X13268528Y-12401223D01*
X13268528Y-12401223D02*
X13239956Y-12401223D01*
X13239956Y-12401223D02*
X13220909Y-12410747D01*
X13220909Y-12410747D02*
X13211385Y-12420270D01*
X13420909Y-12534556D02*
X13401861Y-12525032D01*
X13401861Y-12525032D02*
X13392337Y-12515508D01*
X13392337Y-12515508D02*
X13382813Y-12496461D01*
X13382813Y-12496461D02*
X13382813Y-12439318D01*
X13382813Y-12439318D02*
X13392337Y-12420270D01*
X13392337Y-12420270D02*
X13401861Y-12410747D01*
X13401861Y-12410747D02*
X13420909Y-12401223D01*
X13420909Y-12401223D02*
X13449480Y-12401223D01*
X13449480Y-12401223D02*
X13468528Y-12410747D01*
X13468528Y-12410747D02*
X13478052Y-12420270D01*
X13478052Y-12420270D02*
X13487575Y-12439318D01*
X13487575Y-12439318D02*
X13487575Y-12496461D01*
X13487575Y-12496461D02*
X13478052Y-12515508D01*
X13478052Y-12515508D02*
X13468528Y-12525032D01*
X13468528Y-12525032D02*
X13449480Y-12534556D01*
X13449480Y-12534556D02*
X13420909Y-12534556D01*
X13601861Y-12534556D02*
X13582813Y-12525032D01*
X13582813Y-12525032D02*
X13573290Y-12505985D01*
X13573290Y-12505985D02*
X13573290Y-12334556D01*
X13754242Y-12525032D02*
X13735194Y-12534556D01*
X13735194Y-12534556D02*
X13697099Y-12534556D01*
X13697099Y-12534556D02*
X13678052Y-12525032D01*
X13678052Y-12525032D02*
X13668528Y-12505985D01*
X13668528Y-12505985D02*
X13668528Y-12429794D01*
X13668528Y-12429794D02*
X13678052Y-12410747D01*
X13678052Y-12410747D02*
X13697099Y-12401223D01*
X13697099Y-12401223D02*
X13735194Y-12401223D01*
X13735194Y-12401223D02*
X13754242Y-12410747D01*
X13754242Y-12410747D02*
X13763766Y-12429794D01*
X13763766Y-12429794D02*
X13763766Y-12448842D01*
X13763766Y-12448842D02*
X13668528Y-12467889D01*
X13839956Y-12525032D02*
X13859004Y-12534556D01*
X13859004Y-12534556D02*
X13897099Y-12534556D01*
X13897099Y-12534556D02*
X13916147Y-12525032D01*
X13916147Y-12525032D02*
X13925671Y-12505985D01*
X13925671Y-12505985D02*
X13925671Y-12496461D01*
X13925671Y-12496461D02*
X13916147Y-12477413D01*
X13916147Y-12477413D02*
X13897099Y-12467889D01*
X13897099Y-12467889D02*
X13868528Y-12467889D01*
X13868528Y-12467889D02*
X13849480Y-12458366D01*
X13849480Y-12458366D02*
X13839956Y-12439318D01*
X13839956Y-12439318D02*
X13839956Y-12429794D01*
X13839956Y-12429794D02*
X13849480Y-12410747D01*
X13849480Y-12410747D02*
X13868528Y-12401223D01*
X13868528Y-12401223D02*
X13897099Y-12401223D01*
X13897099Y-12401223D02*
X13916147Y-12410747D01*
X13992337Y-12610747D02*
X14001861Y-12601223D01*
X14001861Y-12601223D02*
X14020909Y-12572651D01*
X14020909Y-12572651D02*
X14030433Y-12553604D01*
X14030433Y-12553604D02*
X14039956Y-12525032D01*
X14039956Y-12525032D02*
X14049480Y-12477413D01*
X14049480Y-12477413D02*
X14049480Y-12439318D01*
X14049480Y-12439318D02*
X14039956Y-12391699D01*
X14039956Y-12391699D02*
X14030433Y-12363128D01*
X14030433Y-12363128D02*
X14020909Y-12344080D01*
X14020909Y-12344080D02*
X14001861Y-12315508D01*
X14001861Y-12315508D02*
X13992337Y-12305985D01*
D13*
X9169480Y-12725080D02*
G75*
G03*
X9169480Y-12725080I-25000J0D01*
G01*
D11*
X9455194Y-12598556D02*
X9474242Y-12598556D01*
X9474242Y-12598556D02*
X9493290Y-12608080D01*
X9493290Y-12608080D02*
X9502813Y-12617604D01*
X9502813Y-12617604D02*
X9512337Y-12636651D01*
X9512337Y-12636651D02*
X9521861Y-12674747D01*
X9521861Y-12674747D02*
X9521861Y-12722366D01*
X9521861Y-12722366D02*
X9512337Y-12760461D01*
X9512337Y-12760461D02*
X9502813Y-12779508D01*
X9502813Y-12779508D02*
X9493290Y-12789032D01*
X9493290Y-12789032D02*
X9474242Y-12798556D01*
X9474242Y-12798556D02*
X9455194Y-12798556D01*
X9455194Y-12798556D02*
X9436147Y-12789032D01*
X9436147Y-12789032D02*
X9426623Y-12779508D01*
X9426623Y-12779508D02*
X9417099Y-12760461D01*
X9417099Y-12760461D02*
X9407575Y-12722366D01*
X9407575Y-12722366D02*
X9407575Y-12674747D01*
X9407575Y-12674747D02*
X9417099Y-12636651D01*
X9417099Y-12636651D02*
X9426623Y-12617604D01*
X9426623Y-12617604D02*
X9436147Y-12608080D01*
X9436147Y-12608080D02*
X9455194Y-12598556D01*
X9607575Y-12779508D02*
X9617099Y-12789032D01*
X9617099Y-12789032D02*
X9607575Y-12798556D01*
X9607575Y-12798556D02*
X9598051Y-12789032D01*
X9598051Y-12789032D02*
X9607575Y-12779508D01*
X9607575Y-12779508D02*
X9607575Y-12798556D01*
X9798051Y-12598556D02*
X9702813Y-12598556D01*
X9702813Y-12598556D02*
X9693290Y-12693794D01*
X9693290Y-12693794D02*
X9702813Y-12684270D01*
X9702813Y-12684270D02*
X9721861Y-12674747D01*
X9721861Y-12674747D02*
X9769480Y-12674747D01*
X9769480Y-12674747D02*
X9788528Y-12684270D01*
X9788528Y-12684270D02*
X9798051Y-12693794D01*
X9798051Y-12693794D02*
X9807575Y-12712842D01*
X9807575Y-12712842D02*
X9807575Y-12760461D01*
X9807575Y-12760461D02*
X9798051Y-12779508D01*
X9798051Y-12779508D02*
X9788528Y-12789032D01*
X9788528Y-12789032D02*
X9769480Y-12798556D01*
X9769480Y-12798556D02*
X9721861Y-12798556D01*
X9721861Y-12798556D02*
X9702813Y-12789032D01*
X9702813Y-12789032D02*
X9693290Y-12779508D01*
X9931385Y-12598556D02*
X9950432Y-12598556D01*
X9950432Y-12598556D02*
X9969480Y-12608080D01*
X9969480Y-12608080D02*
X9979004Y-12617604D01*
X9979004Y-12617604D02*
X9988528Y-12636651D01*
X9988528Y-12636651D02*
X9998051Y-12674747D01*
X9998051Y-12674747D02*
X9998051Y-12722366D01*
X9998051Y-12722366D02*
X9988528Y-12760461D01*
X9988528Y-12760461D02*
X9979004Y-12779508D01*
X9979004Y-12779508D02*
X9969480Y-12789032D01*
X9969480Y-12789032D02*
X9950432Y-12798556D01*
X9950432Y-12798556D02*
X9931385Y-12798556D01*
X9931385Y-12798556D02*
X9912337Y-12789032D01*
X9912337Y-12789032D02*
X9902813Y-12779508D01*
X9902813Y-12779508D02*
X9893290Y-12760461D01*
X9893290Y-12760461D02*
X9883766Y-12722366D01*
X9883766Y-12722366D02*
X9883766Y-12674747D01*
X9883766Y-12674747D02*
X9893290Y-12636651D01*
X9893290Y-12636651D02*
X9902813Y-12617604D01*
X9902813Y-12617604D02*
X9912337Y-12608080D01*
X9912337Y-12608080D02*
X9931385Y-12598556D01*
X10121861Y-12598556D02*
X10140909Y-12598556D01*
X10140909Y-12598556D02*
X10159956Y-12608080D01*
X10159956Y-12608080D02*
X10169480Y-12617604D01*
X10169480Y-12617604D02*
X10179004Y-12636651D01*
X10179004Y-12636651D02*
X10188528Y-12674747D01*
X10188528Y-12674747D02*
X10188528Y-12722366D01*
X10188528Y-12722366D02*
X10179004Y-12760461D01*
X10179004Y-12760461D02*
X10169480Y-12779508D01*
X10169480Y-12779508D02*
X10159956Y-12789032D01*
X10159956Y-12789032D02*
X10140909Y-12798556D01*
X10140909Y-12798556D02*
X10121861Y-12798556D01*
X10121861Y-12798556D02*
X10102813Y-12789032D01*
X10102813Y-12789032D02*
X10093290Y-12779508D01*
X10093290Y-12779508D02*
X10083766Y-12760461D01*
X10083766Y-12760461D02*
X10074242Y-12722366D01*
X10074242Y-12722366D02*
X10074242Y-12674747D01*
X10074242Y-12674747D02*
X10083766Y-12636651D01*
X10083766Y-12636651D02*
X10093290Y-12617604D01*
X10093290Y-12617604D02*
X10102813Y-12608080D01*
X10102813Y-12608080D02*
X10121861Y-12598556D01*
X10274242Y-12798556D02*
X10274242Y-12665223D01*
X10274242Y-12684270D02*
X10283766Y-12674747D01*
X10283766Y-12674747D02*
X10302813Y-12665223D01*
X10302813Y-12665223D02*
X10331385Y-12665223D01*
X10331385Y-12665223D02*
X10350432Y-12674747D01*
X10350432Y-12674747D02*
X10359956Y-12693794D01*
X10359956Y-12693794D02*
X10359956Y-12798556D01*
X10359956Y-12693794D02*
X10369480Y-12674747D01*
X10369480Y-12674747D02*
X10388528Y-12665223D01*
X10388528Y-12665223D02*
X10417099Y-12665223D01*
X10417099Y-12665223D02*
X10436147Y-12674747D01*
X10436147Y-12674747D02*
X10445671Y-12693794D01*
X10445671Y-12693794D02*
X10445671Y-12798556D01*
X10540909Y-12798556D02*
X10540909Y-12665223D01*
X10540909Y-12684270D02*
X10550432Y-12674747D01*
X10550432Y-12674747D02*
X10569480Y-12665223D01*
X10569480Y-12665223D02*
X10598052Y-12665223D01*
X10598052Y-12665223D02*
X10617099Y-12674747D01*
X10617099Y-12674747D02*
X10626623Y-12693794D01*
X10626623Y-12693794D02*
X10626623Y-12798556D01*
X10626623Y-12693794D02*
X10636147Y-12674747D01*
X10636147Y-12674747D02*
X10655194Y-12665223D01*
X10655194Y-12665223D02*
X10683766Y-12665223D01*
X10683766Y-12665223D02*
X10702813Y-12674747D01*
X10702813Y-12674747D02*
X10712337Y-12693794D01*
X10712337Y-12693794D02*
X10712337Y-12798556D01*
X11070432Y-12589032D02*
X10899004Y-12846175D01*
X11295194Y-12598556D02*
X11314242Y-12598556D01*
X11314242Y-12598556D02*
X11333290Y-12608080D01*
X11333290Y-12608080D02*
X11342813Y-12617604D01*
X11342813Y-12617604D02*
X11352337Y-12636651D01*
X11352337Y-12636651D02*
X11361861Y-12674747D01*
X11361861Y-12674747D02*
X11361861Y-12722366D01*
X11361861Y-12722366D02*
X11352337Y-12760461D01*
X11352337Y-12760461D02*
X11342813Y-12779508D01*
X11342813Y-12779508D02*
X11333290Y-12789032D01*
X11333290Y-12789032D02*
X11314242Y-12798556D01*
X11314242Y-12798556D02*
X11295194Y-12798556D01*
X11295194Y-12798556D02*
X11276147Y-12789032D01*
X11276147Y-12789032D02*
X11266623Y-12779508D01*
X11266623Y-12779508D02*
X11257099Y-12760461D01*
X11257099Y-12760461D02*
X11247575Y-12722366D01*
X11247575Y-12722366D02*
X11247575Y-12674747D01*
X11247575Y-12674747D02*
X11257099Y-12636651D01*
X11257099Y-12636651D02*
X11266623Y-12617604D01*
X11266623Y-12617604D02*
X11276147Y-12608080D01*
X11276147Y-12608080D02*
X11295194Y-12598556D01*
X11447575Y-12779508D02*
X11457099Y-12789032D01*
X11457099Y-12789032D02*
X11447575Y-12798556D01*
X11447575Y-12798556D02*
X11438051Y-12789032D01*
X11438051Y-12789032D02*
X11447575Y-12779508D01*
X11447575Y-12779508D02*
X11447575Y-12798556D01*
X11580909Y-12598556D02*
X11599956Y-12598556D01*
X11599956Y-12598556D02*
X11619004Y-12608080D01*
X11619004Y-12608080D02*
X11628528Y-12617604D01*
X11628528Y-12617604D02*
X11638051Y-12636651D01*
X11638051Y-12636651D02*
X11647575Y-12674747D01*
X11647575Y-12674747D02*
X11647575Y-12722366D01*
X11647575Y-12722366D02*
X11638051Y-12760461D01*
X11638051Y-12760461D02*
X11628528Y-12779508D01*
X11628528Y-12779508D02*
X11619004Y-12789032D01*
X11619004Y-12789032D02*
X11599956Y-12798556D01*
X11599956Y-12798556D02*
X11580909Y-12798556D01*
X11580909Y-12798556D02*
X11561861Y-12789032D01*
X11561861Y-12789032D02*
X11552337Y-12779508D01*
X11552337Y-12779508D02*
X11542813Y-12760461D01*
X11542813Y-12760461D02*
X11533290Y-12722366D01*
X11533290Y-12722366D02*
X11533290Y-12674747D01*
X11533290Y-12674747D02*
X11542813Y-12636651D01*
X11542813Y-12636651D02*
X11552337Y-12617604D01*
X11552337Y-12617604D02*
X11561861Y-12608080D01*
X11561861Y-12608080D02*
X11580909Y-12598556D01*
X11838051Y-12798556D02*
X11723766Y-12798556D01*
X11780909Y-12798556D02*
X11780909Y-12598556D01*
X11780909Y-12598556D02*
X11761861Y-12627128D01*
X11761861Y-12627128D02*
X11742813Y-12646175D01*
X11742813Y-12646175D02*
X11723766Y-12655699D01*
X11933290Y-12798556D02*
X11971385Y-12798556D01*
X11971385Y-12798556D02*
X11990432Y-12789032D01*
X11990432Y-12789032D02*
X11999956Y-12779508D01*
X11999956Y-12779508D02*
X12019004Y-12750937D01*
X12019004Y-12750937D02*
X12028528Y-12712842D01*
X12028528Y-12712842D02*
X12028528Y-12636651D01*
X12028528Y-12636651D02*
X12019004Y-12617604D01*
X12019004Y-12617604D02*
X12009480Y-12608080D01*
X12009480Y-12608080D02*
X11990432Y-12598556D01*
X11990432Y-12598556D02*
X11952337Y-12598556D01*
X11952337Y-12598556D02*
X11933290Y-12608080D01*
X11933290Y-12608080D02*
X11923766Y-12617604D01*
X11923766Y-12617604D02*
X11914242Y-12636651D01*
X11914242Y-12636651D02*
X11914242Y-12684270D01*
X11914242Y-12684270D02*
X11923766Y-12703318D01*
X11923766Y-12703318D02*
X11933290Y-12712842D01*
X11933290Y-12712842D02*
X11952337Y-12722366D01*
X11952337Y-12722366D02*
X11990432Y-12722366D01*
X11990432Y-12722366D02*
X12009480Y-12712842D01*
X12009480Y-12712842D02*
X12019004Y-12703318D01*
X12019004Y-12703318D02*
X12028528Y-12684270D01*
X12095194Y-12598556D02*
X12228528Y-12598556D01*
X12228528Y-12598556D02*
X12142813Y-12798556D01*
X12295194Y-12598556D02*
X12295194Y-12636651D01*
X12371385Y-12598556D02*
X12371385Y-12636651D01*
X12634242Y-12874747D02*
X12624718Y-12865223D01*
X12624718Y-12865223D02*
X12605671Y-12836651D01*
X12605671Y-12836651D02*
X12596147Y-12817604D01*
X12596147Y-12817604D02*
X12586623Y-12789032D01*
X12586623Y-12789032D02*
X12577099Y-12741413D01*
X12577099Y-12741413D02*
X12577099Y-12703318D01*
X12577099Y-12703318D02*
X12586623Y-12655699D01*
X12586623Y-12655699D02*
X12596147Y-12627128D01*
X12596147Y-12627128D02*
X12605671Y-12608080D01*
X12605671Y-12608080D02*
X12624718Y-12579508D01*
X12624718Y-12579508D02*
X12634242Y-12569985D01*
X12748528Y-12598556D02*
X12767575Y-12598556D01*
X12767575Y-12598556D02*
X12786623Y-12608080D01*
X12786623Y-12608080D02*
X12796147Y-12617604D01*
X12796147Y-12617604D02*
X12805671Y-12636651D01*
X12805671Y-12636651D02*
X12815194Y-12674747D01*
X12815194Y-12674747D02*
X12815194Y-12722366D01*
X12815194Y-12722366D02*
X12805671Y-12760461D01*
X12805671Y-12760461D02*
X12796147Y-12779508D01*
X12796147Y-12779508D02*
X12786623Y-12789032D01*
X12786623Y-12789032D02*
X12767575Y-12798556D01*
X12767575Y-12798556D02*
X12748528Y-12798556D01*
X12748528Y-12798556D02*
X12729480Y-12789032D01*
X12729480Y-12789032D02*
X12719956Y-12779508D01*
X12719956Y-12779508D02*
X12710432Y-12760461D01*
X12710432Y-12760461D02*
X12700909Y-12722366D01*
X12700909Y-12722366D02*
X12700909Y-12674747D01*
X12700909Y-12674747D02*
X12710432Y-12636651D01*
X12710432Y-12636651D02*
X12719956Y-12617604D01*
X12719956Y-12617604D02*
X12729480Y-12608080D01*
X12729480Y-12608080D02*
X12748528Y-12598556D01*
X13020909Y-12798556D02*
X13020909Y-12598556D01*
X13106623Y-12798556D02*
X13106623Y-12693794D01*
X13106623Y-12693794D02*
X13097099Y-12674747D01*
X13097099Y-12674747D02*
X13078052Y-12665223D01*
X13078052Y-12665223D02*
X13049480Y-12665223D01*
X13049480Y-12665223D02*
X13030432Y-12674747D01*
X13030432Y-12674747D02*
X13020909Y-12684270D01*
X13230432Y-12798556D02*
X13211385Y-12789032D01*
X13211385Y-12789032D02*
X13201861Y-12779508D01*
X13201861Y-12779508D02*
X13192337Y-12760461D01*
X13192337Y-12760461D02*
X13192337Y-12703318D01*
X13192337Y-12703318D02*
X13201861Y-12684270D01*
X13201861Y-12684270D02*
X13211385Y-12674747D01*
X13211385Y-12674747D02*
X13230432Y-12665223D01*
X13230432Y-12665223D02*
X13259004Y-12665223D01*
X13259004Y-12665223D02*
X13278052Y-12674747D01*
X13278052Y-12674747D02*
X13287575Y-12684270D01*
X13287575Y-12684270D02*
X13297099Y-12703318D01*
X13297099Y-12703318D02*
X13297099Y-12760461D01*
X13297099Y-12760461D02*
X13287575Y-12779508D01*
X13287575Y-12779508D02*
X13278052Y-12789032D01*
X13278052Y-12789032D02*
X13259004Y-12798556D01*
X13259004Y-12798556D02*
X13230432Y-12798556D01*
X13411385Y-12798556D02*
X13392337Y-12789032D01*
X13392337Y-12789032D02*
X13382813Y-12769985D01*
X13382813Y-12769985D02*
X13382813Y-12598556D01*
X13563766Y-12789032D02*
X13544718Y-12798556D01*
X13544718Y-12798556D02*
X13506623Y-12798556D01*
X13506623Y-12798556D02*
X13487575Y-12789032D01*
X13487575Y-12789032D02*
X13478052Y-12769985D01*
X13478052Y-12769985D02*
X13478052Y-12693794D01*
X13478052Y-12693794D02*
X13487575Y-12674747D01*
X13487575Y-12674747D02*
X13506623Y-12665223D01*
X13506623Y-12665223D02*
X13544718Y-12665223D01*
X13544718Y-12665223D02*
X13563766Y-12674747D01*
X13563766Y-12674747D02*
X13573290Y-12693794D01*
X13573290Y-12693794D02*
X13573290Y-12712842D01*
X13573290Y-12712842D02*
X13478052Y-12731889D01*
X13649480Y-12789032D02*
X13668528Y-12798556D01*
X13668528Y-12798556D02*
X13706623Y-12798556D01*
X13706623Y-12798556D02*
X13725671Y-12789032D01*
X13725671Y-12789032D02*
X13735194Y-12769985D01*
X13735194Y-12769985D02*
X13735194Y-12760461D01*
X13735194Y-12760461D02*
X13725671Y-12741413D01*
X13725671Y-12741413D02*
X13706623Y-12731889D01*
X13706623Y-12731889D02*
X13678052Y-12731889D01*
X13678052Y-12731889D02*
X13659004Y-12722366D01*
X13659004Y-12722366D02*
X13649480Y-12703318D01*
X13649480Y-12703318D02*
X13649480Y-12693794D01*
X13649480Y-12693794D02*
X13659004Y-12674747D01*
X13659004Y-12674747D02*
X13678052Y-12665223D01*
X13678052Y-12665223D02*
X13706623Y-12665223D01*
X13706623Y-12665223D02*
X13725671Y-12674747D01*
X13940909Y-12722366D02*
X14093290Y-12722366D01*
X14017099Y-12798556D02*
X14017099Y-12646175D01*
X14299004Y-12617604D02*
X14308528Y-12608080D01*
X14308528Y-12608080D02*
X14327575Y-12598556D01*
X14327575Y-12598556D02*
X14375194Y-12598556D01*
X14375194Y-12598556D02*
X14394242Y-12608080D01*
X14394242Y-12608080D02*
X14403766Y-12617604D01*
X14403766Y-12617604D02*
X14413290Y-12636651D01*
X14413290Y-12636651D02*
X14413290Y-12655699D01*
X14413290Y-12655699D02*
X14403766Y-12684270D01*
X14403766Y-12684270D02*
X14289480Y-12798556D01*
X14289480Y-12798556D02*
X14413290Y-12798556D01*
X14609480Y-12789032D02*
X14628528Y-12798556D01*
X14628528Y-12798556D02*
X14666623Y-12798556D01*
X14666623Y-12798556D02*
X14685671Y-12789032D01*
X14685671Y-12789032D02*
X14695194Y-12769985D01*
X14695194Y-12769985D02*
X14695194Y-12760461D01*
X14695194Y-12760461D02*
X14685671Y-12741413D01*
X14685671Y-12741413D02*
X14666623Y-12731889D01*
X14666623Y-12731889D02*
X14638052Y-12731889D01*
X14638052Y-12731889D02*
X14619004Y-12722366D01*
X14619004Y-12722366D02*
X14609480Y-12703318D01*
X14609480Y-12703318D02*
X14609480Y-12693794D01*
X14609480Y-12693794D02*
X14619004Y-12674747D01*
X14619004Y-12674747D02*
X14638052Y-12665223D01*
X14638052Y-12665223D02*
X14666623Y-12665223D01*
X14666623Y-12665223D02*
X14685671Y-12674747D01*
X14809480Y-12798556D02*
X14790433Y-12789032D01*
X14790433Y-12789032D02*
X14780909Y-12769985D01*
X14780909Y-12769985D02*
X14780909Y-12598556D01*
X14914242Y-12798556D02*
X14895194Y-12789032D01*
X14895194Y-12789032D02*
X14885671Y-12779508D01*
X14885671Y-12779508D02*
X14876147Y-12760461D01*
X14876147Y-12760461D02*
X14876147Y-12703318D01*
X14876147Y-12703318D02*
X14885671Y-12684270D01*
X14885671Y-12684270D02*
X14895194Y-12674747D01*
X14895194Y-12674747D02*
X14914242Y-12665223D01*
X14914242Y-12665223D02*
X14942814Y-12665223D01*
X14942814Y-12665223D02*
X14961861Y-12674747D01*
X14961861Y-12674747D02*
X14971385Y-12684270D01*
X14971385Y-12684270D02*
X14980909Y-12703318D01*
X14980909Y-12703318D02*
X14980909Y-12760461D01*
X14980909Y-12760461D02*
X14971385Y-12779508D01*
X14971385Y-12779508D02*
X14961861Y-12789032D01*
X14961861Y-12789032D02*
X14942814Y-12798556D01*
X14942814Y-12798556D02*
X14914242Y-12798556D01*
X15038052Y-12665223D02*
X15114242Y-12665223D01*
X15066623Y-12598556D02*
X15066623Y-12769985D01*
X15066623Y-12769985D02*
X15076147Y-12789032D01*
X15076147Y-12789032D02*
X15095194Y-12798556D01*
X15095194Y-12798556D02*
X15114242Y-12798556D01*
X15171385Y-12789032D02*
X15190433Y-12798556D01*
X15190433Y-12798556D02*
X15228528Y-12798556D01*
X15228528Y-12798556D02*
X15247575Y-12789032D01*
X15247575Y-12789032D02*
X15257099Y-12769985D01*
X15257099Y-12769985D02*
X15257099Y-12760461D01*
X15257099Y-12760461D02*
X15247575Y-12741413D01*
X15247575Y-12741413D02*
X15228528Y-12731889D01*
X15228528Y-12731889D02*
X15199956Y-12731889D01*
X15199956Y-12731889D02*
X15180909Y-12722366D01*
X15180909Y-12722366D02*
X15171385Y-12703318D01*
X15171385Y-12703318D02*
X15171385Y-12693794D01*
X15171385Y-12693794D02*
X15180909Y-12674747D01*
X15180909Y-12674747D02*
X15199956Y-12665223D01*
X15199956Y-12665223D02*
X15228528Y-12665223D01*
X15228528Y-12665223D02*
X15247575Y-12674747D01*
X15323766Y-12874747D02*
X15333290Y-12865223D01*
X15333290Y-12865223D02*
X15352337Y-12836651D01*
X15352337Y-12836651D02*
X15361861Y-12817604D01*
X15361861Y-12817604D02*
X15371385Y-12789032D01*
X15371385Y-12789032D02*
X15380909Y-12741413D01*
X15380909Y-12741413D02*
X15380909Y-12703318D01*
X15380909Y-12703318D02*
X15371385Y-12655699D01*
X15371385Y-12655699D02*
X15361861Y-12627128D01*
X15361861Y-12627128D02*
X15352337Y-12608080D01*
X15352337Y-12608080D02*
X15333290Y-12579508D01*
X15333290Y-12579508D02*
X15323766Y-12569985D01*
D14*
X9134480Y-12954080D02*
X9134480Y-13024080D01*
X9099480Y-12989080D02*
X9169480Y-12989080D01*
D11*
X9455194Y-12862556D02*
X9474242Y-12862556D01*
X9474242Y-12862556D02*
X9493290Y-12872080D01*
X9493290Y-12872080D02*
X9502813Y-12881604D01*
X9502813Y-12881604D02*
X9512337Y-12900651D01*
X9512337Y-12900651D02*
X9521861Y-12938747D01*
X9521861Y-12938747D02*
X9521861Y-12986366D01*
X9521861Y-12986366D02*
X9512337Y-13024461D01*
X9512337Y-13024461D02*
X9502813Y-13043508D01*
X9502813Y-13043508D02*
X9493290Y-13053032D01*
X9493290Y-13053032D02*
X9474242Y-13062556D01*
X9474242Y-13062556D02*
X9455194Y-13062556D01*
X9455194Y-13062556D02*
X9436147Y-13053032D01*
X9436147Y-13053032D02*
X9426623Y-13043508D01*
X9426623Y-13043508D02*
X9417099Y-13024461D01*
X9417099Y-13024461D02*
X9407575Y-12986366D01*
X9407575Y-12986366D02*
X9407575Y-12938747D01*
X9407575Y-12938747D02*
X9417099Y-12900651D01*
X9417099Y-12900651D02*
X9426623Y-12881604D01*
X9426623Y-12881604D02*
X9436147Y-12872080D01*
X9436147Y-12872080D02*
X9455194Y-12862556D01*
X9607575Y-13043508D02*
X9617099Y-13053032D01*
X9617099Y-13053032D02*
X9607575Y-13062556D01*
X9607575Y-13062556D02*
X9598051Y-13053032D01*
X9598051Y-13053032D02*
X9607575Y-13043508D01*
X9607575Y-13043508D02*
X9607575Y-13062556D01*
X9683766Y-12862556D02*
X9817099Y-12862556D01*
X9817099Y-12862556D02*
X9731385Y-13062556D01*
X9931385Y-12862556D02*
X9950432Y-12862556D01*
X9950432Y-12862556D02*
X9969480Y-12872080D01*
X9969480Y-12872080D02*
X9979004Y-12881604D01*
X9979004Y-12881604D02*
X9988528Y-12900651D01*
X9988528Y-12900651D02*
X9998051Y-12938747D01*
X9998051Y-12938747D02*
X9998051Y-12986366D01*
X9998051Y-12986366D02*
X9988528Y-13024461D01*
X9988528Y-13024461D02*
X9979004Y-13043508D01*
X9979004Y-13043508D02*
X9969480Y-13053032D01*
X9969480Y-13053032D02*
X9950432Y-13062556D01*
X9950432Y-13062556D02*
X9931385Y-13062556D01*
X9931385Y-13062556D02*
X9912337Y-13053032D01*
X9912337Y-13053032D02*
X9902813Y-13043508D01*
X9902813Y-13043508D02*
X9893290Y-13024461D01*
X9893290Y-13024461D02*
X9883766Y-12986366D01*
X9883766Y-12986366D02*
X9883766Y-12938747D01*
X9883766Y-12938747D02*
X9893290Y-12900651D01*
X9893290Y-12900651D02*
X9902813Y-12881604D01*
X9902813Y-12881604D02*
X9912337Y-12872080D01*
X9912337Y-12872080D02*
X9931385Y-12862556D01*
X10121861Y-12862556D02*
X10140909Y-12862556D01*
X10140909Y-12862556D02*
X10159956Y-12872080D01*
X10159956Y-12872080D02*
X10169480Y-12881604D01*
X10169480Y-12881604D02*
X10179004Y-12900651D01*
X10179004Y-12900651D02*
X10188528Y-12938747D01*
X10188528Y-12938747D02*
X10188528Y-12986366D01*
X10188528Y-12986366D02*
X10179004Y-13024461D01*
X10179004Y-13024461D02*
X10169480Y-13043508D01*
X10169480Y-13043508D02*
X10159956Y-13053032D01*
X10159956Y-13053032D02*
X10140909Y-13062556D01*
X10140909Y-13062556D02*
X10121861Y-13062556D01*
X10121861Y-13062556D02*
X10102813Y-13053032D01*
X10102813Y-13053032D02*
X10093290Y-13043508D01*
X10093290Y-13043508D02*
X10083766Y-13024461D01*
X10083766Y-13024461D02*
X10074242Y-12986366D01*
X10074242Y-12986366D02*
X10074242Y-12938747D01*
X10074242Y-12938747D02*
X10083766Y-12900651D01*
X10083766Y-12900651D02*
X10093290Y-12881604D01*
X10093290Y-12881604D02*
X10102813Y-12872080D01*
X10102813Y-12872080D02*
X10121861Y-12862556D01*
X10274242Y-13062556D02*
X10274242Y-12929223D01*
X10274242Y-12948270D02*
X10283766Y-12938747D01*
X10283766Y-12938747D02*
X10302813Y-12929223D01*
X10302813Y-12929223D02*
X10331385Y-12929223D01*
X10331385Y-12929223D02*
X10350432Y-12938747D01*
X10350432Y-12938747D02*
X10359956Y-12957794D01*
X10359956Y-12957794D02*
X10359956Y-13062556D01*
X10359956Y-12957794D02*
X10369480Y-12938747D01*
X10369480Y-12938747D02*
X10388528Y-12929223D01*
X10388528Y-12929223D02*
X10417099Y-12929223D01*
X10417099Y-12929223D02*
X10436147Y-12938747D01*
X10436147Y-12938747D02*
X10445671Y-12957794D01*
X10445671Y-12957794D02*
X10445671Y-13062556D01*
X10540909Y-13062556D02*
X10540909Y-12929223D01*
X10540909Y-12948270D02*
X10550432Y-12938747D01*
X10550432Y-12938747D02*
X10569480Y-12929223D01*
X10569480Y-12929223D02*
X10598052Y-12929223D01*
X10598052Y-12929223D02*
X10617099Y-12938747D01*
X10617099Y-12938747D02*
X10626623Y-12957794D01*
X10626623Y-12957794D02*
X10626623Y-13062556D01*
X10626623Y-12957794D02*
X10636147Y-12938747D01*
X10636147Y-12938747D02*
X10655194Y-12929223D01*
X10655194Y-12929223D02*
X10683766Y-12929223D01*
X10683766Y-12929223D02*
X10702813Y-12938747D01*
X10702813Y-12938747D02*
X10712337Y-12957794D01*
X10712337Y-12957794D02*
X10712337Y-13062556D01*
X11070432Y-12853032D02*
X10899004Y-13110175D01*
X11295194Y-12862556D02*
X11314242Y-12862556D01*
X11314242Y-12862556D02*
X11333290Y-12872080D01*
X11333290Y-12872080D02*
X11342813Y-12881604D01*
X11342813Y-12881604D02*
X11352337Y-12900651D01*
X11352337Y-12900651D02*
X11361861Y-12938747D01*
X11361861Y-12938747D02*
X11361861Y-12986366D01*
X11361861Y-12986366D02*
X11352337Y-13024461D01*
X11352337Y-13024461D02*
X11342813Y-13043508D01*
X11342813Y-13043508D02*
X11333290Y-13053032D01*
X11333290Y-13053032D02*
X11314242Y-13062556D01*
X11314242Y-13062556D02*
X11295194Y-13062556D01*
X11295194Y-13062556D02*
X11276147Y-13053032D01*
X11276147Y-13053032D02*
X11266623Y-13043508D01*
X11266623Y-13043508D02*
X11257099Y-13024461D01*
X11257099Y-13024461D02*
X11247575Y-12986366D01*
X11247575Y-12986366D02*
X11247575Y-12938747D01*
X11247575Y-12938747D02*
X11257099Y-12900651D01*
X11257099Y-12900651D02*
X11266623Y-12881604D01*
X11266623Y-12881604D02*
X11276147Y-12872080D01*
X11276147Y-12872080D02*
X11295194Y-12862556D01*
X11447575Y-13043508D02*
X11457099Y-13053032D01*
X11457099Y-13053032D02*
X11447575Y-13062556D01*
X11447575Y-13062556D02*
X11438051Y-13053032D01*
X11438051Y-13053032D02*
X11447575Y-13043508D01*
X11447575Y-13043508D02*
X11447575Y-13062556D01*
X11580909Y-12862556D02*
X11599956Y-12862556D01*
X11599956Y-12862556D02*
X11619004Y-12872080D01*
X11619004Y-12872080D02*
X11628528Y-12881604D01*
X11628528Y-12881604D02*
X11638051Y-12900651D01*
X11638051Y-12900651D02*
X11647575Y-12938747D01*
X11647575Y-12938747D02*
X11647575Y-12986366D01*
X11647575Y-12986366D02*
X11638051Y-13024461D01*
X11638051Y-13024461D02*
X11628528Y-13043508D01*
X11628528Y-13043508D02*
X11619004Y-13053032D01*
X11619004Y-13053032D02*
X11599956Y-13062556D01*
X11599956Y-13062556D02*
X11580909Y-13062556D01*
X11580909Y-13062556D02*
X11561861Y-13053032D01*
X11561861Y-13053032D02*
X11552337Y-13043508D01*
X11552337Y-13043508D02*
X11542813Y-13024461D01*
X11542813Y-13024461D02*
X11533290Y-12986366D01*
X11533290Y-12986366D02*
X11533290Y-12938747D01*
X11533290Y-12938747D02*
X11542813Y-12900651D01*
X11542813Y-12900651D02*
X11552337Y-12881604D01*
X11552337Y-12881604D02*
X11561861Y-12872080D01*
X11561861Y-12872080D02*
X11580909Y-12862556D01*
X11723766Y-12881604D02*
X11733290Y-12872080D01*
X11733290Y-12872080D02*
X11752337Y-12862556D01*
X11752337Y-12862556D02*
X11799956Y-12862556D01*
X11799956Y-12862556D02*
X11819004Y-12872080D01*
X11819004Y-12872080D02*
X11828528Y-12881604D01*
X11828528Y-12881604D02*
X11838051Y-12900651D01*
X11838051Y-12900651D02*
X11838051Y-12919699D01*
X11838051Y-12919699D02*
X11828528Y-12948270D01*
X11828528Y-12948270D02*
X11714242Y-13062556D01*
X11714242Y-13062556D02*
X11838051Y-13062556D01*
X11904718Y-12862556D02*
X12038051Y-12862556D01*
X12038051Y-12862556D02*
X11952337Y-13062556D01*
X12199956Y-12862556D02*
X12161861Y-12862556D01*
X12161861Y-12862556D02*
X12142813Y-12872080D01*
X12142813Y-12872080D02*
X12133290Y-12881604D01*
X12133290Y-12881604D02*
X12114242Y-12910175D01*
X12114242Y-12910175D02*
X12104718Y-12948270D01*
X12104718Y-12948270D02*
X12104718Y-13024461D01*
X12104718Y-13024461D02*
X12114242Y-13043508D01*
X12114242Y-13043508D02*
X12123766Y-13053032D01*
X12123766Y-13053032D02*
X12142813Y-13062556D01*
X12142813Y-13062556D02*
X12180909Y-13062556D01*
X12180909Y-13062556D02*
X12199956Y-13053032D01*
X12199956Y-13053032D02*
X12209480Y-13043508D01*
X12209480Y-13043508D02*
X12219004Y-13024461D01*
X12219004Y-13024461D02*
X12219004Y-12976842D01*
X12219004Y-12976842D02*
X12209480Y-12957794D01*
X12209480Y-12957794D02*
X12199956Y-12948270D01*
X12199956Y-12948270D02*
X12180909Y-12938747D01*
X12180909Y-12938747D02*
X12142813Y-12938747D01*
X12142813Y-12938747D02*
X12123766Y-12948270D01*
X12123766Y-12948270D02*
X12114242Y-12957794D01*
X12114242Y-12957794D02*
X12104718Y-12976842D01*
X12295194Y-12862556D02*
X12295194Y-12900651D01*
X12371385Y-12862556D02*
X12371385Y-12900651D01*
X12634242Y-13138747D02*
X12624718Y-13129223D01*
X12624718Y-13129223D02*
X12605671Y-13100651D01*
X12605671Y-13100651D02*
X12596147Y-13081604D01*
X12596147Y-13081604D02*
X12586623Y-13053032D01*
X12586623Y-13053032D02*
X12577099Y-13005413D01*
X12577099Y-13005413D02*
X12577099Y-12967318D01*
X12577099Y-12967318D02*
X12586623Y-12919699D01*
X12586623Y-12919699D02*
X12596147Y-12891128D01*
X12596147Y-12891128D02*
X12605671Y-12872080D01*
X12605671Y-12872080D02*
X12624718Y-12843508D01*
X12624718Y-12843508D02*
X12634242Y-12833985D01*
X12700909Y-12881604D02*
X12710432Y-12872080D01*
X12710432Y-12872080D02*
X12729480Y-12862556D01*
X12729480Y-12862556D02*
X12777099Y-12862556D01*
X12777099Y-12862556D02*
X12796147Y-12872080D01*
X12796147Y-12872080D02*
X12805671Y-12881604D01*
X12805671Y-12881604D02*
X12815194Y-12900651D01*
X12815194Y-12900651D02*
X12815194Y-12919699D01*
X12815194Y-12919699D02*
X12805671Y-12948270D01*
X12805671Y-12948270D02*
X12691385Y-13062556D01*
X12691385Y-13062556D02*
X12815194Y-13062556D01*
X13020909Y-13062556D02*
X13020909Y-12862556D01*
X13106623Y-13062556D02*
X13106623Y-12957794D01*
X13106623Y-12957794D02*
X13097099Y-12938747D01*
X13097099Y-12938747D02*
X13078052Y-12929223D01*
X13078052Y-12929223D02*
X13049480Y-12929223D01*
X13049480Y-12929223D02*
X13030432Y-12938747D01*
X13030432Y-12938747D02*
X13020909Y-12948270D01*
X13230432Y-13062556D02*
X13211385Y-13053032D01*
X13211385Y-13053032D02*
X13201861Y-13043508D01*
X13201861Y-13043508D02*
X13192337Y-13024461D01*
X13192337Y-13024461D02*
X13192337Y-12967318D01*
X13192337Y-12967318D02*
X13201861Y-12948270D01*
X13201861Y-12948270D02*
X13211385Y-12938747D01*
X13211385Y-12938747D02*
X13230432Y-12929223D01*
X13230432Y-12929223D02*
X13259004Y-12929223D01*
X13259004Y-12929223D02*
X13278052Y-12938747D01*
X13278052Y-12938747D02*
X13287575Y-12948270D01*
X13287575Y-12948270D02*
X13297099Y-12967318D01*
X13297099Y-12967318D02*
X13297099Y-13024461D01*
X13297099Y-13024461D02*
X13287575Y-13043508D01*
X13287575Y-13043508D02*
X13278052Y-13053032D01*
X13278052Y-13053032D02*
X13259004Y-13062556D01*
X13259004Y-13062556D02*
X13230432Y-13062556D01*
X13411385Y-13062556D02*
X13392337Y-13053032D01*
X13392337Y-13053032D02*
X13382813Y-13033985D01*
X13382813Y-13033985D02*
X13382813Y-12862556D01*
X13563766Y-13053032D02*
X13544718Y-13062556D01*
X13544718Y-13062556D02*
X13506623Y-13062556D01*
X13506623Y-13062556D02*
X13487575Y-13053032D01*
X13487575Y-13053032D02*
X13478052Y-13033985D01*
X13478052Y-13033985D02*
X13478052Y-12957794D01*
X13478052Y-12957794D02*
X13487575Y-12938747D01*
X13487575Y-12938747D02*
X13506623Y-12929223D01*
X13506623Y-12929223D02*
X13544718Y-12929223D01*
X13544718Y-12929223D02*
X13563766Y-12938747D01*
X13563766Y-12938747D02*
X13573290Y-12957794D01*
X13573290Y-12957794D02*
X13573290Y-12976842D01*
X13573290Y-12976842D02*
X13478052Y-12995889D01*
X13649480Y-13053032D02*
X13668528Y-13062556D01*
X13668528Y-13062556D02*
X13706623Y-13062556D01*
X13706623Y-13062556D02*
X13725671Y-13053032D01*
X13725671Y-13053032D02*
X13735194Y-13033985D01*
X13735194Y-13033985D02*
X13735194Y-13024461D01*
X13735194Y-13024461D02*
X13725671Y-13005413D01*
X13725671Y-13005413D02*
X13706623Y-12995889D01*
X13706623Y-12995889D02*
X13678052Y-12995889D01*
X13678052Y-12995889D02*
X13659004Y-12986366D01*
X13659004Y-12986366D02*
X13649480Y-12967318D01*
X13649480Y-12967318D02*
X13649480Y-12957794D01*
X13649480Y-12957794D02*
X13659004Y-12938747D01*
X13659004Y-12938747D02*
X13678052Y-12929223D01*
X13678052Y-12929223D02*
X13706623Y-12929223D01*
X13706623Y-12929223D02*
X13725671Y-12938747D01*
X13801861Y-13138747D02*
X13811385Y-13129223D01*
X13811385Y-13129223D02*
X13830433Y-13100651D01*
X13830433Y-13100651D02*
X13839956Y-13081604D01*
X13839956Y-13081604D02*
X13849480Y-13053032D01*
X13849480Y-13053032D02*
X13859004Y-13005413D01*
X13859004Y-13005413D02*
X13859004Y-12967318D01*
X13859004Y-12967318D02*
X13849480Y-12919699D01*
X13849480Y-12919699D02*
X13839956Y-12891128D01*
X13839956Y-12891128D02*
X13830433Y-12872080D01*
X13830433Y-12872080D02*
X13811385Y-12843508D01*
X13811385Y-12843508D02*
X13801861Y-12833985D01*
D10*
X9154836Y-13288436D02*
X9154836Y-13217724D01*
X9084124Y-13217724D01*
X9084124Y-13288436D01*
X9154836Y-13288436D01*
D11*
X9521861Y-13326556D02*
X9407575Y-13326556D01*
X9464718Y-13326556D02*
X9464718Y-13126556D01*
X9464718Y-13126556D02*
X9445670Y-13155128D01*
X9445670Y-13155128D02*
X9426623Y-13174175D01*
X9426623Y-13174175D02*
X9407575Y-13183699D01*
X9607575Y-13307508D02*
X9617099Y-13317032D01*
X9617099Y-13317032D02*
X9607575Y-13326556D01*
X9607575Y-13326556D02*
X9598051Y-13317032D01*
X9598051Y-13317032D02*
X9607575Y-13307508D01*
X9607575Y-13307508D02*
X9607575Y-13326556D01*
X9740909Y-13126556D02*
X9759956Y-13126556D01*
X9759956Y-13126556D02*
X9779004Y-13136080D01*
X9779004Y-13136080D02*
X9788528Y-13145604D01*
X9788528Y-13145604D02*
X9798051Y-13164651D01*
X9798051Y-13164651D02*
X9807575Y-13202747D01*
X9807575Y-13202747D02*
X9807575Y-13250366D01*
X9807575Y-13250366D02*
X9798051Y-13288461D01*
X9798051Y-13288461D02*
X9788528Y-13307508D01*
X9788528Y-13307508D02*
X9779004Y-13317032D01*
X9779004Y-13317032D02*
X9759956Y-13326556D01*
X9759956Y-13326556D02*
X9740909Y-13326556D01*
X9740909Y-13326556D02*
X9721861Y-13317032D01*
X9721861Y-13317032D02*
X9712337Y-13307508D01*
X9712337Y-13307508D02*
X9702813Y-13288461D01*
X9702813Y-13288461D02*
X9693290Y-13250366D01*
X9693290Y-13250366D02*
X9693290Y-13202747D01*
X9693290Y-13202747D02*
X9702813Y-13164651D01*
X9702813Y-13164651D02*
X9712337Y-13145604D01*
X9712337Y-13145604D02*
X9721861Y-13136080D01*
X9721861Y-13136080D02*
X9740909Y-13126556D01*
X9931385Y-13126556D02*
X9950432Y-13126556D01*
X9950432Y-13126556D02*
X9969480Y-13136080D01*
X9969480Y-13136080D02*
X9979004Y-13145604D01*
X9979004Y-13145604D02*
X9988528Y-13164651D01*
X9988528Y-13164651D02*
X9998051Y-13202747D01*
X9998051Y-13202747D02*
X9998051Y-13250366D01*
X9998051Y-13250366D02*
X9988528Y-13288461D01*
X9988528Y-13288461D02*
X9979004Y-13307508D01*
X9979004Y-13307508D02*
X9969480Y-13317032D01*
X9969480Y-13317032D02*
X9950432Y-13326556D01*
X9950432Y-13326556D02*
X9931385Y-13326556D01*
X9931385Y-13326556D02*
X9912337Y-13317032D01*
X9912337Y-13317032D02*
X9902813Y-13307508D01*
X9902813Y-13307508D02*
X9893290Y-13288461D01*
X9893290Y-13288461D02*
X9883766Y-13250366D01*
X9883766Y-13250366D02*
X9883766Y-13202747D01*
X9883766Y-13202747D02*
X9893290Y-13164651D01*
X9893290Y-13164651D02*
X9902813Y-13145604D01*
X9902813Y-13145604D02*
X9912337Y-13136080D01*
X9912337Y-13136080D02*
X9931385Y-13126556D01*
X10121861Y-13126556D02*
X10140909Y-13126556D01*
X10140909Y-13126556D02*
X10159956Y-13136080D01*
X10159956Y-13136080D02*
X10169480Y-13145604D01*
X10169480Y-13145604D02*
X10179004Y-13164651D01*
X10179004Y-13164651D02*
X10188528Y-13202747D01*
X10188528Y-13202747D02*
X10188528Y-13250366D01*
X10188528Y-13250366D02*
X10179004Y-13288461D01*
X10179004Y-13288461D02*
X10169480Y-13307508D01*
X10169480Y-13307508D02*
X10159956Y-13317032D01*
X10159956Y-13317032D02*
X10140909Y-13326556D01*
X10140909Y-13326556D02*
X10121861Y-13326556D01*
X10121861Y-13326556D02*
X10102813Y-13317032D01*
X10102813Y-13317032D02*
X10093290Y-13307508D01*
X10093290Y-13307508D02*
X10083766Y-13288461D01*
X10083766Y-13288461D02*
X10074242Y-13250366D01*
X10074242Y-13250366D02*
X10074242Y-13202747D01*
X10074242Y-13202747D02*
X10083766Y-13164651D01*
X10083766Y-13164651D02*
X10093290Y-13145604D01*
X10093290Y-13145604D02*
X10102813Y-13136080D01*
X10102813Y-13136080D02*
X10121861Y-13126556D01*
X10274242Y-13326556D02*
X10274242Y-13193223D01*
X10274242Y-13212270D02*
X10283766Y-13202747D01*
X10283766Y-13202747D02*
X10302813Y-13193223D01*
X10302813Y-13193223D02*
X10331385Y-13193223D01*
X10331385Y-13193223D02*
X10350432Y-13202747D01*
X10350432Y-13202747D02*
X10359956Y-13221794D01*
X10359956Y-13221794D02*
X10359956Y-13326556D01*
X10359956Y-13221794D02*
X10369480Y-13202747D01*
X10369480Y-13202747D02*
X10388528Y-13193223D01*
X10388528Y-13193223D02*
X10417099Y-13193223D01*
X10417099Y-13193223D02*
X10436147Y-13202747D01*
X10436147Y-13202747D02*
X10445671Y-13221794D01*
X10445671Y-13221794D02*
X10445671Y-13326556D01*
X10540909Y-13326556D02*
X10540909Y-13193223D01*
X10540909Y-13212270D02*
X10550432Y-13202747D01*
X10550432Y-13202747D02*
X10569480Y-13193223D01*
X10569480Y-13193223D02*
X10598052Y-13193223D01*
X10598052Y-13193223D02*
X10617099Y-13202747D01*
X10617099Y-13202747D02*
X10626623Y-13221794D01*
X10626623Y-13221794D02*
X10626623Y-13326556D01*
X10626623Y-13221794D02*
X10636147Y-13202747D01*
X10636147Y-13202747D02*
X10655194Y-13193223D01*
X10655194Y-13193223D02*
X10683766Y-13193223D01*
X10683766Y-13193223D02*
X10702813Y-13202747D01*
X10702813Y-13202747D02*
X10712337Y-13221794D01*
X10712337Y-13221794D02*
X10712337Y-13326556D01*
X11070432Y-13117032D02*
X10899004Y-13374175D01*
X11295194Y-13126556D02*
X11314242Y-13126556D01*
X11314242Y-13126556D02*
X11333290Y-13136080D01*
X11333290Y-13136080D02*
X11342813Y-13145604D01*
X11342813Y-13145604D02*
X11352337Y-13164651D01*
X11352337Y-13164651D02*
X11361861Y-13202747D01*
X11361861Y-13202747D02*
X11361861Y-13250366D01*
X11361861Y-13250366D02*
X11352337Y-13288461D01*
X11352337Y-13288461D02*
X11342813Y-13307508D01*
X11342813Y-13307508D02*
X11333290Y-13317032D01*
X11333290Y-13317032D02*
X11314242Y-13326556D01*
X11314242Y-13326556D02*
X11295194Y-13326556D01*
X11295194Y-13326556D02*
X11276147Y-13317032D01*
X11276147Y-13317032D02*
X11266623Y-13307508D01*
X11266623Y-13307508D02*
X11257099Y-13288461D01*
X11257099Y-13288461D02*
X11247575Y-13250366D01*
X11247575Y-13250366D02*
X11247575Y-13202747D01*
X11247575Y-13202747D02*
X11257099Y-13164651D01*
X11257099Y-13164651D02*
X11266623Y-13145604D01*
X11266623Y-13145604D02*
X11276147Y-13136080D01*
X11276147Y-13136080D02*
X11295194Y-13126556D01*
X11447575Y-13307508D02*
X11457099Y-13317032D01*
X11457099Y-13317032D02*
X11447575Y-13326556D01*
X11447575Y-13326556D02*
X11438051Y-13317032D01*
X11438051Y-13317032D02*
X11447575Y-13307508D01*
X11447575Y-13307508D02*
X11447575Y-13326556D01*
X11580909Y-13126556D02*
X11599956Y-13126556D01*
X11599956Y-13126556D02*
X11619004Y-13136080D01*
X11619004Y-13136080D02*
X11628528Y-13145604D01*
X11628528Y-13145604D02*
X11638051Y-13164651D01*
X11638051Y-13164651D02*
X11647575Y-13202747D01*
X11647575Y-13202747D02*
X11647575Y-13250366D01*
X11647575Y-13250366D02*
X11638051Y-13288461D01*
X11638051Y-13288461D02*
X11628528Y-13307508D01*
X11628528Y-13307508D02*
X11619004Y-13317032D01*
X11619004Y-13317032D02*
X11599956Y-13326556D01*
X11599956Y-13326556D02*
X11580909Y-13326556D01*
X11580909Y-13326556D02*
X11561861Y-13317032D01*
X11561861Y-13317032D02*
X11552337Y-13307508D01*
X11552337Y-13307508D02*
X11542813Y-13288461D01*
X11542813Y-13288461D02*
X11533290Y-13250366D01*
X11533290Y-13250366D02*
X11533290Y-13202747D01*
X11533290Y-13202747D02*
X11542813Y-13164651D01*
X11542813Y-13164651D02*
X11552337Y-13145604D01*
X11552337Y-13145604D02*
X11561861Y-13136080D01*
X11561861Y-13136080D02*
X11580909Y-13126556D01*
X11714242Y-13126556D02*
X11838051Y-13126556D01*
X11838051Y-13126556D02*
X11771385Y-13202747D01*
X11771385Y-13202747D02*
X11799956Y-13202747D01*
X11799956Y-13202747D02*
X11819004Y-13212270D01*
X11819004Y-13212270D02*
X11828528Y-13221794D01*
X11828528Y-13221794D02*
X11838051Y-13240842D01*
X11838051Y-13240842D02*
X11838051Y-13288461D01*
X11838051Y-13288461D02*
X11828528Y-13307508D01*
X11828528Y-13307508D02*
X11819004Y-13317032D01*
X11819004Y-13317032D02*
X11799956Y-13326556D01*
X11799956Y-13326556D02*
X11742813Y-13326556D01*
X11742813Y-13326556D02*
X11723766Y-13317032D01*
X11723766Y-13317032D02*
X11714242Y-13307508D01*
X11933290Y-13326556D02*
X11971385Y-13326556D01*
X11971385Y-13326556D02*
X11990432Y-13317032D01*
X11990432Y-13317032D02*
X11999956Y-13307508D01*
X11999956Y-13307508D02*
X12019004Y-13278937D01*
X12019004Y-13278937D02*
X12028528Y-13240842D01*
X12028528Y-13240842D02*
X12028528Y-13164651D01*
X12028528Y-13164651D02*
X12019004Y-13145604D01*
X12019004Y-13145604D02*
X12009480Y-13136080D01*
X12009480Y-13136080D02*
X11990432Y-13126556D01*
X11990432Y-13126556D02*
X11952337Y-13126556D01*
X11952337Y-13126556D02*
X11933290Y-13136080D01*
X11933290Y-13136080D02*
X11923766Y-13145604D01*
X11923766Y-13145604D02*
X11914242Y-13164651D01*
X11914242Y-13164651D02*
X11914242Y-13212270D01*
X11914242Y-13212270D02*
X11923766Y-13231318D01*
X11923766Y-13231318D02*
X11933290Y-13240842D01*
X11933290Y-13240842D02*
X11952337Y-13250366D01*
X11952337Y-13250366D02*
X11990432Y-13250366D01*
X11990432Y-13250366D02*
X12009480Y-13240842D01*
X12009480Y-13240842D02*
X12019004Y-13231318D01*
X12019004Y-13231318D02*
X12028528Y-13212270D01*
X12199956Y-13193223D02*
X12199956Y-13326556D01*
X12152337Y-13117032D02*
X12104718Y-13259889D01*
X12104718Y-13259889D02*
X12228528Y-13259889D01*
X12295194Y-13126556D02*
X12295194Y-13164651D01*
X12371385Y-13126556D02*
X12371385Y-13164651D01*
X12634242Y-13402747D02*
X12624718Y-13393223D01*
X12624718Y-13393223D02*
X12605671Y-13364651D01*
X12605671Y-13364651D02*
X12596147Y-13345604D01*
X12596147Y-13345604D02*
X12586623Y-13317032D01*
X12586623Y-13317032D02*
X12577099Y-13269413D01*
X12577099Y-13269413D02*
X12577099Y-13231318D01*
X12577099Y-13231318D02*
X12586623Y-13183699D01*
X12586623Y-13183699D02*
X12596147Y-13155128D01*
X12596147Y-13155128D02*
X12605671Y-13136080D01*
X12605671Y-13136080D02*
X12624718Y-13107508D01*
X12624718Y-13107508D02*
X12634242Y-13097985D01*
X12815194Y-13326556D02*
X12700909Y-13326556D01*
X12758051Y-13326556D02*
X12758051Y-13126556D01*
X12758051Y-13126556D02*
X12739004Y-13155128D01*
X12739004Y-13155128D02*
X12719956Y-13174175D01*
X12719956Y-13174175D02*
X12700909Y-13183699D01*
X12891385Y-13145604D02*
X12900909Y-13136080D01*
X12900909Y-13136080D02*
X12919956Y-13126556D01*
X12919956Y-13126556D02*
X12967575Y-13126556D01*
X12967575Y-13126556D02*
X12986623Y-13136080D01*
X12986623Y-13136080D02*
X12996147Y-13145604D01*
X12996147Y-13145604D02*
X13005671Y-13164651D01*
X13005671Y-13164651D02*
X13005671Y-13183699D01*
X13005671Y-13183699D02*
X12996147Y-13212270D01*
X12996147Y-13212270D02*
X12881861Y-13326556D01*
X12881861Y-13326556D02*
X13005671Y-13326556D01*
X13081861Y-13145604D02*
X13091385Y-13136080D01*
X13091385Y-13136080D02*
X13110432Y-13126556D01*
X13110432Y-13126556D02*
X13158052Y-13126556D01*
X13158052Y-13126556D02*
X13177099Y-13136080D01*
X13177099Y-13136080D02*
X13186623Y-13145604D01*
X13186623Y-13145604D02*
X13196147Y-13164651D01*
X13196147Y-13164651D02*
X13196147Y-13183699D01*
X13196147Y-13183699D02*
X13186623Y-13212270D01*
X13186623Y-13212270D02*
X13072337Y-13326556D01*
X13072337Y-13326556D02*
X13196147Y-13326556D01*
X13401861Y-13326556D02*
X13401861Y-13126556D01*
X13487575Y-13326556D02*
X13487575Y-13221794D01*
X13487575Y-13221794D02*
X13478052Y-13202747D01*
X13478052Y-13202747D02*
X13459004Y-13193223D01*
X13459004Y-13193223D02*
X13430432Y-13193223D01*
X13430432Y-13193223D02*
X13411385Y-13202747D01*
X13411385Y-13202747D02*
X13401861Y-13212270D01*
X13611385Y-13326556D02*
X13592337Y-13317032D01*
X13592337Y-13317032D02*
X13582813Y-13307508D01*
X13582813Y-13307508D02*
X13573290Y-13288461D01*
X13573290Y-13288461D02*
X13573290Y-13231318D01*
X13573290Y-13231318D02*
X13582813Y-13212270D01*
X13582813Y-13212270D02*
X13592337Y-13202747D01*
X13592337Y-13202747D02*
X13611385Y-13193223D01*
X13611385Y-13193223D02*
X13639956Y-13193223D01*
X13639956Y-13193223D02*
X13659004Y-13202747D01*
X13659004Y-13202747D02*
X13668528Y-13212270D01*
X13668528Y-13212270D02*
X13678052Y-13231318D01*
X13678052Y-13231318D02*
X13678052Y-13288461D01*
X13678052Y-13288461D02*
X13668528Y-13307508D01*
X13668528Y-13307508D02*
X13659004Y-13317032D01*
X13659004Y-13317032D02*
X13639956Y-13326556D01*
X13639956Y-13326556D02*
X13611385Y-13326556D01*
X13792337Y-13326556D02*
X13773290Y-13317032D01*
X13773290Y-13317032D02*
X13763766Y-13297985D01*
X13763766Y-13297985D02*
X13763766Y-13126556D01*
X13944718Y-13317032D02*
X13925671Y-13326556D01*
X13925671Y-13326556D02*
X13887575Y-13326556D01*
X13887575Y-13326556D02*
X13868528Y-13317032D01*
X13868528Y-13317032D02*
X13859004Y-13297985D01*
X13859004Y-13297985D02*
X13859004Y-13221794D01*
X13859004Y-13221794D02*
X13868528Y-13202747D01*
X13868528Y-13202747D02*
X13887575Y-13193223D01*
X13887575Y-13193223D02*
X13925671Y-13193223D01*
X13925671Y-13193223D02*
X13944718Y-13202747D01*
X13944718Y-13202747D02*
X13954242Y-13221794D01*
X13954242Y-13221794D02*
X13954242Y-13240842D01*
X13954242Y-13240842D02*
X13859004Y-13259889D01*
X14030433Y-13317032D02*
X14049480Y-13326556D01*
X14049480Y-13326556D02*
X14087575Y-13326556D01*
X14087575Y-13326556D02*
X14106623Y-13317032D01*
X14106623Y-13317032D02*
X14116147Y-13297985D01*
X14116147Y-13297985D02*
X14116147Y-13288461D01*
X14116147Y-13288461D02*
X14106623Y-13269413D01*
X14106623Y-13269413D02*
X14087575Y-13259889D01*
X14087575Y-13259889D02*
X14059004Y-13259889D01*
X14059004Y-13259889D02*
X14039956Y-13250366D01*
X14039956Y-13250366D02*
X14030433Y-13231318D01*
X14030433Y-13231318D02*
X14030433Y-13221794D01*
X14030433Y-13221794D02*
X14039956Y-13202747D01*
X14039956Y-13202747D02*
X14059004Y-13193223D01*
X14059004Y-13193223D02*
X14087575Y-13193223D01*
X14087575Y-13193223D02*
X14106623Y-13202747D01*
X14182814Y-13402747D02*
X14192337Y-13393223D01*
X14192337Y-13393223D02*
X14211385Y-13364651D01*
X14211385Y-13364651D02*
X14220909Y-13345604D01*
X14220909Y-13345604D02*
X14230433Y-13317032D01*
X14230433Y-13317032D02*
X14239956Y-13269413D01*
X14239956Y-13269413D02*
X14239956Y-13231318D01*
X14239956Y-13231318D02*
X14230433Y-13183699D01*
X14230433Y-13183699D02*
X14220909Y-13155128D01*
X14220909Y-13155128D02*
X14211385Y-13136080D01*
X14211385Y-13136080D02*
X14192337Y-13107508D01*
X14192337Y-13107508D02*
X14182814Y-13097985D01*
X9069480Y-13617080D02*
X9169480Y-13517080D01*
X9069480Y-13417080D01*
X8969480Y-13517080D01*
X9069480Y-13617080D01*
X9407575Y-13409604D02*
X9417099Y-13400080D01*
X9417099Y-13400080D02*
X9436147Y-13390556D01*
X9436147Y-13390556D02*
X9483766Y-13390556D01*
X9483766Y-13390556D02*
X9502813Y-13400080D01*
X9502813Y-13400080D02*
X9512337Y-13409604D01*
X9512337Y-13409604D02*
X9521861Y-13428651D01*
X9521861Y-13428651D02*
X9521861Y-13447699D01*
X9521861Y-13447699D02*
X9512337Y-13476270D01*
X9512337Y-13476270D02*
X9398051Y-13590556D01*
X9398051Y-13590556D02*
X9521861Y-13590556D01*
X9607575Y-13571508D02*
X9617099Y-13581032D01*
X9617099Y-13581032D02*
X9607575Y-13590556D01*
X9607575Y-13590556D02*
X9598051Y-13581032D01*
X9598051Y-13581032D02*
X9607575Y-13571508D01*
X9607575Y-13571508D02*
X9607575Y-13590556D01*
X9788528Y-13457223D02*
X9788528Y-13590556D01*
X9740909Y-13381032D02*
X9693290Y-13523889D01*
X9693290Y-13523889D02*
X9817099Y-13523889D01*
X9931385Y-13390556D02*
X9950432Y-13390556D01*
X9950432Y-13390556D02*
X9969480Y-13400080D01*
X9969480Y-13400080D02*
X9979004Y-13409604D01*
X9979004Y-13409604D02*
X9988528Y-13428651D01*
X9988528Y-13428651D02*
X9998051Y-13466747D01*
X9998051Y-13466747D02*
X9998051Y-13514366D01*
X9998051Y-13514366D02*
X9988528Y-13552461D01*
X9988528Y-13552461D02*
X9979004Y-13571508D01*
X9979004Y-13571508D02*
X9969480Y-13581032D01*
X9969480Y-13581032D02*
X9950432Y-13590556D01*
X9950432Y-13590556D02*
X9931385Y-13590556D01*
X9931385Y-13590556D02*
X9912337Y-13581032D01*
X9912337Y-13581032D02*
X9902813Y-13571508D01*
X9902813Y-13571508D02*
X9893290Y-13552461D01*
X9893290Y-13552461D02*
X9883766Y-13514366D01*
X9883766Y-13514366D02*
X9883766Y-13466747D01*
X9883766Y-13466747D02*
X9893290Y-13428651D01*
X9893290Y-13428651D02*
X9902813Y-13409604D01*
X9902813Y-13409604D02*
X9912337Y-13400080D01*
X9912337Y-13400080D02*
X9931385Y-13390556D01*
X10121861Y-13390556D02*
X10140909Y-13390556D01*
X10140909Y-13390556D02*
X10159956Y-13400080D01*
X10159956Y-13400080D02*
X10169480Y-13409604D01*
X10169480Y-13409604D02*
X10179004Y-13428651D01*
X10179004Y-13428651D02*
X10188528Y-13466747D01*
X10188528Y-13466747D02*
X10188528Y-13514366D01*
X10188528Y-13514366D02*
X10179004Y-13552461D01*
X10179004Y-13552461D02*
X10169480Y-13571508D01*
X10169480Y-13571508D02*
X10159956Y-13581032D01*
X10159956Y-13581032D02*
X10140909Y-13590556D01*
X10140909Y-13590556D02*
X10121861Y-13590556D01*
X10121861Y-13590556D02*
X10102813Y-13581032D01*
X10102813Y-13581032D02*
X10093290Y-13571508D01*
X10093290Y-13571508D02*
X10083766Y-13552461D01*
X10083766Y-13552461D02*
X10074242Y-13514366D01*
X10074242Y-13514366D02*
X10074242Y-13466747D01*
X10074242Y-13466747D02*
X10083766Y-13428651D01*
X10083766Y-13428651D02*
X10093290Y-13409604D01*
X10093290Y-13409604D02*
X10102813Y-13400080D01*
X10102813Y-13400080D02*
X10121861Y-13390556D01*
X10274242Y-13590556D02*
X10274242Y-13457223D01*
X10274242Y-13476270D02*
X10283766Y-13466747D01*
X10283766Y-13466747D02*
X10302813Y-13457223D01*
X10302813Y-13457223D02*
X10331385Y-13457223D01*
X10331385Y-13457223D02*
X10350432Y-13466747D01*
X10350432Y-13466747D02*
X10359956Y-13485794D01*
X10359956Y-13485794D02*
X10359956Y-13590556D01*
X10359956Y-13485794D02*
X10369480Y-13466747D01*
X10369480Y-13466747D02*
X10388528Y-13457223D01*
X10388528Y-13457223D02*
X10417099Y-13457223D01*
X10417099Y-13457223D02*
X10436147Y-13466747D01*
X10436147Y-13466747D02*
X10445671Y-13485794D01*
X10445671Y-13485794D02*
X10445671Y-13590556D01*
X10540909Y-13590556D02*
X10540909Y-13457223D01*
X10540909Y-13476270D02*
X10550432Y-13466747D01*
X10550432Y-13466747D02*
X10569480Y-13457223D01*
X10569480Y-13457223D02*
X10598052Y-13457223D01*
X10598052Y-13457223D02*
X10617099Y-13466747D01*
X10617099Y-13466747D02*
X10626623Y-13485794D01*
X10626623Y-13485794D02*
X10626623Y-13590556D01*
X10626623Y-13485794D02*
X10636147Y-13466747D01*
X10636147Y-13466747D02*
X10655194Y-13457223D01*
X10655194Y-13457223D02*
X10683766Y-13457223D01*
X10683766Y-13457223D02*
X10702813Y-13466747D01*
X10702813Y-13466747D02*
X10712337Y-13485794D01*
X10712337Y-13485794D02*
X10712337Y-13590556D01*
X11070432Y-13381032D02*
X10899004Y-13638175D01*
X11295194Y-13390556D02*
X11314242Y-13390556D01*
X11314242Y-13390556D02*
X11333290Y-13400080D01*
X11333290Y-13400080D02*
X11342813Y-13409604D01*
X11342813Y-13409604D02*
X11352337Y-13428651D01*
X11352337Y-13428651D02*
X11361861Y-13466747D01*
X11361861Y-13466747D02*
X11361861Y-13514366D01*
X11361861Y-13514366D02*
X11352337Y-13552461D01*
X11352337Y-13552461D02*
X11342813Y-13571508D01*
X11342813Y-13571508D02*
X11333290Y-13581032D01*
X11333290Y-13581032D02*
X11314242Y-13590556D01*
X11314242Y-13590556D02*
X11295194Y-13590556D01*
X11295194Y-13590556D02*
X11276147Y-13581032D01*
X11276147Y-13581032D02*
X11266623Y-13571508D01*
X11266623Y-13571508D02*
X11257099Y-13552461D01*
X11257099Y-13552461D02*
X11247575Y-13514366D01*
X11247575Y-13514366D02*
X11247575Y-13466747D01*
X11247575Y-13466747D02*
X11257099Y-13428651D01*
X11257099Y-13428651D02*
X11266623Y-13409604D01*
X11266623Y-13409604D02*
X11276147Y-13400080D01*
X11276147Y-13400080D02*
X11295194Y-13390556D01*
X11447575Y-13571508D02*
X11457099Y-13581032D01*
X11457099Y-13581032D02*
X11447575Y-13590556D01*
X11447575Y-13590556D02*
X11438051Y-13581032D01*
X11438051Y-13581032D02*
X11447575Y-13571508D01*
X11447575Y-13571508D02*
X11447575Y-13590556D01*
X11580909Y-13390556D02*
X11599956Y-13390556D01*
X11599956Y-13390556D02*
X11619004Y-13400080D01*
X11619004Y-13400080D02*
X11628528Y-13409604D01*
X11628528Y-13409604D02*
X11638051Y-13428651D01*
X11638051Y-13428651D02*
X11647575Y-13466747D01*
X11647575Y-13466747D02*
X11647575Y-13514366D01*
X11647575Y-13514366D02*
X11638051Y-13552461D01*
X11638051Y-13552461D02*
X11628528Y-13571508D01*
X11628528Y-13571508D02*
X11619004Y-13581032D01*
X11619004Y-13581032D02*
X11599956Y-13590556D01*
X11599956Y-13590556D02*
X11580909Y-13590556D01*
X11580909Y-13590556D02*
X11561861Y-13581032D01*
X11561861Y-13581032D02*
X11552337Y-13571508D01*
X11552337Y-13571508D02*
X11542813Y-13552461D01*
X11542813Y-13552461D02*
X11533290Y-13514366D01*
X11533290Y-13514366D02*
X11533290Y-13466747D01*
X11533290Y-13466747D02*
X11542813Y-13428651D01*
X11542813Y-13428651D02*
X11552337Y-13409604D01*
X11552337Y-13409604D02*
X11561861Y-13400080D01*
X11561861Y-13400080D02*
X11580909Y-13390556D01*
X11742813Y-13590556D02*
X11780909Y-13590556D01*
X11780909Y-13590556D02*
X11799956Y-13581032D01*
X11799956Y-13581032D02*
X11809480Y-13571508D01*
X11809480Y-13571508D02*
X11828528Y-13542937D01*
X11828528Y-13542937D02*
X11838051Y-13504842D01*
X11838051Y-13504842D02*
X11838051Y-13428651D01*
X11838051Y-13428651D02*
X11828528Y-13409604D01*
X11828528Y-13409604D02*
X11819004Y-13400080D01*
X11819004Y-13400080D02*
X11799956Y-13390556D01*
X11799956Y-13390556D02*
X11761861Y-13390556D01*
X11761861Y-13390556D02*
X11742813Y-13400080D01*
X11742813Y-13400080D02*
X11733290Y-13409604D01*
X11733290Y-13409604D02*
X11723766Y-13428651D01*
X11723766Y-13428651D02*
X11723766Y-13476270D01*
X11723766Y-13476270D02*
X11733290Y-13495318D01*
X11733290Y-13495318D02*
X11742813Y-13504842D01*
X11742813Y-13504842D02*
X11761861Y-13514366D01*
X11761861Y-13514366D02*
X11799956Y-13514366D01*
X11799956Y-13514366D02*
X11819004Y-13504842D01*
X11819004Y-13504842D02*
X11828528Y-13495318D01*
X11828528Y-13495318D02*
X11838051Y-13476270D01*
X12009480Y-13457223D02*
X12009480Y-13590556D01*
X11961861Y-13381032D02*
X11914242Y-13523889D01*
X11914242Y-13523889D02*
X12038051Y-13523889D01*
X12209480Y-13390556D02*
X12114242Y-13390556D01*
X12114242Y-13390556D02*
X12104718Y-13485794D01*
X12104718Y-13485794D02*
X12114242Y-13476270D01*
X12114242Y-13476270D02*
X12133290Y-13466747D01*
X12133290Y-13466747D02*
X12180909Y-13466747D01*
X12180909Y-13466747D02*
X12199956Y-13476270D01*
X12199956Y-13476270D02*
X12209480Y-13485794D01*
X12209480Y-13485794D02*
X12219004Y-13504842D01*
X12219004Y-13504842D02*
X12219004Y-13552461D01*
X12219004Y-13552461D02*
X12209480Y-13571508D01*
X12209480Y-13571508D02*
X12199956Y-13581032D01*
X12199956Y-13581032D02*
X12180909Y-13590556D01*
X12180909Y-13590556D02*
X12133290Y-13590556D01*
X12133290Y-13590556D02*
X12114242Y-13581032D01*
X12114242Y-13581032D02*
X12104718Y-13571508D01*
X12295194Y-13390556D02*
X12295194Y-13428651D01*
X12371385Y-13390556D02*
X12371385Y-13428651D01*
X12634242Y-13666747D02*
X12624718Y-13657223D01*
X12624718Y-13657223D02*
X12605671Y-13628651D01*
X12605671Y-13628651D02*
X12596147Y-13609604D01*
X12596147Y-13609604D02*
X12586623Y-13581032D01*
X12586623Y-13581032D02*
X12577099Y-13533413D01*
X12577099Y-13533413D02*
X12577099Y-13495318D01*
X12577099Y-13495318D02*
X12586623Y-13447699D01*
X12586623Y-13447699D02*
X12596147Y-13419128D01*
X12596147Y-13419128D02*
X12605671Y-13400080D01*
X12605671Y-13400080D02*
X12624718Y-13371508D01*
X12624718Y-13371508D02*
X12634242Y-13361985D01*
X12815194Y-13590556D02*
X12700909Y-13590556D01*
X12758051Y-13590556D02*
X12758051Y-13390556D01*
X12758051Y-13390556D02*
X12739004Y-13419128D01*
X12739004Y-13419128D02*
X12719956Y-13438175D01*
X12719956Y-13438175D02*
X12700909Y-13447699D01*
X13020909Y-13590556D02*
X13020909Y-13390556D01*
X13106623Y-13590556D02*
X13106623Y-13485794D01*
X13106623Y-13485794D02*
X13097099Y-13466747D01*
X13097099Y-13466747D02*
X13078052Y-13457223D01*
X13078052Y-13457223D02*
X13049480Y-13457223D01*
X13049480Y-13457223D02*
X13030432Y-13466747D01*
X13030432Y-13466747D02*
X13020909Y-13476270D01*
X13230432Y-13590556D02*
X13211385Y-13581032D01*
X13211385Y-13581032D02*
X13201861Y-13571508D01*
X13201861Y-13571508D02*
X13192337Y-13552461D01*
X13192337Y-13552461D02*
X13192337Y-13495318D01*
X13192337Y-13495318D02*
X13201861Y-13476270D01*
X13201861Y-13476270D02*
X13211385Y-13466747D01*
X13211385Y-13466747D02*
X13230432Y-13457223D01*
X13230432Y-13457223D02*
X13259004Y-13457223D01*
X13259004Y-13457223D02*
X13278052Y-13466747D01*
X13278052Y-13466747D02*
X13287575Y-13476270D01*
X13287575Y-13476270D02*
X13297099Y-13495318D01*
X13297099Y-13495318D02*
X13297099Y-13552461D01*
X13297099Y-13552461D02*
X13287575Y-13571508D01*
X13287575Y-13571508D02*
X13278052Y-13581032D01*
X13278052Y-13581032D02*
X13259004Y-13590556D01*
X13259004Y-13590556D02*
X13230432Y-13590556D01*
X13411385Y-13590556D02*
X13392337Y-13581032D01*
X13392337Y-13581032D02*
X13382813Y-13561985D01*
X13382813Y-13561985D02*
X13382813Y-13390556D01*
X13563766Y-13581032D02*
X13544718Y-13590556D01*
X13544718Y-13590556D02*
X13506623Y-13590556D01*
X13506623Y-13590556D02*
X13487575Y-13581032D01*
X13487575Y-13581032D02*
X13478052Y-13561985D01*
X13478052Y-13561985D02*
X13478052Y-13485794D01*
X13478052Y-13485794D02*
X13487575Y-13466747D01*
X13487575Y-13466747D02*
X13506623Y-13457223D01*
X13506623Y-13457223D02*
X13544718Y-13457223D01*
X13544718Y-13457223D02*
X13563766Y-13466747D01*
X13563766Y-13466747D02*
X13573290Y-13485794D01*
X13573290Y-13485794D02*
X13573290Y-13504842D01*
X13573290Y-13504842D02*
X13478052Y-13523889D01*
X13639956Y-13666747D02*
X13649480Y-13657223D01*
X13649480Y-13657223D02*
X13668528Y-13628651D01*
X13668528Y-13628651D02*
X13678052Y-13609604D01*
X13678052Y-13609604D02*
X13687575Y-13581032D01*
X13687575Y-13581032D02*
X13697099Y-13533413D01*
X13697099Y-13533413D02*
X13697099Y-13495318D01*
X13697099Y-13495318D02*
X13687575Y-13447699D01*
X13687575Y-13447699D02*
X13678052Y-13419128D01*
X13678052Y-13419128D02*
X13668528Y-13400080D01*
X13668528Y-13400080D02*
X13649480Y-13371508D01*
X13649480Y-13371508D02*
X13639956Y-13361985D01*
X8969480Y-13737080D02*
X9169480Y-13937080D01*
X9169480Y-13737080D02*
X8969480Y-13937080D01*
X9169480Y-13837080D02*
G75*
G03*
X9169480Y-13837080I-100000J0D01*
G01*
X9398051Y-13710556D02*
X9521861Y-13710556D01*
X9521861Y-13710556D02*
X9455194Y-13786747D01*
X9455194Y-13786747D02*
X9483766Y-13786747D01*
X9483766Y-13786747D02*
X9502813Y-13796270D01*
X9502813Y-13796270D02*
X9512337Y-13805794D01*
X9512337Y-13805794D02*
X9521861Y-13824842D01*
X9521861Y-13824842D02*
X9521861Y-13872461D01*
X9521861Y-13872461D02*
X9512337Y-13891508D01*
X9512337Y-13891508D02*
X9502813Y-13901032D01*
X9502813Y-13901032D02*
X9483766Y-13910556D01*
X9483766Y-13910556D02*
X9426623Y-13910556D01*
X9426623Y-13910556D02*
X9407575Y-13901032D01*
X9407575Y-13901032D02*
X9398051Y-13891508D01*
X9607575Y-13891508D02*
X9617099Y-13901032D01*
X9617099Y-13901032D02*
X9607575Y-13910556D01*
X9607575Y-13910556D02*
X9598051Y-13901032D01*
X9598051Y-13901032D02*
X9607575Y-13891508D01*
X9607575Y-13891508D02*
X9607575Y-13910556D01*
X9683766Y-13710556D02*
X9817099Y-13710556D01*
X9817099Y-13710556D02*
X9731385Y-13910556D01*
X9931385Y-13710556D02*
X9950432Y-13710556D01*
X9950432Y-13710556D02*
X9969480Y-13720080D01*
X9969480Y-13720080D02*
X9979004Y-13729604D01*
X9979004Y-13729604D02*
X9988528Y-13748651D01*
X9988528Y-13748651D02*
X9998051Y-13786747D01*
X9998051Y-13786747D02*
X9998051Y-13834366D01*
X9998051Y-13834366D02*
X9988528Y-13872461D01*
X9988528Y-13872461D02*
X9979004Y-13891508D01*
X9979004Y-13891508D02*
X9969480Y-13901032D01*
X9969480Y-13901032D02*
X9950432Y-13910556D01*
X9950432Y-13910556D02*
X9931385Y-13910556D01*
X9931385Y-13910556D02*
X9912337Y-13901032D01*
X9912337Y-13901032D02*
X9902813Y-13891508D01*
X9902813Y-13891508D02*
X9893290Y-13872461D01*
X9893290Y-13872461D02*
X9883766Y-13834366D01*
X9883766Y-13834366D02*
X9883766Y-13786747D01*
X9883766Y-13786747D02*
X9893290Y-13748651D01*
X9893290Y-13748651D02*
X9902813Y-13729604D01*
X9902813Y-13729604D02*
X9912337Y-13720080D01*
X9912337Y-13720080D02*
X9931385Y-13710556D01*
X10121861Y-13710556D02*
X10140909Y-13710556D01*
X10140909Y-13710556D02*
X10159956Y-13720080D01*
X10159956Y-13720080D02*
X10169480Y-13729604D01*
X10169480Y-13729604D02*
X10179004Y-13748651D01*
X10179004Y-13748651D02*
X10188528Y-13786747D01*
X10188528Y-13786747D02*
X10188528Y-13834366D01*
X10188528Y-13834366D02*
X10179004Y-13872461D01*
X10179004Y-13872461D02*
X10169480Y-13891508D01*
X10169480Y-13891508D02*
X10159956Y-13901032D01*
X10159956Y-13901032D02*
X10140909Y-13910556D01*
X10140909Y-13910556D02*
X10121861Y-13910556D01*
X10121861Y-13910556D02*
X10102813Y-13901032D01*
X10102813Y-13901032D02*
X10093290Y-13891508D01*
X10093290Y-13891508D02*
X10083766Y-13872461D01*
X10083766Y-13872461D02*
X10074242Y-13834366D01*
X10074242Y-13834366D02*
X10074242Y-13786747D01*
X10074242Y-13786747D02*
X10083766Y-13748651D01*
X10083766Y-13748651D02*
X10093290Y-13729604D01*
X10093290Y-13729604D02*
X10102813Y-13720080D01*
X10102813Y-13720080D02*
X10121861Y-13710556D01*
X10274242Y-13910556D02*
X10274242Y-13777223D01*
X10274242Y-13796270D02*
X10283766Y-13786747D01*
X10283766Y-13786747D02*
X10302813Y-13777223D01*
X10302813Y-13777223D02*
X10331385Y-13777223D01*
X10331385Y-13777223D02*
X10350432Y-13786747D01*
X10350432Y-13786747D02*
X10359956Y-13805794D01*
X10359956Y-13805794D02*
X10359956Y-13910556D01*
X10359956Y-13805794D02*
X10369480Y-13786747D01*
X10369480Y-13786747D02*
X10388528Y-13777223D01*
X10388528Y-13777223D02*
X10417099Y-13777223D01*
X10417099Y-13777223D02*
X10436147Y-13786747D01*
X10436147Y-13786747D02*
X10445671Y-13805794D01*
X10445671Y-13805794D02*
X10445671Y-13910556D01*
X10540909Y-13910556D02*
X10540909Y-13777223D01*
X10540909Y-13796270D02*
X10550432Y-13786747D01*
X10550432Y-13786747D02*
X10569480Y-13777223D01*
X10569480Y-13777223D02*
X10598052Y-13777223D01*
X10598052Y-13777223D02*
X10617099Y-13786747D01*
X10617099Y-13786747D02*
X10626623Y-13805794D01*
X10626623Y-13805794D02*
X10626623Y-13910556D01*
X10626623Y-13805794D02*
X10636147Y-13786747D01*
X10636147Y-13786747D02*
X10655194Y-13777223D01*
X10655194Y-13777223D02*
X10683766Y-13777223D01*
X10683766Y-13777223D02*
X10702813Y-13786747D01*
X10702813Y-13786747D02*
X10712337Y-13805794D01*
X10712337Y-13805794D02*
X10712337Y-13910556D01*
X11070432Y-13701032D02*
X10899004Y-13958175D01*
X11295194Y-13710556D02*
X11314242Y-13710556D01*
X11314242Y-13710556D02*
X11333290Y-13720080D01*
X11333290Y-13720080D02*
X11342813Y-13729604D01*
X11342813Y-13729604D02*
X11352337Y-13748651D01*
X11352337Y-13748651D02*
X11361861Y-13786747D01*
X11361861Y-13786747D02*
X11361861Y-13834366D01*
X11361861Y-13834366D02*
X11352337Y-13872461D01*
X11352337Y-13872461D02*
X11342813Y-13891508D01*
X11342813Y-13891508D02*
X11333290Y-13901032D01*
X11333290Y-13901032D02*
X11314242Y-13910556D01*
X11314242Y-13910556D02*
X11295194Y-13910556D01*
X11295194Y-13910556D02*
X11276147Y-13901032D01*
X11276147Y-13901032D02*
X11266623Y-13891508D01*
X11266623Y-13891508D02*
X11257099Y-13872461D01*
X11257099Y-13872461D02*
X11247575Y-13834366D01*
X11247575Y-13834366D02*
X11247575Y-13786747D01*
X11247575Y-13786747D02*
X11257099Y-13748651D01*
X11257099Y-13748651D02*
X11266623Y-13729604D01*
X11266623Y-13729604D02*
X11276147Y-13720080D01*
X11276147Y-13720080D02*
X11295194Y-13710556D01*
X11447575Y-13891508D02*
X11457099Y-13901032D01*
X11457099Y-13901032D02*
X11447575Y-13910556D01*
X11447575Y-13910556D02*
X11438051Y-13901032D01*
X11438051Y-13901032D02*
X11447575Y-13891508D01*
X11447575Y-13891508D02*
X11447575Y-13910556D01*
X11647575Y-13910556D02*
X11533290Y-13910556D01*
X11590432Y-13910556D02*
X11590432Y-13710556D01*
X11590432Y-13710556D02*
X11571385Y-13739128D01*
X11571385Y-13739128D02*
X11552337Y-13758175D01*
X11552337Y-13758175D02*
X11533290Y-13767699D01*
X11819004Y-13777223D02*
X11819004Y-13910556D01*
X11771385Y-13701032D02*
X11723766Y-13843889D01*
X11723766Y-13843889D02*
X11847575Y-13843889D01*
X12019004Y-13710556D02*
X11923766Y-13710556D01*
X11923766Y-13710556D02*
X11914242Y-13805794D01*
X11914242Y-13805794D02*
X11923766Y-13796270D01*
X11923766Y-13796270D02*
X11942813Y-13786747D01*
X11942813Y-13786747D02*
X11990432Y-13786747D01*
X11990432Y-13786747D02*
X12009480Y-13796270D01*
X12009480Y-13796270D02*
X12019004Y-13805794D01*
X12019004Y-13805794D02*
X12028528Y-13824842D01*
X12028528Y-13824842D02*
X12028528Y-13872461D01*
X12028528Y-13872461D02*
X12019004Y-13891508D01*
X12019004Y-13891508D02*
X12009480Y-13901032D01*
X12009480Y-13901032D02*
X11990432Y-13910556D01*
X11990432Y-13910556D02*
X11942813Y-13910556D01*
X11942813Y-13910556D02*
X11923766Y-13901032D01*
X11923766Y-13901032D02*
X11914242Y-13891508D01*
X12095194Y-13710556D02*
X12228528Y-13710556D01*
X12228528Y-13710556D02*
X12142813Y-13910556D01*
X12295194Y-13710556D02*
X12295194Y-13748651D01*
X12371385Y-13710556D02*
X12371385Y-13748651D01*
X12634242Y-13986747D02*
X12624718Y-13977223D01*
X12624718Y-13977223D02*
X12605671Y-13948651D01*
X12605671Y-13948651D02*
X12596147Y-13929604D01*
X12596147Y-13929604D02*
X12586623Y-13901032D01*
X12586623Y-13901032D02*
X12577099Y-13853413D01*
X12577099Y-13853413D02*
X12577099Y-13815318D01*
X12577099Y-13815318D02*
X12586623Y-13767699D01*
X12586623Y-13767699D02*
X12596147Y-13739128D01*
X12596147Y-13739128D02*
X12605671Y-13720080D01*
X12605671Y-13720080D02*
X12624718Y-13691508D01*
X12624718Y-13691508D02*
X12634242Y-13681985D01*
X12700909Y-13729604D02*
X12710432Y-13720080D01*
X12710432Y-13720080D02*
X12729480Y-13710556D01*
X12729480Y-13710556D02*
X12777099Y-13710556D01*
X12777099Y-13710556D02*
X12796147Y-13720080D01*
X12796147Y-13720080D02*
X12805671Y-13729604D01*
X12805671Y-13729604D02*
X12815194Y-13748651D01*
X12815194Y-13748651D02*
X12815194Y-13767699D01*
X12815194Y-13767699D02*
X12805671Y-13796270D01*
X12805671Y-13796270D02*
X12691385Y-13910556D01*
X12691385Y-13910556D02*
X12815194Y-13910556D01*
X13020909Y-13910556D02*
X13020909Y-13710556D01*
X13106623Y-13910556D02*
X13106623Y-13805794D01*
X13106623Y-13805794D02*
X13097099Y-13786747D01*
X13097099Y-13786747D02*
X13078052Y-13777223D01*
X13078052Y-13777223D02*
X13049480Y-13777223D01*
X13049480Y-13777223D02*
X13030432Y-13786747D01*
X13030432Y-13786747D02*
X13020909Y-13796270D01*
X13230432Y-13910556D02*
X13211385Y-13901032D01*
X13211385Y-13901032D02*
X13201861Y-13891508D01*
X13201861Y-13891508D02*
X13192337Y-13872461D01*
X13192337Y-13872461D02*
X13192337Y-13815318D01*
X13192337Y-13815318D02*
X13201861Y-13796270D01*
X13201861Y-13796270D02*
X13211385Y-13786747D01*
X13211385Y-13786747D02*
X13230432Y-13777223D01*
X13230432Y-13777223D02*
X13259004Y-13777223D01*
X13259004Y-13777223D02*
X13278052Y-13786747D01*
X13278052Y-13786747D02*
X13287575Y-13796270D01*
X13287575Y-13796270D02*
X13297099Y-13815318D01*
X13297099Y-13815318D02*
X13297099Y-13872461D01*
X13297099Y-13872461D02*
X13287575Y-13891508D01*
X13287575Y-13891508D02*
X13278052Y-13901032D01*
X13278052Y-13901032D02*
X13259004Y-13910556D01*
X13259004Y-13910556D02*
X13230432Y-13910556D01*
X13411385Y-13910556D02*
X13392337Y-13901032D01*
X13392337Y-13901032D02*
X13382813Y-13881985D01*
X13382813Y-13881985D02*
X13382813Y-13710556D01*
X13563766Y-13901032D02*
X13544718Y-13910556D01*
X13544718Y-13910556D02*
X13506623Y-13910556D01*
X13506623Y-13910556D02*
X13487575Y-13901032D01*
X13487575Y-13901032D02*
X13478052Y-13881985D01*
X13478052Y-13881985D02*
X13478052Y-13805794D01*
X13478052Y-13805794D02*
X13487575Y-13786747D01*
X13487575Y-13786747D02*
X13506623Y-13777223D01*
X13506623Y-13777223D02*
X13544718Y-13777223D01*
X13544718Y-13777223D02*
X13563766Y-13786747D01*
X13563766Y-13786747D02*
X13573290Y-13805794D01*
X13573290Y-13805794D02*
X13573290Y-13824842D01*
X13573290Y-13824842D02*
X13478052Y-13843889D01*
X13649480Y-13901032D02*
X13668528Y-13910556D01*
X13668528Y-13910556D02*
X13706623Y-13910556D01*
X13706623Y-13910556D02*
X13725671Y-13901032D01*
X13725671Y-13901032D02*
X13735194Y-13881985D01*
X13735194Y-13881985D02*
X13735194Y-13872461D01*
X13735194Y-13872461D02*
X13725671Y-13853413D01*
X13725671Y-13853413D02*
X13706623Y-13843889D01*
X13706623Y-13843889D02*
X13678052Y-13843889D01*
X13678052Y-13843889D02*
X13659004Y-13834366D01*
X13659004Y-13834366D02*
X13649480Y-13815318D01*
X13649480Y-13815318D02*
X13649480Y-13805794D01*
X13649480Y-13805794D02*
X13659004Y-13786747D01*
X13659004Y-13786747D02*
X13678052Y-13777223D01*
X13678052Y-13777223D02*
X13706623Y-13777223D01*
X13706623Y-13777223D02*
X13725671Y-13786747D01*
X13801861Y-13986747D02*
X13811385Y-13977223D01*
X13811385Y-13977223D02*
X13830433Y-13948651D01*
X13830433Y-13948651D02*
X13839956Y-13929604D01*
X13839956Y-13929604D02*
X13849480Y-13901032D01*
X13849480Y-13901032D02*
X13859004Y-13853413D01*
X13859004Y-13853413D02*
X13859004Y-13815318D01*
X13859004Y-13815318D02*
X13849480Y-13767699D01*
X13849480Y-13767699D02*
X13839956Y-13739128D01*
X13839956Y-13739128D02*
X13830433Y-13720080D01*
X13830433Y-13720080D02*
X13811385Y-13691508D01*
X13811385Y-13691508D02*
X13801861Y-13681985D01*
M02*
