%TF.GenerationSoftware,KiCad,Pcbnew,(7.0.0)*%
%TF.CreationDate,2023-03-21T09:48:05+02:00*%
%TF.ProjectId,HAT,4841542e-6b69-4636-9164-5f7063625858,rev?*%
%TF.SameCoordinates,Original*%
%TF.FileFunction,Paste,Top*%
%TF.FilePolarity,Positive*%
%FSLAX46Y46*%
G04 Gerber Fmt 4.6, Leading zero omitted, Abs format (unit mm)*
G04 Created by KiCad (PCBNEW (7.0.0)) date 2023-03-21 09:48:05*
%MOMM*%
%LPD*%
G01*
G04 APERTURE LIST*
G04 Aperture macros list*
%AMRoundRect*
0 Rectangle with rounded corners*
0 $1 Rounding radius*
0 $2 $3 $4 $5 $6 $7 $8 $9 X,Y pos of 4 corners*
0 Add a 4 corners polygon primitive as box body*
4,1,4,$2,$3,$4,$5,$6,$7,$8,$9,$2,$3,0*
0 Add four circle primitives for the rounded corners*
1,1,$1+$1,$2,$3*
1,1,$1+$1,$4,$5*
1,1,$1+$1,$6,$7*
1,1,$1+$1,$8,$9*
0 Add four rect primitives between the rounded corners*
20,1,$1+$1,$2,$3,$4,$5,0*
20,1,$1+$1,$4,$5,$6,$7,0*
20,1,$1+$1,$6,$7,$8,$9,0*
20,1,$1+$1,$8,$9,$2,$3,0*%
G04 Aperture macros list end*
%ADD10R,0.800000X1.000000*%
%ADD11R,1.100000X1.700000*%
%ADD12R,1.000000X0.800000*%
%ADD13R,0.900000X0.800000*%
%ADD14R,1.000000X1.399543*%
%ADD15R,0.800000X0.550013*%
%ADD16R,0.800000X0.900000*%
%ADD17RoundRect,0.250000X0.262500X0.450000X-0.262500X0.450000X-0.262500X-0.450000X0.262500X-0.450000X0*%
%ADD18RoundRect,0.150000X-0.512500X-0.150000X0.512500X-0.150000X0.512500X0.150000X-0.512500X0.150000X0*%
%ADD19RoundRect,0.250000X-0.450000X0.262500X-0.450000X-0.262500X0.450000X-0.262500X0.450000X0.262500X0*%
%ADD20RoundRect,0.250000X-0.262500X-0.450000X0.262500X-0.450000X0.262500X0.450000X-0.262500X0.450000X0*%
%ADD21R,5.500000X1.300000*%
%ADD22O,2.045009X0.588011*%
%ADD23R,1.250013X0.700000*%
%ADD24R,1.350013X1.410008*%
%ADD25RoundRect,0.250000X0.450000X-0.262500X0.450000X0.262500X-0.450000X0.262500X-0.450000X-0.262500X0*%
%ADD26R,1.000000X0.750013*%
%ADD27R,1.410008X1.350013*%
%ADD28R,0.800000X0.800000*%
%ADD29RoundRect,1.625000X-2.125000X-1.625000X2.125000X-1.625000X2.125000X1.625000X-2.125000X1.625000X0*%
%ADD30R,0.790094X0.540005*%
%ADD31R,0.540005X0.790094*%
%ADD32R,1.350013X2.800000*%
%ADD33R,1.500000X2.800000*%
%ADD34R,6.000000X6.500025*%
%ADD35R,1.296012X1.757506*%
%ADD36O,1.900000X1.070000*%
%ADD37C,1.300000*%
%ADD38R,1.350000X0.400000*%
%ADD39R,1.400000X0.600000*%
%ADD40R,1.485014X1.727991*%
%ADD41RoundRect,0.150000X0.150000X-0.825000X0.150000X0.825000X-0.150000X0.825000X-0.150000X-0.825000X0*%
%ADD42RoundRect,0.150000X-0.587500X-0.150000X0.587500X-0.150000X0.587500X0.150000X-0.587500X0.150000X0*%
%ADD43RoundRect,0.230000X-0.230000X-0.375000X0.230000X-0.375000X0.230000X0.375000X-0.230000X0.375000X0*%
%ADD44RoundRect,0.150000X-0.825000X-0.150000X0.825000X-0.150000X0.825000X0.150000X-0.825000X0.150000X0*%
G04 APERTURE END LIST*
D10*
%TO.C,Q3*%
X161869225Y-57251599D03*
X160919263Y-54951573D03*
X159969199Y-57251599D03*
%TD*%
D11*
%TO.C,D3*%
X160985199Y-49987199D03*
X157585149Y-49987199D03*
%TD*%
D12*
%TO.C,Q2*%
X142290799Y-55148373D03*
X139990773Y-56098335D03*
X142290799Y-57048399D03*
%TD*%
D13*
%TO.C,C15*%
X162763199Y-72897999D03*
X162763199Y-71497949D03*
%TD*%
D14*
%TO.C,LED2*%
X113893599Y-48005999D03*
X115994183Y-48005999D03*
%TD*%
D15*
%TO.C,U4*%
X120700799Y-102523535D03*
X120700799Y-103273599D03*
X120700799Y-104023662D03*
X120700799Y-104773472D03*
X120700799Y-105523535D03*
X120700799Y-106273599D03*
X122700799Y-106273599D03*
X122700799Y-105523535D03*
X122700799Y-104773472D03*
X122700799Y-104023662D03*
X122700799Y-103273599D03*
X122700799Y-102523535D03*
%TD*%
D16*
%TO.C,C7*%
X128269999Y-107340399D03*
X126869949Y-107340399D03*
%TD*%
D17*
%TO.C,R1*%
X177000000Y-57000000D03*
X175175000Y-57000000D03*
%TD*%
D18*
%TO.C,U2*%
X174862500Y-51050000D03*
X174862500Y-52950000D03*
X177137500Y-52000000D03*
%TD*%
D17*
%TO.C,R51*%
X97835000Y-110000000D03*
X96010000Y-110000000D03*
%TD*%
D19*
%TO.C,R19*%
X119050000Y-94587500D03*
X119050000Y-96412500D03*
%TD*%
D20*
%TO.C,R36*%
X139425000Y-109724924D03*
X141250000Y-109724924D03*
%TD*%
D17*
%TO.C,R22*%
X118041744Y-111620000D03*
X116216744Y-111620000D03*
%TD*%
%TO.C,R50*%
X97535000Y-95300000D03*
X95710000Y-95300000D03*
%TD*%
D21*
%TO.C,Y1*%
X130644917Y-72897999D03*
X121538999Y-72897999D03*
%TD*%
D22*
%TO.C,U6*%
X152526999Y-76199999D03*
X152526999Y-74929996D03*
X152526999Y-73659994D03*
X152526999Y-72389991D03*
X146982167Y-72389991D03*
X146982167Y-73659994D03*
X146982167Y-74929996D03*
X146982167Y-76199999D03*
%TD*%
D23*
%TO.C,Q5*%
X144349999Y-92899999D03*
X144349999Y-94799923D03*
X146349999Y-93849961D03*
%TD*%
D17*
%TO.C,R8*%
X108000000Y-51000000D03*
X106175000Y-51000000D03*
%TD*%
D24*
%TO.C,C11*%
X117093999Y-73913999D03*
X117093999Y-71913999D03*
%TD*%
D25*
%TO.C,R32*%
X175056800Y-75944100D03*
X175056800Y-74119100D03*
%TD*%
D17*
%TO.C,R45*%
X107635000Y-109000000D03*
X105810000Y-109000000D03*
%TD*%
D26*
%TO.C,D1*%
X128172592Y-51999999D03*
X125827406Y-51999999D03*
%TD*%
D27*
%TO.C,C12*%
X167999999Y-63703199D03*
X169999999Y-63703199D03*
%TD*%
D17*
%TO.C,R3*%
X109000000Y-45000000D03*
X107175000Y-45000000D03*
%TD*%
D25*
%TO.C,R49*%
X100410000Y-114825000D03*
X100410000Y-113000000D03*
%TD*%
D28*
%TO.C,LED1*%
X114401065Y-45006857D03*
X115999999Y-44999999D03*
%TD*%
D25*
%TO.C,R13*%
X154000000Y-51000000D03*
X154000000Y-49175000D03*
%TD*%
D19*
%TO.C,R39*%
X141350000Y-88974924D03*
X141350000Y-90799924D03*
%TD*%
D23*
%TO.C,Q7*%
X102809999Y-110949961D03*
X102809999Y-109050037D03*
X100809999Y-109999999D03*
%TD*%
D20*
%TO.C,R31*%
X173000000Y-64000000D03*
X174825000Y-64000000D03*
%TD*%
D19*
%TO.C,R38*%
X141250000Y-103899924D03*
X141250000Y-105724924D03*
%TD*%
D20*
%TO.C,R15*%
X165087500Y-42000000D03*
X166912500Y-42000000D03*
%TD*%
D29*
%TO.C,BT1*%
X107100000Y-30200000D03*
X186400000Y-30200000D03*
%TD*%
D30*
%TO.C,C3*%
X172909829Y-47999999D03*
X173999999Y-47999999D03*
%TD*%
D19*
%TO.C,R35*%
X171348400Y-74171800D03*
X171348400Y-75996800D03*
%TD*%
D22*
%TO.C,U3*%
X154999999Y-43094995D03*
X154999999Y-44364998D03*
X154999999Y-45635000D03*
X154999999Y-46905003D03*
X160544831Y-46905003D03*
X160544831Y-45635000D03*
X160544831Y-44364998D03*
X160544831Y-43094995D03*
%TD*%
D19*
%TO.C,R34*%
X167792400Y-74320400D03*
X167792400Y-76145400D03*
%TD*%
D25*
%TO.C,R20*%
X119150000Y-91012398D03*
X119150000Y-89187398D03*
%TD*%
D26*
%TO.C,D2*%
X143172592Y-50999999D03*
X140827406Y-50999999D03*
%TD*%
D19*
%TO.C,R40*%
X146675000Y-103899924D03*
X146675000Y-105724924D03*
%TD*%
%TO.C,R29*%
X153289000Y-68429500D03*
X153289000Y-70254500D03*
%TD*%
D25*
%TO.C,R47*%
X105810000Y-114875038D03*
X105810000Y-113050038D03*
%TD*%
D17*
%TO.C,R4*%
X109000000Y-48000000D03*
X107175000Y-48000000D03*
%TD*%
D23*
%TO.C,Q6*%
X102509999Y-96249961D03*
X102509999Y-94350037D03*
X100509999Y-95299999D03*
%TD*%
D25*
%TO.C,R6*%
X106000000Y-55912500D03*
X106000000Y-54087500D03*
%TD*%
D31*
%TO.C,C14*%
X162813999Y-75047854D03*
X162813999Y-76138024D03*
%TD*%
D32*
%TO.C,Q8*%
X123742912Y-97162613D03*
D33*
X128322796Y-97162613D03*
D34*
X126049999Y-90212397D03*
%TD*%
D20*
%TO.C,R25*%
X129616744Y-111570000D03*
X131441744Y-111570000D03*
%TD*%
D31*
%TO.C,C17*%
X159765999Y-68505829D03*
X159765999Y-69595999D03*
%TD*%
D35*
%TO.C,C4*%
X99999999Y-52627381D03*
X99999999Y-55999999D03*
%TD*%
D31*
%TO.C,C13*%
X159765999Y-75174854D03*
X159765999Y-76265024D03*
%TD*%
%TO.C,C16*%
X159765999Y-71680829D03*
X159765999Y-72770999D03*
%TD*%
D25*
%TO.C,R48*%
X100110000Y-100100000D03*
X100110000Y-98275000D03*
%TD*%
D19*
%TO.C,R5*%
X94000000Y-42175000D03*
X94000000Y-44000000D03*
%TD*%
D25*
%TO.C,R28*%
X143637000Y-70405000D03*
X143637000Y-68580000D03*
%TD*%
D20*
%TO.C,R11*%
X145087500Y-57000000D03*
X146912500Y-57000000D03*
%TD*%
D36*
%TO.C,J6*%
X187452799Y-72345199D03*
D37*
X184802800Y-71170200D03*
X184802800Y-66320200D03*
D36*
X187452799Y-65145199D03*
D38*
X184852799Y-70045199D03*
X184852799Y-69395199D03*
X184852799Y-68745199D03*
X184852799Y-68095199D03*
X184852799Y-67445199D03*
D39*
X187502799Y-69545199D03*
X187502799Y-67945199D03*
%TD*%
D25*
%TO.C,R26*%
X143891000Y-74930000D03*
X143891000Y-73105000D03*
%TD*%
D17*
%TO.C,R17*%
X166000000Y-57000000D03*
X164175000Y-57000000D03*
%TD*%
%TO.C,R18*%
X133350000Y-96412500D03*
X131525000Y-96412500D03*
%TD*%
D40*
%TO.C,C6*%
X126549999Y-101950126D03*
X129735165Y-101950126D03*
%TD*%
D24*
%TO.C,C10*%
X136397999Y-73405999D03*
X136397999Y-71405999D03*
%TD*%
D17*
%TO.C,R23*%
X122666744Y-111620000D03*
X120841744Y-111620000D03*
%TD*%
%TO.C,R14*%
X157000000Y-57000000D03*
X155175000Y-57000000D03*
%TD*%
D35*
%TO.C,C1*%
X94999999Y-48313690D03*
X94999999Y-51686308D03*
%TD*%
D17*
%TO.C,R24*%
X127154244Y-111620000D03*
X125329244Y-111620000D03*
%TD*%
%TO.C,R21*%
X114900000Y-89162500D03*
X113075000Y-89162500D03*
%TD*%
D19*
%TO.C,R41*%
X146775000Y-89024962D03*
X146775000Y-90849962D03*
%TD*%
D20*
%TO.C,R37*%
X139550000Y-94849962D03*
X141375000Y-94849962D03*
%TD*%
D41*
%TO.C,U7*%
X168249600Y-71526400D03*
X169519600Y-71526400D03*
X170789600Y-71526400D03*
X172059600Y-71526400D03*
X173329600Y-71526400D03*
X174599600Y-71526400D03*
X175869600Y-71526400D03*
X177139600Y-71526400D03*
X177139600Y-66576400D03*
X175869600Y-66576400D03*
X174599600Y-66576400D03*
X173329600Y-66576400D03*
X172059600Y-66576400D03*
X170789600Y-66576400D03*
X169519600Y-66576400D03*
X168249600Y-66576400D03*
%TD*%
D20*
%TO.C,R43*%
X149300000Y-93799924D03*
X151125000Y-93799924D03*
%TD*%
D17*
%TO.C,R10*%
X137825000Y-56000000D03*
X136000000Y-56000000D03*
%TD*%
D30*
%TO.C,C9*%
X130709829Y-88012499D03*
X131799999Y-88012499D03*
%TD*%
D42*
%TO.C,Q1*%
X126062500Y-55050000D03*
X126062500Y-56950000D03*
X127937500Y-56000000D03*
%TD*%
D24*
%TO.C,C8*%
X132149999Y-91362499D03*
X132149999Y-93362499D03*
%TD*%
D25*
%TO.C,R2*%
X94000000Y-56825000D03*
X94000000Y-55000000D03*
%TD*%
D17*
%TO.C,R9*%
X134825000Y-52000000D03*
X133000000Y-52000000D03*
%TD*%
D25*
%TO.C,R33*%
X178917600Y-75993000D03*
X178917600Y-74168000D03*
%TD*%
%TO.C,R46*%
X105535000Y-100175038D03*
X105535000Y-98350038D03*
%TD*%
D19*
%TO.C,R30*%
X149733000Y-68429500D03*
X149733000Y-70254500D03*
%TD*%
D23*
%TO.C,Q4*%
X144249999Y-107774961D03*
X144249999Y-109674885D03*
X146249999Y-108724923D03*
%TD*%
D20*
%TO.C,R16*%
X165175000Y-48000000D03*
X167000000Y-48000000D03*
%TD*%
%TO.C,R12*%
X150000000Y-57000000D03*
X151825000Y-57000000D03*
%TD*%
D25*
%TO.C,R27*%
X147193000Y-70301500D03*
X147193000Y-68476500D03*
%TD*%
D20*
%TO.C,R42*%
X149225000Y-108724924D03*
X151050000Y-108724924D03*
%TD*%
D17*
%TO.C,R44*%
X107335000Y-94300000D03*
X105510000Y-94300000D03*
%TD*%
D25*
%TO.C,R7*%
X180000000Y-56825000D03*
X180000000Y-55000000D03*
%TD*%
D43*
%TO.C,U1*%
X100000000Y-44000000D03*
X100000000Y-45500000D03*
X101140000Y-44000000D03*
X101140000Y-45500000D03*
D44*
X98095000Y-42845000D03*
X98095000Y-44115000D03*
X98095000Y-45385000D03*
X98095000Y-46655000D03*
X103045000Y-46655000D03*
X103045000Y-45385000D03*
X103045000Y-44115000D03*
X103045000Y-42845000D03*
%TD*%
D30*
%TO.C,C2*%
X178090169Y-47999999D03*
X176999999Y-47999999D03*
%TD*%
M02*
