%TF.GenerationSoftware,KiCad,Pcbnew,(7.0.0)*%
%TF.CreationDate,2023-03-21T09:48:14+02:00*%
%TF.ProjectId,HAT,4841542e-6b69-4636-9164-5f7063625858,rev?*%
%TF.SameCoordinates,Original*%
%TF.FileFunction,Drillmap*%
%TF.FilePolarity,Positive*%
%FSLAX45Y45*%
G04 Gerber Fmt 4.5, Leading zero omitted, Abs format (unit mm)*
G04 Created by KiCad (PCBNEW (7.0.0)) date 2023-03-21 09:48:14*
%MOMM*%
%LPD*%
G01*
G04 APERTURE LIST*
%ADD10C,0.100000*%
%ADD11C,0.200000*%
G04 APERTURE END LIST*
D10*
X9174480Y-1915160D02*
X19116040Y-1915160D01*
X19116040Y-1915160D02*
X19116040Y-11816080D01*
X19116040Y-11816080D02*
X9174480Y-11816080D01*
X9174480Y-11816080D02*
X9174480Y-1915160D01*
D11*
X9417099Y-12114556D02*
X9417099Y-11914556D01*
X9417099Y-11914556D02*
X9464718Y-11914556D01*
X9464718Y-11914556D02*
X9493290Y-11924080D01*
X9493290Y-11924080D02*
X9512337Y-11943128D01*
X9512337Y-11943128D02*
X9521861Y-11962175D01*
X9521861Y-11962175D02*
X9531385Y-12000270D01*
X9531385Y-12000270D02*
X9531385Y-12028842D01*
X9531385Y-12028842D02*
X9521861Y-12066937D01*
X9521861Y-12066937D02*
X9512337Y-12085985D01*
X9512337Y-12085985D02*
X9493290Y-12105032D01*
X9493290Y-12105032D02*
X9464718Y-12114556D01*
X9464718Y-12114556D02*
X9417099Y-12114556D01*
X9617099Y-12114556D02*
X9617099Y-11981223D01*
X9617099Y-12019318D02*
X9626623Y-12000270D01*
X9626623Y-12000270D02*
X9636147Y-11990747D01*
X9636147Y-11990747D02*
X9655194Y-11981223D01*
X9655194Y-11981223D02*
X9674242Y-11981223D01*
X9740909Y-12114556D02*
X9740909Y-11981223D01*
X9740909Y-11914556D02*
X9731385Y-11924080D01*
X9731385Y-11924080D02*
X9740909Y-11933604D01*
X9740909Y-11933604D02*
X9750432Y-11924080D01*
X9750432Y-11924080D02*
X9740909Y-11914556D01*
X9740909Y-11914556D02*
X9740909Y-11933604D01*
X9864718Y-12114556D02*
X9845670Y-12105032D01*
X9845670Y-12105032D02*
X9836147Y-12085985D01*
X9836147Y-12085985D02*
X9836147Y-11914556D01*
X9969480Y-12114556D02*
X9950432Y-12105032D01*
X9950432Y-12105032D02*
X9940909Y-12085985D01*
X9940909Y-12085985D02*
X9940909Y-11914556D01*
X10165670Y-12114556D02*
X10165670Y-11914556D01*
X10165670Y-11914556D02*
X10232337Y-12057413D01*
X10232337Y-12057413D02*
X10299004Y-11914556D01*
X10299004Y-11914556D02*
X10299004Y-12114556D01*
X10479956Y-12114556D02*
X10479956Y-12009794D01*
X10479956Y-12009794D02*
X10470432Y-11990747D01*
X10470432Y-11990747D02*
X10451385Y-11981223D01*
X10451385Y-11981223D02*
X10413289Y-11981223D01*
X10413289Y-11981223D02*
X10394242Y-11990747D01*
X10479956Y-12105032D02*
X10460909Y-12114556D01*
X10460909Y-12114556D02*
X10413289Y-12114556D01*
X10413289Y-12114556D02*
X10394242Y-12105032D01*
X10394242Y-12105032D02*
X10384718Y-12085985D01*
X10384718Y-12085985D02*
X10384718Y-12066937D01*
X10384718Y-12066937D02*
X10394242Y-12047889D01*
X10394242Y-12047889D02*
X10413289Y-12038366D01*
X10413289Y-12038366D02*
X10460909Y-12038366D01*
X10460909Y-12038366D02*
X10479956Y-12028842D01*
X10575194Y-11981223D02*
X10575194Y-12181223D01*
X10575194Y-11990747D02*
X10594242Y-11981223D01*
X10594242Y-11981223D02*
X10632337Y-11981223D01*
X10632337Y-11981223D02*
X10651385Y-11990747D01*
X10651385Y-11990747D02*
X10660909Y-12000270D01*
X10660909Y-12000270D02*
X10670432Y-12019318D01*
X10670432Y-12019318D02*
X10670432Y-12076461D01*
X10670432Y-12076461D02*
X10660909Y-12095508D01*
X10660909Y-12095508D02*
X10651385Y-12105032D01*
X10651385Y-12105032D02*
X10632337Y-12114556D01*
X10632337Y-12114556D02*
X10594242Y-12114556D01*
X10594242Y-12114556D02*
X10575194Y-12105032D01*
X10756147Y-12095508D02*
X10765670Y-12105032D01*
X10765670Y-12105032D02*
X10756147Y-12114556D01*
X10756147Y-12114556D02*
X10746623Y-12105032D01*
X10746623Y-12105032D02*
X10756147Y-12095508D01*
X10756147Y-12095508D02*
X10756147Y-12114556D01*
X10756147Y-11990747D02*
X10765670Y-12000270D01*
X10765670Y-12000270D02*
X10756147Y-12009794D01*
X10756147Y-12009794D02*
X10746623Y-12000270D01*
X10746623Y-12000270D02*
X10756147Y-11990747D01*
X10756147Y-11990747D02*
X10756147Y-12009794D01*
M02*
