M48
; DRILL file {KiCad (7.0.0)} date Tue Mar 21 09:13:49 2023
; FORMAT={-:-/ absolute / inch / decimal}
; #@! TF.CreationDate,2023-03-21T09:13:49+02:00
; #@! TF.GenerationSoftware,Kicad,Pcbnew,(7.0.0)
; #@! TF.FileFunction,Plated,1,2,PTH
FMAT,2
INCH
; #@! TA.AperFunction,Plated,PTH,ViaDrill
T1C0.0157
; #@! TA.AperFunction,Plated,PTH,ComponentDrill
T2C0.0197
; #@! TA.AperFunction,Plated,PTH,ComponentDrill
T3C0.0276
; #@! TA.AperFunction,Plated,PTH,ComponentDrill
T4C0.0394
; #@! TA.AperFunction,Plated,PTH,ComponentDrill
T5C0.0945
; #@! TA.AperFunction,Plated,PTH,ComponentDrill
T6C0.1457
%
G90
G05
T1
X4.0551Y-4.3701
X4.1549Y-3.9439
X4.252Y-2.0079
X4.2913Y-3.7008
X4.6457Y-4.1339
X4.685Y-3.8583
X4.7914Y-4.0748
X4.8031Y-2.126
X4.8294Y-4.3945
X4.8819Y-4.0551
X4.9213Y-4.2323
X4.9823Y-4.0138
X5.1969Y-4.0157
X5.2165Y-3.6024
X5.2756Y-4.4291
X5.4262Y-2.2047
X5.5512Y-2.0079
X5.561Y-4.0905
X5.655Y-2.7
X5.6831Y-3.6575
X5.8858Y-2.7379
X5.9498Y-3.6929
X6.035Y-2.7659
X6.1417Y-2.1063
X6.2205Y-3.7008
X6.2835Y-2.7402
X6.3386Y-1.9685
X6.4547Y-2.6181
X6.4961Y-2.4803
X6.5354Y-2.4429
X6.5748Y-1.671
X6.5748Y-1.8898
X6.5748Y-3.1102
X6.6929Y-2.5
X6.7323Y-2.9921
X6.8722Y-2.0057
X6.8898Y-2.0866
X6.8898Y-2.9921
X7.0866Y-2.1654
X7.2047Y-2.7165
X7.3228Y-2.7559
X7.3386Y-1.189
T3
X7.2757Y-2.611
X7.2757Y-2.802
T4
X3.7795Y-2.4378
X3.7795Y-2.5378
X3.7795Y-2.6378
X3.7795Y-2.7378
X3.7795Y-2.8378
X3.7795Y-2.9378
X3.7795Y-3.0378
X3.7795Y-3.1378
X3.7795Y-3.2378
X3.7795Y-3.3378
X3.9492Y-3.5472
X3.961Y-4.126
X4.015Y-3.3051
X4.0181Y-3.1476
X4.0197Y-2.3996
X4.0205Y-2.5571
X4.0492Y-3.5472
X4.061Y-4.126
X4.115Y-3.3051
X4.1181Y-3.1476
X4.1197Y-2.3996
X4.1205Y-2.5571
X4.215Y-3.3051
X4.2181Y-3.1476
X4.2197Y-2.3996
X4.2205Y-2.5571
X4.315Y-3.3051
X4.3181Y-3.1476
X4.3197Y-2.3996
X4.3205Y-2.5571
X4.415Y-3.3051
X4.4181Y-3.1476
X4.4197Y-2.3996
X4.4205Y-2.5571
X4.515Y-3.3051
X4.5181Y-3.1476
X4.5197Y-2.3996
X4.5205Y-2.5571
X4.5276Y-3.7879
X4.615Y-3.3051
X4.6181Y-3.1476
X4.6197Y-2.3996
X4.6205Y-2.5571
X4.715Y-3.3051
X4.7181Y-3.1476
X4.7197Y-2.3996
X4.7205Y-2.5571
X4.815Y-3.3051
X4.8181Y-3.1476
X4.8197Y-2.3996
X4.8205Y-2.5571
X4.8268Y-4.5638
X4.915Y-3.3051
X4.9181Y-3.1476
X4.9197Y-2.3996
X4.9205Y-2.5571
X4.9268Y-4.5638
X4.9606Y-1.7717
X4.9606Y-1.8717
X5.015Y-3.3051
X5.0181Y-3.1476
X5.0197Y-2.3996
X5.0205Y-2.5571
X5.115Y-3.3051
X5.1181Y-3.1476
X5.1197Y-2.3996
X5.1205Y-2.5571
X5.215Y-3.3051
X5.2181Y-3.1476
X5.2197Y-2.3996
X5.2205Y-2.5571
X5.315Y-3.3051
X5.3181Y-3.1476
X5.3197Y-2.3996
X5.3205Y-2.5571
X5.415Y-3.3051
X5.4181Y-3.1476
X5.4197Y-2.3996
X5.4205Y-2.5571
X5.515Y-3.3051
X5.5181Y-3.1476
X5.5197Y-2.3996
X5.5205Y-2.5571
X5.615Y-3.3051
X5.6181Y-3.1476
X5.6197Y-2.3996
X5.6205Y-2.5571
X5.6657Y-4.4852
X5.688Y-3.9075
X5.715Y-3.3051
X5.7181Y-3.1476
X5.7197Y-2.3996
X5.7205Y-2.5571
X5.7657Y-4.4852
X5.788Y-3.9075
X5.815Y-3.3051
X5.8181Y-3.1476
X5.8197Y-2.3996
X5.8205Y-2.5571
X5.915Y-3.3051
X5.9181Y-3.1476
X5.9197Y-2.3996
X5.9205Y-2.5571
X6.015Y-3.3051
X6.0181Y-3.1476
X6.0197Y-2.3996
X6.0205Y-2.5571
X6.115Y-3.3051
X6.1181Y-3.1476
X6.1197Y-2.3996
X6.1205Y-2.5571
X6.215Y-3.3051
X6.2181Y-3.1476
X6.2197Y-2.3996
X6.2205Y-2.5571
X6.315Y-3.3051
X6.3181Y-3.1476
X6.3197Y-2.3996
X6.3205Y-2.5571
X6.7323Y-2.1047
X6.7323Y-2.2047
X7.0472Y-2.4803
T5
X7.1878Y-1.5039
T6
X4.6909Y-1.5039
X6.8642Y-0.874
T2
G00X7.3643Y-2.5648
M15
G01X7.3958Y-2.5648
M16
G05
G00X7.3643Y-2.8482
M15
G01X7.3958Y-2.8482
M16
G05
T0
M30
