%TF.GenerationSoftware,KiCad,Pcbnew,(7.0.0)*%
%TF.CreationDate,2023-03-21T09:15:46+02:00*%
%TF.ProjectId,HAT,4841542e-6b69-4636-9164-5f7063625858,rev?*%
%TF.SameCoordinates,Original*%
%TF.FileFunction,Soldermask,Bot*%
%TF.FilePolarity,Negative*%
%FSLAX46Y46*%
G04 Gerber Fmt 4.6, Leading zero omitted, Abs format (unit mm)*
G04 Created by KiCad (PCBNEW (7.0.0)) date 2023-03-21 09:15:46*
%MOMM*%
%LPD*%
G01*
G04 APERTURE LIST*
%ADD10R,1.700000X1.700000*%
%ADD11O,1.700000X1.700000*%
%ADD12C,2.700000*%
%ADD13C,4.000000*%
%ADD14O,1.900000X1.070000*%
%ADD15O,1.300000X1.300000*%
G04 APERTURE END LIST*
D10*
%TO.C,J10*%
X102059999Y-79949999D03*
D11*
X104599999Y-79949999D03*
X107139999Y-79949999D03*
X109679999Y-79949999D03*
X112219999Y-79949999D03*
X114759999Y-79949999D03*
X117299999Y-79949999D03*
X119839999Y-79949999D03*
X122379999Y-79949999D03*
X124919999Y-79949999D03*
X127459999Y-79949999D03*
X129999999Y-79949999D03*
X132539999Y-79949999D03*
X135079999Y-79949999D03*
X137619999Y-79949999D03*
X140159999Y-79949999D03*
X142699999Y-79949999D03*
X145239999Y-79949999D03*
X147779999Y-79949999D03*
X150319999Y-79949999D03*
X152859999Y-79949999D03*
X155399999Y-79949999D03*
X157939999Y-79949999D03*
X160479999Y-79949999D03*
%TD*%
D10*
%TO.C,J12*%
X143909999Y-113924923D03*
D11*
X146449999Y-113924923D03*
%TD*%
D10*
%TO.C,J7*%
X178999999Y-62999999D03*
%TD*%
%TO.C,J2*%
X125999999Y-44999999D03*
D11*
X125999999Y-47539999D03*
%TD*%
D10*
%TO.C,J14*%
X102849999Y-90099999D03*
D11*
X100309999Y-90099999D03*
%TD*%
D12*
%TO.C,BT1*%
X182570000Y-38200000D03*
D13*
X174350000Y-22200000D03*
X119150000Y-38200000D03*
%TD*%
D10*
%TO.C,J8*%
X102099999Y-60949999D03*
D11*
X104639999Y-60949999D03*
X107179999Y-60949999D03*
X109719999Y-60949999D03*
X112259999Y-60949999D03*
X114799999Y-60949999D03*
X117339999Y-60949999D03*
X119879999Y-60949999D03*
X122419999Y-60949999D03*
X124959999Y-60949999D03*
X127499999Y-60949999D03*
X130039999Y-60949999D03*
X132579999Y-60949999D03*
X135119999Y-60949999D03*
X137659999Y-60949999D03*
X140199999Y-60949999D03*
X142739999Y-60949999D03*
X145279999Y-60949999D03*
X147819999Y-60949999D03*
X150359999Y-60949999D03*
X152899999Y-60949999D03*
X155439999Y-60949999D03*
X157979999Y-60949999D03*
X160519999Y-60949999D03*
%TD*%
D10*
%TO.C,J1*%
X170999999Y-55999999D03*
D11*
X170999999Y-53459999D03*
%TD*%
D14*
%TO.C,J6*%
X187452799Y-72345199D03*
D15*
X184802799Y-71170199D03*
X184802799Y-66320199D03*
D14*
X187452799Y-65145199D03*
%TD*%
D10*
%TO.C,J15*%
X103149999Y-104799999D03*
D11*
X100609999Y-104799999D03*
%TD*%
D10*
%TO.C,J5*%
X95999999Y-61919999D03*
D11*
X95999999Y-64459999D03*
X95999999Y-66999999D03*
X95999999Y-69539999D03*
X95999999Y-72079999D03*
X95999999Y-74619999D03*
X95999999Y-77159999D03*
X95999999Y-79699999D03*
X95999999Y-82239999D03*
X95999999Y-84779999D03*
%TD*%
D10*
%TO.C,J11*%
X101979999Y-83949999D03*
D11*
X104519999Y-83949999D03*
X107059999Y-83949999D03*
X109599999Y-83949999D03*
X112139999Y-83949999D03*
X114679999Y-83949999D03*
X117219999Y-83949999D03*
X119759999Y-83949999D03*
X122299999Y-83949999D03*
X124839999Y-83949999D03*
X127379999Y-83949999D03*
X129919999Y-83949999D03*
X132459999Y-83949999D03*
X134999999Y-83949999D03*
X137539999Y-83949999D03*
X140079999Y-83949999D03*
X142619999Y-83949999D03*
X145159999Y-83949999D03*
X147699999Y-83949999D03*
X150239999Y-83949999D03*
X152779999Y-83949999D03*
X155319999Y-83949999D03*
X157859999Y-83949999D03*
X160399999Y-83949999D03*
%TD*%
D10*
%TO.C,J4*%
X122601743Y-115919999D03*
D11*
X125141743Y-115919999D03*
%TD*%
D10*
%TO.C,J9*%
X102119999Y-64949999D03*
D11*
X104659999Y-64949999D03*
X107199999Y-64949999D03*
X109739999Y-64949999D03*
X112279999Y-64949999D03*
X114819999Y-64949999D03*
X117359999Y-64949999D03*
X119899999Y-64949999D03*
X122439999Y-64949999D03*
X124979999Y-64949999D03*
X127519999Y-64949999D03*
X130059999Y-64949999D03*
X132599999Y-64949999D03*
X135139999Y-64949999D03*
X137679999Y-64949999D03*
X140219999Y-64949999D03*
X142759999Y-64949999D03*
X145299999Y-64949999D03*
X147839999Y-64949999D03*
X150379999Y-64949999D03*
X152919999Y-64949999D03*
X155459999Y-64949999D03*
X157999999Y-64949999D03*
X160539999Y-64949999D03*
%TD*%
D10*
%TO.C,J3*%
X114999999Y-96212499D03*
%TD*%
%TO.C,J13*%
X144474999Y-99249961D03*
D11*
X147014999Y-99249961D03*
%TD*%
M02*
