%TF.GenerationSoftware,KiCad,Pcbnew,(7.0.0)*%
%TF.CreationDate,2023-03-21T09:15:46+02:00*%
%TF.ProjectId,HAT,4841542e-6b69-4636-9164-5f7063625858,rev?*%
%TF.SameCoordinates,Original*%
%TF.FileFunction,Legend,Top*%
%TF.FilePolarity,Positive*%
%FSLAX46Y46*%
G04 Gerber Fmt 4.6, Leading zero omitted, Abs format (unit mm)*
G04 Created by KiCad (PCBNEW (7.0.0)) date 2023-03-21 09:15:46*
%MOMM*%
%LPD*%
G01*
G04 APERTURE LIST*
%ADD10C,0.150000*%
%ADD11C,0.059995*%
%ADD12C,0.254001*%
%ADD13C,0.200000*%
%ADD14C,0.151994*%
%ADD15C,0.120000*%
%ADD16C,0.152400*%
%ADD17C,0.300000*%
%ADD18C,0.150013*%
%ADD19C,1.000000*%
%ADD20C,0.400000*%
G04 APERTURE END LIST*
D10*
X119000000Y-41000000D02*
X168020000Y-41000000D01*
X168020000Y-41000000D02*
X168020000Y-58955000D01*
X168020000Y-58955000D02*
X119000000Y-58955000D01*
X119000000Y-58955000D02*
X119000000Y-41000000D01*
X113919000Y-68199000D02*
X138049000Y-68199000D01*
X138049000Y-68199000D02*
X138049000Y-76835000D01*
X138049000Y-76835000D02*
X113919000Y-76835000D01*
X113919000Y-76835000D02*
X113919000Y-68199000D01*
X111500000Y-86162500D02*
X135750000Y-86162500D01*
X135750000Y-86162500D02*
X135750000Y-99362500D01*
X135750000Y-99362500D02*
X111500000Y-99362500D01*
X111500000Y-99362500D02*
X111500000Y-86162500D01*
X140716000Y-67183000D02*
X156337000Y-67183000D01*
X156337000Y-67183000D02*
X156337000Y-77470000D01*
X156337000Y-77470000D02*
X140716000Y-77470000D01*
X140716000Y-77470000D02*
X140716000Y-67183000D01*
X137800000Y-101899924D02*
X152700000Y-101899924D01*
X94200000Y-87550000D02*
X109100000Y-87550000D01*
X109100000Y-87550000D02*
X109100000Y-116500000D01*
X109100000Y-116500000D02*
X94200000Y-116500000D01*
X94200000Y-116500000D02*
X94200000Y-87550000D01*
X137800000Y-87424924D02*
X152700000Y-87424924D01*
X152700000Y-87424924D02*
X152700000Y-116374924D01*
X152700000Y-116374924D02*
X137800000Y-116374924D01*
X137800000Y-116374924D02*
X137800000Y-87424924D01*
X168490000Y-41000000D02*
X183510000Y-41000000D01*
X183510000Y-41000000D02*
X183510000Y-58955000D01*
X183510000Y-58955000D02*
X168490000Y-58955000D01*
X168490000Y-58955000D02*
X168490000Y-41000000D01*
X114850000Y-110300000D02*
X132950000Y-110300000D01*
X132950000Y-110300000D02*
X132950000Y-117946000D01*
X132950000Y-117946000D02*
X114850000Y-117946000D01*
X114850000Y-117946000D02*
X114850000Y-110300000D01*
X94200000Y-102025000D02*
X109100000Y-102025000D01*
X93000000Y-41000000D02*
X118020000Y-41000000D01*
X118020000Y-41000000D02*
X118020000Y-58955000D01*
X118020000Y-58955000D02*
X93000000Y-58955000D01*
X93000000Y-58955000D02*
X93000000Y-41000000D01*
X157099000Y-67183000D02*
X163957000Y-67183000D01*
X163957000Y-67183000D02*
X163957000Y-77597000D01*
X163957000Y-77597000D02*
X157099000Y-77597000D01*
X157099000Y-77597000D02*
X157099000Y-67183000D01*
X166116000Y-60807600D02*
X180898800Y-60807600D01*
X180898800Y-60807600D02*
X180898800Y-79095600D01*
X180898800Y-79095600D02*
X166116000Y-79095600D01*
X166116000Y-79095600D02*
X166116000Y-60807600D01*
%TO.C,Q3*%
X161804361Y-55072619D02*
X161709123Y-55025000D01*
X161709123Y-55025000D02*
X161613885Y-54929761D01*
X161613885Y-54929761D02*
X161471028Y-54786904D01*
X161471028Y-54786904D02*
X161375790Y-54739285D01*
X161375790Y-54739285D02*
X161280552Y-54739285D01*
X161328171Y-54977380D02*
X161232933Y-54929761D01*
X161232933Y-54929761D02*
X161137695Y-54834523D01*
X161137695Y-54834523D02*
X161090076Y-54644047D01*
X161090076Y-54644047D02*
X161090076Y-54310714D01*
X161090076Y-54310714D02*
X161137695Y-54120238D01*
X161137695Y-54120238D02*
X161232933Y-54025000D01*
X161232933Y-54025000D02*
X161328171Y-53977380D01*
X161328171Y-53977380D02*
X161518647Y-53977380D01*
X161518647Y-53977380D02*
X161613885Y-54025000D01*
X161613885Y-54025000D02*
X161709123Y-54120238D01*
X161709123Y-54120238D02*
X161756742Y-54310714D01*
X161756742Y-54310714D02*
X161756742Y-54644047D01*
X161756742Y-54644047D02*
X161709123Y-54834523D01*
X161709123Y-54834523D02*
X161613885Y-54929761D01*
X161613885Y-54929761D02*
X161518647Y-54977380D01*
X161518647Y-54977380D02*
X161328171Y-54977380D01*
X162090076Y-53977380D02*
X162709123Y-53977380D01*
X162709123Y-53977380D02*
X162375790Y-54358333D01*
X162375790Y-54358333D02*
X162518647Y-54358333D01*
X162518647Y-54358333D02*
X162613885Y-54405952D01*
X162613885Y-54405952D02*
X162661504Y-54453571D01*
X162661504Y-54453571D02*
X162709123Y-54548809D01*
X162709123Y-54548809D02*
X162709123Y-54786904D01*
X162709123Y-54786904D02*
X162661504Y-54882142D01*
X162661504Y-54882142D02*
X162613885Y-54929761D01*
X162613885Y-54929761D02*
X162518647Y-54977380D01*
X162518647Y-54977380D02*
X162232933Y-54977380D01*
X162232933Y-54977380D02*
X162137695Y-54929761D01*
X162137695Y-54929761D02*
X162090076Y-54882142D01*
%TO.C,D3*%
X158621505Y-48881380D02*
X158621505Y-47881380D01*
X158621505Y-47881380D02*
X158859600Y-47881380D01*
X158859600Y-47881380D02*
X159002457Y-47929000D01*
X159002457Y-47929000D02*
X159097695Y-48024238D01*
X159097695Y-48024238D02*
X159145314Y-48119476D01*
X159145314Y-48119476D02*
X159192933Y-48309952D01*
X159192933Y-48309952D02*
X159192933Y-48452809D01*
X159192933Y-48452809D02*
X159145314Y-48643285D01*
X159145314Y-48643285D02*
X159097695Y-48738523D01*
X159097695Y-48738523D02*
X159002457Y-48833761D01*
X159002457Y-48833761D02*
X158859600Y-48881380D01*
X158859600Y-48881380D02*
X158621505Y-48881380D01*
X159526267Y-47881380D02*
X160145314Y-47881380D01*
X160145314Y-47881380D02*
X159811981Y-48262333D01*
X159811981Y-48262333D02*
X159954838Y-48262333D01*
X159954838Y-48262333D02*
X160050076Y-48309952D01*
X160050076Y-48309952D02*
X160097695Y-48357571D01*
X160097695Y-48357571D02*
X160145314Y-48452809D01*
X160145314Y-48452809D02*
X160145314Y-48690904D01*
X160145314Y-48690904D02*
X160097695Y-48786142D01*
X160097695Y-48786142D02*
X160050076Y-48833761D01*
X160050076Y-48833761D02*
X159954838Y-48881380D01*
X159954838Y-48881380D02*
X159669124Y-48881380D01*
X159669124Y-48881380D02*
X159573886Y-48833761D01*
X159573886Y-48833761D02*
X159526267Y-48786142D01*
%TO.C,Q2*%
X141045548Y-53061006D02*
X140950310Y-53013387D01*
X140950310Y-53013387D02*
X140855072Y-52918148D01*
X140855072Y-52918148D02*
X140712215Y-52775291D01*
X140712215Y-52775291D02*
X140616977Y-52727672D01*
X140616977Y-52727672D02*
X140521739Y-52727672D01*
X140569358Y-52965767D02*
X140474120Y-52918148D01*
X140474120Y-52918148D02*
X140378882Y-52822910D01*
X140378882Y-52822910D02*
X140331263Y-52632434D01*
X140331263Y-52632434D02*
X140331263Y-52299101D01*
X140331263Y-52299101D02*
X140378882Y-52108625D01*
X140378882Y-52108625D02*
X140474120Y-52013387D01*
X140474120Y-52013387D02*
X140569358Y-51965767D01*
X140569358Y-51965767D02*
X140759834Y-51965767D01*
X140759834Y-51965767D02*
X140855072Y-52013387D01*
X140855072Y-52013387D02*
X140950310Y-52108625D01*
X140950310Y-52108625D02*
X140997929Y-52299101D01*
X140997929Y-52299101D02*
X140997929Y-52632434D01*
X140997929Y-52632434D02*
X140950310Y-52822910D01*
X140950310Y-52822910D02*
X140855072Y-52918148D01*
X140855072Y-52918148D02*
X140759834Y-52965767D01*
X140759834Y-52965767D02*
X140569358Y-52965767D01*
X141378882Y-52061006D02*
X141426501Y-52013387D01*
X141426501Y-52013387D02*
X141521739Y-51965767D01*
X141521739Y-51965767D02*
X141759834Y-51965767D01*
X141759834Y-51965767D02*
X141855072Y-52013387D01*
X141855072Y-52013387D02*
X141902691Y-52061006D01*
X141902691Y-52061006D02*
X141950310Y-52156244D01*
X141950310Y-52156244D02*
X141950310Y-52251482D01*
X141950310Y-52251482D02*
X141902691Y-52394339D01*
X141902691Y-52394339D02*
X141331263Y-52965767D01*
X141331263Y-52965767D02*
X141950310Y-52965767D01*
%TO.C,C15*%
X165750785Y-72833110D02*
X165798404Y-72880729D01*
X165798404Y-72880729D02*
X165846023Y-73023586D01*
X165846023Y-73023586D02*
X165846023Y-73118824D01*
X165846023Y-73118824D02*
X165798404Y-73261681D01*
X165798404Y-73261681D02*
X165703166Y-73356919D01*
X165703166Y-73356919D02*
X165607928Y-73404538D01*
X165607928Y-73404538D02*
X165417452Y-73452157D01*
X165417452Y-73452157D02*
X165274595Y-73452157D01*
X165274595Y-73452157D02*
X165084119Y-73404538D01*
X165084119Y-73404538D02*
X164988881Y-73356919D01*
X164988881Y-73356919D02*
X164893643Y-73261681D01*
X164893643Y-73261681D02*
X164846023Y-73118824D01*
X164846023Y-73118824D02*
X164846023Y-73023586D01*
X164846023Y-73023586D02*
X164893643Y-72880729D01*
X164893643Y-72880729D02*
X164941262Y-72833110D01*
X165846023Y-71880729D02*
X165846023Y-72452157D01*
X165846023Y-72166443D02*
X164846023Y-72166443D01*
X164846023Y-72166443D02*
X164988881Y-72261681D01*
X164988881Y-72261681D02*
X165084119Y-72356919D01*
X165084119Y-72356919D02*
X165131738Y-72452157D01*
X164846023Y-70975967D02*
X164846023Y-71452157D01*
X164846023Y-71452157D02*
X165322214Y-71499776D01*
X165322214Y-71499776D02*
X165274595Y-71452157D01*
X165274595Y-71452157D02*
X165226976Y-71356919D01*
X165226976Y-71356919D02*
X165226976Y-71118824D01*
X165226976Y-71118824D02*
X165274595Y-71023586D01*
X165274595Y-71023586D02*
X165322214Y-70975967D01*
X165322214Y-70975967D02*
X165417452Y-70928348D01*
X165417452Y-70928348D02*
X165655547Y-70928348D01*
X165655547Y-70928348D02*
X165750785Y-70975967D01*
X165750785Y-70975967D02*
X165798404Y-71023586D01*
X165798404Y-71023586D02*
X165846023Y-71118824D01*
X165846023Y-71118824D02*
X165846023Y-71356919D01*
X165846023Y-71356919D02*
X165798404Y-71452157D01*
X165798404Y-71452157D02*
X165750785Y-71499776D01*
%TO.C,LED2*%
X113940414Y-51388112D02*
X113464224Y-51388112D01*
X113464224Y-51388112D02*
X113464224Y-50388112D01*
X114273748Y-50864303D02*
X114607081Y-50864303D01*
X114749938Y-51388112D02*
X114273748Y-51388112D01*
X114273748Y-51388112D02*
X114273748Y-50388112D01*
X114273748Y-50388112D02*
X114749938Y-50388112D01*
X115178510Y-51388112D02*
X115178510Y-50388112D01*
X115178510Y-50388112D02*
X115416605Y-50388112D01*
X115416605Y-50388112D02*
X115559462Y-50435732D01*
X115559462Y-50435732D02*
X115654700Y-50530970D01*
X115654700Y-50530970D02*
X115702319Y-50626208D01*
X115702319Y-50626208D02*
X115749938Y-50816684D01*
X115749938Y-50816684D02*
X115749938Y-50959541D01*
X115749938Y-50959541D02*
X115702319Y-51150017D01*
X115702319Y-51150017D02*
X115654700Y-51245255D01*
X115654700Y-51245255D02*
X115559462Y-51340493D01*
X115559462Y-51340493D02*
X115416605Y-51388112D01*
X115416605Y-51388112D02*
X115178510Y-51388112D01*
X116130891Y-50483351D02*
X116178510Y-50435732D01*
X116178510Y-50435732D02*
X116273748Y-50388112D01*
X116273748Y-50388112D02*
X116511843Y-50388112D01*
X116511843Y-50388112D02*
X116607081Y-50435732D01*
X116607081Y-50435732D02*
X116654700Y-50483351D01*
X116654700Y-50483351D02*
X116702319Y-50578589D01*
X116702319Y-50578589D02*
X116702319Y-50673827D01*
X116702319Y-50673827D02*
X116654700Y-50816684D01*
X116654700Y-50816684D02*
X116083272Y-51388112D01*
X116083272Y-51388112D02*
X116702319Y-51388112D01*
%TO.C,U4*%
X124465183Y-105160447D02*
X125274707Y-105160447D01*
X125274707Y-105160447D02*
X125369945Y-105112828D01*
X125369945Y-105112828D02*
X125417564Y-105065209D01*
X125417564Y-105065209D02*
X125465183Y-104969971D01*
X125465183Y-104969971D02*
X125465183Y-104779495D01*
X125465183Y-104779495D02*
X125417564Y-104684257D01*
X125417564Y-104684257D02*
X125369945Y-104636638D01*
X125369945Y-104636638D02*
X125274707Y-104589019D01*
X125274707Y-104589019D02*
X124465183Y-104589019D01*
X124798517Y-103684257D02*
X125465183Y-103684257D01*
X124417564Y-103922352D02*
X125131850Y-104160447D01*
X125131850Y-104160447D02*
X125131850Y-103541400D01*
%TO.C,C7*%
X127239733Y-109187342D02*
X127192114Y-109234961D01*
X127192114Y-109234961D02*
X127049257Y-109282580D01*
X127049257Y-109282580D02*
X126954019Y-109282580D01*
X126954019Y-109282580D02*
X126811162Y-109234961D01*
X126811162Y-109234961D02*
X126715924Y-109139723D01*
X126715924Y-109139723D02*
X126668305Y-109044485D01*
X126668305Y-109044485D02*
X126620686Y-108854009D01*
X126620686Y-108854009D02*
X126620686Y-108711152D01*
X126620686Y-108711152D02*
X126668305Y-108520676D01*
X126668305Y-108520676D02*
X126715924Y-108425438D01*
X126715924Y-108425438D02*
X126811162Y-108330200D01*
X126811162Y-108330200D02*
X126954019Y-108282580D01*
X126954019Y-108282580D02*
X127049257Y-108282580D01*
X127049257Y-108282580D02*
X127192114Y-108330200D01*
X127192114Y-108330200D02*
X127239733Y-108377819D01*
X127573067Y-108282580D02*
X128239733Y-108282580D01*
X128239733Y-108282580D02*
X127811162Y-109282580D01*
%TO.C,R1*%
X175833333Y-55367380D02*
X175500000Y-54891190D01*
X175261905Y-55367380D02*
X175261905Y-54367380D01*
X175261905Y-54367380D02*
X175642857Y-54367380D01*
X175642857Y-54367380D02*
X175738095Y-54415000D01*
X175738095Y-54415000D02*
X175785714Y-54462619D01*
X175785714Y-54462619D02*
X175833333Y-54557857D01*
X175833333Y-54557857D02*
X175833333Y-54700714D01*
X175833333Y-54700714D02*
X175785714Y-54795952D01*
X175785714Y-54795952D02*
X175738095Y-54843571D01*
X175738095Y-54843571D02*
X175642857Y-54891190D01*
X175642857Y-54891190D02*
X175261905Y-54891190D01*
X176785714Y-55367380D02*
X176214286Y-55367380D01*
X176500000Y-55367380D02*
X176500000Y-54367380D01*
X176500000Y-54367380D02*
X176404762Y-54510238D01*
X176404762Y-54510238D02*
X176309524Y-54605476D01*
X176309524Y-54605476D02*
X176214286Y-54653095D01*
%TO.C,J10*%
X98657380Y-80759523D02*
X99371666Y-80759523D01*
X99371666Y-80759523D02*
X99514523Y-80807142D01*
X99514523Y-80807142D02*
X99609761Y-80902380D01*
X99609761Y-80902380D02*
X99657380Y-81045237D01*
X99657380Y-81045237D02*
X99657380Y-81140475D01*
X99657380Y-79759523D02*
X99657380Y-80330951D01*
X99657380Y-80045237D02*
X98657380Y-80045237D01*
X98657380Y-80045237D02*
X98800238Y-80140475D01*
X98800238Y-80140475D02*
X98895476Y-80235713D01*
X98895476Y-80235713D02*
X98943095Y-80330951D01*
X98657380Y-79140475D02*
X98657380Y-79045237D01*
X98657380Y-79045237D02*
X98705000Y-78949999D01*
X98705000Y-78949999D02*
X98752619Y-78902380D01*
X98752619Y-78902380D02*
X98847857Y-78854761D01*
X98847857Y-78854761D02*
X99038333Y-78807142D01*
X99038333Y-78807142D02*
X99276428Y-78807142D01*
X99276428Y-78807142D02*
X99466904Y-78854761D01*
X99466904Y-78854761D02*
X99562142Y-78902380D01*
X99562142Y-78902380D02*
X99609761Y-78949999D01*
X99609761Y-78949999D02*
X99657380Y-79045237D01*
X99657380Y-79045237D02*
X99657380Y-79140475D01*
X99657380Y-79140475D02*
X99609761Y-79235713D01*
X99609761Y-79235713D02*
X99562142Y-79283332D01*
X99562142Y-79283332D02*
X99466904Y-79330951D01*
X99466904Y-79330951D02*
X99276428Y-79378570D01*
X99276428Y-79378570D02*
X99038333Y-79378570D01*
X99038333Y-79378570D02*
X98847857Y-79330951D01*
X98847857Y-79330951D02*
X98752619Y-79283332D01*
X98752619Y-79283332D02*
X98705000Y-79235713D01*
X98705000Y-79235713D02*
X98657380Y-79140475D01*
%TO.C,J12*%
X140947380Y-114734447D02*
X141661666Y-114734447D01*
X141661666Y-114734447D02*
X141804523Y-114782066D01*
X141804523Y-114782066D02*
X141899761Y-114877304D01*
X141899761Y-114877304D02*
X141947380Y-115020161D01*
X141947380Y-115020161D02*
X141947380Y-115115399D01*
X141947380Y-113734447D02*
X141947380Y-114305875D01*
X141947380Y-114020161D02*
X140947380Y-114020161D01*
X140947380Y-114020161D02*
X141090238Y-114115399D01*
X141090238Y-114115399D02*
X141185476Y-114210637D01*
X141185476Y-114210637D02*
X141233095Y-114305875D01*
X141042619Y-113353494D02*
X140995000Y-113305875D01*
X140995000Y-113305875D02*
X140947380Y-113210637D01*
X140947380Y-113210637D02*
X140947380Y-112972542D01*
X140947380Y-112972542D02*
X140995000Y-112877304D01*
X140995000Y-112877304D02*
X141042619Y-112829685D01*
X141042619Y-112829685D02*
X141137857Y-112782066D01*
X141137857Y-112782066D02*
X141233095Y-112782066D01*
X141233095Y-112782066D02*
X141375952Y-112829685D01*
X141375952Y-112829685D02*
X141947380Y-113401113D01*
X141947380Y-113401113D02*
X141947380Y-112782066D01*
%TO.C,U2*%
X179238095Y-50367380D02*
X179238095Y-51176904D01*
X179238095Y-51176904D02*
X179285714Y-51272142D01*
X179285714Y-51272142D02*
X179333333Y-51319761D01*
X179333333Y-51319761D02*
X179428571Y-51367380D01*
X179428571Y-51367380D02*
X179619047Y-51367380D01*
X179619047Y-51367380D02*
X179714285Y-51319761D01*
X179714285Y-51319761D02*
X179761904Y-51272142D01*
X179761904Y-51272142D02*
X179809523Y-51176904D01*
X179809523Y-51176904D02*
X179809523Y-50367380D01*
X180238095Y-50462619D02*
X180285714Y-50415000D01*
X180285714Y-50415000D02*
X180380952Y-50367380D01*
X180380952Y-50367380D02*
X180619047Y-50367380D01*
X180619047Y-50367380D02*
X180714285Y-50415000D01*
X180714285Y-50415000D02*
X180761904Y-50462619D01*
X180761904Y-50462619D02*
X180809523Y-50557857D01*
X180809523Y-50557857D02*
X180809523Y-50653095D01*
X180809523Y-50653095D02*
X180761904Y-50795952D01*
X180761904Y-50795952D02*
X180190476Y-51367380D01*
X180190476Y-51367380D02*
X180809523Y-51367380D01*
%TO.C,R51*%
X96279642Y-112017380D02*
X95946309Y-111541190D01*
X95708214Y-112017380D02*
X95708214Y-111017380D01*
X95708214Y-111017380D02*
X96089166Y-111017380D01*
X96089166Y-111017380D02*
X96184404Y-111065000D01*
X96184404Y-111065000D02*
X96232023Y-111112619D01*
X96232023Y-111112619D02*
X96279642Y-111207857D01*
X96279642Y-111207857D02*
X96279642Y-111350714D01*
X96279642Y-111350714D02*
X96232023Y-111445952D01*
X96232023Y-111445952D02*
X96184404Y-111493571D01*
X96184404Y-111493571D02*
X96089166Y-111541190D01*
X96089166Y-111541190D02*
X95708214Y-111541190D01*
X97184404Y-111017380D02*
X96708214Y-111017380D01*
X96708214Y-111017380D02*
X96660595Y-111493571D01*
X96660595Y-111493571D02*
X96708214Y-111445952D01*
X96708214Y-111445952D02*
X96803452Y-111398333D01*
X96803452Y-111398333D02*
X97041547Y-111398333D01*
X97041547Y-111398333D02*
X97136785Y-111445952D01*
X97136785Y-111445952D02*
X97184404Y-111493571D01*
X97184404Y-111493571D02*
X97232023Y-111588809D01*
X97232023Y-111588809D02*
X97232023Y-111826904D01*
X97232023Y-111826904D02*
X97184404Y-111922142D01*
X97184404Y-111922142D02*
X97136785Y-111969761D01*
X97136785Y-111969761D02*
X97041547Y-112017380D01*
X97041547Y-112017380D02*
X96803452Y-112017380D01*
X96803452Y-112017380D02*
X96708214Y-111969761D01*
X96708214Y-111969761D02*
X96660595Y-111922142D01*
X98184404Y-112017380D02*
X97612976Y-112017380D01*
X97898690Y-112017380D02*
X97898690Y-111017380D01*
X97898690Y-111017380D02*
X97803452Y-111160238D01*
X97803452Y-111160238D02*
X97708214Y-111255476D01*
X97708214Y-111255476D02*
X97612976Y-111303095D01*
%TO.C,R19*%
X121067380Y-96142857D02*
X120591190Y-96476190D01*
X121067380Y-96714285D02*
X120067380Y-96714285D01*
X120067380Y-96714285D02*
X120067380Y-96333333D01*
X120067380Y-96333333D02*
X120115000Y-96238095D01*
X120115000Y-96238095D02*
X120162619Y-96190476D01*
X120162619Y-96190476D02*
X120257857Y-96142857D01*
X120257857Y-96142857D02*
X120400714Y-96142857D01*
X120400714Y-96142857D02*
X120495952Y-96190476D01*
X120495952Y-96190476D02*
X120543571Y-96238095D01*
X120543571Y-96238095D02*
X120591190Y-96333333D01*
X120591190Y-96333333D02*
X120591190Y-96714285D01*
X121067380Y-95190476D02*
X121067380Y-95761904D01*
X121067380Y-95476190D02*
X120067380Y-95476190D01*
X120067380Y-95476190D02*
X120210238Y-95571428D01*
X120210238Y-95571428D02*
X120305476Y-95666666D01*
X120305476Y-95666666D02*
X120353095Y-95761904D01*
X121067380Y-94714285D02*
X121067380Y-94523809D01*
X121067380Y-94523809D02*
X121019761Y-94428571D01*
X121019761Y-94428571D02*
X120972142Y-94380952D01*
X120972142Y-94380952D02*
X120829285Y-94285714D01*
X120829285Y-94285714D02*
X120638809Y-94238095D01*
X120638809Y-94238095D02*
X120257857Y-94238095D01*
X120257857Y-94238095D02*
X120162619Y-94285714D01*
X120162619Y-94285714D02*
X120115000Y-94333333D01*
X120115000Y-94333333D02*
X120067380Y-94428571D01*
X120067380Y-94428571D02*
X120067380Y-94619047D01*
X120067380Y-94619047D02*
X120115000Y-94714285D01*
X120115000Y-94714285D02*
X120162619Y-94761904D01*
X120162619Y-94761904D02*
X120257857Y-94809523D01*
X120257857Y-94809523D02*
X120495952Y-94809523D01*
X120495952Y-94809523D02*
X120591190Y-94761904D01*
X120591190Y-94761904D02*
X120638809Y-94714285D01*
X120638809Y-94714285D02*
X120686428Y-94619047D01*
X120686428Y-94619047D02*
X120686428Y-94428571D01*
X120686428Y-94428571D02*
X120638809Y-94333333D01*
X120638809Y-94333333D02*
X120591190Y-94285714D01*
X120591190Y-94285714D02*
X120495952Y-94238095D01*
%TO.C,R36*%
X139694642Y-108442304D02*
X139361309Y-107966114D01*
X139123214Y-108442304D02*
X139123214Y-107442304D01*
X139123214Y-107442304D02*
X139504166Y-107442304D01*
X139504166Y-107442304D02*
X139599404Y-107489924D01*
X139599404Y-107489924D02*
X139647023Y-107537543D01*
X139647023Y-107537543D02*
X139694642Y-107632781D01*
X139694642Y-107632781D02*
X139694642Y-107775638D01*
X139694642Y-107775638D02*
X139647023Y-107870876D01*
X139647023Y-107870876D02*
X139599404Y-107918495D01*
X139599404Y-107918495D02*
X139504166Y-107966114D01*
X139504166Y-107966114D02*
X139123214Y-107966114D01*
X140027976Y-107442304D02*
X140647023Y-107442304D01*
X140647023Y-107442304D02*
X140313690Y-107823257D01*
X140313690Y-107823257D02*
X140456547Y-107823257D01*
X140456547Y-107823257D02*
X140551785Y-107870876D01*
X140551785Y-107870876D02*
X140599404Y-107918495D01*
X140599404Y-107918495D02*
X140647023Y-108013733D01*
X140647023Y-108013733D02*
X140647023Y-108251828D01*
X140647023Y-108251828D02*
X140599404Y-108347066D01*
X140599404Y-108347066D02*
X140551785Y-108394685D01*
X140551785Y-108394685D02*
X140456547Y-108442304D01*
X140456547Y-108442304D02*
X140170833Y-108442304D01*
X140170833Y-108442304D02*
X140075595Y-108394685D01*
X140075595Y-108394685D02*
X140027976Y-108347066D01*
X141504166Y-107442304D02*
X141313690Y-107442304D01*
X141313690Y-107442304D02*
X141218452Y-107489924D01*
X141218452Y-107489924D02*
X141170833Y-107537543D01*
X141170833Y-107537543D02*
X141075595Y-107680400D01*
X141075595Y-107680400D02*
X141027976Y-107870876D01*
X141027976Y-107870876D02*
X141027976Y-108251828D01*
X141027976Y-108251828D02*
X141075595Y-108347066D01*
X141075595Y-108347066D02*
X141123214Y-108394685D01*
X141123214Y-108394685D02*
X141218452Y-108442304D01*
X141218452Y-108442304D02*
X141408928Y-108442304D01*
X141408928Y-108442304D02*
X141504166Y-108394685D01*
X141504166Y-108394685D02*
X141551785Y-108347066D01*
X141551785Y-108347066D02*
X141599404Y-108251828D01*
X141599404Y-108251828D02*
X141599404Y-108013733D01*
X141599404Y-108013733D02*
X141551785Y-107918495D01*
X141551785Y-107918495D02*
X141504166Y-107870876D01*
X141504166Y-107870876D02*
X141408928Y-107823257D01*
X141408928Y-107823257D02*
X141218452Y-107823257D01*
X141218452Y-107823257D02*
X141123214Y-107870876D01*
X141123214Y-107870876D02*
X141075595Y-107918495D01*
X141075595Y-107918495D02*
X141027976Y-108013733D01*
%TO.C,R22*%
X116486386Y-113637380D02*
X116153053Y-113161190D01*
X115914958Y-113637380D02*
X115914958Y-112637380D01*
X115914958Y-112637380D02*
X116295910Y-112637380D01*
X116295910Y-112637380D02*
X116391148Y-112685000D01*
X116391148Y-112685000D02*
X116438767Y-112732619D01*
X116438767Y-112732619D02*
X116486386Y-112827857D01*
X116486386Y-112827857D02*
X116486386Y-112970714D01*
X116486386Y-112970714D02*
X116438767Y-113065952D01*
X116438767Y-113065952D02*
X116391148Y-113113571D01*
X116391148Y-113113571D02*
X116295910Y-113161190D01*
X116295910Y-113161190D02*
X115914958Y-113161190D01*
X116867339Y-112732619D02*
X116914958Y-112685000D01*
X116914958Y-112685000D02*
X117010196Y-112637380D01*
X117010196Y-112637380D02*
X117248291Y-112637380D01*
X117248291Y-112637380D02*
X117343529Y-112685000D01*
X117343529Y-112685000D02*
X117391148Y-112732619D01*
X117391148Y-112732619D02*
X117438767Y-112827857D01*
X117438767Y-112827857D02*
X117438767Y-112923095D01*
X117438767Y-112923095D02*
X117391148Y-113065952D01*
X117391148Y-113065952D02*
X116819720Y-113637380D01*
X116819720Y-113637380D02*
X117438767Y-113637380D01*
X117819720Y-112732619D02*
X117867339Y-112685000D01*
X117867339Y-112685000D02*
X117962577Y-112637380D01*
X117962577Y-112637380D02*
X118200672Y-112637380D01*
X118200672Y-112637380D02*
X118295910Y-112685000D01*
X118295910Y-112685000D02*
X118343529Y-112732619D01*
X118343529Y-112732619D02*
X118391148Y-112827857D01*
X118391148Y-112827857D02*
X118391148Y-112923095D01*
X118391148Y-112923095D02*
X118343529Y-113065952D01*
X118343529Y-113065952D02*
X117772101Y-113637380D01*
X117772101Y-113637380D02*
X118391148Y-113637380D01*
%TO.C,R50*%
X95979642Y-97317380D02*
X95646309Y-96841190D01*
X95408214Y-97317380D02*
X95408214Y-96317380D01*
X95408214Y-96317380D02*
X95789166Y-96317380D01*
X95789166Y-96317380D02*
X95884404Y-96365000D01*
X95884404Y-96365000D02*
X95932023Y-96412619D01*
X95932023Y-96412619D02*
X95979642Y-96507857D01*
X95979642Y-96507857D02*
X95979642Y-96650714D01*
X95979642Y-96650714D02*
X95932023Y-96745952D01*
X95932023Y-96745952D02*
X95884404Y-96793571D01*
X95884404Y-96793571D02*
X95789166Y-96841190D01*
X95789166Y-96841190D02*
X95408214Y-96841190D01*
X96884404Y-96317380D02*
X96408214Y-96317380D01*
X96408214Y-96317380D02*
X96360595Y-96793571D01*
X96360595Y-96793571D02*
X96408214Y-96745952D01*
X96408214Y-96745952D02*
X96503452Y-96698333D01*
X96503452Y-96698333D02*
X96741547Y-96698333D01*
X96741547Y-96698333D02*
X96836785Y-96745952D01*
X96836785Y-96745952D02*
X96884404Y-96793571D01*
X96884404Y-96793571D02*
X96932023Y-96888809D01*
X96932023Y-96888809D02*
X96932023Y-97126904D01*
X96932023Y-97126904D02*
X96884404Y-97222142D01*
X96884404Y-97222142D02*
X96836785Y-97269761D01*
X96836785Y-97269761D02*
X96741547Y-97317380D01*
X96741547Y-97317380D02*
X96503452Y-97317380D01*
X96503452Y-97317380D02*
X96408214Y-97269761D01*
X96408214Y-97269761D02*
X96360595Y-97222142D01*
X97551071Y-96317380D02*
X97646309Y-96317380D01*
X97646309Y-96317380D02*
X97741547Y-96365000D01*
X97741547Y-96365000D02*
X97789166Y-96412619D01*
X97789166Y-96412619D02*
X97836785Y-96507857D01*
X97836785Y-96507857D02*
X97884404Y-96698333D01*
X97884404Y-96698333D02*
X97884404Y-96936428D01*
X97884404Y-96936428D02*
X97836785Y-97126904D01*
X97836785Y-97126904D02*
X97789166Y-97222142D01*
X97789166Y-97222142D02*
X97741547Y-97269761D01*
X97741547Y-97269761D02*
X97646309Y-97317380D01*
X97646309Y-97317380D02*
X97551071Y-97317380D01*
X97551071Y-97317380D02*
X97455833Y-97269761D01*
X97455833Y-97269761D02*
X97408214Y-97222142D01*
X97408214Y-97222142D02*
X97360595Y-97126904D01*
X97360595Y-97126904D02*
X97312976Y-96936428D01*
X97312976Y-96936428D02*
X97312976Y-96698333D01*
X97312976Y-96698333D02*
X97360595Y-96507857D01*
X97360595Y-96507857D02*
X97408214Y-96412619D01*
X97408214Y-96412619D02*
X97455833Y-96365000D01*
X97455833Y-96365000D02*
X97551071Y-96317380D01*
%TO.C,Y1*%
X125615768Y-69487190D02*
X125615768Y-69963380D01*
X125282435Y-68963380D02*
X125615768Y-69487190D01*
X125615768Y-69487190D02*
X125949101Y-68963380D01*
X126806244Y-69963380D02*
X126234816Y-69963380D01*
X126520530Y-69963380D02*
X126520530Y-68963380D01*
X126520530Y-68963380D02*
X126425292Y-69106238D01*
X126425292Y-69106238D02*
X126330054Y-69201476D01*
X126330054Y-69201476D02*
X126234816Y-69249095D01*
%TO.C,U6*%
X153799380Y-74929904D02*
X154608904Y-74929904D01*
X154608904Y-74929904D02*
X154704142Y-74882285D01*
X154704142Y-74882285D02*
X154751761Y-74834666D01*
X154751761Y-74834666D02*
X154799380Y-74739428D01*
X154799380Y-74739428D02*
X154799380Y-74548952D01*
X154799380Y-74548952D02*
X154751761Y-74453714D01*
X154751761Y-74453714D02*
X154704142Y-74406095D01*
X154704142Y-74406095D02*
X154608904Y-74358476D01*
X154608904Y-74358476D02*
X153799380Y-74358476D01*
X153799380Y-73453714D02*
X153799380Y-73644190D01*
X153799380Y-73644190D02*
X153847000Y-73739428D01*
X153847000Y-73739428D02*
X153894619Y-73787047D01*
X153894619Y-73787047D02*
X154037476Y-73882285D01*
X154037476Y-73882285D02*
X154227952Y-73929904D01*
X154227952Y-73929904D02*
X154608904Y-73929904D01*
X154608904Y-73929904D02*
X154704142Y-73882285D01*
X154704142Y-73882285D02*
X154751761Y-73834666D01*
X154751761Y-73834666D02*
X154799380Y-73739428D01*
X154799380Y-73739428D02*
X154799380Y-73548952D01*
X154799380Y-73548952D02*
X154751761Y-73453714D01*
X154751761Y-73453714D02*
X154704142Y-73406095D01*
X154704142Y-73406095D02*
X154608904Y-73358476D01*
X154608904Y-73358476D02*
X154370809Y-73358476D01*
X154370809Y-73358476D02*
X154275571Y-73406095D01*
X154275571Y-73406095D02*
X154227952Y-73453714D01*
X154227952Y-73453714D02*
X154180333Y-73548952D01*
X154180333Y-73548952D02*
X154180333Y-73739428D01*
X154180333Y-73739428D02*
X154227952Y-73834666D01*
X154227952Y-73834666D02*
X154275571Y-73882285D01*
X154275571Y-73882285D02*
X154370809Y-73929904D01*
%TO.C,Q5*%
X145454761Y-96912581D02*
X145359523Y-96864962D01*
X145359523Y-96864962D02*
X145264285Y-96769723D01*
X145264285Y-96769723D02*
X145121428Y-96626866D01*
X145121428Y-96626866D02*
X145026190Y-96579247D01*
X145026190Y-96579247D02*
X144930952Y-96579247D01*
X144978571Y-96817342D02*
X144883333Y-96769723D01*
X144883333Y-96769723D02*
X144788095Y-96674485D01*
X144788095Y-96674485D02*
X144740476Y-96484009D01*
X144740476Y-96484009D02*
X144740476Y-96150676D01*
X144740476Y-96150676D02*
X144788095Y-95960200D01*
X144788095Y-95960200D02*
X144883333Y-95864962D01*
X144883333Y-95864962D02*
X144978571Y-95817342D01*
X144978571Y-95817342D02*
X145169047Y-95817342D01*
X145169047Y-95817342D02*
X145264285Y-95864962D01*
X145264285Y-95864962D02*
X145359523Y-95960200D01*
X145359523Y-95960200D02*
X145407142Y-96150676D01*
X145407142Y-96150676D02*
X145407142Y-96484009D01*
X145407142Y-96484009D02*
X145359523Y-96674485D01*
X145359523Y-96674485D02*
X145264285Y-96769723D01*
X145264285Y-96769723D02*
X145169047Y-96817342D01*
X145169047Y-96817342D02*
X144978571Y-96817342D01*
X146311904Y-95817342D02*
X145835714Y-95817342D01*
X145835714Y-95817342D02*
X145788095Y-96293533D01*
X145788095Y-96293533D02*
X145835714Y-96245914D01*
X145835714Y-96245914D02*
X145930952Y-96198295D01*
X145930952Y-96198295D02*
X146169047Y-96198295D01*
X146169047Y-96198295D02*
X146264285Y-96245914D01*
X146264285Y-96245914D02*
X146311904Y-96293533D01*
X146311904Y-96293533D02*
X146359523Y-96388771D01*
X146359523Y-96388771D02*
X146359523Y-96626866D01*
X146359523Y-96626866D02*
X146311904Y-96722104D01*
X146311904Y-96722104D02*
X146264285Y-96769723D01*
X146264285Y-96769723D02*
X146169047Y-96817342D01*
X146169047Y-96817342D02*
X145930952Y-96817342D01*
X145930952Y-96817342D02*
X145835714Y-96769723D01*
X145835714Y-96769723D02*
X145788095Y-96722104D01*
%TO.C,R8*%
X109920833Y-51367380D02*
X109587500Y-50891190D01*
X109349405Y-51367380D02*
X109349405Y-50367380D01*
X109349405Y-50367380D02*
X109730357Y-50367380D01*
X109730357Y-50367380D02*
X109825595Y-50415000D01*
X109825595Y-50415000D02*
X109873214Y-50462619D01*
X109873214Y-50462619D02*
X109920833Y-50557857D01*
X109920833Y-50557857D02*
X109920833Y-50700714D01*
X109920833Y-50700714D02*
X109873214Y-50795952D01*
X109873214Y-50795952D02*
X109825595Y-50843571D01*
X109825595Y-50843571D02*
X109730357Y-50891190D01*
X109730357Y-50891190D02*
X109349405Y-50891190D01*
X110492262Y-50795952D02*
X110397024Y-50748333D01*
X110397024Y-50748333D02*
X110349405Y-50700714D01*
X110349405Y-50700714D02*
X110301786Y-50605476D01*
X110301786Y-50605476D02*
X110301786Y-50557857D01*
X110301786Y-50557857D02*
X110349405Y-50462619D01*
X110349405Y-50462619D02*
X110397024Y-50415000D01*
X110397024Y-50415000D02*
X110492262Y-50367380D01*
X110492262Y-50367380D02*
X110682738Y-50367380D01*
X110682738Y-50367380D02*
X110777976Y-50415000D01*
X110777976Y-50415000D02*
X110825595Y-50462619D01*
X110825595Y-50462619D02*
X110873214Y-50557857D01*
X110873214Y-50557857D02*
X110873214Y-50605476D01*
X110873214Y-50605476D02*
X110825595Y-50700714D01*
X110825595Y-50700714D02*
X110777976Y-50748333D01*
X110777976Y-50748333D02*
X110682738Y-50795952D01*
X110682738Y-50795952D02*
X110492262Y-50795952D01*
X110492262Y-50795952D02*
X110397024Y-50843571D01*
X110397024Y-50843571D02*
X110349405Y-50891190D01*
X110349405Y-50891190D02*
X110301786Y-50986428D01*
X110301786Y-50986428D02*
X110301786Y-51176904D01*
X110301786Y-51176904D02*
X110349405Y-51272142D01*
X110349405Y-51272142D02*
X110397024Y-51319761D01*
X110397024Y-51319761D02*
X110492262Y-51367380D01*
X110492262Y-51367380D02*
X110682738Y-51367380D01*
X110682738Y-51367380D02*
X110777976Y-51319761D01*
X110777976Y-51319761D02*
X110825595Y-51272142D01*
X110825595Y-51272142D02*
X110873214Y-51176904D01*
X110873214Y-51176904D02*
X110873214Y-50986428D01*
X110873214Y-50986428D02*
X110825595Y-50891190D01*
X110825595Y-50891190D02*
X110777976Y-50843571D01*
X110777976Y-50843571D02*
X110682738Y-50795952D01*
%TO.C,C11*%
X115461142Y-73953857D02*
X115508761Y-74001476D01*
X115508761Y-74001476D02*
X115556380Y-74144333D01*
X115556380Y-74144333D02*
X115556380Y-74239571D01*
X115556380Y-74239571D02*
X115508761Y-74382428D01*
X115508761Y-74382428D02*
X115413523Y-74477666D01*
X115413523Y-74477666D02*
X115318285Y-74525285D01*
X115318285Y-74525285D02*
X115127809Y-74572904D01*
X115127809Y-74572904D02*
X114984952Y-74572904D01*
X114984952Y-74572904D02*
X114794476Y-74525285D01*
X114794476Y-74525285D02*
X114699238Y-74477666D01*
X114699238Y-74477666D02*
X114604000Y-74382428D01*
X114604000Y-74382428D02*
X114556380Y-74239571D01*
X114556380Y-74239571D02*
X114556380Y-74144333D01*
X114556380Y-74144333D02*
X114604000Y-74001476D01*
X114604000Y-74001476D02*
X114651619Y-73953857D01*
X115556380Y-73001476D02*
X115556380Y-73572904D01*
X115556380Y-73287190D02*
X114556380Y-73287190D01*
X114556380Y-73287190D02*
X114699238Y-73382428D01*
X114699238Y-73382428D02*
X114794476Y-73477666D01*
X114794476Y-73477666D02*
X114842095Y-73572904D01*
X115556380Y-72049095D02*
X115556380Y-72620523D01*
X115556380Y-72334809D02*
X114556380Y-72334809D01*
X114556380Y-72334809D02*
X114699238Y-72430047D01*
X114699238Y-72430047D02*
X114794476Y-72525285D01*
X114794476Y-72525285D02*
X114842095Y-72620523D01*
%TO.C,J7*%
X178666666Y-59597380D02*
X178666666Y-60311666D01*
X178666666Y-60311666D02*
X178619047Y-60454523D01*
X178619047Y-60454523D02*
X178523809Y-60549761D01*
X178523809Y-60549761D02*
X178380952Y-60597380D01*
X178380952Y-60597380D02*
X178285714Y-60597380D01*
X179047619Y-59597380D02*
X179714285Y-59597380D01*
X179714285Y-59597380D02*
X179285714Y-60597380D01*
%TO.C,R32*%
X174413942Y-77938980D02*
X174080609Y-77462790D01*
X173842514Y-77938980D02*
X173842514Y-76938980D01*
X173842514Y-76938980D02*
X174223466Y-76938980D01*
X174223466Y-76938980D02*
X174318704Y-76986600D01*
X174318704Y-76986600D02*
X174366323Y-77034219D01*
X174366323Y-77034219D02*
X174413942Y-77129457D01*
X174413942Y-77129457D02*
X174413942Y-77272314D01*
X174413942Y-77272314D02*
X174366323Y-77367552D01*
X174366323Y-77367552D02*
X174318704Y-77415171D01*
X174318704Y-77415171D02*
X174223466Y-77462790D01*
X174223466Y-77462790D02*
X173842514Y-77462790D01*
X174747276Y-76938980D02*
X175366323Y-76938980D01*
X175366323Y-76938980D02*
X175032990Y-77319933D01*
X175032990Y-77319933D02*
X175175847Y-77319933D01*
X175175847Y-77319933D02*
X175271085Y-77367552D01*
X175271085Y-77367552D02*
X175318704Y-77415171D01*
X175318704Y-77415171D02*
X175366323Y-77510409D01*
X175366323Y-77510409D02*
X175366323Y-77748504D01*
X175366323Y-77748504D02*
X175318704Y-77843742D01*
X175318704Y-77843742D02*
X175271085Y-77891361D01*
X175271085Y-77891361D02*
X175175847Y-77938980D01*
X175175847Y-77938980D02*
X174890133Y-77938980D01*
X174890133Y-77938980D02*
X174794895Y-77891361D01*
X174794895Y-77891361D02*
X174747276Y-77843742D01*
X175747276Y-77034219D02*
X175794895Y-76986600D01*
X175794895Y-76986600D02*
X175890133Y-76938980D01*
X175890133Y-76938980D02*
X176128228Y-76938980D01*
X176128228Y-76938980D02*
X176223466Y-76986600D01*
X176223466Y-76986600D02*
X176271085Y-77034219D01*
X176271085Y-77034219D02*
X176318704Y-77129457D01*
X176318704Y-77129457D02*
X176318704Y-77224695D01*
X176318704Y-77224695D02*
X176271085Y-77367552D01*
X176271085Y-77367552D02*
X175699657Y-77938980D01*
X175699657Y-77938980D02*
X176318704Y-77938980D01*
%TO.C,R45*%
X106079642Y-111017380D02*
X105746309Y-110541190D01*
X105508214Y-111017380D02*
X105508214Y-110017380D01*
X105508214Y-110017380D02*
X105889166Y-110017380D01*
X105889166Y-110017380D02*
X105984404Y-110065000D01*
X105984404Y-110065000D02*
X106032023Y-110112619D01*
X106032023Y-110112619D02*
X106079642Y-110207857D01*
X106079642Y-110207857D02*
X106079642Y-110350714D01*
X106079642Y-110350714D02*
X106032023Y-110445952D01*
X106032023Y-110445952D02*
X105984404Y-110493571D01*
X105984404Y-110493571D02*
X105889166Y-110541190D01*
X105889166Y-110541190D02*
X105508214Y-110541190D01*
X106936785Y-110350714D02*
X106936785Y-111017380D01*
X106698690Y-109969761D02*
X106460595Y-110684047D01*
X106460595Y-110684047D02*
X107079642Y-110684047D01*
X107936785Y-110017380D02*
X107460595Y-110017380D01*
X107460595Y-110017380D02*
X107412976Y-110493571D01*
X107412976Y-110493571D02*
X107460595Y-110445952D01*
X107460595Y-110445952D02*
X107555833Y-110398333D01*
X107555833Y-110398333D02*
X107793928Y-110398333D01*
X107793928Y-110398333D02*
X107889166Y-110445952D01*
X107889166Y-110445952D02*
X107936785Y-110493571D01*
X107936785Y-110493571D02*
X107984404Y-110588809D01*
X107984404Y-110588809D02*
X107984404Y-110826904D01*
X107984404Y-110826904D02*
X107936785Y-110922142D01*
X107936785Y-110922142D02*
X107889166Y-110969761D01*
X107889166Y-110969761D02*
X107793928Y-111017380D01*
X107793928Y-111017380D02*
X107555833Y-111017380D01*
X107555833Y-111017380D02*
X107460595Y-110969761D01*
X107460595Y-110969761D02*
X107412976Y-110922142D01*
%TO.C,J2*%
X125666666Y-41597380D02*
X125666666Y-42311666D01*
X125666666Y-42311666D02*
X125619047Y-42454523D01*
X125619047Y-42454523D02*
X125523809Y-42549761D01*
X125523809Y-42549761D02*
X125380952Y-42597380D01*
X125380952Y-42597380D02*
X125285714Y-42597380D01*
X126095238Y-41692619D02*
X126142857Y-41645000D01*
X126142857Y-41645000D02*
X126238095Y-41597380D01*
X126238095Y-41597380D02*
X126476190Y-41597380D01*
X126476190Y-41597380D02*
X126571428Y-41645000D01*
X126571428Y-41645000D02*
X126619047Y-41692619D01*
X126619047Y-41692619D02*
X126666666Y-41787857D01*
X126666666Y-41787857D02*
X126666666Y-41883095D01*
X126666666Y-41883095D02*
X126619047Y-42025952D01*
X126619047Y-42025952D02*
X126047619Y-42597380D01*
X126047619Y-42597380D02*
X126666666Y-42597380D01*
%TO.C,D1*%
X129261905Y-50367380D02*
X129261905Y-49367380D01*
X129261905Y-49367380D02*
X129500000Y-49367380D01*
X129500000Y-49367380D02*
X129642857Y-49415000D01*
X129642857Y-49415000D02*
X129738095Y-49510238D01*
X129738095Y-49510238D02*
X129785714Y-49605476D01*
X129785714Y-49605476D02*
X129833333Y-49795952D01*
X129833333Y-49795952D02*
X129833333Y-49938809D01*
X129833333Y-49938809D02*
X129785714Y-50129285D01*
X129785714Y-50129285D02*
X129738095Y-50224523D01*
X129738095Y-50224523D02*
X129642857Y-50319761D01*
X129642857Y-50319761D02*
X129500000Y-50367380D01*
X129500000Y-50367380D02*
X129261905Y-50367380D01*
X130785714Y-50367380D02*
X130214286Y-50367380D01*
X130500000Y-50367380D02*
X130500000Y-49367380D01*
X130500000Y-49367380D02*
X130404762Y-49510238D01*
X130404762Y-49510238D02*
X130309524Y-49605476D01*
X130309524Y-49605476D02*
X130214286Y-49653095D01*
%TO.C,C12*%
X168357142Y-62272142D02*
X168309523Y-62319761D01*
X168309523Y-62319761D02*
X168166666Y-62367380D01*
X168166666Y-62367380D02*
X168071428Y-62367380D01*
X168071428Y-62367380D02*
X167928571Y-62319761D01*
X167928571Y-62319761D02*
X167833333Y-62224523D01*
X167833333Y-62224523D02*
X167785714Y-62129285D01*
X167785714Y-62129285D02*
X167738095Y-61938809D01*
X167738095Y-61938809D02*
X167738095Y-61795952D01*
X167738095Y-61795952D02*
X167785714Y-61605476D01*
X167785714Y-61605476D02*
X167833333Y-61510238D01*
X167833333Y-61510238D02*
X167928571Y-61415000D01*
X167928571Y-61415000D02*
X168071428Y-61367380D01*
X168071428Y-61367380D02*
X168166666Y-61367380D01*
X168166666Y-61367380D02*
X168309523Y-61415000D01*
X168309523Y-61415000D02*
X168357142Y-61462619D01*
X169309523Y-62367380D02*
X168738095Y-62367380D01*
X169023809Y-62367380D02*
X169023809Y-61367380D01*
X169023809Y-61367380D02*
X168928571Y-61510238D01*
X168928571Y-61510238D02*
X168833333Y-61605476D01*
X168833333Y-61605476D02*
X168738095Y-61653095D01*
X169690476Y-61462619D02*
X169738095Y-61415000D01*
X169738095Y-61415000D02*
X169833333Y-61367380D01*
X169833333Y-61367380D02*
X170071428Y-61367380D01*
X170071428Y-61367380D02*
X170166666Y-61415000D01*
X170166666Y-61415000D02*
X170214285Y-61462619D01*
X170214285Y-61462619D02*
X170261904Y-61557857D01*
X170261904Y-61557857D02*
X170261904Y-61653095D01*
X170261904Y-61653095D02*
X170214285Y-61795952D01*
X170214285Y-61795952D02*
X169642857Y-62367380D01*
X169642857Y-62367380D02*
X170261904Y-62367380D01*
%TO.C,R3*%
X110833333Y-45367380D02*
X110500000Y-44891190D01*
X110261905Y-45367380D02*
X110261905Y-44367380D01*
X110261905Y-44367380D02*
X110642857Y-44367380D01*
X110642857Y-44367380D02*
X110738095Y-44415000D01*
X110738095Y-44415000D02*
X110785714Y-44462619D01*
X110785714Y-44462619D02*
X110833333Y-44557857D01*
X110833333Y-44557857D02*
X110833333Y-44700714D01*
X110833333Y-44700714D02*
X110785714Y-44795952D01*
X110785714Y-44795952D02*
X110738095Y-44843571D01*
X110738095Y-44843571D02*
X110642857Y-44891190D01*
X110642857Y-44891190D02*
X110261905Y-44891190D01*
X111166667Y-44367380D02*
X111785714Y-44367380D01*
X111785714Y-44367380D02*
X111452381Y-44748333D01*
X111452381Y-44748333D02*
X111595238Y-44748333D01*
X111595238Y-44748333D02*
X111690476Y-44795952D01*
X111690476Y-44795952D02*
X111738095Y-44843571D01*
X111738095Y-44843571D02*
X111785714Y-44938809D01*
X111785714Y-44938809D02*
X111785714Y-45176904D01*
X111785714Y-45176904D02*
X111738095Y-45272142D01*
X111738095Y-45272142D02*
X111690476Y-45319761D01*
X111690476Y-45319761D02*
X111595238Y-45367380D01*
X111595238Y-45367380D02*
X111309524Y-45367380D01*
X111309524Y-45367380D02*
X111214286Y-45319761D01*
X111214286Y-45319761D02*
X111166667Y-45272142D01*
%TO.C,R49*%
X99127380Y-114555357D02*
X98651190Y-114888690D01*
X99127380Y-115126785D02*
X98127380Y-115126785D01*
X98127380Y-115126785D02*
X98127380Y-114745833D01*
X98127380Y-114745833D02*
X98175000Y-114650595D01*
X98175000Y-114650595D02*
X98222619Y-114602976D01*
X98222619Y-114602976D02*
X98317857Y-114555357D01*
X98317857Y-114555357D02*
X98460714Y-114555357D01*
X98460714Y-114555357D02*
X98555952Y-114602976D01*
X98555952Y-114602976D02*
X98603571Y-114650595D01*
X98603571Y-114650595D02*
X98651190Y-114745833D01*
X98651190Y-114745833D02*
X98651190Y-115126785D01*
X98460714Y-113698214D02*
X99127380Y-113698214D01*
X98079761Y-113936309D02*
X98794047Y-114174404D01*
X98794047Y-114174404D02*
X98794047Y-113555357D01*
X99127380Y-113126785D02*
X99127380Y-112936309D01*
X99127380Y-112936309D02*
X99079761Y-112841071D01*
X99079761Y-112841071D02*
X99032142Y-112793452D01*
X99032142Y-112793452D02*
X98889285Y-112698214D01*
X98889285Y-112698214D02*
X98698809Y-112650595D01*
X98698809Y-112650595D02*
X98317857Y-112650595D01*
X98317857Y-112650595D02*
X98222619Y-112698214D01*
X98222619Y-112698214D02*
X98175000Y-112745833D01*
X98175000Y-112745833D02*
X98127380Y-112841071D01*
X98127380Y-112841071D02*
X98127380Y-113031547D01*
X98127380Y-113031547D02*
X98175000Y-113126785D01*
X98175000Y-113126785D02*
X98222619Y-113174404D01*
X98222619Y-113174404D02*
X98317857Y-113222023D01*
X98317857Y-113222023D02*
X98555952Y-113222023D01*
X98555952Y-113222023D02*
X98651190Y-113174404D01*
X98651190Y-113174404D02*
X98698809Y-113126785D01*
X98698809Y-113126785D02*
X98746428Y-113031547D01*
X98746428Y-113031547D02*
X98746428Y-112841071D01*
X98746428Y-112841071D02*
X98698809Y-112745833D01*
X98698809Y-112745833D02*
X98651190Y-112698214D01*
X98651190Y-112698214D02*
X98555952Y-112650595D01*
%TO.C,R13*%
X150357142Y-50367380D02*
X150023809Y-49891190D01*
X149785714Y-50367380D02*
X149785714Y-49367380D01*
X149785714Y-49367380D02*
X150166666Y-49367380D01*
X150166666Y-49367380D02*
X150261904Y-49415000D01*
X150261904Y-49415000D02*
X150309523Y-49462619D01*
X150309523Y-49462619D02*
X150357142Y-49557857D01*
X150357142Y-49557857D02*
X150357142Y-49700714D01*
X150357142Y-49700714D02*
X150309523Y-49795952D01*
X150309523Y-49795952D02*
X150261904Y-49843571D01*
X150261904Y-49843571D02*
X150166666Y-49891190D01*
X150166666Y-49891190D02*
X149785714Y-49891190D01*
X151309523Y-50367380D02*
X150738095Y-50367380D01*
X151023809Y-50367380D02*
X151023809Y-49367380D01*
X151023809Y-49367380D02*
X150928571Y-49510238D01*
X150928571Y-49510238D02*
X150833333Y-49605476D01*
X150833333Y-49605476D02*
X150738095Y-49653095D01*
X151642857Y-49367380D02*
X152261904Y-49367380D01*
X152261904Y-49367380D02*
X151928571Y-49748333D01*
X151928571Y-49748333D02*
X152071428Y-49748333D01*
X152071428Y-49748333D02*
X152166666Y-49795952D01*
X152166666Y-49795952D02*
X152214285Y-49843571D01*
X152214285Y-49843571D02*
X152261904Y-49938809D01*
X152261904Y-49938809D02*
X152261904Y-50176904D01*
X152261904Y-50176904D02*
X152214285Y-50272142D01*
X152214285Y-50272142D02*
X152166666Y-50319761D01*
X152166666Y-50319761D02*
X152071428Y-50367380D01*
X152071428Y-50367380D02*
X151785714Y-50367380D01*
X151785714Y-50367380D02*
X151690476Y-50319761D01*
X151690476Y-50319761D02*
X151642857Y-50272142D01*
%TO.C,R39*%
X143367380Y-90530281D02*
X142891190Y-90863614D01*
X143367380Y-91101709D02*
X142367380Y-91101709D01*
X142367380Y-91101709D02*
X142367380Y-90720757D01*
X142367380Y-90720757D02*
X142415000Y-90625519D01*
X142415000Y-90625519D02*
X142462619Y-90577900D01*
X142462619Y-90577900D02*
X142557857Y-90530281D01*
X142557857Y-90530281D02*
X142700714Y-90530281D01*
X142700714Y-90530281D02*
X142795952Y-90577900D01*
X142795952Y-90577900D02*
X142843571Y-90625519D01*
X142843571Y-90625519D02*
X142891190Y-90720757D01*
X142891190Y-90720757D02*
X142891190Y-91101709D01*
X142367380Y-90196947D02*
X142367380Y-89577900D01*
X142367380Y-89577900D02*
X142748333Y-89911233D01*
X142748333Y-89911233D02*
X142748333Y-89768376D01*
X142748333Y-89768376D02*
X142795952Y-89673138D01*
X142795952Y-89673138D02*
X142843571Y-89625519D01*
X142843571Y-89625519D02*
X142938809Y-89577900D01*
X142938809Y-89577900D02*
X143176904Y-89577900D01*
X143176904Y-89577900D02*
X143272142Y-89625519D01*
X143272142Y-89625519D02*
X143319761Y-89673138D01*
X143319761Y-89673138D02*
X143367380Y-89768376D01*
X143367380Y-89768376D02*
X143367380Y-90054090D01*
X143367380Y-90054090D02*
X143319761Y-90149328D01*
X143319761Y-90149328D02*
X143272142Y-90196947D01*
X143367380Y-89101709D02*
X143367380Y-88911233D01*
X143367380Y-88911233D02*
X143319761Y-88815995D01*
X143319761Y-88815995D02*
X143272142Y-88768376D01*
X143272142Y-88768376D02*
X143129285Y-88673138D01*
X143129285Y-88673138D02*
X142938809Y-88625519D01*
X142938809Y-88625519D02*
X142557857Y-88625519D01*
X142557857Y-88625519D02*
X142462619Y-88673138D01*
X142462619Y-88673138D02*
X142415000Y-88720757D01*
X142415000Y-88720757D02*
X142367380Y-88815995D01*
X142367380Y-88815995D02*
X142367380Y-89006471D01*
X142367380Y-89006471D02*
X142415000Y-89101709D01*
X142415000Y-89101709D02*
X142462619Y-89149328D01*
X142462619Y-89149328D02*
X142557857Y-89196947D01*
X142557857Y-89196947D02*
X142795952Y-89196947D01*
X142795952Y-89196947D02*
X142891190Y-89149328D01*
X142891190Y-89149328D02*
X142938809Y-89101709D01*
X142938809Y-89101709D02*
X142986428Y-89006471D01*
X142986428Y-89006471D02*
X142986428Y-88815995D01*
X142986428Y-88815995D02*
X142938809Y-88720757D01*
X142938809Y-88720757D02*
X142891190Y-88673138D01*
X142891190Y-88673138D02*
X142795952Y-88625519D01*
%TO.C,Q7*%
X101714761Y-107862619D02*
X101619523Y-107815000D01*
X101619523Y-107815000D02*
X101524285Y-107719761D01*
X101524285Y-107719761D02*
X101381428Y-107576904D01*
X101381428Y-107576904D02*
X101286190Y-107529285D01*
X101286190Y-107529285D02*
X101190952Y-107529285D01*
X101238571Y-107767380D02*
X101143333Y-107719761D01*
X101143333Y-107719761D02*
X101048095Y-107624523D01*
X101048095Y-107624523D02*
X101000476Y-107434047D01*
X101000476Y-107434047D02*
X101000476Y-107100714D01*
X101000476Y-107100714D02*
X101048095Y-106910238D01*
X101048095Y-106910238D02*
X101143333Y-106815000D01*
X101143333Y-106815000D02*
X101238571Y-106767380D01*
X101238571Y-106767380D02*
X101429047Y-106767380D01*
X101429047Y-106767380D02*
X101524285Y-106815000D01*
X101524285Y-106815000D02*
X101619523Y-106910238D01*
X101619523Y-106910238D02*
X101667142Y-107100714D01*
X101667142Y-107100714D02*
X101667142Y-107434047D01*
X101667142Y-107434047D02*
X101619523Y-107624523D01*
X101619523Y-107624523D02*
X101524285Y-107719761D01*
X101524285Y-107719761D02*
X101429047Y-107767380D01*
X101429047Y-107767380D02*
X101238571Y-107767380D01*
X102000476Y-106767380D02*
X102667142Y-106767380D01*
X102667142Y-106767380D02*
X102238571Y-107767380D01*
%TO.C,R31*%
X173320442Y-62367380D02*
X172987109Y-61891190D01*
X172749014Y-62367380D02*
X172749014Y-61367380D01*
X172749014Y-61367380D02*
X173129966Y-61367380D01*
X173129966Y-61367380D02*
X173225204Y-61415000D01*
X173225204Y-61415000D02*
X173272823Y-61462619D01*
X173272823Y-61462619D02*
X173320442Y-61557857D01*
X173320442Y-61557857D02*
X173320442Y-61700714D01*
X173320442Y-61700714D02*
X173272823Y-61795952D01*
X173272823Y-61795952D02*
X173225204Y-61843571D01*
X173225204Y-61843571D02*
X173129966Y-61891190D01*
X173129966Y-61891190D02*
X172749014Y-61891190D01*
X173653776Y-61367380D02*
X174272823Y-61367380D01*
X174272823Y-61367380D02*
X173939490Y-61748333D01*
X173939490Y-61748333D02*
X174082347Y-61748333D01*
X174082347Y-61748333D02*
X174177585Y-61795952D01*
X174177585Y-61795952D02*
X174225204Y-61843571D01*
X174225204Y-61843571D02*
X174272823Y-61938809D01*
X174272823Y-61938809D02*
X174272823Y-62176904D01*
X174272823Y-62176904D02*
X174225204Y-62272142D01*
X174225204Y-62272142D02*
X174177585Y-62319761D01*
X174177585Y-62319761D02*
X174082347Y-62367380D01*
X174082347Y-62367380D02*
X173796633Y-62367380D01*
X173796633Y-62367380D02*
X173701395Y-62319761D01*
X173701395Y-62319761D02*
X173653776Y-62272142D01*
X175225204Y-62367380D02*
X174653776Y-62367380D01*
X174939490Y-62367380D02*
X174939490Y-61367380D01*
X174939490Y-61367380D02*
X174844252Y-61510238D01*
X174844252Y-61510238D02*
X174749014Y-61605476D01*
X174749014Y-61605476D02*
X174653776Y-61653095D01*
%TO.C,J14*%
X104547380Y-90909523D02*
X105261666Y-90909523D01*
X105261666Y-90909523D02*
X105404523Y-90957142D01*
X105404523Y-90957142D02*
X105499761Y-91052380D01*
X105499761Y-91052380D02*
X105547380Y-91195237D01*
X105547380Y-91195237D02*
X105547380Y-91290475D01*
X105547380Y-89909523D02*
X105547380Y-90480951D01*
X105547380Y-90195237D02*
X104547380Y-90195237D01*
X104547380Y-90195237D02*
X104690238Y-90290475D01*
X104690238Y-90290475D02*
X104785476Y-90385713D01*
X104785476Y-90385713D02*
X104833095Y-90480951D01*
X104880714Y-89052380D02*
X105547380Y-89052380D01*
X104499761Y-89290475D02*
X105214047Y-89528570D01*
X105214047Y-89528570D02*
X105214047Y-88909523D01*
%TO.C,R38*%
X143267380Y-105455281D02*
X142791190Y-105788614D01*
X143267380Y-106026709D02*
X142267380Y-106026709D01*
X142267380Y-106026709D02*
X142267380Y-105645757D01*
X142267380Y-105645757D02*
X142315000Y-105550519D01*
X142315000Y-105550519D02*
X142362619Y-105502900D01*
X142362619Y-105502900D02*
X142457857Y-105455281D01*
X142457857Y-105455281D02*
X142600714Y-105455281D01*
X142600714Y-105455281D02*
X142695952Y-105502900D01*
X142695952Y-105502900D02*
X142743571Y-105550519D01*
X142743571Y-105550519D02*
X142791190Y-105645757D01*
X142791190Y-105645757D02*
X142791190Y-106026709D01*
X142267380Y-105121947D02*
X142267380Y-104502900D01*
X142267380Y-104502900D02*
X142648333Y-104836233D01*
X142648333Y-104836233D02*
X142648333Y-104693376D01*
X142648333Y-104693376D02*
X142695952Y-104598138D01*
X142695952Y-104598138D02*
X142743571Y-104550519D01*
X142743571Y-104550519D02*
X142838809Y-104502900D01*
X142838809Y-104502900D02*
X143076904Y-104502900D01*
X143076904Y-104502900D02*
X143172142Y-104550519D01*
X143172142Y-104550519D02*
X143219761Y-104598138D01*
X143219761Y-104598138D02*
X143267380Y-104693376D01*
X143267380Y-104693376D02*
X143267380Y-104979090D01*
X143267380Y-104979090D02*
X143219761Y-105074328D01*
X143219761Y-105074328D02*
X143172142Y-105121947D01*
X142695952Y-103931471D02*
X142648333Y-104026709D01*
X142648333Y-104026709D02*
X142600714Y-104074328D01*
X142600714Y-104074328D02*
X142505476Y-104121947D01*
X142505476Y-104121947D02*
X142457857Y-104121947D01*
X142457857Y-104121947D02*
X142362619Y-104074328D01*
X142362619Y-104074328D02*
X142315000Y-104026709D01*
X142315000Y-104026709D02*
X142267380Y-103931471D01*
X142267380Y-103931471D02*
X142267380Y-103740995D01*
X142267380Y-103740995D02*
X142315000Y-103645757D01*
X142315000Y-103645757D02*
X142362619Y-103598138D01*
X142362619Y-103598138D02*
X142457857Y-103550519D01*
X142457857Y-103550519D02*
X142505476Y-103550519D01*
X142505476Y-103550519D02*
X142600714Y-103598138D01*
X142600714Y-103598138D02*
X142648333Y-103645757D01*
X142648333Y-103645757D02*
X142695952Y-103740995D01*
X142695952Y-103740995D02*
X142695952Y-103931471D01*
X142695952Y-103931471D02*
X142743571Y-104026709D01*
X142743571Y-104026709D02*
X142791190Y-104074328D01*
X142791190Y-104074328D02*
X142886428Y-104121947D01*
X142886428Y-104121947D02*
X143076904Y-104121947D01*
X143076904Y-104121947D02*
X143172142Y-104074328D01*
X143172142Y-104074328D02*
X143219761Y-104026709D01*
X143219761Y-104026709D02*
X143267380Y-103931471D01*
X143267380Y-103931471D02*
X143267380Y-103740995D01*
X143267380Y-103740995D02*
X143219761Y-103645757D01*
X143219761Y-103645757D02*
X143172142Y-103598138D01*
X143172142Y-103598138D02*
X143076904Y-103550519D01*
X143076904Y-103550519D02*
X142886428Y-103550519D01*
X142886428Y-103550519D02*
X142791190Y-103598138D01*
X142791190Y-103598138D02*
X142743571Y-103645757D01*
X142743571Y-103645757D02*
X142695952Y-103740995D01*
%TO.C,R15*%
X165357142Y-44367380D02*
X165023809Y-43891190D01*
X164785714Y-44367380D02*
X164785714Y-43367380D01*
X164785714Y-43367380D02*
X165166666Y-43367380D01*
X165166666Y-43367380D02*
X165261904Y-43415000D01*
X165261904Y-43415000D02*
X165309523Y-43462619D01*
X165309523Y-43462619D02*
X165357142Y-43557857D01*
X165357142Y-43557857D02*
X165357142Y-43700714D01*
X165357142Y-43700714D02*
X165309523Y-43795952D01*
X165309523Y-43795952D02*
X165261904Y-43843571D01*
X165261904Y-43843571D02*
X165166666Y-43891190D01*
X165166666Y-43891190D02*
X164785714Y-43891190D01*
X166309523Y-44367380D02*
X165738095Y-44367380D01*
X166023809Y-44367380D02*
X166023809Y-43367380D01*
X166023809Y-43367380D02*
X165928571Y-43510238D01*
X165928571Y-43510238D02*
X165833333Y-43605476D01*
X165833333Y-43605476D02*
X165738095Y-43653095D01*
X167214285Y-43367380D02*
X166738095Y-43367380D01*
X166738095Y-43367380D02*
X166690476Y-43843571D01*
X166690476Y-43843571D02*
X166738095Y-43795952D01*
X166738095Y-43795952D02*
X166833333Y-43748333D01*
X166833333Y-43748333D02*
X167071428Y-43748333D01*
X167071428Y-43748333D02*
X167166666Y-43795952D01*
X167166666Y-43795952D02*
X167214285Y-43843571D01*
X167214285Y-43843571D02*
X167261904Y-43938809D01*
X167261904Y-43938809D02*
X167261904Y-44176904D01*
X167261904Y-44176904D02*
X167214285Y-44272142D01*
X167214285Y-44272142D02*
X167166666Y-44319761D01*
X167166666Y-44319761D02*
X167071428Y-44367380D01*
X167071428Y-44367380D02*
X166833333Y-44367380D01*
X166833333Y-44367380D02*
X166738095Y-44319761D01*
X166738095Y-44319761D02*
X166690476Y-44272142D01*
%TO.C,BT1*%
X148214285Y-23843571D02*
X148357142Y-23891190D01*
X148357142Y-23891190D02*
X148404761Y-23938809D01*
X148404761Y-23938809D02*
X148452380Y-24034047D01*
X148452380Y-24034047D02*
X148452380Y-24176904D01*
X148452380Y-24176904D02*
X148404761Y-24272142D01*
X148404761Y-24272142D02*
X148357142Y-24319761D01*
X148357142Y-24319761D02*
X148261904Y-24367380D01*
X148261904Y-24367380D02*
X147880952Y-24367380D01*
X147880952Y-24367380D02*
X147880952Y-23367380D01*
X147880952Y-23367380D02*
X148214285Y-23367380D01*
X148214285Y-23367380D02*
X148309523Y-23415000D01*
X148309523Y-23415000D02*
X148357142Y-23462619D01*
X148357142Y-23462619D02*
X148404761Y-23557857D01*
X148404761Y-23557857D02*
X148404761Y-23653095D01*
X148404761Y-23653095D02*
X148357142Y-23748333D01*
X148357142Y-23748333D02*
X148309523Y-23795952D01*
X148309523Y-23795952D02*
X148214285Y-23843571D01*
X148214285Y-23843571D02*
X147880952Y-23843571D01*
X148738095Y-23367380D02*
X149309523Y-23367380D01*
X149023809Y-24367380D02*
X149023809Y-23367380D01*
X150166666Y-24367380D02*
X149595238Y-24367380D01*
X149880952Y-24367380D02*
X149880952Y-23367380D01*
X149880952Y-23367380D02*
X149785714Y-23510238D01*
X149785714Y-23510238D02*
X149690476Y-23605476D01*
X149690476Y-23605476D02*
X149595238Y-23653095D01*
%TO.C,C3*%
X172833333Y-46272142D02*
X172785714Y-46319761D01*
X172785714Y-46319761D02*
X172642857Y-46367380D01*
X172642857Y-46367380D02*
X172547619Y-46367380D01*
X172547619Y-46367380D02*
X172404762Y-46319761D01*
X172404762Y-46319761D02*
X172309524Y-46224523D01*
X172309524Y-46224523D02*
X172261905Y-46129285D01*
X172261905Y-46129285D02*
X172214286Y-45938809D01*
X172214286Y-45938809D02*
X172214286Y-45795952D01*
X172214286Y-45795952D02*
X172261905Y-45605476D01*
X172261905Y-45605476D02*
X172309524Y-45510238D01*
X172309524Y-45510238D02*
X172404762Y-45415000D01*
X172404762Y-45415000D02*
X172547619Y-45367380D01*
X172547619Y-45367380D02*
X172642857Y-45367380D01*
X172642857Y-45367380D02*
X172785714Y-45415000D01*
X172785714Y-45415000D02*
X172833333Y-45462619D01*
X173166667Y-45367380D02*
X173785714Y-45367380D01*
X173785714Y-45367380D02*
X173452381Y-45748333D01*
X173452381Y-45748333D02*
X173595238Y-45748333D01*
X173595238Y-45748333D02*
X173690476Y-45795952D01*
X173690476Y-45795952D02*
X173738095Y-45843571D01*
X173738095Y-45843571D02*
X173785714Y-45938809D01*
X173785714Y-45938809D02*
X173785714Y-46176904D01*
X173785714Y-46176904D02*
X173738095Y-46272142D01*
X173738095Y-46272142D02*
X173690476Y-46319761D01*
X173690476Y-46319761D02*
X173595238Y-46367380D01*
X173595238Y-46367380D02*
X173309524Y-46367380D01*
X173309524Y-46367380D02*
X173214286Y-46319761D01*
X173214286Y-46319761D02*
X173166667Y-46272142D01*
%TO.C,R35*%
X171010342Y-77989780D02*
X170677009Y-77513590D01*
X170438914Y-77989780D02*
X170438914Y-76989780D01*
X170438914Y-76989780D02*
X170819866Y-76989780D01*
X170819866Y-76989780D02*
X170915104Y-77037400D01*
X170915104Y-77037400D02*
X170962723Y-77085019D01*
X170962723Y-77085019D02*
X171010342Y-77180257D01*
X171010342Y-77180257D02*
X171010342Y-77323114D01*
X171010342Y-77323114D02*
X170962723Y-77418352D01*
X170962723Y-77418352D02*
X170915104Y-77465971D01*
X170915104Y-77465971D02*
X170819866Y-77513590D01*
X170819866Y-77513590D02*
X170438914Y-77513590D01*
X171343676Y-76989780D02*
X171962723Y-76989780D01*
X171962723Y-76989780D02*
X171629390Y-77370733D01*
X171629390Y-77370733D02*
X171772247Y-77370733D01*
X171772247Y-77370733D02*
X171867485Y-77418352D01*
X171867485Y-77418352D02*
X171915104Y-77465971D01*
X171915104Y-77465971D02*
X171962723Y-77561209D01*
X171962723Y-77561209D02*
X171962723Y-77799304D01*
X171962723Y-77799304D02*
X171915104Y-77894542D01*
X171915104Y-77894542D02*
X171867485Y-77942161D01*
X171867485Y-77942161D02*
X171772247Y-77989780D01*
X171772247Y-77989780D02*
X171486533Y-77989780D01*
X171486533Y-77989780D02*
X171391295Y-77942161D01*
X171391295Y-77942161D02*
X171343676Y-77894542D01*
X172867485Y-76989780D02*
X172391295Y-76989780D01*
X172391295Y-76989780D02*
X172343676Y-77465971D01*
X172343676Y-77465971D02*
X172391295Y-77418352D01*
X172391295Y-77418352D02*
X172486533Y-77370733D01*
X172486533Y-77370733D02*
X172724628Y-77370733D01*
X172724628Y-77370733D02*
X172819866Y-77418352D01*
X172819866Y-77418352D02*
X172867485Y-77465971D01*
X172867485Y-77465971D02*
X172915104Y-77561209D01*
X172915104Y-77561209D02*
X172915104Y-77799304D01*
X172915104Y-77799304D02*
X172867485Y-77894542D01*
X172867485Y-77894542D02*
X172819866Y-77942161D01*
X172819866Y-77942161D02*
X172724628Y-77989780D01*
X172724628Y-77989780D02*
X172486533Y-77989780D01*
X172486533Y-77989780D02*
X172391295Y-77942161D01*
X172391295Y-77942161D02*
X172343676Y-77894542D01*
%TO.C,U3*%
X161912212Y-45761904D02*
X162721736Y-45761904D01*
X162721736Y-45761904D02*
X162816974Y-45714285D01*
X162816974Y-45714285D02*
X162864593Y-45666666D01*
X162864593Y-45666666D02*
X162912212Y-45571428D01*
X162912212Y-45571428D02*
X162912212Y-45380952D01*
X162912212Y-45380952D02*
X162864593Y-45285714D01*
X162864593Y-45285714D02*
X162816974Y-45238095D01*
X162816974Y-45238095D02*
X162721736Y-45190476D01*
X162721736Y-45190476D02*
X161912212Y-45190476D01*
X161912212Y-44809523D02*
X161912212Y-44190476D01*
X161912212Y-44190476D02*
X162293165Y-44523809D01*
X162293165Y-44523809D02*
X162293165Y-44380952D01*
X162293165Y-44380952D02*
X162340784Y-44285714D01*
X162340784Y-44285714D02*
X162388403Y-44238095D01*
X162388403Y-44238095D02*
X162483641Y-44190476D01*
X162483641Y-44190476D02*
X162721736Y-44190476D01*
X162721736Y-44190476D02*
X162816974Y-44238095D01*
X162816974Y-44238095D02*
X162864593Y-44285714D01*
X162864593Y-44285714D02*
X162912212Y-44380952D01*
X162912212Y-44380952D02*
X162912212Y-44666666D01*
X162912212Y-44666666D02*
X162864593Y-44761904D01*
X162864593Y-44761904D02*
X162816974Y-44809523D01*
%TO.C,R34*%
X167606742Y-78040580D02*
X167273409Y-77564390D01*
X167035314Y-78040580D02*
X167035314Y-77040580D01*
X167035314Y-77040580D02*
X167416266Y-77040580D01*
X167416266Y-77040580D02*
X167511504Y-77088200D01*
X167511504Y-77088200D02*
X167559123Y-77135819D01*
X167559123Y-77135819D02*
X167606742Y-77231057D01*
X167606742Y-77231057D02*
X167606742Y-77373914D01*
X167606742Y-77373914D02*
X167559123Y-77469152D01*
X167559123Y-77469152D02*
X167511504Y-77516771D01*
X167511504Y-77516771D02*
X167416266Y-77564390D01*
X167416266Y-77564390D02*
X167035314Y-77564390D01*
X167940076Y-77040580D02*
X168559123Y-77040580D01*
X168559123Y-77040580D02*
X168225790Y-77421533D01*
X168225790Y-77421533D02*
X168368647Y-77421533D01*
X168368647Y-77421533D02*
X168463885Y-77469152D01*
X168463885Y-77469152D02*
X168511504Y-77516771D01*
X168511504Y-77516771D02*
X168559123Y-77612009D01*
X168559123Y-77612009D02*
X168559123Y-77850104D01*
X168559123Y-77850104D02*
X168511504Y-77945342D01*
X168511504Y-77945342D02*
X168463885Y-77992961D01*
X168463885Y-77992961D02*
X168368647Y-78040580D01*
X168368647Y-78040580D02*
X168082933Y-78040580D01*
X168082933Y-78040580D02*
X167987695Y-77992961D01*
X167987695Y-77992961D02*
X167940076Y-77945342D01*
X169416266Y-77373914D02*
X169416266Y-78040580D01*
X169178171Y-76992961D02*
X168940076Y-77707247D01*
X168940076Y-77707247D02*
X169559123Y-77707247D01*
%TO.C,R20*%
X117867380Y-90742755D02*
X117391190Y-91076088D01*
X117867380Y-91314183D02*
X116867380Y-91314183D01*
X116867380Y-91314183D02*
X116867380Y-90933231D01*
X116867380Y-90933231D02*
X116915000Y-90837993D01*
X116915000Y-90837993D02*
X116962619Y-90790374D01*
X116962619Y-90790374D02*
X117057857Y-90742755D01*
X117057857Y-90742755D02*
X117200714Y-90742755D01*
X117200714Y-90742755D02*
X117295952Y-90790374D01*
X117295952Y-90790374D02*
X117343571Y-90837993D01*
X117343571Y-90837993D02*
X117391190Y-90933231D01*
X117391190Y-90933231D02*
X117391190Y-91314183D01*
X116962619Y-90361802D02*
X116915000Y-90314183D01*
X116915000Y-90314183D02*
X116867380Y-90218945D01*
X116867380Y-90218945D02*
X116867380Y-89980850D01*
X116867380Y-89980850D02*
X116915000Y-89885612D01*
X116915000Y-89885612D02*
X116962619Y-89837993D01*
X116962619Y-89837993D02*
X117057857Y-89790374D01*
X117057857Y-89790374D02*
X117153095Y-89790374D01*
X117153095Y-89790374D02*
X117295952Y-89837993D01*
X117295952Y-89837993D02*
X117867380Y-90409421D01*
X117867380Y-90409421D02*
X117867380Y-89790374D01*
X116867380Y-89171326D02*
X116867380Y-89076088D01*
X116867380Y-89076088D02*
X116915000Y-88980850D01*
X116915000Y-88980850D02*
X116962619Y-88933231D01*
X116962619Y-88933231D02*
X117057857Y-88885612D01*
X117057857Y-88885612D02*
X117248333Y-88837993D01*
X117248333Y-88837993D02*
X117486428Y-88837993D01*
X117486428Y-88837993D02*
X117676904Y-88885612D01*
X117676904Y-88885612D02*
X117772142Y-88933231D01*
X117772142Y-88933231D02*
X117819761Y-88980850D01*
X117819761Y-88980850D02*
X117867380Y-89076088D01*
X117867380Y-89076088D02*
X117867380Y-89171326D01*
X117867380Y-89171326D02*
X117819761Y-89266564D01*
X117819761Y-89266564D02*
X117772142Y-89314183D01*
X117772142Y-89314183D02*
X117676904Y-89361802D01*
X117676904Y-89361802D02*
X117486428Y-89409421D01*
X117486428Y-89409421D02*
X117248333Y-89409421D01*
X117248333Y-89409421D02*
X117057857Y-89361802D01*
X117057857Y-89361802D02*
X116962619Y-89314183D01*
X116962619Y-89314183D02*
X116915000Y-89266564D01*
X116915000Y-89266564D02*
X116867380Y-89171326D01*
%TO.C,D2*%
X138261905Y-51367380D02*
X138261905Y-50367380D01*
X138261905Y-50367380D02*
X138500000Y-50367380D01*
X138500000Y-50367380D02*
X138642857Y-50415000D01*
X138642857Y-50415000D02*
X138738095Y-50510238D01*
X138738095Y-50510238D02*
X138785714Y-50605476D01*
X138785714Y-50605476D02*
X138833333Y-50795952D01*
X138833333Y-50795952D02*
X138833333Y-50938809D01*
X138833333Y-50938809D02*
X138785714Y-51129285D01*
X138785714Y-51129285D02*
X138738095Y-51224523D01*
X138738095Y-51224523D02*
X138642857Y-51319761D01*
X138642857Y-51319761D02*
X138500000Y-51367380D01*
X138500000Y-51367380D02*
X138261905Y-51367380D01*
X139214286Y-50462619D02*
X139261905Y-50415000D01*
X139261905Y-50415000D02*
X139357143Y-50367380D01*
X139357143Y-50367380D02*
X139595238Y-50367380D01*
X139595238Y-50367380D02*
X139690476Y-50415000D01*
X139690476Y-50415000D02*
X139738095Y-50462619D01*
X139738095Y-50462619D02*
X139785714Y-50557857D01*
X139785714Y-50557857D02*
X139785714Y-50653095D01*
X139785714Y-50653095D02*
X139738095Y-50795952D01*
X139738095Y-50795952D02*
X139166667Y-51367380D01*
X139166667Y-51367380D02*
X139785714Y-51367380D01*
%TO.C,R40*%
X148692380Y-105455281D02*
X148216190Y-105788614D01*
X148692380Y-106026709D02*
X147692380Y-106026709D01*
X147692380Y-106026709D02*
X147692380Y-105645757D01*
X147692380Y-105645757D02*
X147740000Y-105550519D01*
X147740000Y-105550519D02*
X147787619Y-105502900D01*
X147787619Y-105502900D02*
X147882857Y-105455281D01*
X147882857Y-105455281D02*
X148025714Y-105455281D01*
X148025714Y-105455281D02*
X148120952Y-105502900D01*
X148120952Y-105502900D02*
X148168571Y-105550519D01*
X148168571Y-105550519D02*
X148216190Y-105645757D01*
X148216190Y-105645757D02*
X148216190Y-106026709D01*
X148025714Y-104598138D02*
X148692380Y-104598138D01*
X147644761Y-104836233D02*
X148359047Y-105074328D01*
X148359047Y-105074328D02*
X148359047Y-104455281D01*
X147692380Y-103883852D02*
X147692380Y-103788614D01*
X147692380Y-103788614D02*
X147740000Y-103693376D01*
X147740000Y-103693376D02*
X147787619Y-103645757D01*
X147787619Y-103645757D02*
X147882857Y-103598138D01*
X147882857Y-103598138D02*
X148073333Y-103550519D01*
X148073333Y-103550519D02*
X148311428Y-103550519D01*
X148311428Y-103550519D02*
X148501904Y-103598138D01*
X148501904Y-103598138D02*
X148597142Y-103645757D01*
X148597142Y-103645757D02*
X148644761Y-103693376D01*
X148644761Y-103693376D02*
X148692380Y-103788614D01*
X148692380Y-103788614D02*
X148692380Y-103883852D01*
X148692380Y-103883852D02*
X148644761Y-103979090D01*
X148644761Y-103979090D02*
X148597142Y-104026709D01*
X148597142Y-104026709D02*
X148501904Y-104074328D01*
X148501904Y-104074328D02*
X148311428Y-104121947D01*
X148311428Y-104121947D02*
X148073333Y-104121947D01*
X148073333Y-104121947D02*
X147882857Y-104074328D01*
X147882857Y-104074328D02*
X147787619Y-104026709D01*
X147787619Y-104026709D02*
X147740000Y-103979090D01*
X147740000Y-103979090D02*
X147692380Y-103883852D01*
%TO.C,R29*%
X155688380Y-69984857D02*
X155212190Y-70318190D01*
X155688380Y-70556285D02*
X154688380Y-70556285D01*
X154688380Y-70556285D02*
X154688380Y-70175333D01*
X154688380Y-70175333D02*
X154736000Y-70080095D01*
X154736000Y-70080095D02*
X154783619Y-70032476D01*
X154783619Y-70032476D02*
X154878857Y-69984857D01*
X154878857Y-69984857D02*
X155021714Y-69984857D01*
X155021714Y-69984857D02*
X155116952Y-70032476D01*
X155116952Y-70032476D02*
X155164571Y-70080095D01*
X155164571Y-70080095D02*
X155212190Y-70175333D01*
X155212190Y-70175333D02*
X155212190Y-70556285D01*
X154783619Y-69603904D02*
X154736000Y-69556285D01*
X154736000Y-69556285D02*
X154688380Y-69461047D01*
X154688380Y-69461047D02*
X154688380Y-69222952D01*
X154688380Y-69222952D02*
X154736000Y-69127714D01*
X154736000Y-69127714D02*
X154783619Y-69080095D01*
X154783619Y-69080095D02*
X154878857Y-69032476D01*
X154878857Y-69032476D02*
X154974095Y-69032476D01*
X154974095Y-69032476D02*
X155116952Y-69080095D01*
X155116952Y-69080095D02*
X155688380Y-69651523D01*
X155688380Y-69651523D02*
X155688380Y-69032476D01*
X155688380Y-68556285D02*
X155688380Y-68365809D01*
X155688380Y-68365809D02*
X155640761Y-68270571D01*
X155640761Y-68270571D02*
X155593142Y-68222952D01*
X155593142Y-68222952D02*
X155450285Y-68127714D01*
X155450285Y-68127714D02*
X155259809Y-68080095D01*
X155259809Y-68080095D02*
X154878857Y-68080095D01*
X154878857Y-68080095D02*
X154783619Y-68127714D01*
X154783619Y-68127714D02*
X154736000Y-68175333D01*
X154736000Y-68175333D02*
X154688380Y-68270571D01*
X154688380Y-68270571D02*
X154688380Y-68461047D01*
X154688380Y-68461047D02*
X154736000Y-68556285D01*
X154736000Y-68556285D02*
X154783619Y-68603904D01*
X154783619Y-68603904D02*
X154878857Y-68651523D01*
X154878857Y-68651523D02*
X155116952Y-68651523D01*
X155116952Y-68651523D02*
X155212190Y-68603904D01*
X155212190Y-68603904D02*
X155259809Y-68556285D01*
X155259809Y-68556285D02*
X155307428Y-68461047D01*
X155307428Y-68461047D02*
X155307428Y-68270571D01*
X155307428Y-68270571D02*
X155259809Y-68175333D01*
X155259809Y-68175333D02*
X155212190Y-68127714D01*
X155212190Y-68127714D02*
X155116952Y-68080095D01*
%TO.C,R47*%
X104527380Y-114605395D02*
X104051190Y-114938728D01*
X104527380Y-115176823D02*
X103527380Y-115176823D01*
X103527380Y-115176823D02*
X103527380Y-114795871D01*
X103527380Y-114795871D02*
X103575000Y-114700633D01*
X103575000Y-114700633D02*
X103622619Y-114653014D01*
X103622619Y-114653014D02*
X103717857Y-114605395D01*
X103717857Y-114605395D02*
X103860714Y-114605395D01*
X103860714Y-114605395D02*
X103955952Y-114653014D01*
X103955952Y-114653014D02*
X104003571Y-114700633D01*
X104003571Y-114700633D02*
X104051190Y-114795871D01*
X104051190Y-114795871D02*
X104051190Y-115176823D01*
X103860714Y-113748252D02*
X104527380Y-113748252D01*
X103479761Y-113986347D02*
X104194047Y-114224442D01*
X104194047Y-114224442D02*
X104194047Y-113605395D01*
X103527380Y-113319680D02*
X103527380Y-112653014D01*
X103527380Y-112653014D02*
X104527380Y-113081585D01*
%TO.C,R4*%
X110920833Y-48367380D02*
X110587500Y-47891190D01*
X110349405Y-48367380D02*
X110349405Y-47367380D01*
X110349405Y-47367380D02*
X110730357Y-47367380D01*
X110730357Y-47367380D02*
X110825595Y-47415000D01*
X110825595Y-47415000D02*
X110873214Y-47462619D01*
X110873214Y-47462619D02*
X110920833Y-47557857D01*
X110920833Y-47557857D02*
X110920833Y-47700714D01*
X110920833Y-47700714D02*
X110873214Y-47795952D01*
X110873214Y-47795952D02*
X110825595Y-47843571D01*
X110825595Y-47843571D02*
X110730357Y-47891190D01*
X110730357Y-47891190D02*
X110349405Y-47891190D01*
X111777976Y-47700714D02*
X111777976Y-48367380D01*
X111539881Y-47319761D02*
X111301786Y-48034047D01*
X111301786Y-48034047D02*
X111920833Y-48034047D01*
%TO.C,J8*%
X99137380Y-61283333D02*
X99851666Y-61283333D01*
X99851666Y-61283333D02*
X99994523Y-61330952D01*
X99994523Y-61330952D02*
X100089761Y-61426190D01*
X100089761Y-61426190D02*
X100137380Y-61569047D01*
X100137380Y-61569047D02*
X100137380Y-61664285D01*
X99565952Y-60664285D02*
X99518333Y-60759523D01*
X99518333Y-60759523D02*
X99470714Y-60807142D01*
X99470714Y-60807142D02*
X99375476Y-60854761D01*
X99375476Y-60854761D02*
X99327857Y-60854761D01*
X99327857Y-60854761D02*
X99232619Y-60807142D01*
X99232619Y-60807142D02*
X99185000Y-60759523D01*
X99185000Y-60759523D02*
X99137380Y-60664285D01*
X99137380Y-60664285D02*
X99137380Y-60473809D01*
X99137380Y-60473809D02*
X99185000Y-60378571D01*
X99185000Y-60378571D02*
X99232619Y-60330952D01*
X99232619Y-60330952D02*
X99327857Y-60283333D01*
X99327857Y-60283333D02*
X99375476Y-60283333D01*
X99375476Y-60283333D02*
X99470714Y-60330952D01*
X99470714Y-60330952D02*
X99518333Y-60378571D01*
X99518333Y-60378571D02*
X99565952Y-60473809D01*
X99565952Y-60473809D02*
X99565952Y-60664285D01*
X99565952Y-60664285D02*
X99613571Y-60759523D01*
X99613571Y-60759523D02*
X99661190Y-60807142D01*
X99661190Y-60807142D02*
X99756428Y-60854761D01*
X99756428Y-60854761D02*
X99946904Y-60854761D01*
X99946904Y-60854761D02*
X100042142Y-60807142D01*
X100042142Y-60807142D02*
X100089761Y-60759523D01*
X100089761Y-60759523D02*
X100137380Y-60664285D01*
X100137380Y-60664285D02*
X100137380Y-60473809D01*
X100137380Y-60473809D02*
X100089761Y-60378571D01*
X100089761Y-60378571D02*
X100042142Y-60330952D01*
X100042142Y-60330952D02*
X99946904Y-60283333D01*
X99946904Y-60283333D02*
X99756428Y-60283333D01*
X99756428Y-60283333D02*
X99661190Y-60330952D01*
X99661190Y-60330952D02*
X99613571Y-60378571D01*
X99613571Y-60378571D02*
X99565952Y-60473809D01*
%TO.C,J1*%
X170666666Y-49367380D02*
X170666666Y-50081666D01*
X170666666Y-50081666D02*
X170619047Y-50224523D01*
X170619047Y-50224523D02*
X170523809Y-50319761D01*
X170523809Y-50319761D02*
X170380952Y-50367380D01*
X170380952Y-50367380D02*
X170285714Y-50367380D01*
X171666666Y-50367380D02*
X171095238Y-50367380D01*
X171380952Y-50367380D02*
X171380952Y-49367380D01*
X171380952Y-49367380D02*
X171285714Y-49510238D01*
X171285714Y-49510238D02*
X171190476Y-49605476D01*
X171190476Y-49605476D02*
X171095238Y-49653095D01*
%TO.C,Q6*%
X101414761Y-93162619D02*
X101319523Y-93115000D01*
X101319523Y-93115000D02*
X101224285Y-93019761D01*
X101224285Y-93019761D02*
X101081428Y-92876904D01*
X101081428Y-92876904D02*
X100986190Y-92829285D01*
X100986190Y-92829285D02*
X100890952Y-92829285D01*
X100938571Y-93067380D02*
X100843333Y-93019761D01*
X100843333Y-93019761D02*
X100748095Y-92924523D01*
X100748095Y-92924523D02*
X100700476Y-92734047D01*
X100700476Y-92734047D02*
X100700476Y-92400714D01*
X100700476Y-92400714D02*
X100748095Y-92210238D01*
X100748095Y-92210238D02*
X100843333Y-92115000D01*
X100843333Y-92115000D02*
X100938571Y-92067380D01*
X100938571Y-92067380D02*
X101129047Y-92067380D01*
X101129047Y-92067380D02*
X101224285Y-92115000D01*
X101224285Y-92115000D02*
X101319523Y-92210238D01*
X101319523Y-92210238D02*
X101367142Y-92400714D01*
X101367142Y-92400714D02*
X101367142Y-92734047D01*
X101367142Y-92734047D02*
X101319523Y-92924523D01*
X101319523Y-92924523D02*
X101224285Y-93019761D01*
X101224285Y-93019761D02*
X101129047Y-93067380D01*
X101129047Y-93067380D02*
X100938571Y-93067380D01*
X102224285Y-92067380D02*
X102033809Y-92067380D01*
X102033809Y-92067380D02*
X101938571Y-92115000D01*
X101938571Y-92115000D02*
X101890952Y-92162619D01*
X101890952Y-92162619D02*
X101795714Y-92305476D01*
X101795714Y-92305476D02*
X101748095Y-92495952D01*
X101748095Y-92495952D02*
X101748095Y-92876904D01*
X101748095Y-92876904D02*
X101795714Y-92972142D01*
X101795714Y-92972142D02*
X101843333Y-93019761D01*
X101843333Y-93019761D02*
X101938571Y-93067380D01*
X101938571Y-93067380D02*
X102129047Y-93067380D01*
X102129047Y-93067380D02*
X102224285Y-93019761D01*
X102224285Y-93019761D02*
X102271904Y-92972142D01*
X102271904Y-92972142D02*
X102319523Y-92876904D01*
X102319523Y-92876904D02*
X102319523Y-92638809D01*
X102319523Y-92638809D02*
X102271904Y-92543571D01*
X102271904Y-92543571D02*
X102224285Y-92495952D01*
X102224285Y-92495952D02*
X102129047Y-92448333D01*
X102129047Y-92448333D02*
X101938571Y-92448333D01*
X101938571Y-92448333D02*
X101843333Y-92495952D01*
X101843333Y-92495952D02*
X101795714Y-92543571D01*
X101795714Y-92543571D02*
X101748095Y-92638809D01*
%TO.C,R6*%
X104367380Y-55254166D02*
X103891190Y-55587499D01*
X104367380Y-55825594D02*
X103367380Y-55825594D01*
X103367380Y-55825594D02*
X103367380Y-55444642D01*
X103367380Y-55444642D02*
X103415000Y-55349404D01*
X103415000Y-55349404D02*
X103462619Y-55301785D01*
X103462619Y-55301785D02*
X103557857Y-55254166D01*
X103557857Y-55254166D02*
X103700714Y-55254166D01*
X103700714Y-55254166D02*
X103795952Y-55301785D01*
X103795952Y-55301785D02*
X103843571Y-55349404D01*
X103843571Y-55349404D02*
X103891190Y-55444642D01*
X103891190Y-55444642D02*
X103891190Y-55825594D01*
X103367380Y-54397023D02*
X103367380Y-54587499D01*
X103367380Y-54587499D02*
X103415000Y-54682737D01*
X103415000Y-54682737D02*
X103462619Y-54730356D01*
X103462619Y-54730356D02*
X103605476Y-54825594D01*
X103605476Y-54825594D02*
X103795952Y-54873213D01*
X103795952Y-54873213D02*
X104176904Y-54873213D01*
X104176904Y-54873213D02*
X104272142Y-54825594D01*
X104272142Y-54825594D02*
X104319761Y-54777975D01*
X104319761Y-54777975D02*
X104367380Y-54682737D01*
X104367380Y-54682737D02*
X104367380Y-54492261D01*
X104367380Y-54492261D02*
X104319761Y-54397023D01*
X104319761Y-54397023D02*
X104272142Y-54349404D01*
X104272142Y-54349404D02*
X104176904Y-54301785D01*
X104176904Y-54301785D02*
X103938809Y-54301785D01*
X103938809Y-54301785D02*
X103843571Y-54349404D01*
X103843571Y-54349404D02*
X103795952Y-54397023D01*
X103795952Y-54397023D02*
X103748333Y-54492261D01*
X103748333Y-54492261D02*
X103748333Y-54682737D01*
X103748333Y-54682737D02*
X103795952Y-54777975D01*
X103795952Y-54777975D02*
X103843571Y-54825594D01*
X103843571Y-54825594D02*
X103938809Y-54873213D01*
%TO.C,C14*%
X161772142Y-76342857D02*
X161819761Y-76390476D01*
X161819761Y-76390476D02*
X161867380Y-76533333D01*
X161867380Y-76533333D02*
X161867380Y-76628571D01*
X161867380Y-76628571D02*
X161819761Y-76771428D01*
X161819761Y-76771428D02*
X161724523Y-76866666D01*
X161724523Y-76866666D02*
X161629285Y-76914285D01*
X161629285Y-76914285D02*
X161438809Y-76961904D01*
X161438809Y-76961904D02*
X161295952Y-76961904D01*
X161295952Y-76961904D02*
X161105476Y-76914285D01*
X161105476Y-76914285D02*
X161010238Y-76866666D01*
X161010238Y-76866666D02*
X160915000Y-76771428D01*
X160915000Y-76771428D02*
X160867380Y-76628571D01*
X160867380Y-76628571D02*
X160867380Y-76533333D01*
X160867380Y-76533333D02*
X160915000Y-76390476D01*
X160915000Y-76390476D02*
X160962619Y-76342857D01*
X161867380Y-75390476D02*
X161867380Y-75961904D01*
X161867380Y-75676190D02*
X160867380Y-75676190D01*
X160867380Y-75676190D02*
X161010238Y-75771428D01*
X161010238Y-75771428D02*
X161105476Y-75866666D01*
X161105476Y-75866666D02*
X161153095Y-75961904D01*
X161200714Y-74533333D02*
X161867380Y-74533333D01*
X160819761Y-74771428D02*
X161534047Y-75009523D01*
X161534047Y-75009523D02*
X161534047Y-74390476D01*
%TO.C,Q8*%
X121054761Y-88125119D02*
X120959523Y-88077500D01*
X120959523Y-88077500D02*
X120864285Y-87982261D01*
X120864285Y-87982261D02*
X120721428Y-87839404D01*
X120721428Y-87839404D02*
X120626190Y-87791785D01*
X120626190Y-87791785D02*
X120530952Y-87791785D01*
X120578571Y-88029880D02*
X120483333Y-87982261D01*
X120483333Y-87982261D02*
X120388095Y-87887023D01*
X120388095Y-87887023D02*
X120340476Y-87696547D01*
X120340476Y-87696547D02*
X120340476Y-87363214D01*
X120340476Y-87363214D02*
X120388095Y-87172738D01*
X120388095Y-87172738D02*
X120483333Y-87077500D01*
X120483333Y-87077500D02*
X120578571Y-87029880D01*
X120578571Y-87029880D02*
X120769047Y-87029880D01*
X120769047Y-87029880D02*
X120864285Y-87077500D01*
X120864285Y-87077500D02*
X120959523Y-87172738D01*
X120959523Y-87172738D02*
X121007142Y-87363214D01*
X121007142Y-87363214D02*
X121007142Y-87696547D01*
X121007142Y-87696547D02*
X120959523Y-87887023D01*
X120959523Y-87887023D02*
X120864285Y-87982261D01*
X120864285Y-87982261D02*
X120769047Y-88029880D01*
X120769047Y-88029880D02*
X120578571Y-88029880D01*
X121578571Y-87458452D02*
X121483333Y-87410833D01*
X121483333Y-87410833D02*
X121435714Y-87363214D01*
X121435714Y-87363214D02*
X121388095Y-87267976D01*
X121388095Y-87267976D02*
X121388095Y-87220357D01*
X121388095Y-87220357D02*
X121435714Y-87125119D01*
X121435714Y-87125119D02*
X121483333Y-87077500D01*
X121483333Y-87077500D02*
X121578571Y-87029880D01*
X121578571Y-87029880D02*
X121769047Y-87029880D01*
X121769047Y-87029880D02*
X121864285Y-87077500D01*
X121864285Y-87077500D02*
X121911904Y-87125119D01*
X121911904Y-87125119D02*
X121959523Y-87220357D01*
X121959523Y-87220357D02*
X121959523Y-87267976D01*
X121959523Y-87267976D02*
X121911904Y-87363214D01*
X121911904Y-87363214D02*
X121864285Y-87410833D01*
X121864285Y-87410833D02*
X121769047Y-87458452D01*
X121769047Y-87458452D02*
X121578571Y-87458452D01*
X121578571Y-87458452D02*
X121483333Y-87506071D01*
X121483333Y-87506071D02*
X121435714Y-87553690D01*
X121435714Y-87553690D02*
X121388095Y-87648928D01*
X121388095Y-87648928D02*
X121388095Y-87839404D01*
X121388095Y-87839404D02*
X121435714Y-87934642D01*
X121435714Y-87934642D02*
X121483333Y-87982261D01*
X121483333Y-87982261D02*
X121578571Y-88029880D01*
X121578571Y-88029880D02*
X121769047Y-88029880D01*
X121769047Y-88029880D02*
X121864285Y-87982261D01*
X121864285Y-87982261D02*
X121911904Y-87934642D01*
X121911904Y-87934642D02*
X121959523Y-87839404D01*
X121959523Y-87839404D02*
X121959523Y-87648928D01*
X121959523Y-87648928D02*
X121911904Y-87553690D01*
X121911904Y-87553690D02*
X121864285Y-87506071D01*
X121864285Y-87506071D02*
X121769047Y-87458452D01*
%TO.C,R25*%
X129923886Y-113974880D02*
X129590553Y-113498690D01*
X129352458Y-113974880D02*
X129352458Y-112974880D01*
X129352458Y-112974880D02*
X129733410Y-112974880D01*
X129733410Y-112974880D02*
X129828648Y-113022500D01*
X129828648Y-113022500D02*
X129876267Y-113070119D01*
X129876267Y-113070119D02*
X129923886Y-113165357D01*
X129923886Y-113165357D02*
X129923886Y-113308214D01*
X129923886Y-113308214D02*
X129876267Y-113403452D01*
X129876267Y-113403452D02*
X129828648Y-113451071D01*
X129828648Y-113451071D02*
X129733410Y-113498690D01*
X129733410Y-113498690D02*
X129352458Y-113498690D01*
X130304839Y-113070119D02*
X130352458Y-113022500D01*
X130352458Y-113022500D02*
X130447696Y-112974880D01*
X130447696Y-112974880D02*
X130685791Y-112974880D01*
X130685791Y-112974880D02*
X130781029Y-113022500D01*
X130781029Y-113022500D02*
X130828648Y-113070119D01*
X130828648Y-113070119D02*
X130876267Y-113165357D01*
X130876267Y-113165357D02*
X130876267Y-113260595D01*
X130876267Y-113260595D02*
X130828648Y-113403452D01*
X130828648Y-113403452D02*
X130257220Y-113974880D01*
X130257220Y-113974880D02*
X130876267Y-113974880D01*
X131781029Y-112974880D02*
X131304839Y-112974880D01*
X131304839Y-112974880D02*
X131257220Y-113451071D01*
X131257220Y-113451071D02*
X131304839Y-113403452D01*
X131304839Y-113403452D02*
X131400077Y-113355833D01*
X131400077Y-113355833D02*
X131638172Y-113355833D01*
X131638172Y-113355833D02*
X131733410Y-113403452D01*
X131733410Y-113403452D02*
X131781029Y-113451071D01*
X131781029Y-113451071D02*
X131828648Y-113546309D01*
X131828648Y-113546309D02*
X131828648Y-113784404D01*
X131828648Y-113784404D02*
X131781029Y-113879642D01*
X131781029Y-113879642D02*
X131733410Y-113927261D01*
X131733410Y-113927261D02*
X131638172Y-113974880D01*
X131638172Y-113974880D02*
X131400077Y-113974880D01*
X131400077Y-113974880D02*
X131304839Y-113927261D01*
X131304839Y-113927261D02*
X131257220Y-113879642D01*
%TO.C,C17*%
X161357142Y-69272142D02*
X161309523Y-69319761D01*
X161309523Y-69319761D02*
X161166666Y-69367380D01*
X161166666Y-69367380D02*
X161071428Y-69367380D01*
X161071428Y-69367380D02*
X160928571Y-69319761D01*
X160928571Y-69319761D02*
X160833333Y-69224523D01*
X160833333Y-69224523D02*
X160785714Y-69129285D01*
X160785714Y-69129285D02*
X160738095Y-68938809D01*
X160738095Y-68938809D02*
X160738095Y-68795952D01*
X160738095Y-68795952D02*
X160785714Y-68605476D01*
X160785714Y-68605476D02*
X160833333Y-68510238D01*
X160833333Y-68510238D02*
X160928571Y-68415000D01*
X160928571Y-68415000D02*
X161071428Y-68367380D01*
X161071428Y-68367380D02*
X161166666Y-68367380D01*
X161166666Y-68367380D02*
X161309523Y-68415000D01*
X161309523Y-68415000D02*
X161357142Y-68462619D01*
X162309523Y-69367380D02*
X161738095Y-69367380D01*
X162023809Y-69367380D02*
X162023809Y-68367380D01*
X162023809Y-68367380D02*
X161928571Y-68510238D01*
X161928571Y-68510238D02*
X161833333Y-68605476D01*
X161833333Y-68605476D02*
X161738095Y-68653095D01*
X162642857Y-68367380D02*
X163309523Y-68367380D01*
X163309523Y-68367380D02*
X162880952Y-69367380D01*
%TO.C,C4*%
X102272142Y-54480357D02*
X102319761Y-54527976D01*
X102319761Y-54527976D02*
X102367380Y-54670833D01*
X102367380Y-54670833D02*
X102367380Y-54766071D01*
X102367380Y-54766071D02*
X102319761Y-54908928D01*
X102319761Y-54908928D02*
X102224523Y-55004166D01*
X102224523Y-55004166D02*
X102129285Y-55051785D01*
X102129285Y-55051785D02*
X101938809Y-55099404D01*
X101938809Y-55099404D02*
X101795952Y-55099404D01*
X101795952Y-55099404D02*
X101605476Y-55051785D01*
X101605476Y-55051785D02*
X101510238Y-55004166D01*
X101510238Y-55004166D02*
X101415000Y-54908928D01*
X101415000Y-54908928D02*
X101367380Y-54766071D01*
X101367380Y-54766071D02*
X101367380Y-54670833D01*
X101367380Y-54670833D02*
X101415000Y-54527976D01*
X101415000Y-54527976D02*
X101462619Y-54480357D01*
X101700714Y-53623214D02*
X102367380Y-53623214D01*
X101319761Y-53861309D02*
X102034047Y-54099404D01*
X102034047Y-54099404D02*
X102034047Y-53480357D01*
%TO.C,C13*%
X158272142Y-76362797D02*
X158319761Y-76410416D01*
X158319761Y-76410416D02*
X158367380Y-76553273D01*
X158367380Y-76553273D02*
X158367380Y-76648511D01*
X158367380Y-76648511D02*
X158319761Y-76791368D01*
X158319761Y-76791368D02*
X158224523Y-76886606D01*
X158224523Y-76886606D02*
X158129285Y-76934225D01*
X158129285Y-76934225D02*
X157938809Y-76981844D01*
X157938809Y-76981844D02*
X157795952Y-76981844D01*
X157795952Y-76981844D02*
X157605476Y-76934225D01*
X157605476Y-76934225D02*
X157510238Y-76886606D01*
X157510238Y-76886606D02*
X157415000Y-76791368D01*
X157415000Y-76791368D02*
X157367380Y-76648511D01*
X157367380Y-76648511D02*
X157367380Y-76553273D01*
X157367380Y-76553273D02*
X157415000Y-76410416D01*
X157415000Y-76410416D02*
X157462619Y-76362797D01*
X158367380Y-75410416D02*
X158367380Y-75981844D01*
X158367380Y-75696130D02*
X157367380Y-75696130D01*
X157367380Y-75696130D02*
X157510238Y-75791368D01*
X157510238Y-75791368D02*
X157605476Y-75886606D01*
X157605476Y-75886606D02*
X157653095Y-75981844D01*
X157367380Y-75077082D02*
X157367380Y-74458035D01*
X157367380Y-74458035D02*
X157748333Y-74791368D01*
X157748333Y-74791368D02*
X157748333Y-74648511D01*
X157748333Y-74648511D02*
X157795952Y-74553273D01*
X157795952Y-74553273D02*
X157843571Y-74505654D01*
X157843571Y-74505654D02*
X157938809Y-74458035D01*
X157938809Y-74458035D02*
X158176904Y-74458035D01*
X158176904Y-74458035D02*
X158272142Y-74505654D01*
X158272142Y-74505654D02*
X158319761Y-74553273D01*
X158319761Y-74553273D02*
X158367380Y-74648511D01*
X158367380Y-74648511D02*
X158367380Y-74934225D01*
X158367380Y-74934225D02*
X158319761Y-75029463D01*
X158319761Y-75029463D02*
X158272142Y-75077082D01*
%TO.C,C16*%
X158272142Y-73032857D02*
X158319761Y-73080476D01*
X158319761Y-73080476D02*
X158367380Y-73223333D01*
X158367380Y-73223333D02*
X158367380Y-73318571D01*
X158367380Y-73318571D02*
X158319761Y-73461428D01*
X158319761Y-73461428D02*
X158224523Y-73556666D01*
X158224523Y-73556666D02*
X158129285Y-73604285D01*
X158129285Y-73604285D02*
X157938809Y-73651904D01*
X157938809Y-73651904D02*
X157795952Y-73651904D01*
X157795952Y-73651904D02*
X157605476Y-73604285D01*
X157605476Y-73604285D02*
X157510238Y-73556666D01*
X157510238Y-73556666D02*
X157415000Y-73461428D01*
X157415000Y-73461428D02*
X157367380Y-73318571D01*
X157367380Y-73318571D02*
X157367380Y-73223333D01*
X157367380Y-73223333D02*
X157415000Y-73080476D01*
X157415000Y-73080476D02*
X157462619Y-73032857D01*
X158367380Y-72080476D02*
X158367380Y-72651904D01*
X158367380Y-72366190D02*
X157367380Y-72366190D01*
X157367380Y-72366190D02*
X157510238Y-72461428D01*
X157510238Y-72461428D02*
X157605476Y-72556666D01*
X157605476Y-72556666D02*
X157653095Y-72651904D01*
X157367380Y-71223333D02*
X157367380Y-71413809D01*
X157367380Y-71413809D02*
X157415000Y-71509047D01*
X157415000Y-71509047D02*
X157462619Y-71556666D01*
X157462619Y-71556666D02*
X157605476Y-71651904D01*
X157605476Y-71651904D02*
X157795952Y-71699523D01*
X157795952Y-71699523D02*
X158176904Y-71699523D01*
X158176904Y-71699523D02*
X158272142Y-71651904D01*
X158272142Y-71651904D02*
X158319761Y-71604285D01*
X158319761Y-71604285D02*
X158367380Y-71509047D01*
X158367380Y-71509047D02*
X158367380Y-71318571D01*
X158367380Y-71318571D02*
X158319761Y-71223333D01*
X158319761Y-71223333D02*
X158272142Y-71175714D01*
X158272142Y-71175714D02*
X158176904Y-71128095D01*
X158176904Y-71128095D02*
X157938809Y-71128095D01*
X157938809Y-71128095D02*
X157843571Y-71175714D01*
X157843571Y-71175714D02*
X157795952Y-71223333D01*
X157795952Y-71223333D02*
X157748333Y-71318571D01*
X157748333Y-71318571D02*
X157748333Y-71509047D01*
X157748333Y-71509047D02*
X157795952Y-71604285D01*
X157795952Y-71604285D02*
X157843571Y-71651904D01*
X157843571Y-71651904D02*
X157938809Y-71699523D01*
%TO.C,R48*%
X98827380Y-99830357D02*
X98351190Y-100163690D01*
X98827380Y-100401785D02*
X97827380Y-100401785D01*
X97827380Y-100401785D02*
X97827380Y-100020833D01*
X97827380Y-100020833D02*
X97875000Y-99925595D01*
X97875000Y-99925595D02*
X97922619Y-99877976D01*
X97922619Y-99877976D02*
X98017857Y-99830357D01*
X98017857Y-99830357D02*
X98160714Y-99830357D01*
X98160714Y-99830357D02*
X98255952Y-99877976D01*
X98255952Y-99877976D02*
X98303571Y-99925595D01*
X98303571Y-99925595D02*
X98351190Y-100020833D01*
X98351190Y-100020833D02*
X98351190Y-100401785D01*
X98160714Y-98973214D02*
X98827380Y-98973214D01*
X97779761Y-99211309D02*
X98494047Y-99449404D01*
X98494047Y-99449404D02*
X98494047Y-98830357D01*
X98255952Y-98306547D02*
X98208333Y-98401785D01*
X98208333Y-98401785D02*
X98160714Y-98449404D01*
X98160714Y-98449404D02*
X98065476Y-98497023D01*
X98065476Y-98497023D02*
X98017857Y-98497023D01*
X98017857Y-98497023D02*
X97922619Y-98449404D01*
X97922619Y-98449404D02*
X97875000Y-98401785D01*
X97875000Y-98401785D02*
X97827380Y-98306547D01*
X97827380Y-98306547D02*
X97827380Y-98116071D01*
X97827380Y-98116071D02*
X97875000Y-98020833D01*
X97875000Y-98020833D02*
X97922619Y-97973214D01*
X97922619Y-97973214D02*
X98017857Y-97925595D01*
X98017857Y-97925595D02*
X98065476Y-97925595D01*
X98065476Y-97925595D02*
X98160714Y-97973214D01*
X98160714Y-97973214D02*
X98208333Y-98020833D01*
X98208333Y-98020833D02*
X98255952Y-98116071D01*
X98255952Y-98116071D02*
X98255952Y-98306547D01*
X98255952Y-98306547D02*
X98303571Y-98401785D01*
X98303571Y-98401785D02*
X98351190Y-98449404D01*
X98351190Y-98449404D02*
X98446428Y-98497023D01*
X98446428Y-98497023D02*
X98636904Y-98497023D01*
X98636904Y-98497023D02*
X98732142Y-98449404D01*
X98732142Y-98449404D02*
X98779761Y-98401785D01*
X98779761Y-98401785D02*
X98827380Y-98306547D01*
X98827380Y-98306547D02*
X98827380Y-98116071D01*
X98827380Y-98116071D02*
X98779761Y-98020833D01*
X98779761Y-98020833D02*
X98732142Y-97973214D01*
X98732142Y-97973214D02*
X98636904Y-97925595D01*
X98636904Y-97925595D02*
X98446428Y-97925595D01*
X98446428Y-97925595D02*
X98351190Y-97973214D01*
X98351190Y-97973214D02*
X98303571Y-98020833D01*
X98303571Y-98020833D02*
X98255952Y-98116071D01*
%TO.C,R5*%
X93833333Y-46367380D02*
X93500000Y-45891190D01*
X93261905Y-46367380D02*
X93261905Y-45367380D01*
X93261905Y-45367380D02*
X93642857Y-45367380D01*
X93642857Y-45367380D02*
X93738095Y-45415000D01*
X93738095Y-45415000D02*
X93785714Y-45462619D01*
X93785714Y-45462619D02*
X93833333Y-45557857D01*
X93833333Y-45557857D02*
X93833333Y-45700714D01*
X93833333Y-45700714D02*
X93785714Y-45795952D01*
X93785714Y-45795952D02*
X93738095Y-45843571D01*
X93738095Y-45843571D02*
X93642857Y-45891190D01*
X93642857Y-45891190D02*
X93261905Y-45891190D01*
X94738095Y-45367380D02*
X94261905Y-45367380D01*
X94261905Y-45367380D02*
X94214286Y-45843571D01*
X94214286Y-45843571D02*
X94261905Y-45795952D01*
X94261905Y-45795952D02*
X94357143Y-45748333D01*
X94357143Y-45748333D02*
X94595238Y-45748333D01*
X94595238Y-45748333D02*
X94690476Y-45795952D01*
X94690476Y-45795952D02*
X94738095Y-45843571D01*
X94738095Y-45843571D02*
X94785714Y-45938809D01*
X94785714Y-45938809D02*
X94785714Y-46176904D01*
X94785714Y-46176904D02*
X94738095Y-46272142D01*
X94738095Y-46272142D02*
X94690476Y-46319761D01*
X94690476Y-46319761D02*
X94595238Y-46367380D01*
X94595238Y-46367380D02*
X94357143Y-46367380D01*
X94357143Y-46367380D02*
X94261905Y-46319761D01*
X94261905Y-46319761D02*
X94214286Y-46272142D01*
%TO.C,R28*%
X142354380Y-70135357D02*
X141878190Y-70468690D01*
X142354380Y-70706785D02*
X141354380Y-70706785D01*
X141354380Y-70706785D02*
X141354380Y-70325833D01*
X141354380Y-70325833D02*
X141402000Y-70230595D01*
X141402000Y-70230595D02*
X141449619Y-70182976D01*
X141449619Y-70182976D02*
X141544857Y-70135357D01*
X141544857Y-70135357D02*
X141687714Y-70135357D01*
X141687714Y-70135357D02*
X141782952Y-70182976D01*
X141782952Y-70182976D02*
X141830571Y-70230595D01*
X141830571Y-70230595D02*
X141878190Y-70325833D01*
X141878190Y-70325833D02*
X141878190Y-70706785D01*
X141449619Y-69754404D02*
X141402000Y-69706785D01*
X141402000Y-69706785D02*
X141354380Y-69611547D01*
X141354380Y-69611547D02*
X141354380Y-69373452D01*
X141354380Y-69373452D02*
X141402000Y-69278214D01*
X141402000Y-69278214D02*
X141449619Y-69230595D01*
X141449619Y-69230595D02*
X141544857Y-69182976D01*
X141544857Y-69182976D02*
X141640095Y-69182976D01*
X141640095Y-69182976D02*
X141782952Y-69230595D01*
X141782952Y-69230595D02*
X142354380Y-69802023D01*
X142354380Y-69802023D02*
X142354380Y-69182976D01*
X141782952Y-68611547D02*
X141735333Y-68706785D01*
X141735333Y-68706785D02*
X141687714Y-68754404D01*
X141687714Y-68754404D02*
X141592476Y-68802023D01*
X141592476Y-68802023D02*
X141544857Y-68802023D01*
X141544857Y-68802023D02*
X141449619Y-68754404D01*
X141449619Y-68754404D02*
X141402000Y-68706785D01*
X141402000Y-68706785D02*
X141354380Y-68611547D01*
X141354380Y-68611547D02*
X141354380Y-68421071D01*
X141354380Y-68421071D02*
X141402000Y-68325833D01*
X141402000Y-68325833D02*
X141449619Y-68278214D01*
X141449619Y-68278214D02*
X141544857Y-68230595D01*
X141544857Y-68230595D02*
X141592476Y-68230595D01*
X141592476Y-68230595D02*
X141687714Y-68278214D01*
X141687714Y-68278214D02*
X141735333Y-68325833D01*
X141735333Y-68325833D02*
X141782952Y-68421071D01*
X141782952Y-68421071D02*
X141782952Y-68611547D01*
X141782952Y-68611547D02*
X141830571Y-68706785D01*
X141830571Y-68706785D02*
X141878190Y-68754404D01*
X141878190Y-68754404D02*
X141973428Y-68802023D01*
X141973428Y-68802023D02*
X142163904Y-68802023D01*
X142163904Y-68802023D02*
X142259142Y-68754404D01*
X142259142Y-68754404D02*
X142306761Y-68706785D01*
X142306761Y-68706785D02*
X142354380Y-68611547D01*
X142354380Y-68611547D02*
X142354380Y-68421071D01*
X142354380Y-68421071D02*
X142306761Y-68325833D01*
X142306761Y-68325833D02*
X142259142Y-68278214D01*
X142259142Y-68278214D02*
X142163904Y-68230595D01*
X142163904Y-68230595D02*
X141973428Y-68230595D01*
X141973428Y-68230595D02*
X141878190Y-68278214D01*
X141878190Y-68278214D02*
X141830571Y-68325833D01*
X141830571Y-68325833D02*
X141782952Y-68421071D01*
%TO.C,R11*%
X145357142Y-55717380D02*
X145023809Y-55241190D01*
X144785714Y-55717380D02*
X144785714Y-54717380D01*
X144785714Y-54717380D02*
X145166666Y-54717380D01*
X145166666Y-54717380D02*
X145261904Y-54765000D01*
X145261904Y-54765000D02*
X145309523Y-54812619D01*
X145309523Y-54812619D02*
X145357142Y-54907857D01*
X145357142Y-54907857D02*
X145357142Y-55050714D01*
X145357142Y-55050714D02*
X145309523Y-55145952D01*
X145309523Y-55145952D02*
X145261904Y-55193571D01*
X145261904Y-55193571D02*
X145166666Y-55241190D01*
X145166666Y-55241190D02*
X144785714Y-55241190D01*
X146309523Y-55717380D02*
X145738095Y-55717380D01*
X146023809Y-55717380D02*
X146023809Y-54717380D01*
X146023809Y-54717380D02*
X145928571Y-54860238D01*
X145928571Y-54860238D02*
X145833333Y-54955476D01*
X145833333Y-54955476D02*
X145738095Y-55003095D01*
X147261904Y-55717380D02*
X146690476Y-55717380D01*
X146976190Y-55717380D02*
X146976190Y-54717380D01*
X146976190Y-54717380D02*
X146880952Y-54860238D01*
X146880952Y-54860238D02*
X146785714Y-54955476D01*
X146785714Y-54955476D02*
X146690476Y-55003095D01*
%TO.C,J6*%
X186990180Y-69128533D02*
X187704466Y-69128533D01*
X187704466Y-69128533D02*
X187847323Y-69176152D01*
X187847323Y-69176152D02*
X187942561Y-69271390D01*
X187942561Y-69271390D02*
X187990180Y-69414247D01*
X187990180Y-69414247D02*
X187990180Y-69509485D01*
X186990180Y-68223771D02*
X186990180Y-68414247D01*
X186990180Y-68414247D02*
X187037800Y-68509485D01*
X187037800Y-68509485D02*
X187085419Y-68557104D01*
X187085419Y-68557104D02*
X187228276Y-68652342D01*
X187228276Y-68652342D02*
X187418752Y-68699961D01*
X187418752Y-68699961D02*
X187799704Y-68699961D01*
X187799704Y-68699961D02*
X187894942Y-68652342D01*
X187894942Y-68652342D02*
X187942561Y-68604723D01*
X187942561Y-68604723D02*
X187990180Y-68509485D01*
X187990180Y-68509485D02*
X187990180Y-68319009D01*
X187990180Y-68319009D02*
X187942561Y-68223771D01*
X187942561Y-68223771D02*
X187894942Y-68176152D01*
X187894942Y-68176152D02*
X187799704Y-68128533D01*
X187799704Y-68128533D02*
X187561609Y-68128533D01*
X187561609Y-68128533D02*
X187466371Y-68176152D01*
X187466371Y-68176152D02*
X187418752Y-68223771D01*
X187418752Y-68223771D02*
X187371133Y-68319009D01*
X187371133Y-68319009D02*
X187371133Y-68509485D01*
X187371133Y-68509485D02*
X187418752Y-68604723D01*
X187418752Y-68604723D02*
X187466371Y-68652342D01*
X187466371Y-68652342D02*
X187561609Y-68699961D01*
%TO.C,R26*%
X142480380Y-74533357D02*
X142004190Y-74866690D01*
X142480380Y-75104785D02*
X141480380Y-75104785D01*
X141480380Y-75104785D02*
X141480380Y-74723833D01*
X141480380Y-74723833D02*
X141528000Y-74628595D01*
X141528000Y-74628595D02*
X141575619Y-74580976D01*
X141575619Y-74580976D02*
X141670857Y-74533357D01*
X141670857Y-74533357D02*
X141813714Y-74533357D01*
X141813714Y-74533357D02*
X141908952Y-74580976D01*
X141908952Y-74580976D02*
X141956571Y-74628595D01*
X141956571Y-74628595D02*
X142004190Y-74723833D01*
X142004190Y-74723833D02*
X142004190Y-75104785D01*
X141575619Y-74152404D02*
X141528000Y-74104785D01*
X141528000Y-74104785D02*
X141480380Y-74009547D01*
X141480380Y-74009547D02*
X141480380Y-73771452D01*
X141480380Y-73771452D02*
X141528000Y-73676214D01*
X141528000Y-73676214D02*
X141575619Y-73628595D01*
X141575619Y-73628595D02*
X141670857Y-73580976D01*
X141670857Y-73580976D02*
X141766095Y-73580976D01*
X141766095Y-73580976D02*
X141908952Y-73628595D01*
X141908952Y-73628595D02*
X142480380Y-74200023D01*
X142480380Y-74200023D02*
X142480380Y-73580976D01*
X141480380Y-72723833D02*
X141480380Y-72914309D01*
X141480380Y-72914309D02*
X141528000Y-73009547D01*
X141528000Y-73009547D02*
X141575619Y-73057166D01*
X141575619Y-73057166D02*
X141718476Y-73152404D01*
X141718476Y-73152404D02*
X141908952Y-73200023D01*
X141908952Y-73200023D02*
X142289904Y-73200023D01*
X142289904Y-73200023D02*
X142385142Y-73152404D01*
X142385142Y-73152404D02*
X142432761Y-73104785D01*
X142432761Y-73104785D02*
X142480380Y-73009547D01*
X142480380Y-73009547D02*
X142480380Y-72819071D01*
X142480380Y-72819071D02*
X142432761Y-72723833D01*
X142432761Y-72723833D02*
X142385142Y-72676214D01*
X142385142Y-72676214D02*
X142289904Y-72628595D01*
X142289904Y-72628595D02*
X142051809Y-72628595D01*
X142051809Y-72628595D02*
X141956571Y-72676214D01*
X141956571Y-72676214D02*
X141908952Y-72723833D01*
X141908952Y-72723833D02*
X141861333Y-72819071D01*
X141861333Y-72819071D02*
X141861333Y-73009547D01*
X141861333Y-73009547D02*
X141908952Y-73104785D01*
X141908952Y-73104785D02*
X141956571Y-73152404D01*
X141956571Y-73152404D02*
X142051809Y-73200023D01*
%TO.C,R17*%
X164444642Y-55367380D02*
X164111309Y-54891190D01*
X163873214Y-55367380D02*
X163873214Y-54367380D01*
X163873214Y-54367380D02*
X164254166Y-54367380D01*
X164254166Y-54367380D02*
X164349404Y-54415000D01*
X164349404Y-54415000D02*
X164397023Y-54462619D01*
X164397023Y-54462619D02*
X164444642Y-54557857D01*
X164444642Y-54557857D02*
X164444642Y-54700714D01*
X164444642Y-54700714D02*
X164397023Y-54795952D01*
X164397023Y-54795952D02*
X164349404Y-54843571D01*
X164349404Y-54843571D02*
X164254166Y-54891190D01*
X164254166Y-54891190D02*
X163873214Y-54891190D01*
X165397023Y-55367380D02*
X164825595Y-55367380D01*
X165111309Y-55367380D02*
X165111309Y-54367380D01*
X165111309Y-54367380D02*
X165016071Y-54510238D01*
X165016071Y-54510238D02*
X164920833Y-54605476D01*
X164920833Y-54605476D02*
X164825595Y-54653095D01*
X165730357Y-54367380D02*
X166397023Y-54367380D01*
X166397023Y-54367380D02*
X165968452Y-55367380D01*
%TO.C,R18*%
X131794642Y-98429880D02*
X131461309Y-97953690D01*
X131223214Y-98429880D02*
X131223214Y-97429880D01*
X131223214Y-97429880D02*
X131604166Y-97429880D01*
X131604166Y-97429880D02*
X131699404Y-97477500D01*
X131699404Y-97477500D02*
X131747023Y-97525119D01*
X131747023Y-97525119D02*
X131794642Y-97620357D01*
X131794642Y-97620357D02*
X131794642Y-97763214D01*
X131794642Y-97763214D02*
X131747023Y-97858452D01*
X131747023Y-97858452D02*
X131699404Y-97906071D01*
X131699404Y-97906071D02*
X131604166Y-97953690D01*
X131604166Y-97953690D02*
X131223214Y-97953690D01*
X132747023Y-98429880D02*
X132175595Y-98429880D01*
X132461309Y-98429880D02*
X132461309Y-97429880D01*
X132461309Y-97429880D02*
X132366071Y-97572738D01*
X132366071Y-97572738D02*
X132270833Y-97667976D01*
X132270833Y-97667976D02*
X132175595Y-97715595D01*
X133318452Y-97858452D02*
X133223214Y-97810833D01*
X133223214Y-97810833D02*
X133175595Y-97763214D01*
X133175595Y-97763214D02*
X133127976Y-97667976D01*
X133127976Y-97667976D02*
X133127976Y-97620357D01*
X133127976Y-97620357D02*
X133175595Y-97525119D01*
X133175595Y-97525119D02*
X133223214Y-97477500D01*
X133223214Y-97477500D02*
X133318452Y-97429880D01*
X133318452Y-97429880D02*
X133508928Y-97429880D01*
X133508928Y-97429880D02*
X133604166Y-97477500D01*
X133604166Y-97477500D02*
X133651785Y-97525119D01*
X133651785Y-97525119D02*
X133699404Y-97620357D01*
X133699404Y-97620357D02*
X133699404Y-97667976D01*
X133699404Y-97667976D02*
X133651785Y-97763214D01*
X133651785Y-97763214D02*
X133604166Y-97810833D01*
X133604166Y-97810833D02*
X133508928Y-97858452D01*
X133508928Y-97858452D02*
X133318452Y-97858452D01*
X133318452Y-97858452D02*
X133223214Y-97906071D01*
X133223214Y-97906071D02*
X133175595Y-97953690D01*
X133175595Y-97953690D02*
X133127976Y-98048928D01*
X133127976Y-98048928D02*
X133127976Y-98239404D01*
X133127976Y-98239404D02*
X133175595Y-98334642D01*
X133175595Y-98334642D02*
X133223214Y-98382261D01*
X133223214Y-98382261D02*
X133318452Y-98429880D01*
X133318452Y-98429880D02*
X133508928Y-98429880D01*
X133508928Y-98429880D02*
X133604166Y-98382261D01*
X133604166Y-98382261D02*
X133651785Y-98334642D01*
X133651785Y-98334642D02*
X133699404Y-98239404D01*
X133699404Y-98239404D02*
X133699404Y-98048928D01*
X133699404Y-98048928D02*
X133651785Y-97953690D01*
X133651785Y-97953690D02*
X133604166Y-97906071D01*
X133604166Y-97906071D02*
X133508928Y-97858452D01*
%TO.C,C6*%
X127975916Y-104222269D02*
X127928297Y-104269888D01*
X127928297Y-104269888D02*
X127785440Y-104317507D01*
X127785440Y-104317507D02*
X127690202Y-104317507D01*
X127690202Y-104317507D02*
X127547345Y-104269888D01*
X127547345Y-104269888D02*
X127452107Y-104174650D01*
X127452107Y-104174650D02*
X127404488Y-104079412D01*
X127404488Y-104079412D02*
X127356869Y-103888936D01*
X127356869Y-103888936D02*
X127356869Y-103746079D01*
X127356869Y-103746079D02*
X127404488Y-103555603D01*
X127404488Y-103555603D02*
X127452107Y-103460365D01*
X127452107Y-103460365D02*
X127547345Y-103365127D01*
X127547345Y-103365127D02*
X127690202Y-103317507D01*
X127690202Y-103317507D02*
X127785440Y-103317507D01*
X127785440Y-103317507D02*
X127928297Y-103365127D01*
X127928297Y-103365127D02*
X127975916Y-103412746D01*
X128833059Y-103317507D02*
X128642583Y-103317507D01*
X128642583Y-103317507D02*
X128547345Y-103365127D01*
X128547345Y-103365127D02*
X128499726Y-103412746D01*
X128499726Y-103412746D02*
X128404488Y-103555603D01*
X128404488Y-103555603D02*
X128356869Y-103746079D01*
X128356869Y-103746079D02*
X128356869Y-104127031D01*
X128356869Y-104127031D02*
X128404488Y-104222269D01*
X128404488Y-104222269D02*
X128452107Y-104269888D01*
X128452107Y-104269888D02*
X128547345Y-104317507D01*
X128547345Y-104317507D02*
X128737821Y-104317507D01*
X128737821Y-104317507D02*
X128833059Y-104269888D01*
X128833059Y-104269888D02*
X128880678Y-104222269D01*
X128880678Y-104222269D02*
X128928297Y-104127031D01*
X128928297Y-104127031D02*
X128928297Y-103888936D01*
X128928297Y-103888936D02*
X128880678Y-103793698D01*
X128880678Y-103793698D02*
X128833059Y-103746079D01*
X128833059Y-103746079D02*
X128737821Y-103698460D01*
X128737821Y-103698460D02*
X128547345Y-103698460D01*
X128547345Y-103698460D02*
X128452107Y-103746079D01*
X128452107Y-103746079D02*
X128404488Y-103793698D01*
X128404488Y-103793698D02*
X128356869Y-103888936D01*
%TO.C,C10*%
X134892142Y-72778857D02*
X134939761Y-72826476D01*
X134939761Y-72826476D02*
X134987380Y-72969333D01*
X134987380Y-72969333D02*
X134987380Y-73064571D01*
X134987380Y-73064571D02*
X134939761Y-73207428D01*
X134939761Y-73207428D02*
X134844523Y-73302666D01*
X134844523Y-73302666D02*
X134749285Y-73350285D01*
X134749285Y-73350285D02*
X134558809Y-73397904D01*
X134558809Y-73397904D02*
X134415952Y-73397904D01*
X134415952Y-73397904D02*
X134225476Y-73350285D01*
X134225476Y-73350285D02*
X134130238Y-73302666D01*
X134130238Y-73302666D02*
X134035000Y-73207428D01*
X134035000Y-73207428D02*
X133987380Y-73064571D01*
X133987380Y-73064571D02*
X133987380Y-72969333D01*
X133987380Y-72969333D02*
X134035000Y-72826476D01*
X134035000Y-72826476D02*
X134082619Y-72778857D01*
X134987380Y-71826476D02*
X134987380Y-72397904D01*
X134987380Y-72112190D02*
X133987380Y-72112190D01*
X133987380Y-72112190D02*
X134130238Y-72207428D01*
X134130238Y-72207428D02*
X134225476Y-72302666D01*
X134225476Y-72302666D02*
X134273095Y-72397904D01*
X133987380Y-71207428D02*
X133987380Y-71112190D01*
X133987380Y-71112190D02*
X134035000Y-71016952D01*
X134035000Y-71016952D02*
X134082619Y-70969333D01*
X134082619Y-70969333D02*
X134177857Y-70921714D01*
X134177857Y-70921714D02*
X134368333Y-70874095D01*
X134368333Y-70874095D02*
X134606428Y-70874095D01*
X134606428Y-70874095D02*
X134796904Y-70921714D01*
X134796904Y-70921714D02*
X134892142Y-70969333D01*
X134892142Y-70969333D02*
X134939761Y-71016952D01*
X134939761Y-71016952D02*
X134987380Y-71112190D01*
X134987380Y-71112190D02*
X134987380Y-71207428D01*
X134987380Y-71207428D02*
X134939761Y-71302666D01*
X134939761Y-71302666D02*
X134892142Y-71350285D01*
X134892142Y-71350285D02*
X134796904Y-71397904D01*
X134796904Y-71397904D02*
X134606428Y-71445523D01*
X134606428Y-71445523D02*
X134368333Y-71445523D01*
X134368333Y-71445523D02*
X134177857Y-71397904D01*
X134177857Y-71397904D02*
X134082619Y-71350285D01*
X134082619Y-71350285D02*
X134035000Y-71302666D01*
X134035000Y-71302666D02*
X133987380Y-71207428D01*
%TO.C,R23*%
X121111386Y-113637380D02*
X120778053Y-113161190D01*
X120539958Y-113637380D02*
X120539958Y-112637380D01*
X120539958Y-112637380D02*
X120920910Y-112637380D01*
X120920910Y-112637380D02*
X121016148Y-112685000D01*
X121016148Y-112685000D02*
X121063767Y-112732619D01*
X121063767Y-112732619D02*
X121111386Y-112827857D01*
X121111386Y-112827857D02*
X121111386Y-112970714D01*
X121111386Y-112970714D02*
X121063767Y-113065952D01*
X121063767Y-113065952D02*
X121016148Y-113113571D01*
X121016148Y-113113571D02*
X120920910Y-113161190D01*
X120920910Y-113161190D02*
X120539958Y-113161190D01*
X121492339Y-112732619D02*
X121539958Y-112685000D01*
X121539958Y-112685000D02*
X121635196Y-112637380D01*
X121635196Y-112637380D02*
X121873291Y-112637380D01*
X121873291Y-112637380D02*
X121968529Y-112685000D01*
X121968529Y-112685000D02*
X122016148Y-112732619D01*
X122016148Y-112732619D02*
X122063767Y-112827857D01*
X122063767Y-112827857D02*
X122063767Y-112923095D01*
X122063767Y-112923095D02*
X122016148Y-113065952D01*
X122016148Y-113065952D02*
X121444720Y-113637380D01*
X121444720Y-113637380D02*
X122063767Y-113637380D01*
X122397101Y-112637380D02*
X123016148Y-112637380D01*
X123016148Y-112637380D02*
X122682815Y-113018333D01*
X122682815Y-113018333D02*
X122825672Y-113018333D01*
X122825672Y-113018333D02*
X122920910Y-113065952D01*
X122920910Y-113065952D02*
X122968529Y-113113571D01*
X122968529Y-113113571D02*
X123016148Y-113208809D01*
X123016148Y-113208809D02*
X123016148Y-113446904D01*
X123016148Y-113446904D02*
X122968529Y-113542142D01*
X122968529Y-113542142D02*
X122920910Y-113589761D01*
X122920910Y-113589761D02*
X122825672Y-113637380D01*
X122825672Y-113637380D02*
X122539958Y-113637380D01*
X122539958Y-113637380D02*
X122444720Y-113589761D01*
X122444720Y-113589761D02*
X122397101Y-113542142D01*
%TO.C,J15*%
X104847380Y-105609523D02*
X105561666Y-105609523D01*
X105561666Y-105609523D02*
X105704523Y-105657142D01*
X105704523Y-105657142D02*
X105799761Y-105752380D01*
X105799761Y-105752380D02*
X105847380Y-105895237D01*
X105847380Y-105895237D02*
X105847380Y-105990475D01*
X105847380Y-104609523D02*
X105847380Y-105180951D01*
X105847380Y-104895237D02*
X104847380Y-104895237D01*
X104847380Y-104895237D02*
X104990238Y-104990475D01*
X104990238Y-104990475D02*
X105085476Y-105085713D01*
X105085476Y-105085713D02*
X105133095Y-105180951D01*
X104847380Y-103704761D02*
X104847380Y-104180951D01*
X104847380Y-104180951D02*
X105323571Y-104228570D01*
X105323571Y-104228570D02*
X105275952Y-104180951D01*
X105275952Y-104180951D02*
X105228333Y-104085713D01*
X105228333Y-104085713D02*
X105228333Y-103847618D01*
X105228333Y-103847618D02*
X105275952Y-103752380D01*
X105275952Y-103752380D02*
X105323571Y-103704761D01*
X105323571Y-103704761D02*
X105418809Y-103657142D01*
X105418809Y-103657142D02*
X105656904Y-103657142D01*
X105656904Y-103657142D02*
X105752142Y-103704761D01*
X105752142Y-103704761D02*
X105799761Y-103752380D01*
X105799761Y-103752380D02*
X105847380Y-103847618D01*
X105847380Y-103847618D02*
X105847380Y-104085713D01*
X105847380Y-104085713D02*
X105799761Y-104180951D01*
X105799761Y-104180951D02*
X105752142Y-104228570D01*
%TO.C,J5*%
X98666666Y-71367380D02*
X98666666Y-72081666D01*
X98666666Y-72081666D02*
X98619047Y-72224523D01*
X98619047Y-72224523D02*
X98523809Y-72319761D01*
X98523809Y-72319761D02*
X98380952Y-72367380D01*
X98380952Y-72367380D02*
X98285714Y-72367380D01*
X99619047Y-71367380D02*
X99142857Y-71367380D01*
X99142857Y-71367380D02*
X99095238Y-71843571D01*
X99095238Y-71843571D02*
X99142857Y-71795952D01*
X99142857Y-71795952D02*
X99238095Y-71748333D01*
X99238095Y-71748333D02*
X99476190Y-71748333D01*
X99476190Y-71748333D02*
X99571428Y-71795952D01*
X99571428Y-71795952D02*
X99619047Y-71843571D01*
X99619047Y-71843571D02*
X99666666Y-71938809D01*
X99666666Y-71938809D02*
X99666666Y-72176904D01*
X99666666Y-72176904D02*
X99619047Y-72272142D01*
X99619047Y-72272142D02*
X99571428Y-72319761D01*
X99571428Y-72319761D02*
X99476190Y-72367380D01*
X99476190Y-72367380D02*
X99238095Y-72367380D01*
X99238095Y-72367380D02*
X99142857Y-72319761D01*
X99142857Y-72319761D02*
X99095238Y-72272142D01*
%TO.C,R14*%
X155357142Y-55367380D02*
X155023809Y-54891190D01*
X154785714Y-55367380D02*
X154785714Y-54367380D01*
X154785714Y-54367380D02*
X155166666Y-54367380D01*
X155166666Y-54367380D02*
X155261904Y-54415000D01*
X155261904Y-54415000D02*
X155309523Y-54462619D01*
X155309523Y-54462619D02*
X155357142Y-54557857D01*
X155357142Y-54557857D02*
X155357142Y-54700714D01*
X155357142Y-54700714D02*
X155309523Y-54795952D01*
X155309523Y-54795952D02*
X155261904Y-54843571D01*
X155261904Y-54843571D02*
X155166666Y-54891190D01*
X155166666Y-54891190D02*
X154785714Y-54891190D01*
X156309523Y-55367380D02*
X155738095Y-55367380D01*
X156023809Y-55367380D02*
X156023809Y-54367380D01*
X156023809Y-54367380D02*
X155928571Y-54510238D01*
X155928571Y-54510238D02*
X155833333Y-54605476D01*
X155833333Y-54605476D02*
X155738095Y-54653095D01*
X157166666Y-54700714D02*
X157166666Y-55367380D01*
X156928571Y-54319761D02*
X156690476Y-55034047D01*
X156690476Y-55034047D02*
X157309523Y-55034047D01*
%TO.C,J11*%
X99017380Y-84759523D02*
X99731666Y-84759523D01*
X99731666Y-84759523D02*
X99874523Y-84807142D01*
X99874523Y-84807142D02*
X99969761Y-84902380D01*
X99969761Y-84902380D02*
X100017380Y-85045237D01*
X100017380Y-85045237D02*
X100017380Y-85140475D01*
X100017380Y-83759523D02*
X100017380Y-84330951D01*
X100017380Y-84045237D02*
X99017380Y-84045237D01*
X99017380Y-84045237D02*
X99160238Y-84140475D01*
X99160238Y-84140475D02*
X99255476Y-84235713D01*
X99255476Y-84235713D02*
X99303095Y-84330951D01*
X100017380Y-82807142D02*
X100017380Y-83378570D01*
X100017380Y-83092856D02*
X99017380Y-83092856D01*
X99017380Y-83092856D02*
X99160238Y-83188094D01*
X99160238Y-83188094D02*
X99255476Y-83283332D01*
X99255476Y-83283332D02*
X99303095Y-83378570D01*
%TO.C,C1*%
X97272142Y-52166666D02*
X97319761Y-52214285D01*
X97319761Y-52214285D02*
X97367380Y-52357142D01*
X97367380Y-52357142D02*
X97367380Y-52452380D01*
X97367380Y-52452380D02*
X97319761Y-52595237D01*
X97319761Y-52595237D02*
X97224523Y-52690475D01*
X97224523Y-52690475D02*
X97129285Y-52738094D01*
X97129285Y-52738094D02*
X96938809Y-52785713D01*
X96938809Y-52785713D02*
X96795952Y-52785713D01*
X96795952Y-52785713D02*
X96605476Y-52738094D01*
X96605476Y-52738094D02*
X96510238Y-52690475D01*
X96510238Y-52690475D02*
X96415000Y-52595237D01*
X96415000Y-52595237D02*
X96367380Y-52452380D01*
X96367380Y-52452380D02*
X96367380Y-52357142D01*
X96367380Y-52357142D02*
X96415000Y-52214285D01*
X96415000Y-52214285D02*
X96462619Y-52166666D01*
X97367380Y-51214285D02*
X97367380Y-51785713D01*
X97367380Y-51499999D02*
X96367380Y-51499999D01*
X96367380Y-51499999D02*
X96510238Y-51595237D01*
X96510238Y-51595237D02*
X96605476Y-51690475D01*
X96605476Y-51690475D02*
X96653095Y-51785713D01*
%TO.C,R24*%
X125598886Y-113637380D02*
X125265553Y-113161190D01*
X125027458Y-113637380D02*
X125027458Y-112637380D01*
X125027458Y-112637380D02*
X125408410Y-112637380D01*
X125408410Y-112637380D02*
X125503648Y-112685000D01*
X125503648Y-112685000D02*
X125551267Y-112732619D01*
X125551267Y-112732619D02*
X125598886Y-112827857D01*
X125598886Y-112827857D02*
X125598886Y-112970714D01*
X125598886Y-112970714D02*
X125551267Y-113065952D01*
X125551267Y-113065952D02*
X125503648Y-113113571D01*
X125503648Y-113113571D02*
X125408410Y-113161190D01*
X125408410Y-113161190D02*
X125027458Y-113161190D01*
X125979839Y-112732619D02*
X126027458Y-112685000D01*
X126027458Y-112685000D02*
X126122696Y-112637380D01*
X126122696Y-112637380D02*
X126360791Y-112637380D01*
X126360791Y-112637380D02*
X126456029Y-112685000D01*
X126456029Y-112685000D02*
X126503648Y-112732619D01*
X126503648Y-112732619D02*
X126551267Y-112827857D01*
X126551267Y-112827857D02*
X126551267Y-112923095D01*
X126551267Y-112923095D02*
X126503648Y-113065952D01*
X126503648Y-113065952D02*
X125932220Y-113637380D01*
X125932220Y-113637380D02*
X126551267Y-113637380D01*
X127408410Y-112970714D02*
X127408410Y-113637380D01*
X127170315Y-112589761D02*
X126932220Y-113304047D01*
X126932220Y-113304047D02*
X127551267Y-113304047D01*
%TO.C,R21*%
X113344642Y-91179880D02*
X113011309Y-90703690D01*
X112773214Y-91179880D02*
X112773214Y-90179880D01*
X112773214Y-90179880D02*
X113154166Y-90179880D01*
X113154166Y-90179880D02*
X113249404Y-90227500D01*
X113249404Y-90227500D02*
X113297023Y-90275119D01*
X113297023Y-90275119D02*
X113344642Y-90370357D01*
X113344642Y-90370357D02*
X113344642Y-90513214D01*
X113344642Y-90513214D02*
X113297023Y-90608452D01*
X113297023Y-90608452D02*
X113249404Y-90656071D01*
X113249404Y-90656071D02*
X113154166Y-90703690D01*
X113154166Y-90703690D02*
X112773214Y-90703690D01*
X113725595Y-90275119D02*
X113773214Y-90227500D01*
X113773214Y-90227500D02*
X113868452Y-90179880D01*
X113868452Y-90179880D02*
X114106547Y-90179880D01*
X114106547Y-90179880D02*
X114201785Y-90227500D01*
X114201785Y-90227500D02*
X114249404Y-90275119D01*
X114249404Y-90275119D02*
X114297023Y-90370357D01*
X114297023Y-90370357D02*
X114297023Y-90465595D01*
X114297023Y-90465595D02*
X114249404Y-90608452D01*
X114249404Y-90608452D02*
X113677976Y-91179880D01*
X113677976Y-91179880D02*
X114297023Y-91179880D01*
X115249404Y-91179880D02*
X114677976Y-91179880D01*
X114963690Y-91179880D02*
X114963690Y-90179880D01*
X114963690Y-90179880D02*
X114868452Y-90322738D01*
X114868452Y-90322738D02*
X114773214Y-90417976D01*
X114773214Y-90417976D02*
X114677976Y-90465595D01*
%TO.C,R41*%
X148792380Y-90580319D02*
X148316190Y-90913652D01*
X148792380Y-91151747D02*
X147792380Y-91151747D01*
X147792380Y-91151747D02*
X147792380Y-90770795D01*
X147792380Y-90770795D02*
X147840000Y-90675557D01*
X147840000Y-90675557D02*
X147887619Y-90627938D01*
X147887619Y-90627938D02*
X147982857Y-90580319D01*
X147982857Y-90580319D02*
X148125714Y-90580319D01*
X148125714Y-90580319D02*
X148220952Y-90627938D01*
X148220952Y-90627938D02*
X148268571Y-90675557D01*
X148268571Y-90675557D02*
X148316190Y-90770795D01*
X148316190Y-90770795D02*
X148316190Y-91151747D01*
X148125714Y-89723176D02*
X148792380Y-89723176D01*
X147744761Y-89961271D02*
X148459047Y-90199366D01*
X148459047Y-90199366D02*
X148459047Y-89580319D01*
X148792380Y-88675557D02*
X148792380Y-89246985D01*
X148792380Y-88961271D02*
X147792380Y-88961271D01*
X147792380Y-88961271D02*
X147935238Y-89056509D01*
X147935238Y-89056509D02*
X148030476Y-89151747D01*
X148030476Y-89151747D02*
X148078095Y-89246985D01*
%TO.C,R37*%
X139819642Y-93567342D02*
X139486309Y-93091152D01*
X139248214Y-93567342D02*
X139248214Y-92567342D01*
X139248214Y-92567342D02*
X139629166Y-92567342D01*
X139629166Y-92567342D02*
X139724404Y-92614962D01*
X139724404Y-92614962D02*
X139772023Y-92662581D01*
X139772023Y-92662581D02*
X139819642Y-92757819D01*
X139819642Y-92757819D02*
X139819642Y-92900676D01*
X139819642Y-92900676D02*
X139772023Y-92995914D01*
X139772023Y-92995914D02*
X139724404Y-93043533D01*
X139724404Y-93043533D02*
X139629166Y-93091152D01*
X139629166Y-93091152D02*
X139248214Y-93091152D01*
X140152976Y-92567342D02*
X140772023Y-92567342D01*
X140772023Y-92567342D02*
X140438690Y-92948295D01*
X140438690Y-92948295D02*
X140581547Y-92948295D01*
X140581547Y-92948295D02*
X140676785Y-92995914D01*
X140676785Y-92995914D02*
X140724404Y-93043533D01*
X140724404Y-93043533D02*
X140772023Y-93138771D01*
X140772023Y-93138771D02*
X140772023Y-93376866D01*
X140772023Y-93376866D02*
X140724404Y-93472104D01*
X140724404Y-93472104D02*
X140676785Y-93519723D01*
X140676785Y-93519723D02*
X140581547Y-93567342D01*
X140581547Y-93567342D02*
X140295833Y-93567342D01*
X140295833Y-93567342D02*
X140200595Y-93519723D01*
X140200595Y-93519723D02*
X140152976Y-93472104D01*
X141105357Y-92567342D02*
X141772023Y-92567342D01*
X141772023Y-92567342D02*
X141343452Y-93567342D01*
%TO.C,U7*%
X178157980Y-69748304D02*
X178967504Y-69748304D01*
X178967504Y-69748304D02*
X179062742Y-69700685D01*
X179062742Y-69700685D02*
X179110361Y-69653066D01*
X179110361Y-69653066D02*
X179157980Y-69557828D01*
X179157980Y-69557828D02*
X179157980Y-69367352D01*
X179157980Y-69367352D02*
X179110361Y-69272114D01*
X179110361Y-69272114D02*
X179062742Y-69224495D01*
X179062742Y-69224495D02*
X178967504Y-69176876D01*
X178967504Y-69176876D02*
X178157980Y-69176876D01*
X178157980Y-68795923D02*
X178157980Y-68129257D01*
X178157980Y-68129257D02*
X179157980Y-68557828D01*
%TO.C,R43*%
X149569642Y-92517304D02*
X149236309Y-92041114D01*
X148998214Y-92517304D02*
X148998214Y-91517304D01*
X148998214Y-91517304D02*
X149379166Y-91517304D01*
X149379166Y-91517304D02*
X149474404Y-91564924D01*
X149474404Y-91564924D02*
X149522023Y-91612543D01*
X149522023Y-91612543D02*
X149569642Y-91707781D01*
X149569642Y-91707781D02*
X149569642Y-91850638D01*
X149569642Y-91850638D02*
X149522023Y-91945876D01*
X149522023Y-91945876D02*
X149474404Y-91993495D01*
X149474404Y-91993495D02*
X149379166Y-92041114D01*
X149379166Y-92041114D02*
X148998214Y-92041114D01*
X150426785Y-91850638D02*
X150426785Y-92517304D01*
X150188690Y-91469685D02*
X149950595Y-92183971D01*
X149950595Y-92183971D02*
X150569642Y-92183971D01*
X150855357Y-91517304D02*
X151474404Y-91517304D01*
X151474404Y-91517304D02*
X151141071Y-91898257D01*
X151141071Y-91898257D02*
X151283928Y-91898257D01*
X151283928Y-91898257D02*
X151379166Y-91945876D01*
X151379166Y-91945876D02*
X151426785Y-91993495D01*
X151426785Y-91993495D02*
X151474404Y-92088733D01*
X151474404Y-92088733D02*
X151474404Y-92326828D01*
X151474404Y-92326828D02*
X151426785Y-92422066D01*
X151426785Y-92422066D02*
X151379166Y-92469685D01*
X151379166Y-92469685D02*
X151283928Y-92517304D01*
X151283928Y-92517304D02*
X150998214Y-92517304D01*
X150998214Y-92517304D02*
X150902976Y-92469685D01*
X150902976Y-92469685D02*
X150855357Y-92422066D01*
%TO.C,R10*%
X136269642Y-58017380D02*
X135936309Y-57541190D01*
X135698214Y-58017380D02*
X135698214Y-57017380D01*
X135698214Y-57017380D02*
X136079166Y-57017380D01*
X136079166Y-57017380D02*
X136174404Y-57065000D01*
X136174404Y-57065000D02*
X136222023Y-57112619D01*
X136222023Y-57112619D02*
X136269642Y-57207857D01*
X136269642Y-57207857D02*
X136269642Y-57350714D01*
X136269642Y-57350714D02*
X136222023Y-57445952D01*
X136222023Y-57445952D02*
X136174404Y-57493571D01*
X136174404Y-57493571D02*
X136079166Y-57541190D01*
X136079166Y-57541190D02*
X135698214Y-57541190D01*
X137222023Y-58017380D02*
X136650595Y-58017380D01*
X136936309Y-58017380D02*
X136936309Y-57017380D01*
X136936309Y-57017380D02*
X136841071Y-57160238D01*
X136841071Y-57160238D02*
X136745833Y-57255476D01*
X136745833Y-57255476D02*
X136650595Y-57303095D01*
X137841071Y-57017380D02*
X137936309Y-57017380D01*
X137936309Y-57017380D02*
X138031547Y-57065000D01*
X138031547Y-57065000D02*
X138079166Y-57112619D01*
X138079166Y-57112619D02*
X138126785Y-57207857D01*
X138126785Y-57207857D02*
X138174404Y-57398333D01*
X138174404Y-57398333D02*
X138174404Y-57636428D01*
X138174404Y-57636428D02*
X138126785Y-57826904D01*
X138126785Y-57826904D02*
X138079166Y-57922142D01*
X138079166Y-57922142D02*
X138031547Y-57969761D01*
X138031547Y-57969761D02*
X137936309Y-58017380D01*
X137936309Y-58017380D02*
X137841071Y-58017380D01*
X137841071Y-58017380D02*
X137745833Y-57969761D01*
X137745833Y-57969761D02*
X137698214Y-57922142D01*
X137698214Y-57922142D02*
X137650595Y-57826904D01*
X137650595Y-57826904D02*
X137602976Y-57636428D01*
X137602976Y-57636428D02*
X137602976Y-57398333D01*
X137602976Y-57398333D02*
X137650595Y-57207857D01*
X137650595Y-57207857D02*
X137698214Y-57112619D01*
X137698214Y-57112619D02*
X137745833Y-57065000D01*
X137745833Y-57065000D02*
X137841071Y-57017380D01*
%TO.C,C9*%
X134183333Y-88334642D02*
X134135714Y-88382261D01*
X134135714Y-88382261D02*
X133992857Y-88429880D01*
X133992857Y-88429880D02*
X133897619Y-88429880D01*
X133897619Y-88429880D02*
X133754762Y-88382261D01*
X133754762Y-88382261D02*
X133659524Y-88287023D01*
X133659524Y-88287023D02*
X133611905Y-88191785D01*
X133611905Y-88191785D02*
X133564286Y-88001309D01*
X133564286Y-88001309D02*
X133564286Y-87858452D01*
X133564286Y-87858452D02*
X133611905Y-87667976D01*
X133611905Y-87667976D02*
X133659524Y-87572738D01*
X133659524Y-87572738D02*
X133754762Y-87477500D01*
X133754762Y-87477500D02*
X133897619Y-87429880D01*
X133897619Y-87429880D02*
X133992857Y-87429880D01*
X133992857Y-87429880D02*
X134135714Y-87477500D01*
X134135714Y-87477500D02*
X134183333Y-87525119D01*
X134659524Y-88429880D02*
X134850000Y-88429880D01*
X134850000Y-88429880D02*
X134945238Y-88382261D01*
X134945238Y-88382261D02*
X134992857Y-88334642D01*
X134992857Y-88334642D02*
X135088095Y-88191785D01*
X135088095Y-88191785D02*
X135135714Y-88001309D01*
X135135714Y-88001309D02*
X135135714Y-87620357D01*
X135135714Y-87620357D02*
X135088095Y-87525119D01*
X135088095Y-87525119D02*
X135040476Y-87477500D01*
X135040476Y-87477500D02*
X134945238Y-87429880D01*
X134945238Y-87429880D02*
X134754762Y-87429880D01*
X134754762Y-87429880D02*
X134659524Y-87477500D01*
X134659524Y-87477500D02*
X134611905Y-87525119D01*
X134611905Y-87525119D02*
X134564286Y-87620357D01*
X134564286Y-87620357D02*
X134564286Y-87858452D01*
X134564286Y-87858452D02*
X134611905Y-87953690D01*
X134611905Y-87953690D02*
X134659524Y-88001309D01*
X134659524Y-88001309D02*
X134754762Y-88048928D01*
X134754762Y-88048928D02*
X134945238Y-88048928D01*
X134945238Y-88048928D02*
X135040476Y-88001309D01*
X135040476Y-88001309D02*
X135088095Y-87953690D01*
X135088095Y-87953690D02*
X135135714Y-87858452D01*
%TO.C,Q1*%
X130967261Y-55412619D02*
X130872023Y-55365000D01*
X130872023Y-55365000D02*
X130776785Y-55269761D01*
X130776785Y-55269761D02*
X130633928Y-55126904D01*
X130633928Y-55126904D02*
X130538690Y-55079285D01*
X130538690Y-55079285D02*
X130443452Y-55079285D01*
X130491071Y-55317380D02*
X130395833Y-55269761D01*
X130395833Y-55269761D02*
X130300595Y-55174523D01*
X130300595Y-55174523D02*
X130252976Y-54984047D01*
X130252976Y-54984047D02*
X130252976Y-54650714D01*
X130252976Y-54650714D02*
X130300595Y-54460238D01*
X130300595Y-54460238D02*
X130395833Y-54365000D01*
X130395833Y-54365000D02*
X130491071Y-54317380D01*
X130491071Y-54317380D02*
X130681547Y-54317380D01*
X130681547Y-54317380D02*
X130776785Y-54365000D01*
X130776785Y-54365000D02*
X130872023Y-54460238D01*
X130872023Y-54460238D02*
X130919642Y-54650714D01*
X130919642Y-54650714D02*
X130919642Y-54984047D01*
X130919642Y-54984047D02*
X130872023Y-55174523D01*
X130872023Y-55174523D02*
X130776785Y-55269761D01*
X130776785Y-55269761D02*
X130681547Y-55317380D01*
X130681547Y-55317380D02*
X130491071Y-55317380D01*
X131872023Y-55317380D02*
X131300595Y-55317380D01*
X131586309Y-55317380D02*
X131586309Y-54317380D01*
X131586309Y-54317380D02*
X131491071Y-54460238D01*
X131491071Y-54460238D02*
X131395833Y-54555476D01*
X131395833Y-54555476D02*
X131300595Y-54603095D01*
%TO.C,C8*%
X134384142Y-92470266D02*
X134431761Y-92517885D01*
X134431761Y-92517885D02*
X134479380Y-92660742D01*
X134479380Y-92660742D02*
X134479380Y-92755980D01*
X134479380Y-92755980D02*
X134431761Y-92898837D01*
X134431761Y-92898837D02*
X134336523Y-92994075D01*
X134336523Y-92994075D02*
X134241285Y-93041694D01*
X134241285Y-93041694D02*
X134050809Y-93089313D01*
X134050809Y-93089313D02*
X133907952Y-93089313D01*
X133907952Y-93089313D02*
X133717476Y-93041694D01*
X133717476Y-93041694D02*
X133622238Y-92994075D01*
X133622238Y-92994075D02*
X133527000Y-92898837D01*
X133527000Y-92898837D02*
X133479380Y-92755980D01*
X133479380Y-92755980D02*
X133479380Y-92660742D01*
X133479380Y-92660742D02*
X133527000Y-92517885D01*
X133527000Y-92517885D02*
X133574619Y-92470266D01*
X133907952Y-91898837D02*
X133860333Y-91994075D01*
X133860333Y-91994075D02*
X133812714Y-92041694D01*
X133812714Y-92041694D02*
X133717476Y-92089313D01*
X133717476Y-92089313D02*
X133669857Y-92089313D01*
X133669857Y-92089313D02*
X133574619Y-92041694D01*
X133574619Y-92041694D02*
X133527000Y-91994075D01*
X133527000Y-91994075D02*
X133479380Y-91898837D01*
X133479380Y-91898837D02*
X133479380Y-91708361D01*
X133479380Y-91708361D02*
X133527000Y-91613123D01*
X133527000Y-91613123D02*
X133574619Y-91565504D01*
X133574619Y-91565504D02*
X133669857Y-91517885D01*
X133669857Y-91517885D02*
X133717476Y-91517885D01*
X133717476Y-91517885D02*
X133812714Y-91565504D01*
X133812714Y-91565504D02*
X133860333Y-91613123D01*
X133860333Y-91613123D02*
X133907952Y-91708361D01*
X133907952Y-91708361D02*
X133907952Y-91898837D01*
X133907952Y-91898837D02*
X133955571Y-91994075D01*
X133955571Y-91994075D02*
X134003190Y-92041694D01*
X134003190Y-92041694D02*
X134098428Y-92089313D01*
X134098428Y-92089313D02*
X134288904Y-92089313D01*
X134288904Y-92089313D02*
X134384142Y-92041694D01*
X134384142Y-92041694D02*
X134431761Y-91994075D01*
X134431761Y-91994075D02*
X134479380Y-91898837D01*
X134479380Y-91898837D02*
X134479380Y-91708361D01*
X134479380Y-91708361D02*
X134431761Y-91613123D01*
X134431761Y-91613123D02*
X134384142Y-91565504D01*
X134384142Y-91565504D02*
X134288904Y-91517885D01*
X134288904Y-91517885D02*
X134098428Y-91517885D01*
X134098428Y-91517885D02*
X134003190Y-91565504D01*
X134003190Y-91565504D02*
X133955571Y-91613123D01*
X133955571Y-91613123D02*
X133907952Y-91708361D01*
%TO.C,J4*%
X119199124Y-116253333D02*
X119913410Y-116253333D01*
X119913410Y-116253333D02*
X120056267Y-116300952D01*
X120056267Y-116300952D02*
X120151505Y-116396190D01*
X120151505Y-116396190D02*
X120199124Y-116539047D01*
X120199124Y-116539047D02*
X120199124Y-116634285D01*
X119532458Y-115348571D02*
X120199124Y-115348571D01*
X119151505Y-115586666D02*
X119865791Y-115824761D01*
X119865791Y-115824761D02*
X119865791Y-115205714D01*
%TO.C,R2*%
X95833333Y-55367380D02*
X95500000Y-54891190D01*
X95261905Y-55367380D02*
X95261905Y-54367380D01*
X95261905Y-54367380D02*
X95642857Y-54367380D01*
X95642857Y-54367380D02*
X95738095Y-54415000D01*
X95738095Y-54415000D02*
X95785714Y-54462619D01*
X95785714Y-54462619D02*
X95833333Y-54557857D01*
X95833333Y-54557857D02*
X95833333Y-54700714D01*
X95833333Y-54700714D02*
X95785714Y-54795952D01*
X95785714Y-54795952D02*
X95738095Y-54843571D01*
X95738095Y-54843571D02*
X95642857Y-54891190D01*
X95642857Y-54891190D02*
X95261905Y-54891190D01*
X96214286Y-54462619D02*
X96261905Y-54415000D01*
X96261905Y-54415000D02*
X96357143Y-54367380D01*
X96357143Y-54367380D02*
X96595238Y-54367380D01*
X96595238Y-54367380D02*
X96690476Y-54415000D01*
X96690476Y-54415000D02*
X96738095Y-54462619D01*
X96738095Y-54462619D02*
X96785714Y-54557857D01*
X96785714Y-54557857D02*
X96785714Y-54653095D01*
X96785714Y-54653095D02*
X96738095Y-54795952D01*
X96738095Y-54795952D02*
X96166667Y-55367380D01*
X96166667Y-55367380D02*
X96785714Y-55367380D01*
%TO.C,R9*%
X133745833Y-54017380D02*
X133412500Y-53541190D01*
X133174405Y-54017380D02*
X133174405Y-53017380D01*
X133174405Y-53017380D02*
X133555357Y-53017380D01*
X133555357Y-53017380D02*
X133650595Y-53065000D01*
X133650595Y-53065000D02*
X133698214Y-53112619D01*
X133698214Y-53112619D02*
X133745833Y-53207857D01*
X133745833Y-53207857D02*
X133745833Y-53350714D01*
X133745833Y-53350714D02*
X133698214Y-53445952D01*
X133698214Y-53445952D02*
X133650595Y-53493571D01*
X133650595Y-53493571D02*
X133555357Y-53541190D01*
X133555357Y-53541190D02*
X133174405Y-53541190D01*
X134222024Y-54017380D02*
X134412500Y-54017380D01*
X134412500Y-54017380D02*
X134507738Y-53969761D01*
X134507738Y-53969761D02*
X134555357Y-53922142D01*
X134555357Y-53922142D02*
X134650595Y-53779285D01*
X134650595Y-53779285D02*
X134698214Y-53588809D01*
X134698214Y-53588809D02*
X134698214Y-53207857D01*
X134698214Y-53207857D02*
X134650595Y-53112619D01*
X134650595Y-53112619D02*
X134602976Y-53065000D01*
X134602976Y-53065000D02*
X134507738Y-53017380D01*
X134507738Y-53017380D02*
X134317262Y-53017380D01*
X134317262Y-53017380D02*
X134222024Y-53065000D01*
X134222024Y-53065000D02*
X134174405Y-53112619D01*
X134174405Y-53112619D02*
X134126786Y-53207857D01*
X134126786Y-53207857D02*
X134126786Y-53445952D01*
X134126786Y-53445952D02*
X134174405Y-53541190D01*
X134174405Y-53541190D02*
X134222024Y-53588809D01*
X134222024Y-53588809D02*
X134317262Y-53636428D01*
X134317262Y-53636428D02*
X134507738Y-53636428D01*
X134507738Y-53636428D02*
X134602976Y-53588809D01*
X134602976Y-53588809D02*
X134650595Y-53541190D01*
X134650595Y-53541190D02*
X134698214Y-53445952D01*
%TO.C,R33*%
X178173142Y-78040580D02*
X177839809Y-77564390D01*
X177601714Y-78040580D02*
X177601714Y-77040580D01*
X177601714Y-77040580D02*
X177982666Y-77040580D01*
X177982666Y-77040580D02*
X178077904Y-77088200D01*
X178077904Y-77088200D02*
X178125523Y-77135819D01*
X178125523Y-77135819D02*
X178173142Y-77231057D01*
X178173142Y-77231057D02*
X178173142Y-77373914D01*
X178173142Y-77373914D02*
X178125523Y-77469152D01*
X178125523Y-77469152D02*
X178077904Y-77516771D01*
X178077904Y-77516771D02*
X177982666Y-77564390D01*
X177982666Y-77564390D02*
X177601714Y-77564390D01*
X178506476Y-77040580D02*
X179125523Y-77040580D01*
X179125523Y-77040580D02*
X178792190Y-77421533D01*
X178792190Y-77421533D02*
X178935047Y-77421533D01*
X178935047Y-77421533D02*
X179030285Y-77469152D01*
X179030285Y-77469152D02*
X179077904Y-77516771D01*
X179077904Y-77516771D02*
X179125523Y-77612009D01*
X179125523Y-77612009D02*
X179125523Y-77850104D01*
X179125523Y-77850104D02*
X179077904Y-77945342D01*
X179077904Y-77945342D02*
X179030285Y-77992961D01*
X179030285Y-77992961D02*
X178935047Y-78040580D01*
X178935047Y-78040580D02*
X178649333Y-78040580D01*
X178649333Y-78040580D02*
X178554095Y-77992961D01*
X178554095Y-77992961D02*
X178506476Y-77945342D01*
X179458857Y-77040580D02*
X180077904Y-77040580D01*
X180077904Y-77040580D02*
X179744571Y-77421533D01*
X179744571Y-77421533D02*
X179887428Y-77421533D01*
X179887428Y-77421533D02*
X179982666Y-77469152D01*
X179982666Y-77469152D02*
X180030285Y-77516771D01*
X180030285Y-77516771D02*
X180077904Y-77612009D01*
X180077904Y-77612009D02*
X180077904Y-77850104D01*
X180077904Y-77850104D02*
X180030285Y-77945342D01*
X180030285Y-77945342D02*
X179982666Y-77992961D01*
X179982666Y-77992961D02*
X179887428Y-78040580D01*
X179887428Y-78040580D02*
X179601714Y-78040580D01*
X179601714Y-78040580D02*
X179506476Y-77992961D01*
X179506476Y-77992961D02*
X179458857Y-77945342D01*
%TO.C,R46*%
X104252380Y-99905395D02*
X103776190Y-100238728D01*
X104252380Y-100476823D02*
X103252380Y-100476823D01*
X103252380Y-100476823D02*
X103252380Y-100095871D01*
X103252380Y-100095871D02*
X103300000Y-100000633D01*
X103300000Y-100000633D02*
X103347619Y-99953014D01*
X103347619Y-99953014D02*
X103442857Y-99905395D01*
X103442857Y-99905395D02*
X103585714Y-99905395D01*
X103585714Y-99905395D02*
X103680952Y-99953014D01*
X103680952Y-99953014D02*
X103728571Y-100000633D01*
X103728571Y-100000633D02*
X103776190Y-100095871D01*
X103776190Y-100095871D02*
X103776190Y-100476823D01*
X103585714Y-99048252D02*
X104252380Y-99048252D01*
X103204761Y-99286347D02*
X103919047Y-99524442D01*
X103919047Y-99524442D02*
X103919047Y-98905395D01*
X103252380Y-98095871D02*
X103252380Y-98286347D01*
X103252380Y-98286347D02*
X103300000Y-98381585D01*
X103300000Y-98381585D02*
X103347619Y-98429204D01*
X103347619Y-98429204D02*
X103490476Y-98524442D01*
X103490476Y-98524442D02*
X103680952Y-98572061D01*
X103680952Y-98572061D02*
X104061904Y-98572061D01*
X104061904Y-98572061D02*
X104157142Y-98524442D01*
X104157142Y-98524442D02*
X104204761Y-98476823D01*
X104204761Y-98476823D02*
X104252380Y-98381585D01*
X104252380Y-98381585D02*
X104252380Y-98191109D01*
X104252380Y-98191109D02*
X104204761Y-98095871D01*
X104204761Y-98095871D02*
X104157142Y-98048252D01*
X104157142Y-98048252D02*
X104061904Y-98000633D01*
X104061904Y-98000633D02*
X103823809Y-98000633D01*
X103823809Y-98000633D02*
X103728571Y-98048252D01*
X103728571Y-98048252D02*
X103680952Y-98095871D01*
X103680952Y-98095871D02*
X103633333Y-98191109D01*
X103633333Y-98191109D02*
X103633333Y-98381585D01*
X103633333Y-98381585D02*
X103680952Y-98476823D01*
X103680952Y-98476823D02*
X103728571Y-98524442D01*
X103728571Y-98524442D02*
X103823809Y-98572061D01*
%TO.C,R30*%
X151878380Y-70088357D02*
X151402190Y-70421690D01*
X151878380Y-70659785D02*
X150878380Y-70659785D01*
X150878380Y-70659785D02*
X150878380Y-70278833D01*
X150878380Y-70278833D02*
X150926000Y-70183595D01*
X150926000Y-70183595D02*
X150973619Y-70135976D01*
X150973619Y-70135976D02*
X151068857Y-70088357D01*
X151068857Y-70088357D02*
X151211714Y-70088357D01*
X151211714Y-70088357D02*
X151306952Y-70135976D01*
X151306952Y-70135976D02*
X151354571Y-70183595D01*
X151354571Y-70183595D02*
X151402190Y-70278833D01*
X151402190Y-70278833D02*
X151402190Y-70659785D01*
X150878380Y-69755023D02*
X150878380Y-69135976D01*
X150878380Y-69135976D02*
X151259333Y-69469309D01*
X151259333Y-69469309D02*
X151259333Y-69326452D01*
X151259333Y-69326452D02*
X151306952Y-69231214D01*
X151306952Y-69231214D02*
X151354571Y-69183595D01*
X151354571Y-69183595D02*
X151449809Y-69135976D01*
X151449809Y-69135976D02*
X151687904Y-69135976D01*
X151687904Y-69135976D02*
X151783142Y-69183595D01*
X151783142Y-69183595D02*
X151830761Y-69231214D01*
X151830761Y-69231214D02*
X151878380Y-69326452D01*
X151878380Y-69326452D02*
X151878380Y-69612166D01*
X151878380Y-69612166D02*
X151830761Y-69707404D01*
X151830761Y-69707404D02*
X151783142Y-69755023D01*
X150878380Y-68516928D02*
X150878380Y-68421690D01*
X150878380Y-68421690D02*
X150926000Y-68326452D01*
X150926000Y-68326452D02*
X150973619Y-68278833D01*
X150973619Y-68278833D02*
X151068857Y-68231214D01*
X151068857Y-68231214D02*
X151259333Y-68183595D01*
X151259333Y-68183595D02*
X151497428Y-68183595D01*
X151497428Y-68183595D02*
X151687904Y-68231214D01*
X151687904Y-68231214D02*
X151783142Y-68278833D01*
X151783142Y-68278833D02*
X151830761Y-68326452D01*
X151830761Y-68326452D02*
X151878380Y-68421690D01*
X151878380Y-68421690D02*
X151878380Y-68516928D01*
X151878380Y-68516928D02*
X151830761Y-68612166D01*
X151830761Y-68612166D02*
X151783142Y-68659785D01*
X151783142Y-68659785D02*
X151687904Y-68707404D01*
X151687904Y-68707404D02*
X151497428Y-68755023D01*
X151497428Y-68755023D02*
X151259333Y-68755023D01*
X151259333Y-68755023D02*
X151068857Y-68707404D01*
X151068857Y-68707404D02*
X150973619Y-68659785D01*
X150973619Y-68659785D02*
X150926000Y-68612166D01*
X150926000Y-68612166D02*
X150878380Y-68516928D01*
%TO.C,Q4*%
X145154761Y-111787543D02*
X145059523Y-111739924D01*
X145059523Y-111739924D02*
X144964285Y-111644685D01*
X144964285Y-111644685D02*
X144821428Y-111501828D01*
X144821428Y-111501828D02*
X144726190Y-111454209D01*
X144726190Y-111454209D02*
X144630952Y-111454209D01*
X144678571Y-111692304D02*
X144583333Y-111644685D01*
X144583333Y-111644685D02*
X144488095Y-111549447D01*
X144488095Y-111549447D02*
X144440476Y-111358971D01*
X144440476Y-111358971D02*
X144440476Y-111025638D01*
X144440476Y-111025638D02*
X144488095Y-110835162D01*
X144488095Y-110835162D02*
X144583333Y-110739924D01*
X144583333Y-110739924D02*
X144678571Y-110692304D01*
X144678571Y-110692304D02*
X144869047Y-110692304D01*
X144869047Y-110692304D02*
X144964285Y-110739924D01*
X144964285Y-110739924D02*
X145059523Y-110835162D01*
X145059523Y-110835162D02*
X145107142Y-111025638D01*
X145107142Y-111025638D02*
X145107142Y-111358971D01*
X145107142Y-111358971D02*
X145059523Y-111549447D01*
X145059523Y-111549447D02*
X144964285Y-111644685D01*
X144964285Y-111644685D02*
X144869047Y-111692304D01*
X144869047Y-111692304D02*
X144678571Y-111692304D01*
X145964285Y-111025638D02*
X145964285Y-111692304D01*
X145726190Y-110644685D02*
X145488095Y-111358971D01*
X145488095Y-111358971D02*
X146107142Y-111358971D01*
%TO.C,R16*%
X165357142Y-50367380D02*
X165023809Y-49891190D01*
X164785714Y-50367380D02*
X164785714Y-49367380D01*
X164785714Y-49367380D02*
X165166666Y-49367380D01*
X165166666Y-49367380D02*
X165261904Y-49415000D01*
X165261904Y-49415000D02*
X165309523Y-49462619D01*
X165309523Y-49462619D02*
X165357142Y-49557857D01*
X165357142Y-49557857D02*
X165357142Y-49700714D01*
X165357142Y-49700714D02*
X165309523Y-49795952D01*
X165309523Y-49795952D02*
X165261904Y-49843571D01*
X165261904Y-49843571D02*
X165166666Y-49891190D01*
X165166666Y-49891190D02*
X164785714Y-49891190D01*
X166309523Y-50367380D02*
X165738095Y-50367380D01*
X166023809Y-50367380D02*
X166023809Y-49367380D01*
X166023809Y-49367380D02*
X165928571Y-49510238D01*
X165928571Y-49510238D02*
X165833333Y-49605476D01*
X165833333Y-49605476D02*
X165738095Y-49653095D01*
X167166666Y-49367380D02*
X166976190Y-49367380D01*
X166976190Y-49367380D02*
X166880952Y-49415000D01*
X166880952Y-49415000D02*
X166833333Y-49462619D01*
X166833333Y-49462619D02*
X166738095Y-49605476D01*
X166738095Y-49605476D02*
X166690476Y-49795952D01*
X166690476Y-49795952D02*
X166690476Y-50176904D01*
X166690476Y-50176904D02*
X166738095Y-50272142D01*
X166738095Y-50272142D02*
X166785714Y-50319761D01*
X166785714Y-50319761D02*
X166880952Y-50367380D01*
X166880952Y-50367380D02*
X167071428Y-50367380D01*
X167071428Y-50367380D02*
X167166666Y-50319761D01*
X167166666Y-50319761D02*
X167214285Y-50272142D01*
X167214285Y-50272142D02*
X167261904Y-50176904D01*
X167261904Y-50176904D02*
X167261904Y-49938809D01*
X167261904Y-49938809D02*
X167214285Y-49843571D01*
X167214285Y-49843571D02*
X167166666Y-49795952D01*
X167166666Y-49795952D02*
X167071428Y-49748333D01*
X167071428Y-49748333D02*
X166880952Y-49748333D01*
X166880952Y-49748333D02*
X166785714Y-49795952D01*
X166785714Y-49795952D02*
X166738095Y-49843571D01*
X166738095Y-49843571D02*
X166690476Y-49938809D01*
%TO.C,R12*%
X150182142Y-55367380D02*
X149848809Y-54891190D01*
X149610714Y-55367380D02*
X149610714Y-54367380D01*
X149610714Y-54367380D02*
X149991666Y-54367380D01*
X149991666Y-54367380D02*
X150086904Y-54415000D01*
X150086904Y-54415000D02*
X150134523Y-54462619D01*
X150134523Y-54462619D02*
X150182142Y-54557857D01*
X150182142Y-54557857D02*
X150182142Y-54700714D01*
X150182142Y-54700714D02*
X150134523Y-54795952D01*
X150134523Y-54795952D02*
X150086904Y-54843571D01*
X150086904Y-54843571D02*
X149991666Y-54891190D01*
X149991666Y-54891190D02*
X149610714Y-54891190D01*
X151134523Y-55367380D02*
X150563095Y-55367380D01*
X150848809Y-55367380D02*
X150848809Y-54367380D01*
X150848809Y-54367380D02*
X150753571Y-54510238D01*
X150753571Y-54510238D02*
X150658333Y-54605476D01*
X150658333Y-54605476D02*
X150563095Y-54653095D01*
X151515476Y-54462619D02*
X151563095Y-54415000D01*
X151563095Y-54415000D02*
X151658333Y-54367380D01*
X151658333Y-54367380D02*
X151896428Y-54367380D01*
X151896428Y-54367380D02*
X151991666Y-54415000D01*
X151991666Y-54415000D02*
X152039285Y-54462619D01*
X152039285Y-54462619D02*
X152086904Y-54557857D01*
X152086904Y-54557857D02*
X152086904Y-54653095D01*
X152086904Y-54653095D02*
X152039285Y-54795952D01*
X152039285Y-54795952D02*
X151467857Y-55367380D01*
X151467857Y-55367380D02*
X152086904Y-55367380D01*
%TO.C,R27*%
X145910380Y-70031857D02*
X145434190Y-70365190D01*
X145910380Y-70603285D02*
X144910380Y-70603285D01*
X144910380Y-70603285D02*
X144910380Y-70222333D01*
X144910380Y-70222333D02*
X144958000Y-70127095D01*
X144958000Y-70127095D02*
X145005619Y-70079476D01*
X145005619Y-70079476D02*
X145100857Y-70031857D01*
X145100857Y-70031857D02*
X145243714Y-70031857D01*
X145243714Y-70031857D02*
X145338952Y-70079476D01*
X145338952Y-70079476D02*
X145386571Y-70127095D01*
X145386571Y-70127095D02*
X145434190Y-70222333D01*
X145434190Y-70222333D02*
X145434190Y-70603285D01*
X145005619Y-69650904D02*
X144958000Y-69603285D01*
X144958000Y-69603285D02*
X144910380Y-69508047D01*
X144910380Y-69508047D02*
X144910380Y-69269952D01*
X144910380Y-69269952D02*
X144958000Y-69174714D01*
X144958000Y-69174714D02*
X145005619Y-69127095D01*
X145005619Y-69127095D02*
X145100857Y-69079476D01*
X145100857Y-69079476D02*
X145196095Y-69079476D01*
X145196095Y-69079476D02*
X145338952Y-69127095D01*
X145338952Y-69127095D02*
X145910380Y-69698523D01*
X145910380Y-69698523D02*
X145910380Y-69079476D01*
X144910380Y-68746142D02*
X144910380Y-68079476D01*
X144910380Y-68079476D02*
X145910380Y-68508047D01*
%TO.C,R42*%
X149494642Y-107442304D02*
X149161309Y-106966114D01*
X148923214Y-107442304D02*
X148923214Y-106442304D01*
X148923214Y-106442304D02*
X149304166Y-106442304D01*
X149304166Y-106442304D02*
X149399404Y-106489924D01*
X149399404Y-106489924D02*
X149447023Y-106537543D01*
X149447023Y-106537543D02*
X149494642Y-106632781D01*
X149494642Y-106632781D02*
X149494642Y-106775638D01*
X149494642Y-106775638D02*
X149447023Y-106870876D01*
X149447023Y-106870876D02*
X149399404Y-106918495D01*
X149399404Y-106918495D02*
X149304166Y-106966114D01*
X149304166Y-106966114D02*
X148923214Y-106966114D01*
X150351785Y-106775638D02*
X150351785Y-107442304D01*
X150113690Y-106394685D02*
X149875595Y-107108971D01*
X149875595Y-107108971D02*
X150494642Y-107108971D01*
X150827976Y-106537543D02*
X150875595Y-106489924D01*
X150875595Y-106489924D02*
X150970833Y-106442304D01*
X150970833Y-106442304D02*
X151208928Y-106442304D01*
X151208928Y-106442304D02*
X151304166Y-106489924D01*
X151304166Y-106489924D02*
X151351785Y-106537543D01*
X151351785Y-106537543D02*
X151399404Y-106632781D01*
X151399404Y-106632781D02*
X151399404Y-106728019D01*
X151399404Y-106728019D02*
X151351785Y-106870876D01*
X151351785Y-106870876D02*
X150780357Y-107442304D01*
X150780357Y-107442304D02*
X151399404Y-107442304D01*
%TO.C,J9*%
X98717380Y-65283333D02*
X99431666Y-65283333D01*
X99431666Y-65283333D02*
X99574523Y-65330952D01*
X99574523Y-65330952D02*
X99669761Y-65426190D01*
X99669761Y-65426190D02*
X99717380Y-65569047D01*
X99717380Y-65569047D02*
X99717380Y-65664285D01*
X99717380Y-64759523D02*
X99717380Y-64569047D01*
X99717380Y-64569047D02*
X99669761Y-64473809D01*
X99669761Y-64473809D02*
X99622142Y-64426190D01*
X99622142Y-64426190D02*
X99479285Y-64330952D01*
X99479285Y-64330952D02*
X99288809Y-64283333D01*
X99288809Y-64283333D02*
X98907857Y-64283333D01*
X98907857Y-64283333D02*
X98812619Y-64330952D01*
X98812619Y-64330952D02*
X98765000Y-64378571D01*
X98765000Y-64378571D02*
X98717380Y-64473809D01*
X98717380Y-64473809D02*
X98717380Y-64664285D01*
X98717380Y-64664285D02*
X98765000Y-64759523D01*
X98765000Y-64759523D02*
X98812619Y-64807142D01*
X98812619Y-64807142D02*
X98907857Y-64854761D01*
X98907857Y-64854761D02*
X99145952Y-64854761D01*
X99145952Y-64854761D02*
X99241190Y-64807142D01*
X99241190Y-64807142D02*
X99288809Y-64759523D01*
X99288809Y-64759523D02*
X99336428Y-64664285D01*
X99336428Y-64664285D02*
X99336428Y-64473809D01*
X99336428Y-64473809D02*
X99288809Y-64378571D01*
X99288809Y-64378571D02*
X99241190Y-64330952D01*
X99241190Y-64330952D02*
X99145952Y-64283333D01*
%TO.C,J3*%
X112466666Y-92829880D02*
X112466666Y-93544166D01*
X112466666Y-93544166D02*
X112419047Y-93687023D01*
X112419047Y-93687023D02*
X112323809Y-93782261D01*
X112323809Y-93782261D02*
X112180952Y-93829880D01*
X112180952Y-93829880D02*
X112085714Y-93829880D01*
X112847619Y-92829880D02*
X113466666Y-92829880D01*
X113466666Y-92829880D02*
X113133333Y-93210833D01*
X113133333Y-93210833D02*
X113276190Y-93210833D01*
X113276190Y-93210833D02*
X113371428Y-93258452D01*
X113371428Y-93258452D02*
X113419047Y-93306071D01*
X113419047Y-93306071D02*
X113466666Y-93401309D01*
X113466666Y-93401309D02*
X113466666Y-93639404D01*
X113466666Y-93639404D02*
X113419047Y-93734642D01*
X113419047Y-93734642D02*
X113371428Y-93782261D01*
X113371428Y-93782261D02*
X113276190Y-93829880D01*
X113276190Y-93829880D02*
X112990476Y-93829880D01*
X112990476Y-93829880D02*
X112895238Y-93782261D01*
X112895238Y-93782261D02*
X112847619Y-93734642D01*
%TO.C,R44*%
X105779642Y-96317380D02*
X105446309Y-95841190D01*
X105208214Y-96317380D02*
X105208214Y-95317380D01*
X105208214Y-95317380D02*
X105589166Y-95317380D01*
X105589166Y-95317380D02*
X105684404Y-95365000D01*
X105684404Y-95365000D02*
X105732023Y-95412619D01*
X105732023Y-95412619D02*
X105779642Y-95507857D01*
X105779642Y-95507857D02*
X105779642Y-95650714D01*
X105779642Y-95650714D02*
X105732023Y-95745952D01*
X105732023Y-95745952D02*
X105684404Y-95793571D01*
X105684404Y-95793571D02*
X105589166Y-95841190D01*
X105589166Y-95841190D02*
X105208214Y-95841190D01*
X106636785Y-95650714D02*
X106636785Y-96317380D01*
X106398690Y-95269761D02*
X106160595Y-95984047D01*
X106160595Y-95984047D02*
X106779642Y-95984047D01*
X107589166Y-95650714D02*
X107589166Y-96317380D01*
X107351071Y-95269761D02*
X107112976Y-95984047D01*
X107112976Y-95984047D02*
X107732023Y-95984047D01*
%TO.C,R7*%
X182367380Y-56166666D02*
X181891190Y-56499999D01*
X182367380Y-56738094D02*
X181367380Y-56738094D01*
X181367380Y-56738094D02*
X181367380Y-56357142D01*
X181367380Y-56357142D02*
X181415000Y-56261904D01*
X181415000Y-56261904D02*
X181462619Y-56214285D01*
X181462619Y-56214285D02*
X181557857Y-56166666D01*
X181557857Y-56166666D02*
X181700714Y-56166666D01*
X181700714Y-56166666D02*
X181795952Y-56214285D01*
X181795952Y-56214285D02*
X181843571Y-56261904D01*
X181843571Y-56261904D02*
X181891190Y-56357142D01*
X181891190Y-56357142D02*
X181891190Y-56738094D01*
X181367380Y-55833332D02*
X181367380Y-55166666D01*
X181367380Y-55166666D02*
X182367380Y-55595237D01*
%TO.C,U1*%
X101238095Y-48367380D02*
X101238095Y-49176904D01*
X101238095Y-49176904D02*
X101285714Y-49272142D01*
X101285714Y-49272142D02*
X101333333Y-49319761D01*
X101333333Y-49319761D02*
X101428571Y-49367380D01*
X101428571Y-49367380D02*
X101619047Y-49367380D01*
X101619047Y-49367380D02*
X101714285Y-49319761D01*
X101714285Y-49319761D02*
X101761904Y-49272142D01*
X101761904Y-49272142D02*
X101809523Y-49176904D01*
X101809523Y-49176904D02*
X101809523Y-48367380D01*
X102809523Y-49367380D02*
X102238095Y-49367380D01*
X102523809Y-49367380D02*
X102523809Y-48367380D01*
X102523809Y-48367380D02*
X102428571Y-48510238D01*
X102428571Y-48510238D02*
X102333333Y-48605476D01*
X102333333Y-48605476D02*
X102238095Y-48653095D01*
%TO.C,C2*%
X177923503Y-46272142D02*
X177875884Y-46319761D01*
X177875884Y-46319761D02*
X177733027Y-46367380D01*
X177733027Y-46367380D02*
X177637789Y-46367380D01*
X177637789Y-46367380D02*
X177494932Y-46319761D01*
X177494932Y-46319761D02*
X177399694Y-46224523D01*
X177399694Y-46224523D02*
X177352075Y-46129285D01*
X177352075Y-46129285D02*
X177304456Y-45938809D01*
X177304456Y-45938809D02*
X177304456Y-45795952D01*
X177304456Y-45795952D02*
X177352075Y-45605476D01*
X177352075Y-45605476D02*
X177399694Y-45510238D01*
X177399694Y-45510238D02*
X177494932Y-45415000D01*
X177494932Y-45415000D02*
X177637789Y-45367380D01*
X177637789Y-45367380D02*
X177733027Y-45367380D01*
X177733027Y-45367380D02*
X177875884Y-45415000D01*
X177875884Y-45415000D02*
X177923503Y-45462619D01*
X178304456Y-45462619D02*
X178352075Y-45415000D01*
X178352075Y-45415000D02*
X178447313Y-45367380D01*
X178447313Y-45367380D02*
X178685408Y-45367380D01*
X178685408Y-45367380D02*
X178780646Y-45415000D01*
X178780646Y-45415000D02*
X178828265Y-45462619D01*
X178828265Y-45462619D02*
X178875884Y-45557857D01*
X178875884Y-45557857D02*
X178875884Y-45653095D01*
X178875884Y-45653095D02*
X178828265Y-45795952D01*
X178828265Y-45795952D02*
X178256837Y-46367380D01*
X178256837Y-46367380D02*
X178875884Y-46367380D01*
%TO.C,J13*%
X141512380Y-100059485D02*
X142226666Y-100059485D01*
X142226666Y-100059485D02*
X142369523Y-100107104D01*
X142369523Y-100107104D02*
X142464761Y-100202342D01*
X142464761Y-100202342D02*
X142512380Y-100345199D01*
X142512380Y-100345199D02*
X142512380Y-100440437D01*
X142512380Y-99059485D02*
X142512380Y-99630913D01*
X142512380Y-99345199D02*
X141512380Y-99345199D01*
X141512380Y-99345199D02*
X141655238Y-99440437D01*
X141655238Y-99440437D02*
X141750476Y-99535675D01*
X141750476Y-99535675D02*
X141798095Y-99630913D01*
X141512380Y-98726151D02*
X141512380Y-98107104D01*
X141512380Y-98107104D02*
X141893333Y-98440437D01*
X141893333Y-98440437D02*
X141893333Y-98297580D01*
X141893333Y-98297580D02*
X141940952Y-98202342D01*
X141940952Y-98202342D02*
X141988571Y-98154723D01*
X141988571Y-98154723D02*
X142083809Y-98107104D01*
X142083809Y-98107104D02*
X142321904Y-98107104D01*
X142321904Y-98107104D02*
X142417142Y-98154723D01*
X142417142Y-98154723D02*
X142464761Y-98202342D01*
X142464761Y-98202342D02*
X142512380Y-98297580D01*
X142512380Y-98297580D02*
X142512380Y-98583294D01*
X142512380Y-98583294D02*
X142464761Y-98678532D01*
X142464761Y-98678532D02*
X142417142Y-98726151D01*
D11*
%TO.C,Q3*%
X159499223Y-57301587D02*
G75*
G03*
X159499223Y-57301587I-29997J0D01*
G01*
D12*
X161555205Y-55401587D02*
X162419213Y-55401587D01*
X162419213Y-55401587D02*
X162419213Y-56401612D01*
X160605243Y-56801587D02*
X161233183Y-56801587D01*
X159419213Y-55401587D02*
X160283221Y-55401587D01*
X159419213Y-55401587D02*
X159419213Y-56401612D01*
D11*
%TO.C,D3*%
X157568970Y-50737213D02*
G75*
G03*
X157568970Y-50737213I-29998J0D01*
G01*
D12*
X158385175Y-49187200D02*
X160185175Y-49187200D01*
X158407070Y-50787200D02*
X160163280Y-50787200D01*
D13*
X159158175Y-49987200D02*
X159640776Y-49504599D01*
X159640776Y-49504599D02*
X159640776Y-50469801D01*
X159640776Y-50469801D02*
X159183575Y-50012600D01*
X159056575Y-49402999D02*
X159056575Y-50520601D01*
X158675574Y-49987200D02*
X159970976Y-49987200D01*
D11*
%TO.C,Q2*%
X142370784Y-57548374D02*
G75*
G03*
X142370784Y-57548374I-29997J0D01*
G01*
D12*
X140440787Y-55462395D02*
X140440787Y-54598387D01*
X140440787Y-54598387D02*
X141440812Y-54598387D01*
X141840787Y-56412357D02*
X141840787Y-55784417D01*
X140440787Y-57598387D02*
X140440787Y-56734379D01*
X140440787Y-57598387D02*
X141440812Y-57598387D01*
%TO.C,C15*%
X163478643Y-71102293D02*
G75*
G03*
X163168813Y-70792463I-309830J0D01*
G01*
X162368838Y-70792464D02*
G75*
G03*
X162058984Y-71102293I-25J-309829D01*
G01*
X163162972Y-73587993D02*
G75*
G03*
X163472827Y-73278163I25J309830D01*
G01*
X162053167Y-73278163D02*
G75*
G03*
X162362997Y-73587993I309830J0D01*
G01*
D11*
X162393121Y-71397873D02*
G75*
G03*
X162393121Y-71397873I-29972J0D01*
G01*
D12*
X163162971Y-73587993D02*
X162362946Y-73587993D01*
X163472827Y-72478239D02*
X163472827Y-73278214D01*
X162053167Y-72478239D02*
X162053167Y-73278214D01*
X163478643Y-71902344D02*
X163478643Y-71102344D01*
X163168813Y-70792514D02*
X162368839Y-70792514D01*
X162059034Y-71902344D02*
X162059034Y-71102344D01*
D11*
%TO.C,LED2*%
X113973864Y-48631095D02*
G75*
G03*
X113973864Y-48631095I-29972J0D01*
G01*
D12*
X114500661Y-46988728D02*
X112951258Y-46988728D01*
X112951258Y-46988728D02*
X112951258Y-49020732D01*
X112951258Y-49020732D02*
X114500661Y-49020732D01*
X115288063Y-46963328D02*
X116761266Y-46963328D01*
X116761266Y-46963328D02*
X117167666Y-47369729D01*
X117167666Y-47369729D02*
X117167666Y-48639731D01*
X117167666Y-48639731D02*
X116786666Y-49020732D01*
X116786666Y-49020732D02*
X115262663Y-49020732D01*
X114743892Y-48506000D02*
X114743892Y-47505746D01*
X114843816Y-48006000D02*
X115112802Y-48006000D01*
%TO.C,U4*%
X120049796Y-102493539D02*
G75*
G03*
X120049796Y-102493539I-127000J0D01*
G01*
D11*
X120330797Y-101998543D02*
G75*
G03*
X120330797Y-101998543I-29997J0D01*
G01*
D14*
X121143777Y-101998543D02*
X120303797Y-101998543D01*
X120303797Y-101998543D02*
X120303797Y-102043399D01*
X123097803Y-106798543D02*
X123097803Y-106753686D01*
X121143777Y-106798543D02*
X120303797Y-106798543D01*
X120303797Y-106798543D02*
X120303797Y-106753686D01*
X122257798Y-106798543D02*
X123097803Y-106798543D01*
X122257823Y-101998543D02*
X123097803Y-101998543D01*
X123097803Y-101998543D02*
X123097803Y-102043399D01*
X121700800Y-106798543D02*
X122257798Y-106798543D01*
X121700800Y-106798543D02*
X121143777Y-106798543D01*
X121700800Y-101998543D02*
X121143777Y-101998543D01*
X121700800Y-101998543D02*
X122257823Y-101998543D01*
D12*
%TO.C,C7*%
X126474293Y-106624957D02*
G75*
G03*
X126164463Y-106934787I0J-309830D01*
G01*
X126164464Y-107734762D02*
G75*
G03*
X126474293Y-108044616I309829J-25D01*
G01*
X128959993Y-106940628D02*
G75*
G03*
X128650163Y-106630773I-309830J25D01*
G01*
X128650163Y-108050433D02*
G75*
G03*
X128959993Y-107740603I0J309830D01*
G01*
D11*
X126799845Y-107740451D02*
G75*
G03*
X126799845Y-107740451I-29972J0D01*
G01*
D12*
X128959993Y-106940629D02*
X128959993Y-107740654D01*
X127850239Y-106630773D02*
X128650214Y-106630773D01*
X127850239Y-108050433D02*
X128650214Y-108050433D01*
X127274344Y-106624957D02*
X126474344Y-106624957D01*
X126164514Y-106934787D02*
X126164514Y-107734761D01*
X127274344Y-108044566D02*
X126474344Y-108044566D01*
D15*
%TO.C,R1*%
X176314564Y-57735000D02*
X175860436Y-57735000D01*
X176314564Y-56265000D02*
X175860436Y-56265000D01*
%TO.C,J10*%
X103330000Y-81280000D02*
X161810000Y-81280000D01*
X103330000Y-81280000D02*
X103330000Y-78620000D01*
X161810000Y-81280000D02*
X161810000Y-78620000D01*
X100730000Y-79950000D02*
X100730000Y-78620000D01*
X100730000Y-78620000D02*
X102060000Y-78620000D01*
X103330000Y-78620000D02*
X161810000Y-78620000D01*
%TO.C,J12*%
X142580000Y-115254924D02*
X142580000Y-113924924D01*
X143910000Y-115254924D02*
X142580000Y-115254924D01*
X145180000Y-115254924D02*
X147780000Y-115254924D01*
X145180000Y-115254924D02*
X145180000Y-112594924D01*
X147780000Y-115254924D02*
X147780000Y-112594924D01*
X145180000Y-112594924D02*
X147780000Y-112594924D01*
%TO.C,U2*%
X176000000Y-50440000D02*
X174200000Y-50440000D01*
X176000000Y-50440000D02*
X176800000Y-50440000D01*
X176000000Y-53560000D02*
X175200000Y-53560000D01*
X176000000Y-53560000D02*
X176800000Y-53560000D01*
%TO.C,R51*%
X97149564Y-110735000D02*
X96695436Y-110735000D01*
X97149564Y-109265000D02*
X96695436Y-109265000D01*
%TO.C,R19*%
X119785000Y-95272936D02*
X119785000Y-95727064D01*
X118315000Y-95272936D02*
X118315000Y-95727064D01*
%TO.C,R36*%
X140110436Y-108989924D02*
X140564564Y-108989924D01*
X140110436Y-110459924D02*
X140564564Y-110459924D01*
%TO.C,R22*%
X117356308Y-112355000D02*
X116902180Y-112355000D01*
X117356308Y-110885000D02*
X116902180Y-110885000D01*
%TO.C,R50*%
X96849564Y-96035000D02*
X96395436Y-96035000D01*
X96849564Y-94565000D02*
X96395436Y-94565000D01*
D16*
%TO.C,Y1*%
X131806970Y-75311005D02*
X131791959Y-73560408D01*
X131806970Y-75311005D02*
X131791959Y-73560408D01*
X131806970Y-70484995D02*
X120376948Y-70484995D01*
X131806970Y-70484995D02*
X120376948Y-70484995D01*
X131791959Y-72235592D02*
X131806970Y-70484995D01*
X131791959Y-72235592D02*
X131806970Y-70484995D01*
X120391959Y-73560408D02*
X120376948Y-75311005D01*
X120391959Y-73560408D02*
X120376948Y-75311005D01*
X120376948Y-75311005D02*
X131806970Y-75311005D01*
X120376948Y-75311005D02*
X131806970Y-75311005D01*
X120376948Y-70484995D02*
X120391959Y-72235592D01*
X120376948Y-70484995D02*
X120391959Y-72235592D01*
D11*
X132462038Y-70497949D02*
G75*
G03*
X132462038Y-70497949I-29972J0D01*
G01*
D16*
%TO.C,U6*%
X148233172Y-76821209D02*
X148233172Y-71768783D01*
X151275996Y-76821209D02*
X148233172Y-76821209D01*
X148233172Y-71768783D02*
X151275996Y-71768783D01*
X151275996Y-71768783D02*
X151275996Y-76821209D01*
D17*
X152677114Y-76946507D02*
G75*
G03*
X152677114Y-76946507I-150114J0D01*
G01*
D11*
X152784556Y-76745085D02*
G75*
G03*
X152784556Y-76745085I-29972J0D01*
G01*
D17*
X150673812Y-76200000D02*
G75*
G03*
X150673812Y-76200000I-150114J0D01*
G01*
D16*
%TO.C,Q5*%
X146076213Y-95376175D02*
X146076213Y-94344552D01*
X146076213Y-92323749D02*
X146076213Y-93355372D01*
X144623787Y-95376175D02*
X146076213Y-95376175D01*
X144623787Y-94305360D02*
X144623787Y-93394564D01*
X144623787Y-92323749D02*
X146076213Y-92323749D01*
D11*
X144179997Y-92399949D02*
G75*
G03*
X144179997Y-92399949I-29997J0D01*
G01*
D15*
%TO.C,R8*%
X107314564Y-51735000D02*
X106860436Y-51735000D01*
X107314564Y-50265000D02*
X106860436Y-50265000D01*
D16*
%TO.C,C11*%
X117845207Y-74877602D02*
X116342793Y-74877602D01*
X116190393Y-74725201D02*
X116190393Y-73315194D01*
X117997607Y-73315194D02*
X117997607Y-74725201D01*
X117997607Y-72512806D02*
X117997607Y-71102799D01*
X116190393Y-71102799D02*
X116190393Y-72512806D01*
X117845207Y-70950398D02*
X116342793Y-70950398D01*
X116190392Y-74725201D02*
G75*
G03*
X116342793Y-74877602I152400J-1D01*
G01*
X117845207Y-74877601D02*
G75*
G03*
X117997607Y-74725201I0J152400D01*
G01*
X116342793Y-70950393D02*
G75*
G03*
X116190393Y-71102799I7J-152407D01*
G01*
X117997602Y-71102799D02*
G75*
G03*
X117845207Y-70950398I-152402J-1D01*
G01*
D11*
X117749067Y-73914000D02*
G75*
G03*
X117749067Y-73914000I-29972J0D01*
G01*
D15*
%TO.C,J7*%
X177670000Y-64210000D02*
X177670000Y-64330000D01*
X177670000Y-64330000D02*
X180330000Y-64330000D01*
X179000000Y-61670000D02*
X180330000Y-61670000D01*
X180330000Y-61670000D02*
X180330000Y-63000000D01*
X180330000Y-64210000D02*
X180330000Y-64330000D01*
%TO.C,R32*%
X174321800Y-75258664D02*
X174321800Y-74804536D01*
X175791800Y-75258664D02*
X175791800Y-74804536D01*
%TO.C,R45*%
X106949564Y-109735000D02*
X106495436Y-109735000D01*
X106949564Y-108265000D02*
X106495436Y-108265000D01*
%TO.C,J2*%
X124670000Y-46270000D02*
X124670000Y-48870000D01*
X124670000Y-46270000D02*
X127330000Y-46270000D01*
X124670000Y-48870000D02*
X127330000Y-48870000D01*
X126000000Y-43670000D02*
X127330000Y-43670000D01*
X127330000Y-43670000D02*
X127330000Y-45000000D01*
X127330000Y-46270000D02*
X127330000Y-48870000D01*
D16*
%TO.C,D1*%
X127851207Y-52726213D02*
X126098755Y-52726213D01*
X127851207Y-51273787D02*
X126098755Y-51273787D01*
X127446761Y-52726213D02*
X127446761Y-51273787D01*
D14*
X126098755Y-52726213D02*
X126098755Y-52529997D01*
X126098755Y-51273787D02*
X126098755Y-51480010D01*
D11*
X128254965Y-51349987D02*
G75*
G03*
X128254965Y-51349987I-29997J0D01*
G01*
D16*
%TO.C,C12*%
X167036398Y-64454407D02*
X167036398Y-62951993D01*
X167188799Y-62799593D02*
X168598806Y-62799593D01*
X168598806Y-64606807D02*
X167188799Y-64606807D01*
X169401194Y-64606807D02*
X170811201Y-64606807D01*
X170811201Y-62799593D02*
X169401194Y-62799593D01*
X170963602Y-64454407D02*
X170963602Y-62951993D01*
X167188799Y-62799592D02*
G75*
G03*
X167036398Y-62951993I-1J-152400D01*
G01*
X167036399Y-64454407D02*
G75*
G03*
X167188799Y-64606807I152400J0D01*
G01*
X170963607Y-62951993D02*
G75*
G03*
X170811201Y-62799593I-152407J-7D01*
G01*
X170811201Y-64606802D02*
G75*
G03*
X170963602Y-64454407I-1J152402D01*
G01*
D11*
X168029972Y-64328295D02*
G75*
G03*
X168029972Y-64328295I-29972J0D01*
G01*
D15*
%TO.C,R3*%
X108314564Y-45735000D02*
X107860436Y-45735000D01*
X108314564Y-44265000D02*
X107860436Y-44265000D01*
%TO.C,R49*%
X99675000Y-114139564D02*
X99675000Y-113685436D01*
X101145000Y-114139564D02*
X101145000Y-113685436D01*
D18*
%TO.C,LED1*%
X113710922Y-44549098D02*
X114010871Y-44249149D01*
X113710922Y-44649251D02*
X113710922Y-44549098D01*
X113710922Y-44649251D02*
X113710922Y-45349200D01*
X113710922Y-45349200D02*
X113710922Y-45449225D01*
X113710922Y-45449225D02*
X114010871Y-45749276D01*
X115060985Y-44249149D02*
X114010871Y-44249149D01*
X115060985Y-45749276D02*
X114010871Y-45749276D01*
X115410998Y-45326949D02*
X115080950Y-44996901D01*
X115420955Y-44646914D02*
X115420955Y-44656896D01*
X115420955Y-44646914D02*
X115420955Y-45326949D01*
X115420955Y-44656896D02*
X115080950Y-44996901D01*
X115420955Y-44996901D02*
X115080950Y-44996901D01*
X115420955Y-45326949D02*
X115410998Y-45326949D01*
X115440995Y-44246838D02*
X116591008Y-44246838D01*
X115440995Y-45746965D02*
X116591008Y-45746965D01*
X116591008Y-44246939D02*
X116591008Y-45726873D01*
D11*
X114431038Y-45406909D02*
G75*
G03*
X114431038Y-45406909I-29972J0D01*
G01*
D15*
%TO.C,R13*%
X153265000Y-50314564D02*
X153265000Y-49860436D01*
X154735000Y-50314564D02*
X154735000Y-49860436D01*
%TO.C,R39*%
X142085000Y-89660360D02*
X142085000Y-90114488D01*
X140615000Y-89660360D02*
X140615000Y-90114488D01*
D16*
%TO.C,Q7*%
X101083787Y-108473787D02*
X101083787Y-109505410D01*
X101083787Y-111526213D02*
X101083787Y-110494590D01*
X102536213Y-108473787D02*
X101083787Y-108473787D01*
X102536213Y-109544602D02*
X102536213Y-110455398D01*
X102536213Y-111526213D02*
X101083787Y-111526213D01*
D11*
X103039997Y-111450013D02*
G75*
G03*
X103039997Y-111450013I-29997J0D01*
G01*
D15*
%TO.C,R31*%
X173685436Y-63265000D02*
X174139564Y-63265000D01*
X173685436Y-64735000D02*
X174139564Y-64735000D01*
%TO.C,J14*%
X104180000Y-88770000D02*
X104180000Y-90100000D01*
X102850000Y-88770000D02*
X104180000Y-88770000D01*
X101580000Y-88770000D02*
X98980000Y-88770000D01*
X101580000Y-88770000D02*
X101580000Y-91430000D01*
X98980000Y-88770000D02*
X98980000Y-91430000D01*
X101580000Y-91430000D02*
X98980000Y-91430000D01*
%TO.C,R38*%
X141985000Y-104585360D02*
X141985000Y-105039488D01*
X140515000Y-104585360D02*
X140515000Y-105039488D01*
%TO.C,R15*%
X165772936Y-41265000D02*
X166227064Y-41265000D01*
X165772936Y-42735000D02*
X166227064Y-42735000D01*
D10*
%TO.C,BT1*%
X185269100Y-40512400D02*
X185269100Y-33502000D01*
X185269100Y-19887600D02*
X185269100Y-26898000D01*
D19*
X176750000Y-30174600D02*
X171750000Y-30174600D01*
X174250000Y-27700000D02*
X174250000Y-32700000D01*
D10*
X108230900Y-40525100D02*
X108230900Y-33540100D01*
X108230900Y-26847200D02*
X108230900Y-19874900D01*
X108225000Y-40525000D02*
X185275000Y-40525000D01*
X108225000Y-19875000D02*
X185275000Y-19875000D01*
D16*
%TO.C,C3*%
X172286208Y-48346203D02*
X172286208Y-47653797D01*
X172438608Y-47501397D02*
X173228702Y-47501397D01*
X173228702Y-48498603D02*
X172438608Y-48498603D01*
X173681128Y-48498603D02*
X174471222Y-48498603D01*
X174471222Y-47501397D02*
X173681128Y-47501397D01*
X174623622Y-48346203D02*
X174623622Y-47653797D01*
X172438608Y-47501397D02*
G75*
G03*
X172286208Y-47653797I0J-152400D01*
G01*
X172286208Y-48346203D02*
G75*
G03*
X172438608Y-48498603I152400J0D01*
G01*
X174623618Y-47653797D02*
G75*
G03*
X174471222Y-47501397I-152403J-3D01*
G01*
X174471222Y-48498607D02*
G75*
G03*
X174623622Y-48346203I-7J152407D01*
G01*
D11*
X172984912Y-48250013D02*
G75*
G03*
X172984912Y-48250013I-29997J0D01*
G01*
D15*
%TO.C,R35*%
X172083400Y-74857236D02*
X172083400Y-75311364D01*
X170613400Y-74857236D02*
X170613400Y-75311364D01*
D16*
%TO.C,U3*%
X159293828Y-42473787D02*
X159293828Y-47526213D01*
X156251004Y-42473787D02*
X159293828Y-42473787D01*
X159293828Y-47526213D02*
X156251004Y-47526213D01*
X156251004Y-47526213D02*
X156251004Y-42473787D01*
D17*
X155150114Y-42348489D02*
G75*
G03*
X155150114Y-42348489I-150114J0D01*
G01*
D11*
X154802388Y-42549911D02*
G75*
G03*
X154802388Y-42549911I-29972J0D01*
G01*
D17*
X157153416Y-43094996D02*
G75*
G03*
X157153416Y-43094996I-150114J0D01*
G01*
D15*
%TO.C,R34*%
X168527400Y-75005836D02*
X168527400Y-75459964D01*
X167057400Y-75005836D02*
X167057400Y-75459964D01*
%TO.C,R20*%
X118415000Y-90326962D02*
X118415000Y-89872834D01*
X119885000Y-90326962D02*
X119885000Y-89872834D01*
D16*
%TO.C,D2*%
X142851207Y-51726213D02*
X141098755Y-51726213D01*
X142851207Y-50273787D02*
X141098755Y-50273787D01*
X142446761Y-51726213D02*
X142446761Y-50273787D01*
D14*
X141098755Y-51726213D02*
X141098755Y-51529997D01*
X141098755Y-50273787D02*
X141098755Y-50480010D01*
D11*
X143254965Y-50349987D02*
G75*
G03*
X143254965Y-50349987I-29997J0D01*
G01*
D15*
%TO.C,R40*%
X147410000Y-104585360D02*
X147410000Y-105039488D01*
X145940000Y-104585360D02*
X145940000Y-105039488D01*
%TO.C,R29*%
X154024000Y-69114936D02*
X154024000Y-69569064D01*
X152554000Y-69114936D02*
X152554000Y-69569064D01*
%TO.C,R47*%
X105075000Y-114189602D02*
X105075000Y-113735474D01*
X106545000Y-114189602D02*
X106545000Y-113735474D01*
%TO.C,R4*%
X108314564Y-48735000D02*
X107860436Y-48735000D01*
X108314564Y-47265000D02*
X107860436Y-47265000D01*
%TO.C,J8*%
X100770000Y-62280000D02*
X100770000Y-60950000D01*
X102100000Y-62280000D02*
X100770000Y-62280000D01*
X103370000Y-62280000D02*
X161850000Y-62280000D01*
X103370000Y-62280000D02*
X103370000Y-59620000D01*
X161850000Y-62280000D02*
X161850000Y-59620000D01*
X103370000Y-59620000D02*
X161850000Y-59620000D01*
%TO.C,J1*%
X172330000Y-54730000D02*
X172330000Y-52130000D01*
X172330000Y-54730000D02*
X169670000Y-54730000D01*
X172330000Y-52130000D02*
X169670000Y-52130000D01*
X171000000Y-57330000D02*
X169670000Y-57330000D01*
X169670000Y-57330000D02*
X169670000Y-56000000D01*
X169670000Y-54730000D02*
X169670000Y-52130000D01*
D16*
%TO.C,Q6*%
X100783787Y-93773787D02*
X100783787Y-94805410D01*
X100783787Y-96826213D02*
X100783787Y-95794590D01*
X102236213Y-93773787D02*
X100783787Y-93773787D01*
X102236213Y-94844602D02*
X102236213Y-95755398D01*
X102236213Y-96826213D02*
X100783787Y-96826213D01*
D11*
X102739997Y-96750013D02*
G75*
G03*
X102739997Y-96750013I-29997J0D01*
G01*
D15*
%TO.C,R6*%
X105265000Y-55227064D02*
X105265000Y-54772936D01*
X106735000Y-55227064D02*
X106735000Y-54772936D01*
D16*
%TO.C,C14*%
X162467797Y-74424233D02*
X163160203Y-74424233D01*
X163312603Y-74576633D02*
X163312603Y-75366727D01*
X162315397Y-75366727D02*
X162315397Y-74576633D01*
X162315397Y-75819153D02*
X162315397Y-76609247D01*
X163312603Y-76609247D02*
X163312603Y-75819153D01*
X162467797Y-76761647D02*
X163160203Y-76761647D01*
X163312603Y-74576633D02*
G75*
G03*
X163160203Y-74424233I-152400J0D01*
G01*
X162467797Y-74424233D02*
G75*
G03*
X162315397Y-74576633I0J-152400D01*
G01*
X163160203Y-76761643D02*
G75*
G03*
X163312603Y-76609247I-3J152403D01*
G01*
X162315393Y-76609247D02*
G75*
G03*
X162467797Y-76761647I152407J7D01*
G01*
D11*
X162593984Y-75092940D02*
G75*
G03*
X162593984Y-75092940I-29997J0D01*
G01*
D14*
%TO.C,Q8*%
X123386043Y-95591621D02*
X124127724Y-95591621D01*
X124127724Y-95591621D02*
X124127724Y-95035360D01*
X127936208Y-95591621D02*
X128677889Y-95591621D01*
X128677889Y-95591621D02*
X128677889Y-95035360D01*
D16*
X122673876Y-95036604D02*
X129426276Y-95036604D01*
D14*
X123386043Y-95035360D02*
X123386043Y-95591621D01*
X124127724Y-95035360D02*
X124117310Y-95035360D01*
X127936208Y-95035360D02*
X127936208Y-95591621D01*
X128677889Y-95035360D02*
X128667475Y-95035360D01*
D16*
X122673876Y-88784229D02*
X122673876Y-95036604D01*
X129426276Y-88784229D02*
X129426276Y-95036604D01*
D20*
X122730796Y-95541473D02*
G75*
G03*
X122730798Y-95544301I-199994J-1555D01*
G01*
D11*
X122705397Y-97875466D02*
G75*
G03*
X122705397Y-97875466I-29997J0D01*
G01*
D15*
%TO.C,R25*%
X130302180Y-110835000D02*
X130756308Y-110835000D01*
X130302180Y-112305000D02*
X130756308Y-112305000D01*
D16*
%TO.C,C17*%
X159419797Y-67882208D02*
X160112203Y-67882208D01*
X160264603Y-68034608D02*
X160264603Y-68824702D01*
X159267397Y-68824702D02*
X159267397Y-68034608D01*
X159267397Y-69277128D02*
X159267397Y-70067222D01*
X160264603Y-70067222D02*
X160264603Y-69277128D01*
X159419797Y-70219622D02*
X160112203Y-70219622D01*
X160264603Y-68034608D02*
G75*
G03*
X160112203Y-67882208I-152400J0D01*
G01*
X159419797Y-67882208D02*
G75*
G03*
X159267397Y-68034608I0J-152400D01*
G01*
X160112203Y-70219618D02*
G75*
G03*
X160264603Y-70067222I-3J152403D01*
G01*
X159267393Y-70067222D02*
G75*
G03*
X159419797Y-70219622I152407J7D01*
G01*
D11*
X159545984Y-68550915D02*
G75*
G03*
X159545984Y-68550915I-29997J0D01*
G01*
D16*
%TO.C,C4*%
X99123774Y-53709373D02*
X100876226Y-53709373D01*
X100876226Y-55989866D02*
X100876226Y-52637516D01*
X99123774Y-55989866D02*
X99123774Y-52637516D01*
D11*
X100918975Y-52535687D02*
G75*
G03*
X100918975Y-52535687I-29973J0D01*
G01*
D16*
%TO.C,C13*%
X159419797Y-74551233D02*
X160112203Y-74551233D01*
X160264603Y-74703633D02*
X160264603Y-75493727D01*
X159267397Y-75493727D02*
X159267397Y-74703633D01*
X159267397Y-75946153D02*
X159267397Y-76736247D01*
X160264603Y-76736247D02*
X160264603Y-75946153D01*
X159419797Y-76888647D02*
X160112203Y-76888647D01*
X160264603Y-74703633D02*
G75*
G03*
X160112203Y-74551233I-152400J0D01*
G01*
X159419797Y-74551233D02*
G75*
G03*
X159267397Y-74703633I0J-152400D01*
G01*
X160112203Y-76888643D02*
G75*
G03*
X160264603Y-76736247I-3J152403D01*
G01*
X159267393Y-76736247D02*
G75*
G03*
X159419797Y-76888647I152407J7D01*
G01*
D11*
X159545984Y-75219940D02*
G75*
G03*
X159545984Y-75219940I-29997J0D01*
G01*
D16*
%TO.C,C16*%
X159419797Y-71057208D02*
X160112203Y-71057208D01*
X160264603Y-71209608D02*
X160264603Y-71999702D01*
X159267397Y-71999702D02*
X159267397Y-71209608D01*
X159267397Y-72452128D02*
X159267397Y-73242222D01*
X160264603Y-73242222D02*
X160264603Y-72452128D01*
X159419797Y-73394622D02*
X160112203Y-73394622D01*
X160264603Y-71209608D02*
G75*
G03*
X160112203Y-71057208I-152400J0D01*
G01*
X159419797Y-71057208D02*
G75*
G03*
X159267397Y-71209608I0J-152400D01*
G01*
X160112203Y-73394618D02*
G75*
G03*
X160264603Y-73242222I-3J152403D01*
G01*
X159267393Y-73242222D02*
G75*
G03*
X159419797Y-73394622I152407J7D01*
G01*
D11*
X159545984Y-71725915D02*
G75*
G03*
X159545984Y-71725915I-29997J0D01*
G01*
D15*
%TO.C,R48*%
X99375000Y-99414564D02*
X99375000Y-98960436D01*
X100845000Y-99414564D02*
X100845000Y-98960436D01*
%TO.C,R5*%
X94735000Y-42860436D02*
X94735000Y-43314564D01*
X93265000Y-42860436D02*
X93265000Y-43314564D01*
%TO.C,R28*%
X142902000Y-69719564D02*
X142902000Y-69265436D01*
X144372000Y-69719564D02*
X144372000Y-69265436D01*
%TO.C,R11*%
X145772936Y-56265000D02*
X146227064Y-56265000D01*
X145772936Y-57735000D02*
X146227064Y-57735000D01*
%TO.C,J6*%
X184842800Y-72505200D02*
X184842800Y-72085200D01*
X186452800Y-72505200D02*
X184842800Y-72505200D01*
X189192800Y-72505200D02*
X188792800Y-72505200D01*
X184512800Y-70505200D02*
X184062800Y-70505200D01*
X184062800Y-70055200D02*
X184062800Y-70505200D01*
X184842800Y-64985200D02*
X184842800Y-65405200D01*
X186452800Y-64985200D02*
X184842800Y-64985200D01*
X188792800Y-64985200D02*
X189192800Y-64985200D01*
%TO.C,R26*%
X143156000Y-74244564D02*
X143156000Y-73790436D01*
X144626000Y-74244564D02*
X144626000Y-73790436D01*
%TO.C,R17*%
X165314564Y-57735000D02*
X164860436Y-57735000D01*
X165314564Y-56265000D02*
X164860436Y-56265000D01*
%TO.C,R18*%
X132664564Y-97147500D02*
X132210436Y-97147500D01*
X132664564Y-95677500D02*
X132210436Y-95677500D01*
D16*
%TO.C,C6*%
X125578981Y-102890335D02*
X125578981Y-101009919D01*
X125731382Y-100857518D02*
X127216370Y-100857518D01*
X127216370Y-103042736D02*
X125731382Y-103042736D01*
X129068796Y-103042736D02*
X130553784Y-103042736D01*
X130553784Y-100857518D02*
X129068796Y-100857518D01*
X130706185Y-102890335D02*
X130706185Y-101009919D01*
X125731382Y-100857518D02*
G75*
G03*
X125578981Y-101009919I-1J-152400D01*
G01*
X125578981Y-102890335D02*
G75*
G03*
X125731382Y-103042736I152400J-1D01*
G01*
X130706192Y-101009919D02*
G75*
G03*
X130553784Y-100857518I-152409J-8D01*
G01*
X130553784Y-103042729D02*
G75*
G03*
X130706185Y-102890335I-1J152402D01*
G01*
D11*
X126572606Y-102750229D02*
G75*
G03*
X126572606Y-102750229I-29972J0D01*
G01*
D16*
%TO.C,C10*%
X137149207Y-74369602D02*
X135646793Y-74369602D01*
X135494393Y-74217201D02*
X135494393Y-72807194D01*
X137301607Y-72807194D02*
X137301607Y-74217201D01*
X137301607Y-72004806D02*
X137301607Y-70594799D01*
X135494393Y-70594799D02*
X135494393Y-72004806D01*
X137149207Y-70442398D02*
X135646793Y-70442398D01*
X135494392Y-74217201D02*
G75*
G03*
X135646793Y-74369602I152400J-1D01*
G01*
X137149207Y-74369601D02*
G75*
G03*
X137301607Y-74217201I0J152400D01*
G01*
X135646793Y-70442393D02*
G75*
G03*
X135494393Y-70594799I7J-152407D01*
G01*
X137301602Y-70594799D02*
G75*
G03*
X137149207Y-70442398I-152402J-1D01*
G01*
D11*
X137053067Y-73406000D02*
G75*
G03*
X137053067Y-73406000I-29972J0D01*
G01*
D15*
%TO.C,R23*%
X121981308Y-112355000D02*
X121527180Y-112355000D01*
X121981308Y-110885000D02*
X121527180Y-110885000D01*
%TO.C,J15*%
X104480000Y-103470000D02*
X104480000Y-104800000D01*
X103150000Y-103470000D02*
X104480000Y-103470000D01*
X101880000Y-103470000D02*
X99280000Y-103470000D01*
X101880000Y-103470000D02*
X101880000Y-106130000D01*
X99280000Y-103470000D02*
X99280000Y-106130000D01*
X101880000Y-106130000D02*
X99280000Y-106130000D01*
%TO.C,J5*%
X94670000Y-63190000D02*
X94670000Y-86110000D01*
X94670000Y-63190000D02*
X97330000Y-63190000D01*
X94670000Y-86110000D02*
X97330000Y-86110000D01*
X96000000Y-60590000D02*
X97330000Y-60590000D01*
X97330000Y-60590000D02*
X97330000Y-61920000D01*
X97330000Y-63190000D02*
X97330000Y-86110000D01*
%TO.C,R14*%
X156314564Y-57735000D02*
X155860436Y-57735000D01*
X156314564Y-56265000D02*
X155860436Y-56265000D01*
%TO.C,J11*%
X100650000Y-85280000D02*
X100650000Y-83950000D01*
X101980000Y-85280000D02*
X100650000Y-85280000D01*
X103250000Y-85280000D02*
X161730000Y-85280000D01*
X103250000Y-85280000D02*
X103250000Y-82620000D01*
X161730000Y-85280000D02*
X161730000Y-82620000D01*
X103250000Y-82620000D02*
X161730000Y-82620000D01*
D16*
%TO.C,C1*%
X94123774Y-49395682D02*
X95876226Y-49395682D01*
X95876226Y-51676175D02*
X95876226Y-48323825D01*
X94123774Y-51676175D02*
X94123774Y-48323825D01*
D11*
X95918975Y-48221996D02*
G75*
G03*
X95918975Y-48221996I-29973J0D01*
G01*
D15*
%TO.C,R24*%
X126468808Y-112355000D02*
X126014680Y-112355000D01*
X126468808Y-110885000D02*
X126014680Y-110885000D01*
%TO.C,R21*%
X114214564Y-89897500D02*
X113760436Y-89897500D01*
X114214564Y-88427500D02*
X113760436Y-88427500D01*
%TO.C,R41*%
X147510000Y-89710398D02*
X147510000Y-90164526D01*
X146040000Y-89710398D02*
X146040000Y-90164526D01*
%TO.C,R37*%
X140235436Y-94114962D02*
X140689564Y-94114962D01*
X140235436Y-95584962D02*
X140689564Y-95584962D01*
%TO.C,U7*%
X167634600Y-69051400D02*
X167634600Y-72501400D01*
X167634600Y-69051400D02*
X167634600Y-67101400D01*
X177754600Y-69051400D02*
X177754600Y-71001400D01*
X177754600Y-69051400D02*
X177754600Y-67101400D01*
%TO.C,R43*%
X149985436Y-93064924D02*
X150439564Y-93064924D01*
X149985436Y-94534924D02*
X150439564Y-94534924D01*
%TO.C,R10*%
X137139564Y-56735000D02*
X136685436Y-56735000D01*
X137139564Y-55265000D02*
X136685436Y-55265000D01*
D16*
%TO.C,C9*%
X130086208Y-88358703D02*
X130086208Y-87666297D01*
X130238608Y-87513897D02*
X131028702Y-87513897D01*
X131028702Y-88511103D02*
X130238608Y-88511103D01*
X131481128Y-88511103D02*
X132271222Y-88511103D01*
X132271222Y-87513897D02*
X131481128Y-87513897D01*
X132423622Y-88358703D02*
X132423622Y-87666297D01*
X130238608Y-87513897D02*
G75*
G03*
X130086208Y-87666297I0J-152400D01*
G01*
X130086208Y-88358703D02*
G75*
G03*
X130238608Y-88511103I152400J0D01*
G01*
X132423618Y-87666297D02*
G75*
G03*
X132271222Y-87513897I-152403J-3D01*
G01*
X132271222Y-88511107D02*
G75*
G03*
X132423622Y-88358703I-7J152407D01*
G01*
D11*
X130784912Y-88262513D02*
G75*
G03*
X130784912Y-88262513I-29997J0D01*
G01*
D15*
%TO.C,Q1*%
X127000000Y-54440000D02*
X125325000Y-54440000D01*
X127000000Y-54440000D02*
X127650000Y-54440000D01*
X127000000Y-57560000D02*
X126350000Y-57560000D01*
X127000000Y-57560000D02*
X127650000Y-57560000D01*
D16*
%TO.C,C8*%
X131398793Y-90398898D02*
X132901207Y-90398898D01*
X133053607Y-90551299D02*
X133053607Y-91961306D01*
X131246393Y-91961306D02*
X131246393Y-90551299D01*
X131246393Y-92763694D02*
X131246393Y-94173701D01*
X133053607Y-94173701D02*
X133053607Y-92763694D01*
X131398793Y-94326102D02*
X132901207Y-94326102D01*
X133053608Y-90551299D02*
G75*
G03*
X132901207Y-90398898I-152400J1D01*
G01*
X131398793Y-90398899D02*
G75*
G03*
X131246393Y-90551299I0J-152400D01*
G01*
X132901207Y-94326107D02*
G75*
G03*
X133053607Y-94173701I-7J152407D01*
G01*
X131246398Y-94173701D02*
G75*
G03*
X131398793Y-94326102I152402J1D01*
G01*
D11*
X131554877Y-91362500D02*
G75*
G03*
X131554877Y-91362500I-29972J0D01*
G01*
D15*
%TO.C,J4*%
X123871744Y-117250000D02*
X126471744Y-117250000D01*
X123871744Y-117250000D02*
X123871744Y-114590000D01*
X126471744Y-117250000D02*
X126471744Y-114590000D01*
X121271744Y-115920000D02*
X121271744Y-114590000D01*
X121271744Y-114590000D02*
X122601744Y-114590000D01*
X123871744Y-114590000D02*
X126471744Y-114590000D01*
%TO.C,R2*%
X93265000Y-56139564D02*
X93265000Y-55685436D01*
X94735000Y-56139564D02*
X94735000Y-55685436D01*
%TO.C,R9*%
X134139564Y-52735000D02*
X133685436Y-52735000D01*
X134139564Y-51265000D02*
X133685436Y-51265000D01*
%TO.C,R33*%
X178182600Y-75307564D02*
X178182600Y-74853436D01*
X179652600Y-75307564D02*
X179652600Y-74853436D01*
%TO.C,R46*%
X104800000Y-99489602D02*
X104800000Y-99035474D01*
X106270000Y-99489602D02*
X106270000Y-99035474D01*
%TO.C,R30*%
X150468000Y-69114936D02*
X150468000Y-69569064D01*
X148998000Y-69114936D02*
X148998000Y-69569064D01*
D16*
%TO.C,Q4*%
X145976213Y-110251137D02*
X145976213Y-109219514D01*
X145976213Y-107198711D02*
X145976213Y-108230334D01*
X144523787Y-110251137D02*
X145976213Y-110251137D01*
X144523787Y-109180322D02*
X144523787Y-108269526D01*
X144523787Y-107198711D02*
X145976213Y-107198711D01*
D11*
X144079997Y-107274911D02*
G75*
G03*
X144079997Y-107274911I-29997J0D01*
G01*
D15*
%TO.C,R16*%
X165860436Y-47265000D02*
X166314564Y-47265000D01*
X165860436Y-48735000D02*
X166314564Y-48735000D01*
%TO.C,R12*%
X150685436Y-56265000D02*
X151139564Y-56265000D01*
X150685436Y-57735000D02*
X151139564Y-57735000D01*
%TO.C,R27*%
X146458000Y-69616064D02*
X146458000Y-69161936D01*
X147928000Y-69616064D02*
X147928000Y-69161936D01*
%TO.C,R42*%
X149910436Y-107989924D02*
X150364564Y-107989924D01*
X149910436Y-109459924D02*
X150364564Y-109459924D01*
%TO.C,J9*%
X103390000Y-66280000D02*
X161870000Y-66280000D01*
X103390000Y-66280000D02*
X103390000Y-63620000D01*
X161870000Y-66280000D02*
X161870000Y-63620000D01*
X100790000Y-64950000D02*
X100790000Y-63620000D01*
X100790000Y-63620000D02*
X102120000Y-63620000D01*
X103390000Y-63620000D02*
X161870000Y-63620000D01*
%TO.C,J3*%
X113670000Y-97422500D02*
X113670000Y-97542500D01*
X113670000Y-97542500D02*
X116330000Y-97542500D01*
X115000000Y-94882500D02*
X116330000Y-94882500D01*
X116330000Y-94882500D02*
X116330000Y-96212500D01*
X116330000Y-97422500D02*
X116330000Y-97542500D01*
%TO.C,R44*%
X106649564Y-95035000D02*
X106195436Y-95035000D01*
X106649564Y-93565000D02*
X106195436Y-93565000D01*
%TO.C,R7*%
X179265000Y-56139564D02*
X179265000Y-55685436D01*
X180735000Y-56139564D02*
X180735000Y-55685436D01*
%TO.C,U1*%
X100570000Y-42190000D02*
X97120000Y-42190000D01*
X100570000Y-42190000D02*
X102520000Y-42190000D01*
X100570000Y-47310000D02*
X98620000Y-47310000D01*
X100570000Y-47310000D02*
X102520000Y-47310000D01*
D16*
%TO.C,C2*%
X178713792Y-47653797D02*
X178713792Y-48346203D01*
X178561392Y-48498603D02*
X177771298Y-48498603D01*
X177771298Y-47501397D02*
X178561392Y-47501397D01*
X177318872Y-47501397D02*
X176528778Y-47501397D01*
X176528778Y-48498603D02*
X177318872Y-48498603D01*
X176376378Y-47653797D02*
X176376378Y-48346203D01*
X178561392Y-48498603D02*
G75*
G03*
X178713792Y-48346203I0J152400D01*
G01*
X178713792Y-47653797D02*
G75*
G03*
X178561392Y-47501397I-152400J0D01*
G01*
X176376382Y-48346203D02*
G75*
G03*
X176528778Y-48498603I152403J3D01*
G01*
X176528778Y-47501393D02*
G75*
G03*
X176376378Y-47653797I7J-152407D01*
G01*
D11*
X178075082Y-47749987D02*
G75*
G03*
X178075082Y-47749987I-29997J0D01*
G01*
D15*
%TO.C,J13*%
X143145000Y-100579962D02*
X143145000Y-99249962D01*
X144475000Y-100579962D02*
X143145000Y-100579962D01*
X145745000Y-100579962D02*
X148345000Y-100579962D01*
X145745000Y-100579962D02*
X145745000Y-97919962D01*
X148345000Y-100579962D02*
X148345000Y-97919962D01*
X145745000Y-97919962D02*
X148345000Y-97919962D01*
%TD*%
M02*
